<?xml version="1.0" encoding="UTF-8" standalone="no"?>
<!-- Created with Inkscape (http://www.inkscape.org/) -->

<svg
   xmlns:dc="http://purl.org/dc/elements/1.1/"
   xmlns:cc="http://creativecommons.org/ns#"
   xmlns:rdf="http://www.w3.org/1999/02/22-rdf-syntax-ns#"
   xmlns:svg="http://www.w3.org/2000/svg"
   xmlns="http://www.w3.org/2000/svg"
   xmlns:sodipodi="http://sodipodi.sourceforge.net/DTD/sodipodi-0.dtd"
   xmlns:inkscape="http://www.inkscape.org/namespaces/inkscape"
   width="20"
   height="20"
   viewBox="0 0 5.2916665 5.2916668"
   version="1.1"
   id="svg980"
   inkscape:version="0.92.5 (2060ec1f9f, 2020-04-08)"
   sodipodi:docname="config.svg">
  <defs
     id="defs974" />
  <sodipodi:namedview
     id="base"
     pagecolor="#ffffff"
     bordercolor="#666666"
     borderopacity="1.0"
     inkscape:pageopacity="0.0"
     inkscape:pageshadow="2"
     inkscape:zoom="11.2"
     inkscape:cx="15.064602"
     inkscape:cy="7.2004124"
     inkscape:document-units="mm"
     inkscape:current-layer="layer1"
     showgrid="false"
     units="px"
     inkscape:window-width="1920"
     inkscape:window-height="1023"
     inkscape:window-x="1080"
     inkscape:window-y="437"
     inkscape:window-maximized="1"
     showguides="false" />
  <metadata
     id="metadata977">
    <rdf:RDF>
      <cc:Work
         rdf:about="">
        <dc:format>image/svg+xml</dc:format>
        <dc:type
           rdf:resource="http://purl.org/dc/dcmitype/StillImage" />
        <dc:title></dc:title>
      </cc:Work>
    </rdf:RDF>
  </metadata>
  <g
     inkscape:label="Layer 1"
     inkscape:groupmode="layer"
     id="layer1"
     transform="translate(0,-291.70832)">
    <path
       inkscape:connector-curvature="0"
       id="path931"
       d="m -2.1149845,303.637 c -0.2707562,-0.046 -0.5025192,-0.24564 -0.5900817,-0.50844 -0.014561,-0.0437 -0.026543,-0.0926 -0.026628,-0.10866 -1.102e-4,-0.0196 -0.003,-0.0248 -0.00877,-0.0156 -0.019231,0.0304 -0.022068,-0.21316 -0.020988,-1.80296 9.658e-4,-1.40469 0.00574,-1.85255 0.018876,-1.76556 0.0013,0.008 0.00851,-0.0124 0.016036,-0.0466 0.033663,-0.15265 0.1134216,-0.29145 0.227137,-0.39525 0.084681,-0.0772 0.159393,-0.12182 0.2722807,-0.1622 l 0.090671,-0.0324 0.8369798,-0.003 c 0.934803,-0.004 0.8999481,-0.006 0.9717144,0.0679 0.092451,0.0949 0.094383,0.23813 0.00448,0.33185 -0.070559,0.0736 -0.00728,0.0685 -0.9127912,0.0742 -0.8016884,0.006 -0.8184924,0.006 -0.8642722,0.0268 -0.056244,0.0261 -0.1064477,0.0744 -0.1374095,0.13224 l -0.022886,0.0428 -0.00271,1.72266 c -0.00304,1.92946 -0.00822,1.79282 0.071341,1.87914 0.022945,0.0249 0.063461,0.056 0.090035,0.0691 l 0.048315,0.0238 h 1.4799328 1.4799332 l 0.048856,-0.0243 c 0.026868,-0.0133 0.065745,-0.043 0.086386,-0.0659 0.073285,-0.0811 0.071177,-0.0648 0.076917,-0.59294 0.00577,-0.53142 0.00211,-0.50543 0.081391,-0.57706 0.062736,-0.0566 0.1444631,-0.0731 0.2330585,-0.0468 0.056012,0.0166 0.1323297,0.093 0.1489633,0.14898 0.00914,0.0308 0.012648,0.16969 0.012648,0.49978 0,0.52445 -0.00366,0.55795 -0.077667,0.70986 -0.097658,0.20048 -0.2429558,0.32529 -0.4656646,0.40002 l -0.072445,0.0243 -1.5213293,0.002 c -0.8367309,7.3e-4 -1.5442659,-0.003 -1.5722987,-0.007 z m 1.0107413,-1.39971 c -0.050871,-0.019 -0.1032748,-0.0651 -0.1292745,-0.11381 -0.022974,-0.0429 -0.02326,-0.0485 -0.02326,-0.44714 0,-0.35078 0.00248,-0.41514 0.018792,-0.49159 0.042474,-0.19882 0.1130615,-0.36116 0.2308695,-0.53093 0.044758,-0.0645 0.2837568,-0.30988 0.9964484,-1.02308 1.0009113,-1.00164 1.0066261,-1.00686 1.1793338,-1.07934 0.4740027,-0.19889 1.0184977,7.5e-4 1.2471987,0.45704 0.041321,0.0825 0.089196,0.23562 0.089443,0.28615 1.099e-4,0.0223 0.00297,0.0281 0.00912,0.0183 0.012016,-0.0189 0.01864,0.10664 0.01057,0.20041 -0.00344,0.0398 -0.0073,0.0655 -0.00859,0.0569 -0.00129,-0.008 -0.010718,0.0241 -0.020936,0.0725 -0.010218,0.0484 -0.033285,0.12328 -0.051259,0.16644 -0.074449,0.17876 -0.070237,0.17415 -1.0866132,1.19032 -0.7255548,0.72542 -0.9681776,0.96186 -1.0334577,1.00712 -0.1470275,0.10196 -0.3189611,0.17738 -0.4994203,0.21908 -0.065156,0.0151 -0.1432522,0.0185 -0.4864119,0.0211 -0.3029259,0.002 -0.4175322,-1.1e-4 -0.4425419,-0.01 z m 0.7976082,-0.47811 c 0.1125522,-0.0196 0.2034315,-0.0527 0.2990657,-0.10861 0.063969,-0.0374 0.1698348,-0.1383 0.693849,-0.66101 0.3400993,-0.33925 0.6183629,-0.62154 0.6183629,-0.62731 0,-0.0137 -0.6641968,-0.67813 -0.6779296,-0.67813 -0.017405,0 -1.2208286,1.21201 -1.2570116,1.26598 -0.051294,0.0765 -0.1100295,0.21059 -0.1300038,0.29674 -0.022793,0.0983 -0.034701,0.47075 -0.016158,0.5054 0.011613,0.0217 0.017874,0.0224 0.1965621,0.0224 0.1172963,0 0.2168931,-0.006 0.2732636,-0.0154 z m 2.1218082,-1.89809 c 0.1145052,-0.11633 0.1476975,-0.15692 0.1735467,-0.21216 0.042593,-0.0911 0.057606,-0.19007 0.042563,-0.28084 -0.057416,-0.34651 -0.4447308,-0.5252 -0.7380883,-0.34053 -0.059594,0.0375 -0.3093759,0.2828 -0.3093759,0.30381 0,0.0213 0.6520848,0.67357 0.6734101,0.67357 0.009,0 0.080071,-0.0647 0.1579444,-0.14385 z"
       style="fill:#cdd2d4;fill-opacity:1;stroke-width:0.01034918" />
    <path
       style="fill:#cdd2d4;fill-opacity:1;stroke:#cdd2d4;stroke-width:0.01;stroke-miterlimit:4;stroke-dasharray:none;stroke-opacity:1"
       d="m -10.682882,297.08494 c -0.221367,-0.0327 -0.367445,-0.1039 -0.516205,-0.25109 -0.21215,-0.20998 -0.27511,-0.44578 -0.241729,-0.90533 0.02191,-0.30167 0.0766,-0.58357 0.152498,-0.7862 0.04469,-0.1193 0.141661,-0.30129 0.203026,-0.38105 0.18677,-0.24271 0.450517,-0.37762 0.749427,-0.38332 0.111823,-0.002 0.121621,0.002 0.3565494,0.15136 0.1784543,0.11344 0.1870668,0.11799 0.3102782,0.16368 0.1719744,0.0638 0.2573797,0.08 0.4199041,0.0795 0.2524657,-7.1e-4 0.4502524,-0.0675 0.727096,-0.24562 0.2416005,-0.15541 0.2566432,-0.16074 0.4121777,-0.14601 0.5537189,0.0525 0.8917064,0.47334 1.0156748,1.26476 0.043646,0.27863 0.046989,0.65508 0.00714,0.80758 -0.080142,0.30693 -0.3096064,0.52909 -0.6338215,0.61369 l -0.092595,0.0241 -1.404288,0.001 c -0.7723588,8.4e-4 -1.4316787,-0.002 -1.4651567,-0.008 z m 2.8575288,-0.31248 c 0.170438,-0.0304 0.3188568,-0.1334 0.3905293,-0.27109 0.049198,-0.0945 0.068925,-0.19146 0.068812,-0.33826 -2.91e-4,-0.40714 -0.072936,-0.79741 -0.1930053,-1.03703 -0.1342213,-0.26788 -0.3035988,-0.40185 -0.5518809,-0.43652 -0.08293,-0.0116 -0.062376,-0.0201 -0.2669654,0.11013 -0.1787898,0.11378 -0.2786824,0.162 -0.4397612,0.21227 -0.1597373,0.0499 -0.2751224,0.0678 -0.4356472,0.0678 -0.1651475,0 -0.2898875,-0.0201 -0.4490479,-0.0721 -0.1694838,-0.0554 -0.2505188,-0.0955 -0.4446162,-0.21977 l -0.170847,-0.10934 -0.07496,0.0102 c -0.286238,0.04 -0.482482,0.22104 -0.607704,0.56054 -0.09255,0.2509 -0.155301,0.70304 -0.137782,0.99277 0.0179,0.29602 0.187566,0.48564 0.478462,0.53472 0.02642,0.005 0.656817,0.008 1.4008838,0.009 1.1160229,7.2e-4 1.3669725,-10e-4 1.4335245,-0.0135 z m -1.5672655,-2.4138 c -0.4058189,-0.0279 -0.7805903,-0.26564 -0.9956613,-0.63174 -0.186802,-0.31796 -0.217099,-0.75666 -0.07618,-1.10295 0.151348,-0.37191 0.493351,-0.6692 0.8712215,-0.75732 0.4515554,-0.10527 0.8851663,0.0167 1.2046961,0.33874 0.2203736,0.22216 0.3387093,0.4763 0.3626819,0.77888 0.024066,0.30375 -0.041595,0.56776 -0.2025367,0.81434 -0.061424,0.0942 -0.2647344,0.29764 -0.3569645,0.35735 -0.2449983,0.15861 -0.5035893,0.22353 -0.807264,0.2027 z m 0.2044538,-0.30789 c 0.1223922,-0.0129 0.2031973,-0.0339 0.2964855,-0.0769 0.2621861,-0.121 0.4641833,-0.35894 0.5342163,-0.62926 0.02129,-0.0821 0.026333,-0.12637 0.026842,-0.23494 7.253e-4,-0.15332 -0.011353,-0.22926 -0.056099,-0.35292 -0.085774,-0.23704 -0.3274293,-0.47624 -0.5701257,-0.56434 -0.1648256,-0.0598 -0.3991485,-0.0699 -0.5746671,-0.0248 -0.3183106,0.0818 -0.5989171,0.36198 -0.6859481,0.68492 -0.03195,0.11854 -0.03239,0.36473 -8.68e-4,0.48487 0.04381,0.16697 0.112661,0.28658 0.2439957,0.42383 0.1630366,0.17038 0.3505069,0.26447 0.5765673,0.28938 0.1032568,0.0114 0.1036081,0.0114 0.2095979,2.9e-4 z"
       id="path1448"
       inkscape:connector-curvature="0" />
    <path
       style="fill:#cdd2d4;fill-opacity:1;stroke-width:0.02031071"
       d="m -4.9661348,286.56379 c -0.062297,-0.0252 -0.098953,-0.0737 -0.1114293,-0.14751 -0.010913,-0.0646 -0.026102,-0.0824 -0.1015477,-0.11907 -0.087262,-0.0424 -0.08951,-0.0425 -0.1375004,-0.005 -0.103475,0.0814 -0.1490766,0.0752 -0.2594034,-0.0351 -0.055548,-0.0556 -0.1009946,-0.11931 -0.1009946,-0.14169 0,-0.0224 0.021391,-0.0722 0.047537,-0.11073 l 0.047537,-0.0701 -0.042602,-0.0902 c -0.035841,-0.0759 -0.052981,-0.0912 -0.1079794,-0.0965 -0.092181,-0.009 -0.1476821,-0.086 -0.147303,-0.2046 4.376e-4,-0.13724 0.035076,-0.19132 0.1386165,-0.21643 0.075584,-0.0183 0.092464,-0.0329 0.1265984,-0.10912 0.039116,-0.0874 0.03911,-0.0884 -0.00137,-0.15389 -0.060905,-0.0985 -0.05162,-0.15006 0.044728,-0.24823 0.096362,-0.0982 0.1702205,-0.11258 0.2511265,-0.049 0.047593,0.0375 0.050551,0.0374 0.1586903,-0.005 0.1014626,-0.0398 0.1111813,-0.0493 0.1227017,-0.12061 0.018725,-0.1158 0.1178224,-0.14746 0.3280532,-0.1048 0.043802,0.009 0.089803,0.0857 0.089803,0.14997 0,0.0252 0.032516,0.0505 0.1024067,0.0795 l 0.1024073,0.0426 0.078917,-0.0411 c 0.072827,-0.038 0.083545,-0.0387 0.1389024,-0.0101 0.085942,0.0444 0.1663773,0.14795 0.1663773,0.2141 0,0.0311 -0.017998,0.0795 -0.039998,0.10748 -0.039887,0.0507 -0.039874,0.0512 0.00404,0.15507 0.038084,0.0901 0.051719,0.10422 0.1009319,0.10422 0.097472,0 0.1381435,0.0623 0.1381435,0.21179 0,0.11683 -0.00559,0.13496 -0.053516,0.17264 -0.029433,0.0232 -0.077557,0.0421 -0.1069416,0.0421 -0.045822,0 -0.058606,0.0145 -0.089794,0.1024 -0.035903,0.10108 -0.035803,0.1033 0.00753,0.17342 0.038314,0.062 0.040726,0.0787 0.018943,0.13127 -0.035723,0.0863 -0.1519615,0.18192 -0.2210233,0.18192 -0.031615,0 -0.082383,-0.0196 -0.1128127,-0.0435 -0.053025,-0.0417 -0.058239,-0.0421 -0.125292,-0.0101 -0.038482,0.0183 -0.083258,0.0334 -0.099503,0.0334 -0.018694,0 -0.03425,0.0295 -0.042379,0.0803 -0.00707,0.0442 -0.02993,0.0958 -0.050812,0.11467 -0.038786,0.0351 -0.2063975,0.0578 -0.2617986,0.0354 z m 0.3285268,-0.73048 c 0.2916246,-0.2021 0.1442949,-0.65749 -0.212749,-0.65761 -0.271989,-7e-5 -0.4377144,0.27243 -0.3171419,0.5215 0.097218,0.20082 0.3447561,0.26441 0.5298909,0.13611 z m 1.5624705,-0.33057 c -0.022926,-0.0229 -0.047127,-0.067 -0.053764,-0.0981 -0.025015,-0.11677 -0.043727,-0.13805 -0.1516968,-0.17258 l -0.1069634,-0.0342 -0.085579,0.0701 c -0.1039783,0.0852 -0.1434037,0.0872 -0.2459123,0.0122 -0.2005823,-0.14666 -0.2280119,-0.21559 -0.142208,-0.35735 l 0.048506,-0.0801 -0.052838,-0.10774 c -0.052596,-0.10724 -0.053279,-0.10774 -0.1479132,-0.10774 -0.1450805,0 -0.1795229,-0.0392 -0.2033492,-0.23105 -0.016475,-0.1327 -0.01458,-0.16734 0.011336,-0.20689 0.027028,-0.0413 0.1379559,-0.0897 0.2062129,-0.09 0.012305,-7e-5 0.038439,-0.0595 0.058077,-0.13201 l 0.035698,-0.13189 -0.063152,-0.0719 c -0.083179,-0.0947 -0.080655,-0.15668 0.010944,-0.26846 0.1527763,-0.18644 0.1998036,-0.20381 0.3237526,-0.11959 l 0.07072,0.048 0.1313092,-0.0697 c 0.1310376,-0.0696 0.1313085,-0.0699 0.1313085,-0.15897 0,-0.12856 0.045399,-0.16322 0.2364808,-0.18054 0.1757965,-0.0159 0.242002,0.0106 0.262215,0.1052 0.025493,0.11927 0.042043,0.13606 0.1706574,0.17311 l 0.125911,0.0363 0.070221,-0.0617 c 0.038625,-0.0339 0.090506,-0.0616 0.1152993,-0.0616 0.054274,0 0.2974596,0.19404 0.3020082,0.24098 0.00666,0.0687 -0.00472,0.11032 -0.046045,0.16833 l -0.042546,0.0598 0.057922,0.12063 c 0.057375,0.11949 0.058748,0.12064 0.1451651,0.12091 0.1347745,3.8e-4 0.1793295,0.0575 0.1976675,0.25316 0.01353,0.14436 0.011168,0.16078 -0.028855,0.20096 -0.02397,0.024 -0.080826,0.053 -0.1263392,0.0643 -0.07884,0.0195 -0.084729,0.0265 -0.124596,0.14813 l -0.041844,0.12763 0.064061,0.0661 c 0.093907,0.0969 0.086726,0.16481 -0.032416,0.30656 -0.1198602,0.1426 -0.1670597,0.15683 -0.2909161,0.0877 l -0.093833,-0.0524 -0.1137369,0.0541 c -0.092362,0.0439 -0.1139624,0.0636 -0.1149381,0.10488 -0.00211,0.0887 -0.042161,0.202 -0.078029,0.2207 -0.019061,0.01 -0.1047757,0.0245 -0.1904783,0.0323 -0.1408053,0.0129 -0.1598418,0.0102 -0.1975128,-0.0275 z m 0.325315,-0.85097 c 0.3432135,-0.1793 0.3048807,-0.68758 -0.061328,-0.81323 -0.2215572,-0.076 -0.4725563,0.0375 -0.5636695,0.25494 -0.015065,0.0359 -0.027388,0.11303 -0.027388,0.1713 0,0.33826 0.3491816,0.54539 0.6523874,0.38699 z m -2.8656831,-0.18243 c -0.032721,-0.0265 -0.048351,-0.0683 -0.05886,-0.15742 -0.015456,-0.13109 -0.032037,-0.17198 -0.069854,-0.17229 -0.013306,-8e-5 -0.070867,-0.0219 -0.1279165,-0.0485 l -0.1037266,-0.0483 -0.099381,0.0787 c -0.1460444,0.11572 -0.1848496,0.10882 -0.3638131,-0.0647 -0.2011739,-0.19507 -0.2069033,-0.23124 -0.064726,-0.40867 l 0.060308,-0.0753 -0.056673,-0.13335 c -0.059979,-0.14112 -0.060147,-0.14124 -0.2328097,-0.16043 -0.1410166,-0.0157 -0.1626932,-0.0563 -0.1626932,-0.30493 0,-0.24128 0.021267,-0.28871 0.1376812,-0.30707 0.041571,-0.007 0.1052853,-0.0165 0.1415909,-0.0221 0.044585,-0.007 0.066074,-0.0214 0.066208,-0.0448 1.075e-4,-0.019 0.022976,-0.0836 0.050818,-0.14335 l 0.05062,-0.10874 -0.058034,-0.0741 c -0.097299,-0.12417 -0.1111285,-0.16144 -0.084117,-0.22665 0.037537,-0.0906 0.2911523,-0.32471 0.3518017,-0.32471 0.028159,0 0.094104,0.0327 0.1465491,0.0728 l 0.095353,0.0728 0.1143875,-0.0504 c 0.062913,-0.0277 0.1344607,-0.0564 0.1589954,-0.0636 0.035002,-0.0104 0.047295,-0.0338 0.057083,-0.10873 0.02714,-0.20769 0.068196,-0.23411 0.348132,-0.22401 0.2320906,0.008 0.2638973,0.031 0.2831774,0.2014 0.012939,0.11437 0.016065,0.11949 0.087047,0.14243 0.040496,0.0131 0.108642,0.0414 0.1514401,0.0629 0.075324,0.0378 0.07947,0.038 0.129487,0.002 0.1215731,-0.0866 0.1606044,-0.10768 0.1993885,-0.10779 0.024356,-6e-5 0.1050174,0.0642 0.1980298,0.15775 0.1859477,0.18705 0.1958833,0.22933 0.086282,0.3672 l -0.070255,0.0884 0.037239,0.0741 c 0.020484,0.0408 0.04791,0.10714 0.060955,0.1475 0.02279,0.0705 0.028203,0.0739 0.1381647,0.0852 0.1722242,0.0178 0.1974873,0.0526 0.2057486,0.28369 0.010093,0.28234 -0.015829,0.32243 -0.2262207,0.35002 -0.065317,0.009 -0.101513,0.0241 -0.1092964,0.0469 -0.0064,0.0188 -0.034312,0.0862 -0.062024,0.1498 l -0.050383,0.11567 0.073361,0.0895 c 0.1157007,0.14119 0.1053202,0.19261 -0.075366,0.37329 -0.1784782,0.17848 -0.2214223,0.18731 -0.3676787,0.0756 -0.05584,-0.0426 -0.1099464,-0.0688 -0.1298623,-0.0628 -0.028296,0.009 -0.2428528,0.0962 -0.2638756,0.1078 -0.00348,0.002 -0.014505,0.0616 -0.024505,0.13258 -0.025903,0.18386 -0.051546,0.20018 -0.3144584,0.20018 -0.1697277,0 -0.2170918,-0.007 -0.2533116,-0.0361 z m 0.4970401,-1.01866 c 0.098551,-0.0443 0.2180913,-0.16189 0.2667903,-0.26242 0.057711,-0.11912 0.060967,-0.32087 0.0072,-0.44586 -0.050663,-0.11776 -0.1869067,-0.2549 -0.3006006,-0.30257 -0.2747478,-0.11519 -0.6399592,0.0595 -0.7253392,0.34706 -0.057642,0.19409 -0.018825,0.37671 0.1115387,0.52482 0.1645303,0.18691 0.4135867,0.24096 0.6404153,0.13897 z"
       id="path865"
       inkscape:connector-curvature="0" />
    <path
       style="fill:#cdd2d4;fill-opacity:1;stroke:#cdd2d4;stroke-width:0.12481015;stroke-miterlimit:4;stroke-dasharray:none;stroke-opacity:1"
       d="m 17.921288,289.86352 c -0.193207,-0.0276 -0.522377,-0.12863 -0.746355,-0.22913 l -0.171266,-0.0769 0.0087,-0.39224 c 0.0084,-0.37673 0.01189,-0.39887 0.0884,-0.55942 0.04381,-0.0919 0.127719,-0.21638 0.186458,-0.2765 0.05874,-0.0601 0.106798,-0.11906 0.106798,-0.13094 0,-0.0119 -0.05654,-0.0524 -0.125643,-0.0899 -0.120081,-0.0654 -0.142617,-0.0684 -0.509076,-0.0684 h -0.383435 l -0.139196,0.0836 c -0.199827,0.11999 -0.282882,0.28489 -0.282882,0.56165 0,0.1994 0.0011,0.2027 0.07856,0.24278 0.04321,0.0224 0.177939,0.0661 0.299396,0.0971 0.25323,0.0648 0.314778,0.11937 0.221206,0.19624 -0.04846,0.0398 -0.07614,0.043 -0.191307,0.0221 -0.141325,-0.0257 -0.394427,-0.1141 -0.535603,-0.18711 l -0.0833,-0.0431 0.0091,-0.30015 c 0.008,-0.266 0.01725,-0.31679 0.08084,-0.44629 0.07953,-0.16196 0.199078,-0.28001 0.365334,-0.36078 l 0.109899,-0.0534 -0.08509,-0.11148 c -0.356356,-0.46685 0.0964,-1.16697 0.671343,-1.03812 0.318722,0.0714 0.530334,0.33295 0.530334,0.65545 0,0.16931 -0.04517,0.29961 -0.144985,0.41823 l -0.065,0.0773 0.08153,0.0338 c 0.04484,0.0186 0.131631,0.072 0.19286,0.11876 0.123512,0.0943 0.13005,0.096 0.227594,0.0588 l 0.06863,-0.026 -0.09156,-0.10134 c -0.1736,-0.19215 -0.209517,-0.29149 -0.209517,-0.57945 0,-0.21977 0.0087,-0.27346 0.05969,-0.36904 0.09101,-0.17056 0.251564,-0.32939 0.412423,-0.40803 0.123763,-0.0605 0.177303,-0.0709 0.363731,-0.0709 0.186428,0 0.239969,0.0104 0.363732,0.0709 0.160858,0.0786 0.321409,0.23747 0.412423,0.40803 0.05101,0.0956 0.05969,0.14927 0.05969,0.36904 0,0.28796 -0.03592,0.3873 -0.209517,0.57945 l -0.09156,0.10134 0.06863,0.026 c 0.09754,0.0371 0.104082,0.0354 0.227594,-0.0588 0.06123,-0.0468 0.148015,-0.10017 0.192859,-0.11876 l 0.08153,-0.0338 -0.065,-0.0773 c -0.09981,-0.11862 -0.144984,-0.24892 -0.144984,-0.41823 0,-0.3225 0.211612,-0.58402 0.530334,-0.65545 0.574481,-0.12874 1.027628,0.57136 0.671658,1.03771 l -0.08391,0.10993 0.140956,0.0738 c 0.171491,0.0898 0.32418,0.27392 0.378321,0.45623 0.02334,0.0786 0.03907,0.23302 0.03907,0.38344 v 0.25186 l -0.08065,0.0417 c -0.138751,0.0717 -0.392669,0.16024 -0.532954,0.18574 -0.11517,0.0209 -0.142854,0.0177 -0.191308,-0.0221 -0.09357,-0.0769 -0.03202,-0.13147 0.221206,-0.19624 0.121457,-0.0311 0.256185,-0.0748 0.299396,-0.0971 0.0775,-0.0401 0.07857,-0.0434 0.07857,-0.24278 0,-0.27676 -0.08305,-0.44166 -0.282881,-0.56165 l -0.139199,-0.0835 h -0.383432 c -0.366459,0 -0.388995,0.003 -0.509076,0.0684 -0.0691,0.0376 -0.125643,0.0794 -0.125643,0.093 0,0.0136 0.04809,0.0725 0.106872,0.13094 0.05878,0.0584 0.142685,0.18151 0.186458,0.27345 0.07641,0.1605 0.07994,0.18282 0.08833,0.55942 l 0.0087,0.39224 -0.169153,0.0759 c -0.501743,0.22513 -1.029792,0.30372 -1.545738,0.23008 z m 0.821408,-0.21648 c 0.123071,-0.0215 0.324226,-0.0765 0.447012,-0.12215 l 0.223247,-0.0831 0.0073,-0.29064 c 0.0067,-0.2679 0.0019,-0.30257 -0.0612,-0.44323 -0.0834,-0.18585 -0.259105,-0.35756 -0.435461,-0.42558 -0.109476,-0.0422 -0.196301,-0.0493 -0.603657,-0.0493 -0.407357,0 -0.494182,0.007 -0.603658,0.0493 -0.176355,0.0681 -0.352059,0.23973 -0.435461,0.42558 -0.06312,0.14066 -0.06791,0.17533 -0.0612,0.44323 l 0.0073,0.29064 0.225077,0.0838 c 0.416638,0.15517 0.858899,0.1968 1.290728,0.12148 z m -0.148221,-1.69265 c 0.342615,-0.17717 0.475176,-0.5711 0.300897,-0.89416 -0.257977,-0.47822 -0.913755,-0.47176 -1.158592,0.0114 -0.172692,0.34079 0.0015,0.77018 0.367816,0.90655 0.122879,0.0458 0.379501,0.0333 0.489879,-0.0238 z m -1.702503,-0.14873 c 0.292031,-0.081 0.429029,-0.44793 0.260603,-0.69787 -0.170515,-0.25303 -0.499788,-0.28707 -0.713121,-0.0737 -0.246721,0.24672 -0.155737,0.64514 0.174187,0.76278 0.122182,0.0436 0.15003,0.0445 0.278331,0.009 z m 3.111926,0 c 0.292031,-0.081 0.429029,-0.44793 0.260604,-0.69787 -0.170516,-0.25303 -0.49979,-0.28707 -0.713122,-0.0737 -0.246721,0.24672 -0.155738,0.64514 0.174186,0.76278 0.122183,0.0436 0.150031,0.0445 0.278332,0.009 z"
       id="path878"
       inkscape:connector-curvature="0" />
    <path
       style="fill:#cdd2d4;fill-opacity:1;stroke:#cdd2d4;stroke-width:0.119;stroke-miterlimit:4;stroke-dasharray:none;stroke-opacity:1"
       d="m 15.665027,301.04873 -0.04744,-0.0475 v -0.45948 -0.45947 l 0.918808,-0.91954 0.918808,-0.91955 -0.02968,-0.12468 c -0.124924,-0.52497 0.01663,-1.06491 0.382895,-1.46051 0.610994,-0.65993 1.646833,-0.67736 2.285734,-0.0385 0.327582,0.32757 0.495069,0.76698 0.464887,1.21964 -0.06616,0.99221 -0.998252,1.68003 -1.963795,1.44914 l -0.124637,-0.0298 -0.194291,0.19327 -0.194293,0.19328 -0.164295,0.006 -0.164296,0.006 -0.0055,0.16831 c -0.0052,0.15586 -0.0094,0.17129 -0.05679,0.20859 -0.04497,0.0354 -0.06715,0.0387 -0.181915,0.0274 -0.150046,-0.0148 -0.140061,-0.0276 -0.161948,0.20724 -0.01643,0.17625 -0.04698,0.20241 -0.260621,0.22304 l -0.164296,0.0159 0.0058,0.14549 0.0058,0.14549 -0.153395,0.14928 -0.153395,0.14927 H 16.1698 15.712471 Z m 0.91304,-0.3053 c 0.05714,-0.0602 0.05895,-0.0672 0.04386,-0.16913 -0.02662,-0.17978 -0.02202,-0.24783 0.0196,-0.28944 0.04467,-0.0447 0.0756,-0.0524 0.274554,-0.0687 l 0.148424,-0.0121 0.01183,-0.12894 c 0.01944,-0.21201 0.02982,-0.25483 0.07193,-0.29695 0.03601,-0.036 0.05503,-0.039 0.182547,-0.0282 l 0.142352,0.012 v -0.1577 c 0,-0.22122 0.0084,-0.22839 0.267135,-0.22839 h 0.203156 l 0.217589,-0.21262 c 0.134885,-0.13181 0.232768,-0.21262 0.257527,-0.21262 0.02196,0 0.107447,0.0194 0.189955,0.0432 0.195519,0.0562 0.535913,0.0598 0.710555,0.008 0.601853,-0.18037 0.992465,-0.73273 0.950748,-1.34445 -0.04483,-0.65736 -0.555495,-1.16802 -1.212851,-1.21285 -0.611722,-0.0417 -1.164085,0.34889 -1.344452,0.95075 -0.05233,0.17464 -0.04877,0.51503 0.0075,0.71056 0.02372,0.0825 0.04313,0.1691 0.04313,0.19243 0,0.0302 -0.267634,0.31043 -0.927791,0.97152 l -0.927791,0.92909 v 0.30398 0.30399 h 0.30547 0.305472 z m 2.670917,-3.00132 c -0.249465,-0.0789 -0.367719,-0.37061 -0.247354,-0.6102 0.152938,-0.30444 0.597405,-0.30472 0.756334,-5e-4 0.18033,0.34519 -0.13857,0.72782 -0.50898,0.6107 z m 0.222125,-0.30051 c 0.06381,-0.0502 0.06983,-0.15366 0.01227,-0.21122 -0.05756,-0.0576 -0.161019,-0.0516 -0.211216,0.0123 -0.04573,0.0581 -0.04878,0.0828 -0.01852,0.14914 0.04066,0.0893 0.138769,0.11171 0.217471,0.0498 z"
       id="path929"
       inkscape:connector-curvature="0" />
    <path
       style="fill:#cdd2d4;fill-opacity:1;stroke-width:0.01927999"
       d="m 2.0759932,296.82716 c -0.046138,-0.0113 -0.1022003,-0.0586 -0.1293104,-0.10927 -0.010834,-0.0203 -0.039173,-0.17177 -0.062975,-0.33672 -0.023801,-0.16494 -0.05163,-0.30268 -0.06184,-0.30608 -0.01021,-0.004 -0.085073,-0.0457 -0.1663626,-0.0942 l -0.1477987,-0.088 -0.2998222,0.11858 c -0.27189565,0.10755 -0.30577406,0.11663 -0.36372116,0.0975 -0.0351444,-0.0116 -0.0814753,-0.0404 -0.10295696,-0.0639 -0.0214819,-0.0235 -0.14855976,-0.23345 -0.282395,-0.46645 -0.26801028,-0.4666 -0.28425877,-0.51769 -0.19742594,-0.62089 0.0252511,-0.03 0.14211163,-0.12828 0.25969022,-0.21838 l 0.21377939,-0.16382 v -0.20244 -0.20244 l -0.21377939,-0.16381 c -0.11757859,-0.0901 -0.23443925,-0.18837 -0.25969022,-0.21838 -0.0868254,-0.10319 -0.0705774,-0.1543 0.19737074,-0.62089 0.13380488,-0.233 0.26516421,-0.44708 0.29190953,-0.47572 0.0854919,-0.0915 0.1275049,-0.0875 0.45980069,0.0439 0.2691437,0.10646 0.3072773,0.1169 0.3431594,0.094 0.097195,-0.0621 0.2489192,-0.15208 0.2659689,-0.15776 0.010231,-0.004 0.03924,-0.14443 0.064463,-0.31339 0.047826,-0.32034 0.070687,-0.37989 0.164875,-0.42952 0.034885,-0.0184 0.1781182,-0.0231 0.5793718,-0.0193 0.6793103,0.007 0.6284764,-0.0264 0.7015082,0.45463 0.0252,0.16602 0.053351,0.30435 0.062544,0.30741 0.00918,0.003 0.083236,0.0452 0.1645213,0.0935 l 0.1477982,0.088 0.2998225,-0.11859 c 0.2718952,-0.10754 0.3057735,-0.11662 0.3637203,-0.0975 0.035143,0.0116 0.081577,0.0404 0.1031765,0.0639 0.021601,0.0235 0.1486809,0.23341 0.2823949,0.46634 0.2678412,0.46659 0.2841127,0.51784 0.1971467,0.62094 -0.025284,0.03 -0.1419673,0.12825 -0.2592955,0.21838 l -0.2133244,0.16388 v 0.20244 0.20244 l 0.2133244,0.16389 c 0.1173282,0.0901 0.2340116,0.1884 0.2592955,0.21838 0.086957,0.10308 0.070688,0.15434 -0.1970895,0.62093 -0.1336831,0.23294 -0.265043,0.44696 -0.2919097,0.47561 -0.085869,0.0915 -0.12772,0.0875 -0.460022,-0.0439 -0.2691426,-0.10645 -0.3072764,-0.1169 -0.3431584,-0.094 -0.097195,0.062 -0.2489195,0.15207 -0.2659688,0.15776 -0.010234,0.004 -0.039238,0.14443 -0.064465,0.31338 -0.047859,0.32055 -0.07096,0.38066 -0.1648755,0.42892 -0.033587,0.0172 -0.1842864,0.0232 -0.5476206,0.0218 -0.2757041,-9.4e-4 -0.518632,-0.007 -0.53984,-0.0113 z m 0.8483193,-1.47246 c 0.2152643,-0.0659 0.4151765,-0.22182 0.5521873,-0.43065 0.212123,-0.32332 0.212123,-0.77842 0,-1.10174 -0.205833,-0.31373 -0.5011397,-0.47486 -0.8703066,-0.47486 -0.3691675,0 -0.6644737,0.16113 -0.8703066,0.47486 -0.2118629,0.32293 -0.2121242,0.77663 -6.342e-4,1.10174 0.2621091,0.40292 0.7282268,0.57174 1.1890601,0.43065 z"
       id="path837"
       inkscape:connector-curvature="0" />
  </g>
</svg>
