<?xml version="1.0" encoding="UTF-8" standalone="no"?>
<!-- Created with Inkscape (http://www.inkscape.org/) -->

<svg
   xmlns:dc="http://purl.org/dc/elements/1.1/"
   xmlns:cc="http://creativecommons.org/ns#"
   xmlns:rdf="http://www.w3.org/1999/02/22-rdf-syntax-ns#"
   xmlns:svg="http://www.w3.org/2000/svg"
   xmlns="http://www.w3.org/2000/svg"
   xmlns:sodipodi="http://sodipodi.sourceforge.net/DTD/sodipodi-0.dtd"
   xmlns:inkscape="http://www.inkscape.org/namespaces/inkscape"
   width="20"
   height="20"
   viewBox="0 0 5.2916665 5.2916668"
   version="1.1"
   id="svg980"
   inkscape:version="0.92.5 (2060ec1f9f, 2020-04-08)"
   sodipodi:docname="del.svg">
  <defs
     id="defs974" />
  <sodipodi:namedview
     id="base"
     pagecolor="#ffffff"
     bordercolor="#666666"
     borderopacity="1.0"
     inkscape:pageopacity="0.0"
     inkscape:pageshadow="2"
     inkscape:zoom="15.839192"
     inkscape:cx="4.0062844"
     inkscape:cy="1.0911543"
     inkscape:document-units="mm"
     inkscape:current-layer="layer1"
     showgrid="false"
     units="px"
     inkscape:window-width="1920"
     inkscape:window-height="1020"
     inkscape:window-x="1080"
     inkscape:window-y="437"
     inkscape:window-maximized="1" />
  <metadata
     id="metadata977">
    <rdf:RDF>
      <cc:Work
         rdf:about="">
        <dc:format>image/svg+xml</dc:format>
        <dc:type
           rdf:resource="http://purl.org/dc/dcmitype/StillImage" />
        <dc:title></dc:title>
      </cc:Work>
    </rdf:RDF>
  </metadata>
  <g
     inkscape:label="Layer 1"
     inkscape:groupmode="layer"
     id="layer1"
     transform="translate(0,-291.70832)">
    <path
       inkscape:connector-curvature="0"
       id="path931"
       d="m 6.5712752,296.7214 c -0.2707563,-0.046 -0.5025193,-0.24564 -0.5900817,-0.50844 -0.014561,-0.0437 -0.026543,-0.0926 -0.026629,-0.10866 -1.102e-4,-0.0196 -0.003,-0.0248 -0.00877,-0.0156 -0.019231,0.0304 -0.022068,-0.21316 -0.020988,-1.80296 9.658e-4,-1.40469 0.00574,-1.85255 0.018876,-1.76556 0.0013,0.008 0.00851,-0.0124 0.016036,-0.0466 0.033663,-0.15265 0.1134216,-0.29145 0.2271369,-0.39525 0.084681,-0.0772 0.1593931,-0.12182 0.2722808,-0.1622 l 0.090671,-0.0324 0.8369798,-0.003 c 0.934803,-0.004 0.8999481,-0.006 0.9717144,0.0679 0.092451,0.0949 0.094383,0.23813 0.00448,0.33185 -0.070559,0.0736 -0.00728,0.0685 -0.9127912,0.0742 -0.8016884,0.006 -0.8184924,0.006 -0.8642723,0.0268 -0.056244,0.0261 -0.1064476,0.0744 -0.1374094,0.13224 l -0.022886,0.0428 -0.0027,1.72266 c -0.00303,1.92946 -0.00822,1.79282 0.071341,1.87914 0.022945,0.0249 0.063461,0.056 0.090035,0.0691 l 0.048315,0.0238 H 8.112537 9.5924702 l 0.048856,-0.0243 c 0.026868,-0.0133 0.065745,-0.043 0.086386,-0.0659 0.073285,-0.0811 0.071177,-0.0648 0.076917,-0.59294 0.00577,-0.53142 0.00211,-0.50543 0.081391,-0.57706 0.062736,-0.0566 0.1444628,-0.0731 0.2330588,-0.0468 0.05601,0.0166 0.132329,0.093 0.148963,0.14898 0.0091,0.0308 0.01265,0.16969 0.01265,0.49978 0,0.52445 -0.0037,0.55795 -0.07767,0.70986 -0.09766,0.20048 -0.2429558,0.32529 -0.4656646,0.40002 l -0.072445,0.0243 -1.5213293,0.002 c -0.8367309,7.3e-4 -1.544266,-0.003 -1.5722987,-0.007 z m 1.0107413,-1.39971 c -0.050871,-0.019 -0.1032748,-0.0651 -0.1292745,-0.11381 -0.022974,-0.0429 -0.02326,-0.0485 -0.02326,-0.44714 0,-0.35078 0.00248,-0.41514 0.018792,-0.49159 0.042474,-0.19882 0.1130615,-0.36116 0.2308695,-0.53093 0.044758,-0.0645 0.2837568,-0.30988 0.9964484,-1.02308 1.0009113,-1.00164 1.0066261,-1.00686 1.1793338,-1.07934 0.4740023,-0.19889 1.0184973,7.5e-4 1.2471983,0.45704 0.04132,0.0825 0.0892,0.23562 0.08944,0.28615 1.1e-4,0.0223 0.003,0.0281 0.0091,0.0183 0.01202,-0.0189 0.01864,0.10664 0.01057,0.20041 -0.0034,0.0398 -0.0073,0.0655 -0.0086,0.0569 -0.0013,-0.008 -0.01072,0.0241 -0.02094,0.0725 -0.01022,0.0484 -0.03328,0.12328 -0.05126,0.16644 -0.07445,0.17876 -0.07024,0.17415 -1.086613,1.19032 -0.7255546,0.72542 -0.9681774,0.96186 -1.0334575,1.00712 -0.1470275,0.10196 -0.3189611,0.17738 -0.4994203,0.21908 -0.065156,0.0151 -0.1432522,0.0185 -0.4864119,0.0211 -0.3029259,0.002 -0.4175322,-1.1e-4 -0.4425419,-0.01 z m 0.7976082,-0.47811 c 0.1125522,-0.0196 0.2034315,-0.0527 0.2990657,-0.10861 0.063969,-0.0374 0.1698348,-0.1383 0.693849,-0.66101 0.3400993,-0.33925 0.6183629,-0.62154 0.6183629,-0.62731 0,-0.0137 -0.6641968,-0.67813 -0.6779296,-0.67813 -0.017405,0 -1.2208286,1.21201 -1.2570116,1.26598 -0.051294,0.0765 -0.1100295,0.21059 -0.1300038,0.29674 -0.022793,0.0983 -0.034701,0.47075 -0.016158,0.5054 0.011613,0.0217 0.017874,0.0224 0.1965621,0.0224 0.1172963,0 0.2168931,-0.006 0.2732636,-0.0154 z m 2.1218083,-1.89809 c 0.114505,-0.11633 0.147697,-0.15692 0.173547,-0.21216 0.04259,-0.0911 0.05761,-0.19007 0.04256,-0.28084 -0.05742,-0.34651 -0.444731,-0.5252 -0.7380887,-0.34053 -0.059594,0.0375 -0.3093759,0.2828 -0.3093759,0.30381 0,0.0213 0.6520846,0.67357 0.6734096,0.67357 0.009,0 0.08007,-0.0647 0.157945,-0.14385 z"
       style="fill:#cdd2d4;fill-opacity:1;stroke-width:0.01034918" />
    <path
       inkscape:connector-curvature="0"
       id="path2204"
       d="m 1.4384112,296.97278 c -0.3717931,-0.0793 -0.64930828,-0.35981 -0.72672496,-0.73462 -0.0157964,-0.0765 -0.0179541,-0.25648 -0.0179541,-1.49754 0,-1.5305 -0.003059,-1.45324 0.0602304,-1.52208 0.0350017,-0.038 0.10764645,-0.0692 0.16146772,-0.0692 0.0846459,0 0.18116754,0.0643 0.20960594,0.13951 0.0083,0.0219 0.012113,0.46246 0.012158,1.4041 3.41e-5,0.82645 0.00442,1.3987 0.011027,1.43901 0.034059,0.20798 0.1971904,0.3711 0.4051653,0.40517 0.089085,0.0146 2.0343774,0.0146 2.1234625,0 0.2079747,-0.0341 0.3711061,-0.19719 0.4051658,-0.40517 0.0066,-0.0403 0.010986,-0.61256 0.011026,-1.43901 0,-0.94164 0.00386,-1.38213 0.012158,-1.4041 0.028439,-0.0752 0.1249606,-0.13951 0.2096061,-0.13951 0.053822,0 0.1264659,0.0312 0.1614681,0.0692 0.063289,0.0689 0.06023,-0.008 0.06023,1.52208 0,1.24106 -0.00216,1.42107 -0.017954,1.49754 -0.07843,0.37971 -0.3557793,0.65706 -0.7354814,0.73548 -0.1266012,0.0261 -2.2215969,0.0254 -2.3446566,-7.9e-4 z m 0.587424,-1.22207 c -0.028824,-0.0143 -0.061829,-0.0434 -0.079584,-0.0702 l -0.030336,-0.0458 -0.00304,-0.91489 c -0.00304,-0.91448 -0.00303,-0.91491 0.021273,-0.96512 0.058632,-0.12112 0.2351667,-0.1569 0.3362396,-0.0682 0.087355,0.0767 0.082741,0.0199 0.082741,1.01991 0,0.84475 -0.00113,0.89491 -0.021055,0.93796 -0.055412,0.11968 -0.1869874,0.16538 -0.3062379,0.10635 z m 0.9815178,0.009 c -0.04521,-0.021 -0.091333,-0.0713 -0.1130877,-0.12342 -0.015461,-0.037 -0.017626,-0.15299 -0.017408,-0.93227 2.836e-4,-0.99724 -0.00433,-0.94077 0.082991,-1.01744 0.1008887,-0.0886 0.2776096,-0.053 0.3360402,0.0678 0.023954,0.0495 0.024115,0.0558 0.024115,0.95217 0,0.89629 -1.591e-4,0.90268 -0.024115,0.95217 -0.034389,0.071 -0.096224,0.109 -0.1846963,0.1134 -0.042748,0.002 -0.082931,-0.002 -0.1038402,-0.0124 z m -2.43676851,-2.9194 c -0.11931756,-0.059 -0.15506653,-0.23526 -0.0678792,-0.33456 0.0712976,-0.0812 0.0484665,-0.0782 0.62873908,-0.0845 l 0.5229808,-0.006 0.00569,-0.27855 0.00569,-0.27854 0.031165,-0.053 c 0.017141,-0.0292 0.050395,-0.065 0.073899,-0.0796 l 0.042735,-0.0265 h 0.8015249 0.8015245 l 0.042736,0.0265 c 0.023503,0.0146 0.056758,0.0504 0.073899,0.0796 l 0.031164,0.053 0.00569,0.27854 0.00569,0.27855 0.5229808,0.006 c 0.5802721,0.006 0.5574417,0.003 0.6287388,0.0845 0.087545,0.0997 0.051161,0.27676 -0.068805,0.33484 l -0.049816,0.0241 -1.9945383,-10e-6 -1.9945381,-1e-5 z m 2.54234591,-0.5496 c 0.0028,-0.1076 5.345e-4,-0.12691 -0.016385,-0.13928 -0.025348,-0.0185 -0.9253475,-0.021 -0.959679,-0.002 -0.019657,0.0105 -0.021991,0.0248 -0.021991,0.13454 0,0.0675 0.00346,0.12622 0.0077,0.13046 0.00423,0.004 0.2280642,0.006 0.4974001,0.005 l 0.4897012,-0.003 z"
       style="fill:#cdd2d4;stroke-width:0.01136915;fill-opacity:1" />
  </g>
</svg>
