<?xml version="1.0" encoding="UTF-8" standalone="no"?>
<!-- Created with Inkscape (http://www.inkscape.org/) -->

<svg
   xmlns:dc="http://purl.org/dc/elements/1.1/"
   xmlns:cc="http://creativecommons.org/ns#"
   xmlns:rdf="http://www.w3.org/1999/02/22-rdf-syntax-ns#"
   xmlns:svg="http://www.w3.org/2000/svg"
   xmlns="http://www.w3.org/2000/svg"
   xmlns:sodipodi="http://sodipodi.sourceforge.net/DTD/sodipodi-0.dtd"
   xmlns:inkscape="http://www.inkscape.org/namespaces/inkscape"
   width="20"
   height="20"
   viewBox="0 0 5.2916665 5.2916668"
   version="1.1"
   id="svg980"
   inkscape:version="0.92.5 (2060ec1f9f, 2020-04-08)"
   sodipodi:docname="exp.svg">
  <defs
     id="defs974" />
  <sodipodi:namedview
     id="base"
     pagecolor="#ffffff"
     bordercolor="#666666"
     borderopacity="1.0"
     inkscape:pageopacity="0.0"
     inkscape:pageshadow="2"
     inkscape:zoom="11.2"
     inkscape:cx="8.3714209"
     inkscape:cy="31.688617"
     inkscape:document-units="mm"
     inkscape:current-layer="layer1"
     showgrid="false"
     units="px"
     inkscape:window-width="1920"
     inkscape:window-height="1020"
     inkscape:window-x="1080"
     inkscape:window-y="437"
     inkscape:window-maximized="1" />
  <metadata
     id="metadata977">
    <rdf:RDF>
      <cc:Work
         rdf:about="">
        <dc:format>image/svg+xml</dc:format>
        <dc:type
           rdf:resource="http://purl.org/dc/dcmitype/StillImage" />
        <dc:title></dc:title>
      </cc:Work>
    </rdf:RDF>
  </metadata>
  <g
     inkscape:label="Layer 1"
     inkscape:groupmode="layer"
     id="layer1"
     transform="translate(0,-291.70832)">
    <path
       inkscape:connector-curvature="0"
       id="path2204"
       d="m -7.4440292,296.78379 c -0.3717931,-0.0793 -0.6493083,-0.35981 -0.726725,-0.73462 -0.015796,-0.0765 -0.017954,-0.25648 -0.017954,-1.49754 0,-1.5305 -0.00306,-1.45324 0.06023,-1.52208 0.035002,-0.038 0.1076465,-0.0692 0.1614677,-0.0692 0.084646,0 0.1811676,0.0643 0.209606,0.13951 0.0083,0.0219 0.012113,0.46246 0.012158,1.4041 3.41e-5,0.82645 0.00442,1.3987 0.011027,1.43901 0.034059,0.20798 0.1971904,0.3711 0.4051653,0.40517 0.089085,0.0146 2.0343774,0.0146 2.1234625,0 0.2079747,-0.0341 0.3711061,-0.19719 0.4051658,-0.40517 0.0066,-0.0403 0.010986,-0.61256 0.011026,-1.43901 0,-0.94164 0.00386,-1.38213 0.012158,-1.4041 0.028439,-0.0752 0.1249606,-0.13951 0.2096061,-0.13951 0.053822,0 0.1264659,0.0312 0.1614681,0.0692 0.063289,0.0689 0.06023,-0.008 0.06023,1.52208 0,1.24106 -0.00216,1.42107 -0.017954,1.49754 -0.07843,0.37971 -0.3557793,0.65706 -0.7354814,0.73548 -0.1266012,0.0261 -2.2215969,0.0254 -2.3446566,-7.9e-4 z m 0.587424,-1.22207 c -0.028824,-0.0143 -0.061829,-0.0434 -0.079584,-0.0702 l -0.030336,-0.0458 -0.00304,-0.91489 c -0.00304,-0.91448 -0.00303,-0.91491 0.021273,-0.96512 0.058632,-0.12112 0.2351667,-0.1569 0.3362396,-0.0682 0.087355,0.0767 0.082741,0.0199 0.082741,1.01991 0,0.84475 -0.00113,0.89491 -0.021055,0.93796 -0.055412,0.11968 -0.1869874,0.16538 -0.3062379,0.10635 z m 0.9815178,0.009 c -0.04521,-0.021 -0.091333,-0.0713 -0.1130877,-0.12342 -0.015461,-0.037 -0.017626,-0.15299 -0.017408,-0.93227 2.836e-4,-0.99724 -0.00433,-0.94077 0.082991,-1.01744 0.1008887,-0.0886 0.2776096,-0.053 0.3360402,0.0678 0.023954,0.0495 0.024115,0.0558 0.024115,0.95217 0,0.89629 -1.591e-4,0.90268 -0.024115,0.95217 -0.034389,0.071 -0.096224,0.109 -0.1846963,0.1134 -0.042748,0.002 -0.082931,-0.002 -0.1038402,-0.0124 z m -2.4367685,-2.9194 c -0.1193176,-0.059 -0.1550666,-0.23526 -0.067879,-0.33456 0.071298,-0.0812 0.048466,-0.0782 0.6287391,-0.0845 l 0.5229808,-0.006 0.00569,-0.27855 0.00569,-0.27854 0.031165,-0.053 c 0.017141,-0.0292 0.050395,-0.065 0.073899,-0.0796 l 0.042735,-0.0265 h 0.8015249 0.8015245 l 0.042736,0.0265 c 0.023503,0.0146 0.056758,0.0504 0.073899,0.0796 l 0.031164,0.053 0.00569,0.27854 0.00569,0.27855 0.5229808,0.006 c 0.5802721,0.006 0.5574417,0.003 0.6287388,0.0845 0.087545,0.0997 0.051161,0.27676 -0.068805,0.33484 l -0.049816,0.0241 -1.9945383,-1e-5 -1.9945381,-10e-6 z m 2.5423459,-0.5496 c 0.0028,-0.1076 5.345e-4,-0.12691 -0.016385,-0.13928 -0.025348,-0.0185 -0.9253475,-0.021 -0.959679,-0.002 -0.019657,0.0105 -0.021991,0.0248 -0.021991,0.13454 0,0.0675 0.00346,0.12622 0.0077,0.13046 0.00423,0.004 0.2280642,0.006 0.4974001,0.005 l 0.4897012,-0.003 z"
       style="fill:#cdd2d4;fill-opacity:1;stroke-width:0.01136915" />
    <path
       style="fill:#cdd2d4;fill-opacity:1;stroke-width:0.01033063"
       d="m 0.38151097,296.98851 c -0.17735206,-0.0348 -0.3281054,-0.18868 -0.36247622,-0.36993 -0.0069456,-0.0364 -0.01053553,-0.65235 -0.01053553,-1.78647 0,-1.7266 3.668e-5,-1.73098 0.02126617,-1.77484 0.01543651,-0.0319 0.0333235,-0.0498 0.06524227,-0.0652 0.04309424,-0.0208 0.05812493,-0.0213 0.75868095,-0.0213 H 1.5684036 v -0.0916 c 0,-0.0503 0.00476,-0.11659 0.010536,-0.14717 0.035189,-0.18553 0.1850281,-0.33537 0.3705628,-0.37056 0.074927,-0.0142 1.332294,-0.0142 1.4072212,0 0.1403739,0.0266 0.271713,0.12626 0.3296654,0.25011 0.038045,0.0813 0.051437,0.15096 0.051437,0.26762 v 0.0916 l 0.7205595,2e-5 c 0.8176136,3e-5 0.7723631,-0.005 0.8161199,0.0822 l 0.023256,0.0461 v 1.73195 c 0,1.13485 -0.00367,1.75112 -0.010536,1.78755 -0.035189,0.18553 -0.1850281,0.33537 -0.3705628,0.37056 -0.069152,0.0131 -4.46827919,0.0125 -4.53515329,-6.6e-4 z M 4.9012652,296.673 c 0.019448,-0.009 0.045709,-0.0313 0.058382,-0.0491 l 0.023022,-0.0323 0.00195,-1.25 0.00195,-1.25001 -0.1272216,0.37765 c -0.069972,0.20771 -0.1376542,0.3981 -0.1504053,0.42309 -0.056611,0.11097 -0.1894242,0.20968 -0.318113,0.23644 -0.03504,0.007 -0.2181605,0.0114 -0.5087836,0.0114 h -0.454037 v 0.0897 c 0,0.11599 -0.022624,0.16798 -0.086526,0.19892 -0.042954,0.0208 -0.058812,0.0213 -0.6882685,0.0213 -0.6294584,0 -0.645321,-3.4e-4 -0.6882725,-0.0213 -0.063908,-0.0309 -0.086526,-0.0829 -0.086526,-0.19892 v -0.0897 H 1.4243766 c -0.2906223,0 -0.47373923,-0.004 -0.50878276,-0.0114 -0.12868569,-0.0268 -0.26150286,-0.12547 -0.31811301,-0.23644 -0.0127519,-0.025 -0.0804337,-0.21538 -0.15040528,-0.42309 l -0.12721853,-0.37765 0.001951,1.25001 0.001951,1.25 0.0229285,0.0322 c 0.0507579,0.0712 -0.14664761,0.0655 2.30508048,0.0658 2.0219671,2.2e-4 2.2174271,-0.002 2.2496978,-0.0165 z m -1.7832569,-1.68779 v -0.15495 H 2.6531306 2.1882497 v 0.15495 0.15496 h 0.4648809 0.4648777 z m -1.2396758,-0.24467 c 0,-0.11598 0.022624,-0.16798 0.086526,-0.19893 0.042954,-0.0208 0.058812,-0.0213 0.6882725,-0.0213 0.6294583,0 0.645317,3.3e-4 0.6882684,0.0213 0.063908,0.0309 0.086526,0.0829 0.086526,0.19893 v 0.0897 h 0.4497144 c 0.4868517,0 0.4962572,-7.8e-4 0.5396058,-0.0561 0.01219,-0.0155 0.1267082,-0.34287 0.2615193,-0.74765 0.1318994,-0.39601 0.2419536,-0.72585 0.2445641,-0.73295 0.00375,-0.0103 -0.4545943,-0.0129 -2.2701984,-0.0129 -1.81560428,0 -2.27399208,0.002 -2.27020241,0.0129 0.002653,0.007 0.11266466,0.33694 0.24456408,0.73295 0.13458638,0.4041 0.24932769,0.73215 0.26149272,0.74761 0.042946,0.0546 0.049517,0.0553 0.53738321,0.0557 l 0.4519643,3.2e-4 z m 1.5479525,-1.87569 c -0.00297,-0.0895 -0.0071,-0.11087 -0.026565,-0.13819 -0.04844,-0.0679 -0.024981,-0.0659 -0.7465886,-0.0659 -0.7216131,0 -0.6981516,-0.002 -0.7465925,0.0659 -0.019479,0.0273 -0.023592,0.0486 -0.026565,0.13819 l -0.00351,0.10589 h 0.7766765 0.7766795 z"
       id="path1820"
       inkscape:connector-curvature="0" />
    <path
       style="fill:#cdd2d4;stroke-width:0.0124101;fill-opacity:1"
       d="m 13.382942,289.99293 c -0.08281,-0.0553 -0.08556,-0.071 -0.08558,-0.48783 l -2.6e-5,-0.37328 -0.0647,-0.0301 c -0.03557,-0.0165 -0.09701,-0.0616 -0.136509,-0.10011 -0.272821,-0.26619 -0.208661,-0.71194 0.128324,-0.89156 l 0.07289,-0.0388 v -0.83695 c 0,-0.46032 -0.0038,-0.83696 -0.0088,-0.83696 -0.0049,0 -0.113487,0.0374 -0.241386,0.083 l -0.232541,0.083 -0.0038,0.63988 c -0.0042,0.72716 0.0021,0.68249 -0.111535,0.80252 -0.197943,0.2093 -0.699225,0.37373 -1.337958,0.4389 -0.170435,0.0174 -0.668512,0.0173 -0.846494,-1.9e-4 -0.206425,-0.0202 -0.477276,-0.0682 -0.6670651,-0.11817 -0.404282,-0.10636 -0.663129,-0.25391 -0.748179,-0.4265 -0.02772,-0.0562 -0.02797,-0.0618 -0.03175,-0.69725 l -0.0038,-0.64059 -0.591184,-0.2095 c -0.325151,-0.11525 -0.608249,-0.2208 -0.629105,-0.23459 -0.04475,-0.0296 -0.08132,-0.0964 -0.08132,-0.14867 0,-0.0482 0.03498,-0.11618 0.07471,-0.14526 0.05099,-0.0373 3.0478051,-1.08955 3.1031181,-1.08955 0.04875,0 3.008346,1.03469 3.08173,1.07739 0.113029,0.0658 0.123005,0.22697 0.01876,0.30331 -0.0177,0.0129 -0.107043,0.0502 -0.198562,0.0827 l -0.166394,0.0592 -0.0034,0.9076 -0.003,0.90761 0.06456,0.0327 c 0.08268,0.0419 0.195485,0.14945 0.237273,0.22623 0.149787,0.27521 0.04518,0.623 -0.230286,0.76567 l -0.07133,0.0369 -4.6e-5,0.37231 c -3.9e-5,0.32964 -0.0025,0.37725 -0.02173,0.41549 -0.03116,0.062 -0.09315,0.0995 -0.164415,0.0995 -0.04003,0 -0.07163,-0.009 -0.100549,-0.0282 z m 0.181213,-1.22525 c 0.09274,-0.0449 0.130137,-0.15562 0.08375,-0.24795 -0.0645,-0.12838 -0.248587,-0.13383 -0.326551,-0.01 -0.0318,0.0506 -0.02785,0.15016 0.0079,0.19924 0.0281,0.0386 0.110282,0.0832 0.153476,0.0832 0.0166,0 0.05328,-0.0112 0.08148,-0.0248 z M 11.348952,288.072 c 0.431845,-0.0407 0.883146,-0.16641 1.051756,-0.29294 l 0.04033,-0.0303 v -0.52059 c 0,-0.42131 -0.003,-0.52059 -0.01626,-0.52059 -0.009,0 -0.33834,0.11448 -0.731967,0.25441 -0.393627,0.13992 -0.732222,0.2544 -0.752437,0.2544 -0.02021,0 -0.358699,-0.11448 -0.752199,-0.2544 -0.3935041,-0.13993 -0.7233111,-0.25441 -0.7329091,-0.25441 -0.01473,0 -0.01745,0.0815 -0.01745,0.52059 v 0.52059 l 0.04033,0.0303 c 0.170872,0.12823 0.6212261,0.25234 1.0641641,0.29326 0.277134,0.0256 0.532763,0.0255 0.806659,-3.3e-4 z m 0.790532,-1.66245 c 0.653883,-0.23219 1.197255,-0.42523 1.207494,-0.42899 0.01656,-0.006 0.01656,-0.008 0,-0.0171 -0.0388,-0.0214 -2.384144,-0.84434 -2.406465,-0.84434 -0.01286,0 -0.539156,0.18211 -1.1695011,0.40469 -0.63034,0.22258 -1.170112,0.41309 -1.199492,0.42334 -0.02938,0.0103 -0.05044,0.0216 -0.04681,0.0253 0.0089,0.009 2.3920701,0.85751 2.4109951,0.85851 0.0082,4.3e-4 0.549896,-0.18917 1.20378,-0.42136 z"
       id="path1837"
       inkscape:connector-curvature="0" />
    <path
       style="fill:#cdd2d4;stroke-width:0.01323744;fill-opacity:1"
       d="m -4.3794261,289.10306 c -0.452897,-0.0522 -0.847959,-0.23895 -1.171823,-0.5538 -0.300945,-0.29257 -0.49882,-0.66257 -0.574964,-1.07509 -0.03358,-0.18185 -0.03099,-0.55838 0.005,-0.72138 0.01443,-0.0655 0.02551,-0.11985 0.02458,-0.12073 -0.007,-0.007 -1.020521,-0.36241 -1.032284,-0.36234 -0.0083,4e-5 -0.02959,0.0213 -0.04719,0.0471 -0.06666,0.0979 -0.224496,0.22885 -0.35009,0.29052 -0.169654,0.0833 -0.260948,0.1045 -0.451836,0.1049 -0.184605,3.8e-4 -0.287747,-0.0253 -0.46331,-0.11571 -0.148034,-0.0762 -0.32355,-0.2517 -0.399732,-0.39973 -0.09121,-0.17725 -0.116153,-0.27814 -0.116153,-0.46993 0,-0.19178 0.02496,-0.29268 0.116153,-0.46993 0.07618,-0.14803 0.251698,-0.32355 0.399732,-0.39973 0.176327,-0.0907 0.278769,-0.11628 0.46331,-0.11552 0.183353,8.5e-4 0.306035,0.029 0.457851,0.10548 l 0.09272,0.0467 0.510583,-0.50737 0.510583,-0.50736 -0.04777,-0.0949 c -0.07753,-0.15396 -0.105791,-0.27596 -0.106551,-0.45999 -8.49e-4,-0.18454 0.02479,-0.28699 0.115516,-0.46331 0.07618,-0.14804 0.251699,-0.32355 0.399732,-0.39974 0.177253,-0.0912 0.278149,-0.11615 0.469933,-0.11615 0.191783,0 0.292675,0.025 0.469928,0.11615 0.148033,0.0762 0.32355,0.2517 0.399731,0.39974 0.09121,0.17725 0.116154,0.27814 0.116154,0.46993 0,0.19178 -0.02496,0.29267 -0.116154,0.46993 -0.07618,0.14803 -0.251698,0.32355 -0.399731,0.39973 -0.176327,0.0907 -0.278769,0.11628 -0.46331,0.11551 -0.183633,-8.4e-4 -0.306035,-0.029 -0.458726,-0.10591 l -0.0936,-0.0471 -0.03494,0.0302 c -0.01919,0.0166 -0.250216,0.24421 -0.513359,0.50576 l -0.478439,0.47555 0.03897,0.0661 c 0.08589,0.14567 0.139726,0.38566 0.125501,0.55942 l -0.0076,0.093 0.518287,0.18424 c 0.331956,0.118 0.520109,0.17877 0.523357,0.16903 0.01235,-0.0371 0.143572,-0.24336 0.209769,-0.32981 0.162263,-0.21188 0.436588,-0.43773 0.680831,-0.56053 0.134276,-0.0675 0.342021,-0.13884 0.507272,-0.17418 0.176892,-0.0378 0.533273,-0.0406 0.723337,-0.006 0.411983,0.0758 0.782466,0.27389 1.075087,0.57488 0.278922,0.28691 0.464138,0.64529 0.534784,1.03479 0.03107,0.17133 0.03107,0.51701 0,0.68835 -0.0287,0.15816 -0.109064,0.40131 -0.17794,0.53831 -0.13532,0.26913 -0.377636,0.55437 -0.615538,0.72456 -0.234994,0.16811 -0.536881,0.29657 -0.809715,0.34455 -0.144464,0.0254 -0.428666,0.0363 -0.557928,0.0214 z m 0.55131,-0.42252 c 0.06188,-0.0141 0.152971,-0.041 0.202409,-0.0596 0.122529,-0.0462 0.301458,-0.14064 0.310313,-0.16372 0.01197,-0.0312 -0.03439,-0.17456 -0.09242,-0.28614 -0.099,-0.19028 -0.27508,-0.33806 -0.493233,-0.41394 -0.0938,-0.0326 -0.124504,-0.0368 -0.271243,-0.0368 -0.146739,0 -0.177439,0.004 -0.271238,0.0368 -0.218157,0.0759 -0.394243,0.22366 -0.493237,0.41394 -0.05818,0.11183 -0.104365,0.25501 -0.09235,0.28631 0.0093,0.0242 0.212147,0.12874 0.333951,0.17219 0.08163,0.0291 0.223264,0.0624 0.344172,0.0808 0.08995,0.0137 0.413087,-0.005 0.522877,-0.0298 z m -1.498591,-0.61489 c 0.06604,-0.14688 0.142074,-0.25607 0.25998,-0.37332 0.09089,-0.0904 0.146595,-0.13337 0.29122,-0.22472 0.01813,-0.0115 0.01448,-0.0213 -0.02725,-0.0728 -0.09695,-0.11982 -0.163324,-0.3135 -0.163324,-0.47655 0,-0.42752 0.366264,-0.79378 0.793784,-0.79378 0.42752,0 0.793788,0.36626 0.793788,0.79378 0,0.16305 -0.06638,0.35673 -0.163329,0.47655 -0.04169,0.0515 -0.04538,0.0614 -0.02725,0.0728 0.144625,0.0913 0.200332,0.13434 0.291219,0.22472 0.117907,0.11725 0.193944,0.22644 0.259985,0.37332 0.02394,0.0533 0.04654,0.0969 0.05019,0.0968 0.01443,-1.9e-4 0.164245,-0.2238 0.208326,-0.31097 0.355184,-0.7024 0.148878,-1.55394 -0.486314,-2.00727 -0.721202,-0.51473 -1.706162,-0.35224 -2.21756,0.36583 -0.345764,0.48549 -0.391993,1.1075 -0.121994,1.64144 0.04408,0.0872 0.193889,0.31079 0.208326,0.31097 0.0038,3e-5 0.02623,-0.0435 0.05019,-0.0968 z m 1.316053,-0.78692 c 0.07733,-0.0342 0.163974,-0.12063 0.200146,-0.19965 0.03914,-0.0855 0.03914,-0.23615 0,-0.32164 -0.036,-0.0787 -0.122287,-0.16494 -0.200957,-0.20096 -0.08549,-0.0391 -0.236156,-0.0391 -0.321648,0 -0.170044,0.0779 -0.266538,0.27322 -0.223515,0.45255 0.05728,0.23878 0.321173,0.36914 0.545974,0.2697 z m -3.853435,-0.96967 c 0.31078,-0.0589 0.528442,-0.36379 0.477828,-0.66924 -0.04303,-0.25968 -0.238411,-0.45507 -0.498098,-0.4981 -0.382773,-0.0634 -0.735669,0.28947 -0.672244,0.67224 0.05543,0.3345 0.366544,0.55693 0.692514,0.4951 z m 2.395979,-2.39597 c 0.310777,-0.0589 0.528438,-0.36379 0.477824,-0.66925 -0.04303,-0.25968 -0.238411,-0.45506 -0.498098,-0.4981 -0.382773,-0.0634 -0.735669,0.28948 -0.672244,0.67225 0.05543,0.33449 0.366544,0.55692 0.692518,0.4951 z"
       id="path1854"
       inkscape:connector-curvature="0" />
    <path
       style="fill:#cdd2d4;stroke-width:0.0124101;fill-opacity:1"
       d="m 7.4473639,289.88704 c -0.522418,-0.0762 -0.923661,-0.44322 -1.070345,-0.97907 -0.03201,-0.1169 -0.03163,-0.46773 4.25e-4,-0.58793 l 0.02288,-0.0853 -0.221576,-0.22183 c -0.121867,-0.12201 -0.227199,-0.22183 -0.234076,-0.22183 -0.0069,0 -0.358763,0.34581 -0.781966,0.76847 l -0.769463,0.76847 -0.831476,0.27477 c -0.656914,0.21709 -0.840594,0.2734 -0.874911,0.2682 -0.05254,-0.008 -0.09928,-0.0575 -0.09928,-0.10519 0,-0.0189 0.123276,-0.40809 0.273942,-0.86491 l 0.273942,-0.83059 0.768508,-0.76946 c 0.422677,-0.4232 0.768505,-0.77509 0.768505,-0.78196 0,-0.007 -0.09985,-0.11224 -0.221898,-0.23415 l -0.221893,-0.22163 -0.07905,0.021 c -0.12185,0.0324 -0.388941,0.0393 -0.525122,0.0136 -0.421467,-0.0795 -0.761046,-0.34056 -0.940073,-0.72259 -0.08232,-0.17567 -0.112494,-0.31487 -0.113861,-0.52526 -0.0013,-0.19042 0.0094,-0.26219 0.06322,-0.42815 0.04232,-0.13039 0.09402,-0.18661 0.161545,-0.17566 0.03952,0.006 0.08723,0.0489 0.350345,0.31183 0.167519,0.16742 0.310187,0.30439 0.317038,0.30439 0.0068,0 0.104437,-0.0921 0.216855,-0.20467 l 0.204391,-0.20468 -0.31312,-0.314 c -0.292115,-0.29294 -0.313124,-0.31698 -0.313124,-0.35831 0,-0.0855 0.0606,-0.12988 0.249902,-0.18281 0.440659,-0.12321 0.92153,0.005 1.248901,0.33277 0.143143,0.14335 0.240198,0.30148 0.305704,0.49807 0.07458,0.22383 0.08815,0.47189 0.03791,0.69276 l -0.02084,0.0916 0.227701,0.22795 0.227696,0.22794 1.030187,-1.0281 c 1.130162,-1.12787 1.068889,-1.07394 1.238441,-1.08978 0.09619,-0.009 0.215245,0.0194 0.29394,0.0702 0.06902,0.0445 0.718443,0.69643 0.755209,0.75813 0.04237,0.0711 0.06833,0.19254 0.06008,0.28094 -0.01583,0.16955 0.03808,0.10827 -1.089787,1.23844 l -1.028098,1.03018 0.228655,0.22841 0.228652,0.2284 0.09709,-0.0238 c 0.147452,-0.0361 0.431005,-0.0333 0.580249,0.006 0.382594,0.10018 0.679442,0.33821 0.845314,0.67781 0.07886,0.16147 0.111679,0.27396 0.130251,0.44646 0.01566,0.14534 0.003,0.30204 -0.03727,0.45476 -0.05054,0.19258 -0.09797,0.25913 -0.184664,0.25913 -0.04135,0 -0.06537,-0.021 -0.358313,-0.31312 l -0.314007,-0.31312 -0.204671,0.20439 c -0.112575,0.11241 -0.204675,0.21 -0.204675,0.21685 0,0.007 0.136975,0.14952 0.304396,0.31704 0.26296,0.26312 0.305402,0.31081 0.311821,0.35035 0.0065,0.0403 0.0025,0.0508 -0.03447,0.0876 -0.10358,0.10327 -0.474343,0.16943 -0.735818,0.13129 z m 0.387994,-0.25398 c 0.02666,-0.008 0.0059,-0.0323 -0.243781,-0.2832 -0.150118,-0.15089 -0.279626,-0.28751 -0.287802,-0.30359 -0.03421,-0.0673 -0.016,-0.0917 0.319377,-0.42634 0.175763,-0.17538 0.334923,-0.32459 0.353694,-0.33157 0.02326,-0.009 0.045,-0.009 0.06826,0 0.01876,0.007 0.158171,0.13643 0.309788,0.28766 0.151608,0.15123 0.278429,0.27219 0.281812,0.26881 0.0034,-0.003 0.01265,-0.0478 0.02059,-0.0987 0.03473,-0.22261 -0.0323,-0.5104 -0.163902,-0.70349 -0.05987,-0.0879 -0.19329,-0.22282 -0.276145,-0.27935 -0.267774,-0.18265 -0.602191,-0.23058 -0.914844,-0.13111 -0.05449,0.0173 -0.09383,0.0231 -0.117699,0.0171 -0.02369,-0.006 -0.126358,-0.0989 -0.303216,-0.27461 l -0.267375,-0.2656 -0.247729,0.24796 -0.247733,0.24796 0.263011,0.26371 c 0.144655,0.14505 0.268784,0.27924 0.275848,0.29822 0.01027,0.0275 0.0063,0.0563 -0.01974,0.14271 -0.04726,0.15701 -0.05468,0.38645 -0.01753,0.54257 0.09354,0.39322 0.409402,0.69956 0.807028,0.78273 0.08264,0.0173 0.349097,0.0161 0.40809,-0.002 z m -4.65981,-0.16196 c 0.137443,-0.0452 0.254695,-0.085 0.26057,-0.0884 0.0059,-0.003 -0.06935,-0.0864 -0.167149,-0.1844 -0.0978,-0.098 -0.181565,-0.17406 -0.186141,-0.16906 -0.0081,0.009 -0.172405,0.50113 -0.172405,0.51648 0,0.0124 0.0047,0.0111 0.265125,-0.0746 z m 0.743196,-0.24771 c 0.100675,-0.0332 0.183046,-0.0633 0.183046,-0.067 0,-0.0113 -0.792977,-0.79994 -0.798236,-0.79394 -0.0025,0.003 -0.03366,0.0921 -0.06879,0.19785 l -0.06383,0.19221 0.269969,0.2702 c 0.148484,0.1486 0.275551,0.26813 0.282377,0.2656 0.0068,-0.003 0.09478,-0.0317 0.19546,-0.065 z m 2.26476,-2.03103 1.839745,-1.83972 -0.182843,-0.18315 -0.182843,-0.18315 -0.844024,0.84327 c -0.499797,0.49935 -0.859014,0.84888 -0.880774,0.85701 -0.09724,0.0363 -0.191889,-0.0587 -0.155492,-0.15613 0.0079,-0.0211 0.365126,-0.38817 0.856827,-0.88031 l 0.843273,-0.84403 -0.183149,-0.18284 -0.183149,-0.18284 -1.84278,1.84281 -1.842785,1.84281 0.183017,0.18302 0.183018,0.18302 0.611195,-0.60985 c 0.336157,-0.33542 0.623391,-0.61602 0.6383,-0.62356 0.10591,-0.0535 0.217499,0.058 0.163957,0.16396 -0.0076,0.0149 -0.288113,0.30212 -0.623502,0.63824 l -0.609803,0.61114 0.179685,0.18 c 0.09882,0.099 0.182538,0.18001 0.186031,0.18001 0.0034,0 0.834235,-0.82787 1.846096,-1.83971 z M 5.4414119,287.074 c -0.1115,-0.0557 -0.07158,-0.22611 0.05296,-0.22611 0.106861,0 0.160014,0.12001 0.08733,0.19717 -0.04429,0.047 -0.08659,0.0557 -0.140283,0.029 z m -0.331658,-0.97966 0.24497,-0.24474 -0.265605,-0.26738 c -0.17569,-0.17686 -0.268657,-0.27951 -0.274609,-0.30321 -0.006,-0.0239 -2.8e-4,-0.0632 0.01707,-0.1177 0.07653,-0.24056 0.067,-0.48909 -0.02776,-0.72368 -0.08744,-0.21647 -0.284143,-0.4273 -0.499639,-0.5355 -0.164097,-0.0824 -0.412136,-0.12286 -0.58657,-0.0957 -0.05091,0.008 -0.09527,0.0171 -0.09859,0.0205 -0.0034,0.003 0.120708,0.1332 0.275606,0.28864 l 0.281634,0.28261 v 0.0547 0.0547 l -0.325405,0.32626 c -0.341795,0.34269 -0.365635,0.36063 -0.433408,0.32617 -0.01609,-0.008 -0.15269,-0.13768 -0.303585,-0.2878 -0.312075,-0.31046 -0.285926,-0.30223 -0.29881,-0.0941 -0.03095,0.49993 0.305657,0.94848 0.800156,1.06627 0.152618,0.0363 0.383575,0.0284 0.539644,-0.0186 0.09902,-0.0298 0.112533,-0.0312 0.148926,-0.0154 0.02203,0.01 0.154452,0.13244 0.294314,0.27306 0.139858,0.14061 0.257085,0.25566 0.260498,0.25566 0.0034,0 0.116438,-0.11013 0.251172,-0.24474 z m 3.306558,-1.13589 c 0.116989,-0.11774 0.221643,-0.23194 0.232553,-0.25379 0.02619,-0.0525 0.02471,-0.1225 -0.0038,-0.18366 -0.03201,-0.0683 -0.64828,-0.68097 -0.71109,-0.70693 -0.05845,-0.0242 -0.125182,-0.0243 -0.175508,-4.2e-4 -0.02157,0.0102 -0.136869,0.11636 -0.256185,0.23582 l -0.216935,0.21721 0.452808,0.45293 c 0.24904,0.24912 0.455686,0.45294 0.459205,0.45294 0.0034,0 0.102123,-0.0963 0.219117,-0.21408 z"
       id="path1871"
       inkscape:connector-curvature="0" />
    <path
       style="fill:#cdd2d4;stroke-width:0.0165468;fill-opacity:1"
       d="m -2.3975011,285.88592 c -0.141399,-0.0335 -0.276787,-0.14264 -0.336969,-0.2716 l -0.03859,-0.0827 -1.4e-4,-2.19963 -1.44e-4,-2.19964 0.03647,-0.0753 c 0.05132,-0.10601 0.162441,-0.20801 0.270771,-0.24854 0.07957,-0.0298 0.128744,-0.0341 0.387103,-0.0341 h 0.295957 l 0.0054,-0.31852 c 0.0062,-0.364 0.02021,-0.41606 0.146047,-0.54191 0.125845,-0.12584 0.177911,-0.13988 0.541907,-0.14605 l 0.31852795,-0.005 v -0.29596 c 0,-0.25836 0.0043,-0.30753 0.03409,-0.3871 0.0413,-0.11036 0.142554,-0.21922 0.255731,-0.27491 l 0.08247,-0.0406 h 1.009356 1.00935605 l 0.09366,0.046 c 0.143415,0.0704 0.1981,0.14503 0.373459,0.50946 l 0.158299,0.32897 1.515711,0.005 c 1.42094,0.004 1.520567,0.006 1.593391,0.0348 0.109387,0.0425 0.218434,0.14465 0.273009,0.25579 l 0.04643,0.0946 v 1.73741 1.73742 l -0.04526,0.0858 c -0.05576,0.10576 -0.141442,0.19083 -0.242207,0.24047 -0.07015,0.0346 -0.103142,0.0382 -0.393843,0.0431 l -0.317276,0.005 -0.0054,0.31728 c -0.0049,0.2907 -0.0085,0.32369 -0.04311,0.39384 -0.04975,0.10099 -0.134912,0.18663 -0.24047,0.24185 -0.08314,0.0435 -0.09578,0.0451 -0.403391,0.0509 l -0.31756,0.006 -0.0051,0.31701 c -0.0047,0.29076 -0.0082,0.32336 -0.04283,0.39359 -0.05215,0.10584 -0.14179,0.19316 -0.250748,0.24426 l -0.09211,0.0432 -2.80468105,0.003 c -1.60636895,10e-4 -2.83142495,-0.004 -2.86726995,-0.0123 z m 5.564398,-2.10003 v -1.62158 h -1.505137 c -1.46662105,0 -1.50741205,-8.5e-4 -1.59394305,-0.0332 -0.166649,-0.0623 -0.208165,-0.11424 -0.404682,-0.50577 l -0.177902,-0.35443 -0.88938595,-5e-5 -0.889391,-4e-5 v 2.06835 2.06835 H 0.43667385 3.1668969 Z m -1.637803,1.14584 c -0.03167,-0.0159 -0.07448,-0.0542 -0.09514,-0.0851 -0.03226,-0.0483 -0.03757,-0.0777 -0.03757,-0.20852 0,-0.18567 0.03095,-0.2456 0.152835,-0.29613 0.06826,-0.0283 0.08595,-0.0296 0.147155,-0.0113 0.14218,0.0426 0.207388,0.16612 0.191732,0.3632 -0.01664,0.20956 -0.188612,0.32352 -0.359017,0.23791 z m 0.734599,0.005 c -0.108665,-0.0473 -0.166581,-0.18092 -0.149567,-0.34506 0.01231,-0.11884 0.04611,-0.18604 0.114545,-0.22779 0.08397,-0.0512 0.14749,-0.0563 0.232854,-0.0185 0.11409,0.0505 0.142643,0.10926 0.142719,0.2939 4.7e-5,0.1291 -0.0053,0.15865 -0.03748,0.20684 -0.0677,0.10133 -0.192636,0.13869 -0.303055,0.0906 z m 1.91256,-2.16065 v -1.62159 l -1.518169,-1e-5 -1.518169,-2e-5 -0.09928,-0.047 c -0.0546,-0.0259 -0.12534405,-0.0761 -0.15719505,-0.11168 -0.03188,-0.0356 -0.131919,-0.21528 -0.222513,-0.39971 l -0.164598,-0.33507 h -0.890261 -0.89026095 v 0.25648 0.25647 h 0.42959595 c 0.646925,0 0.653645,0.004 0.922328,0.54977 l 0.16883,0.34293 1.52722005,0.005 1.527215,0.005 0.07957,0.0395 c 0.114417,0.0568 0.217928,0.1672 0.258519,0.27569 0.03337,0.0892 0.03422,0.11934 0.03422,1.2491 v 1.15765 h 0.256478 0.256473 z m 1.005298,-1.00523 -0.0042,-1.61744 -1.530582,-0.008 c -1.716719,-0.009 -1.582214,10e-4 -1.730405,-0.13525 -0.06418,-0.0591 -0.107132,-0.1307 -0.246489,-0.41079 l -0.168762,-0.33921 -0.88796505,-0.004 -0.887969,-0.004 v 0.25565 0.25564 l 0.450902,0.005 0.450898,0.005 0.08274,0.0441 c 0.137773,0.0734 0.191651,0.14692 0.37059805,0.50569 l 0.166911,0.33466 1.518301,0.005 1.5183,0.005 0.08273,0.038 c 0.104365,0.048 0.197115,0.1369 0.25377,0.24324 l 0.04407,0.0827 0.0046,1.17896 0.0045,1.17896 h 0.256134 0.25613 z"
       id="path1894"
       inkscape:connector-curvature="0" />
    <path
       style="fill:#cdd2d4;stroke-width:0.0124101;fill-opacity:1"
       d="m -2.7915701,282.18101 c -0.05239,-0.0277 -0.09632,-0.10089 -0.09632,-0.16056 0,-0.0538 0.02038,-0.0887 0.272316,-0.46538 l 0.224071,-0.33507 9e-6,-0.76012 8e-6,-0.76012 h -0.947387 c -0.904435,0 -0.951755,-0.001 -1.04372,-0.0246 -0.127449,-0.0326 -0.21907,-0.0862 -0.317169,-0.18569 -0.09602,-0.0973 -0.14086,-0.17613 -0.174014,-0.30575 -0.02369,-0.0927 -0.02454,-0.14144 -0.02454,-1.40749 0,-1.26605 8.49e-4,-1.31483 0.02454,-1.40748 0.03388,-0.1324 0.07862,-0.20972 0.18022,-0.31131 0.101593,-0.1016 0.178916,-0.14636 0.311311,-0.18022 0.09345,-0.0239 0.143203,-0.0245 1.887753,-0.0245 1.77127195,0 1.79233195,2.8e-4 1.84074695,0.025 0.05289,0.027 0.09896,0.0991 0.09896,0.15487 0,0.0556 -0.02874,0.10545 -0.265235,0.46006 l -0.23116895,0.34662 v 0.76015 0.76016 h 0.94738595 c 0.903277,0 0.951857,0.001 1.043372,0.0245 0.13359205,0.0342 0.21041105,0.0786 0.31131605,0.18001 0.101809,0.10234 0.146455,0.17952 0.180216,0.31152 0.02369,0.0927 0.02454,0.14144 0.02454,1.40749 0,1.26765 -8.49e-4,1.31472 -0.02462,1.40783 -0.0326,0.12745 -0.08623,0.21907 -0.185688,0.31717 -0.09734,0.096 -0.176131,0.14086 -0.30575405,0.17402 -0.09351,0.0239 -0.142261,0.0245 -1.890363,0.024 -1.76201395,-4.2e-4 -1.79521095,-8.5e-4 -1.84077695,-0.025 z m 3.66707295,-0.36442 c 0.06864,-0.0245 0.12837505,-0.0748 0.16723405,-0.14094 l 0.03443,-0.0585 0.0034,-1.30711 c 0.0021,-0.85583 -8.49e-4,-1.32327 -0.0093,-1.35389 -0.01847,-0.0686 -0.07788,-0.14341 -0.14555405,-0.18319 l -0.05947,-0.0349 -0.958683,-0.003 -0.95867895,-0.003 v 0.17825 c 0,0.29203 -0.04738,0.42757 -0.204765,0.58577 -0.155717,0.15652 -0.293155,0.20456 -0.585262,0.20456 h -0.177961 v 0.80084 c 0,0.65459 -0.003,0.80837 -0.01719,0.84203 -0.0095,0.0226 -0.08493,0.14254 -0.167701,0.26642 l -0.1505,0.22524 1.59176195,-4.2e-4 c 1.297298,-4.2e-4 1.600378,-0.004 1.638325,-0.0172 z m -2.15977595,-0.43728 c -0.0543,-0.0268 -0.09158,-0.0817 -0.09878,-0.14566 -0.0052,-0.0458 0.03867,-0.16958 0.350077,-0.98857 0.19579095,-0.51493 0.36914595,-0.9565 0.38524295,-0.98127 0.03392,-0.0522 0.118488,-0.0978 0.180636,-0.0974 0.0575,3.7e-4 0.136131,0.0377 0.173971,0.0827 0.03871,0.046 0.74356,1.90896 0.74356,1.96527 0,0.12272 -0.122873,0.21245 -0.238606,0.17425 -0.07,-0.0231 -0.103618,-0.0715 -0.169025,-0.24311 -0.03379,-0.0887 -0.06542,-0.17111 -0.07024,-0.18305 -0.0081,-0.0201 -0.04096,-0.0217 -0.440909,-0.0217 h -0.432135 l -0.02466,0.0652 c -0.12407095,0.32786 -0.13336295,0.34459 -0.20941795,0.377 -0.05225,0.0222 -0.09952,0.0211 -0.149714,-0.004 z m 1.10188995,-0.82015 c 2.8e-4,-0.0267 -0.279333,-0.74639 -0.286898,-0.73845 -0.0086,0.009 -0.284067,0.7278 -0.284067,0.74119 0,0.004 0.128443,0.007 0.285434,0.007 0.156987,0 0.285476,-0.004 0.285531,-0.009 z m -1.44895295,-1.24941 c 0.06864,-0.0245 0.128375,-0.0748 0.167234,-0.14094 l 0.03439,-0.0585 0.0062,-1.19137 c 0.0052,-0.99456 0.0091,-1.19649 0.02373,-1.22239 0.0096,-0.0171 0.0837,-0.13016 0.164602,-0.25131 l 0.147078,-0.22028 -1.591761,4.3e-4 c -1.297299,4.2e-4 -1.600375,0.004 -1.638326,0.0172 -0.06864,0.0245 -0.128374,0.0748 -0.167234,0.14094 l -0.03443,0.0585 v 1.33408 1.33409 l 0.03443,0.0585 c 0.03884,0.0661 0.09859,0.11644 0.167234,0.14094 0.06875,0.0245 2.61809,0.0245 2.686839,0 z m -2.04811,-0.37867 c -0.04028,-0.0187 -0.05901,-0.0376 -0.07729,-0.0779 -0.03023,-0.0666 -0.03035,-0.10152 -4.24e-4,-0.16713 0.02904,-0.064 0.07434,-0.0891 0.199641,-0.11092 0.0514,-0.009 0.13113,-0.0279 0.177176,-0.0421 l 0.08372,-0.0258 -0.06059,-0.0708 c -0.208356,-0.24328 -0.329536,-0.53792 -0.357044,-0.86811 l -0.0085,-0.10238 h -0.07496 c -0.134564,0 -0.231721,-0.0781 -0.231721,-0.18615 0,-0.0571 0.04481,-0.12923 0.09933,-0.15987 0.04466,-0.0251 0.06306,-0.0263 0.408074,-0.0263 h 0.361305 v -0.17516 c 0,-0.20147 0.01566,-0.24793 0.09933,-0.29496 0.05975,-0.0336 0.114349,-0.0333 0.175105,8.5e-4 0.08044,0.0452 0.09786,0.0985 0.09786,0.29947 v 0.16982 h 0.361306 c 0.348464,0 0.36302,8.5e-4 0.409533,0.0271 0.0508,0.0286 0.09787,0.10504 0.09787,0.15905 0,0.0162 -0.0115,0.0532 -0.02556,0.0822 -0.03362,0.0695 -0.102021,0.10394 -0.206153,0.10394 h -0.07496 l -0.0085,0.10238 c -0.0273,0.32746 -0.150411,0.62683 -0.357043,0.86811 l -0.06059,0.0708 0.08372,0.0258 c 0.04605,0.0142 0.125776,0.0332 0.177176,0.0421 0.120899,0.021 0.16796,0.0463 0.198817,0.10675 0.03222,0.0632 0.0315,0.10612 -0.003,0.17436 -0.02233,0.0442 -0.03965,0.0601 -0.0865,0.0792 -0.05628,0.023 -0.06335,0.0232 -0.179948,0.004 -0.14443,-0.0239 -0.283689,-0.0685 -0.418682,-0.13421 -0.09282,-0.0452 -0.100501,-0.0469 -0.128014,-0.0289 -0.10293,0.0674 -0.382327,0.15689 -0.536456,0.17176 -0.06577,0.006 -0.09048,0.003 -0.133826,-0.0169 z m 0.794298,-0.72513 c 0.0945,-0.11092 0.159278,-0.21823 0.208228,-0.34496 0.03668,-0.095 0.07447,-0.27417 0.07447,-0.35324 v -0.0418 h -0.374015 -0.374015 l 0.0084,0.0931 c 0.02246,0.24754 0.12627,0.48167 0.298568,0.67319 0.03222,0.0358 0.06352,0.0652 0.0695,0.0652 0.006,0 0.04596,-0.0412 0.08882,-0.0915 z"
       id="path1911"
       inkscape:connector-curvature="0" />
    <path
       style="fill:#cdd2d4;stroke-width:0.00610959;fill-opacity:1"
       d="m -0.31193815,288.94624 c -0.01507,-0.008 -0.03341,-0.024 -0.04262,-0.0379 -0.02466,-0.0373 -0.02407,-0.0799 0.0034,-0.2471 l 0.02348,-0.14192 -0.80989295,-0.002 -0.809898,-0.002 -0.03668,-0.0171 c -0.04772,-0.0223 -0.08946,-0.0638 -0.11105,-0.11053 l -0.01723,-0.0373 v -0.96532 -0.96531 l 0.01609,-0.0343 c 0.02178,-0.0465 0.05252,-0.0789 0.09834,-0.10375 l 0.03829,-0.0208 h 1.40825995 1.408256 l 0.03829,0.0208 c 0.04582,0.0248 0.07655,0.0573 0.09834,0.10375 l 0.01609,0.0343 v 0.96531 0.96532 l -0.01723,0.0373 c -0.02169,0.0469 -0.06357,0.0885 -0.111051,0.11015 -0.0329,0.015 -0.04532,0.017 -0.120823,0.0194 -0.07395,0.003 -0.08383,0.004 -0.08134,0.0126 0.01206,0.0422 0.04712,0.29074 0.04508,0.31947 -0.0046,0.0647 -0.0534,0.10947 -0.118242,0.10847 -0.04012,-4.2e-4 -0.04139,-0.001 -0.238576,-0.10492 -0.120089,-0.0632 -0.177299,-0.0901 -0.19141,-0.0901 -0.01409,0 -0.07518,0.0287 -0.204115,0.096 -0.169471,0.0885 -0.186889,0.0962 -0.220743,0.0981 -0.02865,0.002 -0.04259,-8.5e-4 -0.06322,-0.0114 z m 0.31056,-0.30983 c 0.165995,-0.0865 0.19259,-0.0851 0.391284,0.0197 0.0721,0.038 0.131742,0.0686 0.132544,0.068 0.0017,-10e-4 -0.0725,-0.4577 -0.07493,-0.4605 -8.49e-4,-0.001 -0.01503,0.005 -0.03133,0.0129 -0.07038,0.0352 -0.151507,0.0532 -0.240407,0.0532 -0.0889,0 -0.170027,-0.0179 -0.24041,-0.0532 -0.0163,-0.008 -0.03048,-0.014 -0.0315,-0.0129 -0.0017,0.002 -0.07635,0.45096 -0.07635,0.45988 0,0.003 0.01719,-0.005 0.03816,-0.0167 0.02101,-0.0116 0.0808,-0.0433 0.132883,-0.0704 z m -0.293261,-0.31091 c 0,-0.002 0.0072,-0.0486 0.01596,-0.10294 l 0.01596,-0.0987 -0.02441,-0.036 c -0.03507,-0.0518 -0.05996,-0.10405 -0.07887,-0.1656 -0.01494,-0.0486 -0.01651,-0.063 -0.01677,-0.1515 -2.85e-4,-0.11425 0.0094,-0.15874 0.0546,-0.2505 0.109747,-0.2228 0.354356,-0.34791 0.597347,-0.30553 0.22397,0.0391 0.397262,0.20115 0.454031,0.42468 0.01541,0.0607 0.01571,0.1976 4.24e-4,0.25861 -0.01498,0.0604 -0.04388,0.1261 -0.07911,0.18 l -0.03078,0.0471 0.01065,0.0672 c 0.0059,0.037 0.01346,0.083 0.01685,0.10233 l 0.0062,0.0352 h 0.08148 c 0.07727,0 0.08197,-8.5e-4 0.09099,-0.0136 0.0085,-0.0121 0.0095,-0.11049 0.0095,-0.93036 0,-0.81986 -8.49e-4,-0.91821 -0.0095,-0.93035 l -0.0095,-0.0136 h -1.361748 -1.36174195 l -0.0095,0.0136 c -0.0085,0.0121 -0.0095,0.11049 -0.0095,0.93035 0,0.81987 8.49e-4,0.91821 0.0095,0.93036 l 0.0095,0.0136 h 0.809172 c 0.44504695,0 0.80917595,-0.002 0.80917595,-0.004 z m -1.37801395,-0.85361 c -0.05451,-0.0237 -0.07305,-0.0908 -0.0385,-0.13928 0.02657,-0.0374 0.0021,-0.0358 0.527007,-0.034 l 0.47920395,0.002 0.01634,0.0153 c 0.0508,0.0475 0.04321,0.12106 -0.01558,0.15121 l -0.02683,0.0138 -0.46150995,-2.3e-4 c -0.369881,-1.9e-4 -0.465203,-0.002 -0.480138,-0.008 z m -0.01498,-0.51224 c -0.05631,-0.0384 -0.0552,-0.11092 0.0025,-0.1539 l 0.01689,-0.0126 h 1.08355595 1.083555 l 0.01685,0.0126 c 0.05756,0.043 0.05867,0.11546 0.0025,0.1539 l -0.02012,0.0138 h -1.082643 -1.08264795 z m 1.96899795,1.17206 c 0.121417,-0.0384 0.222127,-0.13989 0.257136,-0.25905 0.04228,-0.14395 -0.01303,-0.31203 -0.132208,-0.40162 -0.04636,-0.0349 -0.06945,-0.0468 -0.120526,-0.0624 -0.175605,-0.0536 -0.362948,0.0257 -0.444814,0.18832 -0.05226,0.10383 -0.05713,0.20466 -0.01503,0.3112 0.04461,0.11286 0.148925,0.20269 0.266555,0.22955 0.04586,0.0105 0.146981,0.007 0.188876,-0.006 z"
       id="path1928"
       inkscape:connector-curvature="0" />
  </g>
</svg>
