<?xml version="1.0" encoding="UTF-8" standalone="no"?>
<!-- Created with Inkscape (http://www.inkscape.org/) -->

<svg
   xmlns:dc="http://purl.org/dc/elements/1.1/"
   xmlns:cc="http://creativecommons.org/ns#"
   xmlns:rdf="http://www.w3.org/1999/02/22-rdf-syntax-ns#"
   xmlns:svg="http://www.w3.org/2000/svg"
   xmlns="http://www.w3.org/2000/svg"
   xmlns:sodipodi="http://sodipodi.sourceforge.net/DTD/sodipodi-0.dtd"
   xmlns:inkscape="http://www.inkscape.org/namespaces/inkscape"
   width="20"
   height="20"
   viewBox="0 0 5.2916665 5.2916668"
   version="1.1"
   id="svg980"
   inkscape:version="0.92.5 (2060ec1f9f, 2020-04-08)"
   sodipodi:docname="exp.svg">
  <defs
     id="defs974" />
  <sodipodi:namedview
     id="base"
     pagecolor="#ffffff"
     bordercolor="#666666"
     borderopacity="1.0"
     inkscape:pageopacity="0.0"
     inkscape:pageshadow="2"
     inkscape:zoom="11.2"
     inkscape:cx="7.9829986"
     inkscape:cy="2.456841"
     inkscape:document-units="mm"
     inkscape:current-layer="layer1"
     showgrid="false"
     units="px"
     inkscape:window-width="1247"
     inkscape:window-height="1020"
     inkscape:window-x="1752"
     inkscape:window-y="437"
     inkscape:window-maximized="0" />
  <metadata
     id="metadata977">
    <rdf:RDF>
      <cc:Work
         rdf:about="">
        <dc:format>image/svg+xml</dc:format>
        <dc:type
           rdf:resource="http://purl.org/dc/dcmitype/StillImage" />
        <dc:title></dc:title>
      </cc:Work>
    </rdf:RDF>
  </metadata>
  <g
     inkscape:label="Layer 1"
     inkscape:groupmode="layer"
     id="layer1"
     transform="translate(0,-291.70832)">
    <path
       inkscape:connector-curvature="0"
       id="path931"
       d="m -2.1149845,303.637 c -0.2707562,-0.046 -0.5025192,-0.24564 -0.5900817,-0.50844 -0.014561,-0.0437 -0.026543,-0.0926 -0.026628,-0.10866 -1.102e-4,-0.0196 -0.003,-0.0248 -0.00877,-0.0156 -0.019231,0.0304 -0.022068,-0.21316 -0.020988,-1.80296 9.658e-4,-1.40469 0.00574,-1.85255 0.018876,-1.76556 0.0013,0.008 0.00851,-0.0124 0.016036,-0.0466 0.033663,-0.15265 0.1134216,-0.29145 0.227137,-0.39525 0.084681,-0.0772 0.159393,-0.12182 0.2722807,-0.1622 l 0.090671,-0.0324 0.8369798,-0.003 c 0.934803,-0.004 0.8999481,-0.006 0.9717144,0.0679 0.092451,0.0949 0.094383,0.23813 0.00448,0.33185 -0.070559,0.0736 -0.00728,0.0685 -0.9127912,0.0742 -0.8016884,0.006 -0.8184924,0.006 -0.8642722,0.0268 -0.056244,0.0261 -0.1064477,0.0744 -0.1374095,0.13224 l -0.022886,0.0428 -0.00271,1.72266 c -0.00304,1.92946 -0.00822,1.79282 0.071341,1.87914 0.022945,0.0249 0.063461,0.056 0.090035,0.0691 l 0.048315,0.0238 h 1.4799328 1.4799332 l 0.048856,-0.0243 c 0.026868,-0.0133 0.065745,-0.043 0.086386,-0.0659 0.073285,-0.0811 0.071177,-0.0648 0.076917,-0.59294 0.00577,-0.53142 0.00211,-0.50543 0.081391,-0.57706 0.062736,-0.0566 0.1444631,-0.0731 0.2330585,-0.0468 0.056012,0.0166 0.1323297,0.093 0.1489633,0.14898 0.00914,0.0308 0.012648,0.16969 0.012648,0.49978 0,0.52445 -0.00366,0.55795 -0.077667,0.70986 -0.097658,0.20048 -0.2429558,0.32529 -0.4656646,0.40002 l -0.072445,0.0243 -1.5213293,0.002 c -0.8367309,7.3e-4 -1.5442659,-0.003 -1.5722987,-0.007 z m 1.0107413,-1.39971 c -0.050871,-0.019 -0.1032748,-0.0651 -0.1292745,-0.11381 -0.022974,-0.0429 -0.02326,-0.0485 -0.02326,-0.44714 0,-0.35078 0.00248,-0.41514 0.018792,-0.49159 0.042474,-0.19882 0.1130615,-0.36116 0.2308695,-0.53093 0.044758,-0.0645 0.2837568,-0.30988 0.9964484,-1.02308 1.0009113,-1.00164 1.0066261,-1.00686 1.1793338,-1.07934 0.4740027,-0.19889 1.0184977,7.5e-4 1.2471987,0.45704 0.041321,0.0825 0.089196,0.23562 0.089443,0.28615 1.099e-4,0.0223 0.00297,0.0281 0.00912,0.0183 0.012016,-0.0189 0.01864,0.10664 0.01057,0.20041 -0.00344,0.0398 -0.0073,0.0655 -0.00859,0.0569 -0.00129,-0.008 -0.010718,0.0241 -0.020936,0.0725 -0.010218,0.0484 -0.033285,0.12328 -0.051259,0.16644 -0.074449,0.17876 -0.070237,0.17415 -1.0866132,1.19032 -0.7255548,0.72542 -0.9681776,0.96186 -1.0334577,1.00712 -0.1470275,0.10196 -0.3189611,0.17738 -0.4994203,0.21908 -0.065156,0.0151 -0.1432522,0.0185 -0.4864119,0.0211 -0.3029259,0.002 -0.4175322,-1.1e-4 -0.4425419,-0.01 z m 0.7976082,-0.47811 c 0.1125522,-0.0196 0.2034315,-0.0527 0.2990657,-0.10861 0.063969,-0.0374 0.1698348,-0.1383 0.693849,-0.66101 0.3400993,-0.33925 0.6183629,-0.62154 0.6183629,-0.62731 0,-0.0137 -0.6641968,-0.67813 -0.6779296,-0.67813 -0.017405,0 -1.2208286,1.21201 -1.2570116,1.26598 -0.051294,0.0765 -0.1100295,0.21059 -0.1300038,0.29674 -0.022793,0.0983 -0.034701,0.47075 -0.016158,0.5054 0.011613,0.0217 0.017874,0.0224 0.1965621,0.0224 0.1172963,0 0.2168931,-0.006 0.2732636,-0.0154 z m 2.1218082,-1.89809 c 0.1145052,-0.11633 0.1476975,-0.15692 0.1735467,-0.21216 0.042593,-0.0911 0.057606,-0.19007 0.042563,-0.28084 -0.057416,-0.34651 -0.4447308,-0.5252 -0.7380883,-0.34053 -0.059594,0.0375 -0.3093759,0.2828 -0.3093759,0.30381 0,0.0213 0.6520848,0.67357 0.6734101,0.67357 0.009,0 0.080071,-0.0647 0.1579444,-0.14385 z"
       style="fill:#cdd2d4;fill-opacity:1;stroke-width:0.01034918" />
    <path
       style="fill:#cdd2d4;fill-opacity:1;stroke:#cdd2d4;stroke-width:0.20080547;stroke-miterlimit:4;stroke-dasharray:none;stroke-opacity:1"
       d="m 0.47138867,296.86188 c -0.16959456,-0.0333 -0.31374417,-0.18042 -0.34660933,-0.35373 -0.006694,-0.0348 -0.0100403,-0.62379 -0.0100403,-1.70826 0,-1.651 3.824e-5,-1.65519 0.0203674,-1.69713 0.0147257,-0.0305 0.031842,-0.0476 0.0623453,-0.0623 0.0412129,-0.0199 0.0555562,-0.0204 0.72546232,-0.0204 H 1.6063412 v -0.0876 c 0,-0.0481 0.00478,-0.11149 0.01004,-0.14073 0.033659,-0.1774 0.1769287,-0.32068 0.3543356,-0.35433 0.071621,-0.0136 1.2739675,-0.0136 1.3456071,0 0.1342337,0.0254 0.2598231,0.12073 0.3152359,0.23916 0.036336,0.0777 0.049149,0.14435 0.049149,0.2559 v 0.0876 l 0.6890115,2e-5 c 0.7818121,3e-5 0.7385434,-0.005 0.7803875,0.0786 l 0.022279,0.0441 v 1.65612 c 0,1.08516 -0.00382,1.67445 -0.010041,1.70929 -0.033659,0.1774 -0.1769287,0.32068 -0.3543452,0.35433 -0.066075,0.0125 -4.27263371,0.012 -4.33658547,-6.3e-4 z m 4.32185973,-0.3017 c 0.018646,-0.009 0.043699,-0.0299 0.055843,-0.0469 l 0.021993,-0.0309 0.00192,-1.19527 0.00192,-1.19528 -0.12165,0.36111 c -0.066935,0.19862 -0.1316328,0.38067 -0.1438246,0.40457 -0.054122,0.10611 -0.1811265,0.2005 -0.3041819,0.22608 -0.033468,0.007 -0.2086083,0.0109 -0.4865038,0.0109 H 3.3846092 v 0.0858 c 0,0.11091 -0.021611,0.16062 -0.082713,0.19021 -0.041022,0.0199 -0.056226,0.0204 -0.6581351,0.0204 -0.6019001,0 -0.6170657,-3.3e-4 -0.6581352,-0.0204 -0.061123,-0.0296 -0.082734,-0.0793 -0.082734,-0.19021 v -0.0858 H 1.4687321 c -0.2778957,0 -0.452998,-0.004 -0.48650386,-0.0109 -0.12305552,-0.0256 -0.25006019,-0.11997 -0.30419161,-0.22608 -0.012144,-0.0239 -0.0768798,-0.20595 -0.14381496,-0.40457 l -0.12164987,-0.36111 0.001912,1.19528 0.001912,1.19527 0.0218974,0.0308 c 0.0485758,0.0681 -0.14022918,0.0626 2.2041556,0.0629 1.9334414,2.1e-4 2.1203433,-0.002 2.1512004,-0.0158 z m -1.7051826,-1.61389 v -0.14817 H 2.6435397 2.1990138 v 0.14817 0.14818 h 0.4445259 0.4445261 z m -1.1853931,-0.23396 c 0,-0.1109 0.02161,-0.16062 0.082713,-0.19022 0.041117,-0.0199 0.056226,-0.0204 0.6581352,-0.0204 0.6019002,0 0.6170657,3.1e-4 0.6581352,0.0204 0.061102,0.0296 0.082713,0.0793 0.082713,0.19022 v 0.0858 h 0.43002 c 0.465534,0 0.4745321,-7.5e-4 0.515984,-0.0537 0.011666,-0.0148 0.1211622,-0.32786 0.2500698,-0.71491 0.126125,-0.37867 0.2313567,-0.69407 0.2338522,-0.70086 0.00382,-0.01 -0.4346864,-0.0123 -2.1708027,-0.0123 -1.73610673,0 -2.17442682,0.002 -2.17080277,0.0123 0.002869,0.007 0.10773691,0.32219 0.23385231,0.70086 0.1286972,0.3864 0.23841347,0.70009 0.25005063,0.71487 0.0411173,0.0522 0.0473327,0.0529 0.51385163,0.0533 l 0.4321716,3.1e-4 z m 1.4801753,-1.79356 c -0.00287,-0.0856 -0.00669,-0.10602 -0.025435,-0.13214 -0.046281,-0.0649 -0.023905,-0.063 -0.7139017,-0.063 -0.6900154,0 -0.6675825,-0.002 -0.7139017,0.063 -0.018646,0.0261 -0.022567,0.0465 -0.025435,0.13214 l -0.00382,0.10125 H 2.6430137 3.385688 Z"
       id="path1820"
       inkscape:connector-curvature="0" />
  </g>
</svg>
