<?xml version="1.0" encoding="UTF-8" standalone="no"?>
<!-- Created with Inkscape (http://www.inkscape.org/) -->

<svg
   xmlns:dc="http://purl.org/dc/elements/1.1/"
   xmlns:cc="http://creativecommons.org/ns#"
   xmlns:rdf="http://www.w3.org/1999/02/22-rdf-syntax-ns#"
   xmlns:svg="http://www.w3.org/2000/svg"
   xmlns="http://www.w3.org/2000/svg"
   xmlns:sodipodi="http://sodipodi.sourceforge.net/DTD/sodipodi-0.dtd"
   xmlns:inkscape="http://www.inkscape.org/namespaces/inkscape"
   width="20"
   height="20"
   viewBox="0 0 5.2916665 5.2916668"
   version="1.1"
   id="svg980"
   inkscape:version="0.92.5 (2060ec1f9f, 2020-04-08)"
   sodipodi:docname="for.svg">
  <defs
     id="defs974" />
  <sodipodi:namedview
     id="base"
     pagecolor="#ffffff"
     bordercolor="#666666"
     borderopacity="1.0"
     inkscape:pageopacity="0.0"
     inkscape:pageshadow="2"
     inkscape:zoom="11.2"
     inkscape:cx="5.5722843"
     inkscape:cy="-0.40030184"
     inkscape:document-units="mm"
     inkscape:current-layer="layer1"
     showgrid="false"
     units="px"
     inkscape:window-width="1247"
     inkscape:window-height="1020"
     inkscape:window-x="1752"
     inkscape:window-y="437"
     inkscape:window-maximized="0" />
  <metadata
     id="metadata977">
    <rdf:RDF>
      <cc:Work
         rdf:about="">
        <dc:format>image/svg+xml</dc:format>
        <dc:type
           rdf:resource="http://purl.org/dc/dcmitype/StillImage" />
        <dc:title></dc:title>
      </cc:Work>
    </rdf:RDF>
  </metadata>
  <g
     inkscape:label="Layer 1"
     inkscape:groupmode="layer"
     id="layer1"
     transform="translate(0,-291.70832)">
    <path
       inkscape:connector-curvature="0"
       id="path931"
       d="m -2.1149845,303.637 c -0.2707562,-0.046 -0.5025192,-0.24564 -0.5900817,-0.50844 -0.014561,-0.0437 -0.026543,-0.0926 -0.026628,-0.10866 -1.102e-4,-0.0196 -0.003,-0.0248 -0.00877,-0.0156 -0.019231,0.0304 -0.022068,-0.21316 -0.020988,-1.80296 9.658e-4,-1.40469 0.00574,-1.85255 0.018876,-1.76556 0.0013,0.008 0.00851,-0.0124 0.016036,-0.0466 0.033663,-0.15265 0.1134216,-0.29145 0.227137,-0.39525 0.084681,-0.0772 0.159393,-0.12182 0.2722807,-0.1622 l 0.090671,-0.0324 0.8369798,-0.003 c 0.934803,-0.004 0.8999481,-0.006 0.9717144,0.0679 0.092451,0.0949 0.094383,0.23813 0.00448,0.33185 -0.070559,0.0736 -0.00728,0.0685 -0.9127912,0.0742 -0.8016884,0.006 -0.8184924,0.006 -0.8642722,0.0268 -0.056244,0.0261 -0.1064477,0.0744 -0.1374095,0.13224 l -0.022886,0.0428 -0.00271,1.72266 c -0.00304,1.92946 -0.00822,1.79282 0.071341,1.87914 0.022945,0.0249 0.063461,0.056 0.090035,0.0691 l 0.048315,0.0238 h 1.4799328 1.4799332 l 0.048856,-0.0243 c 0.026868,-0.0133 0.065745,-0.043 0.086386,-0.0659 0.073285,-0.0811 0.071177,-0.0648 0.076917,-0.59294 0.00577,-0.53142 0.00211,-0.50543 0.081391,-0.57706 0.062736,-0.0566 0.1444631,-0.0731 0.2330585,-0.0468 0.056012,0.0166 0.1323297,0.093 0.1489633,0.14898 0.00914,0.0308 0.012648,0.16969 0.012648,0.49978 0,0.52445 -0.00366,0.55795 -0.077667,0.70986 -0.097658,0.20048 -0.2429558,0.32529 -0.4656646,0.40002 l -0.072445,0.0243 -1.5213293,0.002 c -0.8367309,7.3e-4 -1.5442659,-0.003 -1.5722987,-0.007 z m 1.0107413,-1.39971 c -0.050871,-0.019 -0.1032748,-0.0651 -0.1292745,-0.11381 -0.022974,-0.0429 -0.02326,-0.0485 -0.02326,-0.44714 0,-0.35078 0.00248,-0.41514 0.018792,-0.49159 0.042474,-0.19882 0.1130615,-0.36116 0.2308695,-0.53093 0.044758,-0.0645 0.2837568,-0.30988 0.9964484,-1.02308 1.0009113,-1.00164 1.0066261,-1.00686 1.1793338,-1.07934 0.4740027,-0.19889 1.0184977,7.5e-4 1.2471987,0.45704 0.041321,0.0825 0.089196,0.23562 0.089443,0.28615 1.099e-4,0.0223 0.00297,0.0281 0.00912,0.0183 0.012016,-0.0189 0.01864,0.10664 0.01057,0.20041 -0.00344,0.0398 -0.0073,0.0655 -0.00859,0.0569 -0.00129,-0.008 -0.010718,0.0241 -0.020936,0.0725 -0.010218,0.0484 -0.033285,0.12328 -0.051259,0.16644 -0.074449,0.17876 -0.070237,0.17415 -1.0866132,1.19032 -0.7255548,0.72542 -0.9681776,0.96186 -1.0334577,1.00712 -0.1470275,0.10196 -0.3189611,0.17738 -0.4994203,0.21908 -0.065156,0.0151 -0.1432522,0.0185 -0.4864119,0.0211 -0.3029259,0.002 -0.4175322,-1.1e-4 -0.4425419,-0.01 z m 0.7976082,-0.47811 c 0.1125522,-0.0196 0.2034315,-0.0527 0.2990657,-0.10861 0.063969,-0.0374 0.1698348,-0.1383 0.693849,-0.66101 0.3400993,-0.33925 0.6183629,-0.62154 0.6183629,-0.62731 0,-0.0137 -0.6641968,-0.67813 -0.6779296,-0.67813 -0.017405,0 -1.2208286,1.21201 -1.2570116,1.26598 -0.051294,0.0765 -0.1100295,0.21059 -0.1300038,0.29674 -0.022793,0.0983 -0.034701,0.47075 -0.016158,0.5054 0.011613,0.0217 0.017874,0.0224 0.1965621,0.0224 0.1172963,0 0.2168931,-0.006 0.2732636,-0.0154 z m 2.1218082,-1.89809 c 0.1145052,-0.11633 0.1476975,-0.15692 0.1735467,-0.21216 0.042593,-0.0911 0.057606,-0.19007 0.042563,-0.28084 -0.057416,-0.34651 -0.4447308,-0.5252 -0.7380883,-0.34053 -0.059594,0.0375 -0.3093759,0.2828 -0.3093759,0.30381 0,0.0213 0.6520848,0.67357 0.6734101,0.67357 0.009,0 0.080071,-0.0647 0.1579444,-0.14385 z"
       style="fill:#cdd2d4;fill-opacity:1;stroke-width:0.01034918" />
    <path
       style="fill:#cdd2d4;fill-opacity:1;stroke:#cdd2d4;stroke-width:0.20007066;stroke-miterlimit:4;stroke-dasharray:none;stroke-opacity:1"
       d="m 4.5697326,296.84486 c -0.065738,-0.0438 -0.067643,-0.0563 -0.067643,-0.38697 v -0.2961 l -0.051447,-0.0239 c -0.028582,-0.0131 -0.07717,-0.0489 -0.1082286,-0.0794 -0.2164575,-0.21116 -0.1655824,-0.56474 0.1017503,-0.70723 l 0.058116,-0.0308 v -0.6639 c 0,-0.36515 0,-0.66392 -0.00953,-0.66392 0,0 -0.090508,0.0296 -0.1914963,0.0658 l -0.1844449,0.0658 v 0.50758 c 0,0.57681 0,0.54138 -0.088603,0.63659 -0.1570079,0.16603 -0.5545769,0.29646 -1.0613274,0.34816 -0.1351906,0.0138 -0.5302826,0.0137 -0.6714753,-1.5e-4 -0.1636769,-0.016 -0.3785146,-0.0541 -0.5291393,-0.0937 -0.3206847,-0.0844 -0.5259953,-0.20142 -0.5934477,-0.33832 -0.021913,-0.0446 -0.021913,-0.049 -0.024771,-0.55309 v -0.50814 l -0.46902304,-0.16619 c -0.25790062,-0.0915 -0.48245613,-0.17514 -0.49903342,-0.18608 -0.0352505,-0.0235 -0.0647848,-0.0765 -0.0647848,-0.11794 0,-0.0382 0.0276288,-0.0921 0.0590685,-0.11522 0.0409668,-0.0296 2.41771116,-0.86428 2.46153616,-0.86428 0.039061,0 2.3863668,0.82076 2.4445778,0.85464 0.089555,0.0522 0.097558,0.18004 0.015243,0.24059 -0.01429,0.0102 -0.084792,0.0398 -0.157484,0.0656 l -0.1320459,0.047 v 0.71995 0.71995 l 0.051447,0.0259 c 0.065738,0.0333 0.1551025,0.11855 0.1882568,0.17946 0.1188039,0.2183 0.036203,0.49419 -0.1827311,0.60736 l -0.05621,0.0292 v 0.29534 c 0,0.26148 0,0.29925 -0.017149,0.32958 -0.024772,0.0492 -0.074312,0.0789 -0.130427,0.0789 -0.03144,0 -0.057163,-0.007 -0.080028,-0.0224 z m 0.1436698,-0.97193 c 0.073359,-0.0356 0.1032747,-0.12344 0.06669,-0.19668 -0.051447,-0.10183 -0.1972125,-0.10616 -0.2590441,-0.008 -0.025723,0.0401 -0.021913,0.11912 0.00953,0.15805 0.021913,0.0306 0.08765,0.066 0.1217571,0.066 0.013337,0 0.041919,-0.009 0.064785,-0.0196 z m -1.7571921,-0.55184 c 0.3425971,-0.0323 0.7006285,-0.132 0.8342948,-0.23237 l 0.032392,-0.024 v -0.41295 c 0,-0.3342 0,-0.41296 -0.013337,-0.41296 -0.00953,0 -0.2683806,0.0908 -0.5806813,0.20182 -0.3122056,0.11099 -0.5807766,0.20179 -0.5967823,0.20179 -0.016196,0 -0.2845767,-0.0908 -0.5966869,-0.20179 -0.3122066,-0.11101 -0.5738228,-0.20182 -0.5814446,-0.20182 -0.011433,0 -0.014291,0.0647 -0.014291,0.41296 v 0.41295 l 0.032392,0.024 c 0.1355717,0.10171 0.4927455,0.20017 0.8441077,0.23263 0.2198872,0.0203 0.4226254,0.0202 0.6399402,-2.8e-4 z m 0.6271739,-1.31872 c 0.5186594,-0.18418 0.9496687,-0.33731 0.9577668,-0.3403 0.013337,-0.005 0.013337,-0.007 0,-0.0135 -0.030487,-0.017 -1.8911441,-0.66976 -1.9088647,-0.66976 -0.01048,0 -0.4276749,0.14445 -0.9277563,0.32101 -0.4999861,0.17656 -0.92813731,0.32768 -0.95147889,0.33581 -0.0228652,0.009 -0.0400141,0.0172 -0.037156,0.0201 0.009527,0.007 1.89743209,0.68021 1.91248509,0.681 0.00953,3.5e-4 0.4361541,-0.15005 0.9549086,-0.33424 z"
       id="path1837"
       inkscape:connector-curvature="0" />
  </g>
</svg>
