<?xml version="1.0" encoding="UTF-8" standalone="no"?>
<!-- Created with Inkscape (http://www.inkscape.org/) -->

<svg
   xmlns:dc="http://purl.org/dc/elements/1.1/"
   xmlns:cc="http://creativecommons.org/ns#"
   xmlns:rdf="http://www.w3.org/1999/02/22-rdf-syntax-ns#"
   xmlns:svg="http://www.w3.org/2000/svg"
   xmlns="http://www.w3.org/2000/svg"
   xmlns:sodipodi="http://sodipodi.sourceforge.net/DTD/sodipodi-0.dtd"
   xmlns:inkscape="http://www.inkscape.org/namespaces/inkscape"
   width="20"
   height="20"
   viewBox="0 0 5.2916665 5.2916668"
   version="1.1"
   id="svg980"
   inkscape:version="0.92.5 (2060ec1f9f, 2020-04-08)"
   sodipodi:docname="forma-fim.svg">
  <defs
     id="defs974" />
  <sodipodi:namedview
     id="base"
     pagecolor="#ffffff"
     bordercolor="#666666"
     borderopacity="1.0"
     inkscape:pageopacity="0.0"
     inkscape:pageshadow="2"
     inkscape:zoom="16"
     inkscape:cx="4.916804"
     inkscape:cy="6.8153784"
     inkscape:document-units="mm"
     inkscape:current-layer="layer1"
     showgrid="false"
     units="px"
     inkscape:window-width="1920"
     inkscape:window-height="1015"
     inkscape:window-x="3000"
     inkscape:window-y="437"
     inkscape:window-maximized="1" />
  <metadata
     id="metadata977">
    <rdf:RDF>
      <cc:Work
         rdf:about="">
        <dc:format>image/svg+xml</dc:format>
        <dc:type
           rdf:resource="http://purl.org/dc/dcmitype/StillImage" />
        <dc:title></dc:title>
      </cc:Work>
    </rdf:RDF>
  </metadata>
  <g
     inkscape:label="Layer 1"
     inkscape:groupmode="layer"
     id="layer1"
     transform="translate(0,-291.70832)">
    <path
       inkscape:connector-curvature="0"
       id="path931"
       d="m -0.31091517,302.5011 c -0.27075626,-0.046 -0.50251923,-0.24564 -0.5900817,-0.50844 -0.0145606,-0.0437 -0.026543,-0.0926 -0.0266285,-0.10866 -1.102e-4,-0.0196 -0.002999,-0.0248 -0.008775,-0.0156 -0.0192314,0.0304 -0.0220681,-0.21316 -0.0209882,-1.80296 9.658e-4,-1.40469 0.00574,-1.85255 0.0188763,-1.76556 0.001297,0.008 0.008508,-0.0124 0.016036,-0.0466 0.0336632,-0.15265 0.11342164,-0.29145 0.22713696,-0.39525 0.0846805,-0.0772 0.15939308,-0.12182 0.27228076,-0.1622 l 0.0906712,-0.0324 0.83697977,-0.003 c 0.93480299,-0.004 0.89994809,-0.006 0.97171439,0.0679 0.092451,0.0949 0.094383,0.23813 0.00448,0.33185 -0.070559,0.0736 -0.00728,0.0685 -0.91279119,0.0742 -0.80168836,0.006 -0.81849237,0.006 -0.86427221,0.0268 -0.0562436,0.0261 -0.10644764,0.0744 -0.13740944,0.13224 l -0.0228858,0.0428 -0.002705,1.72266 c -0.003035,1.92946 -0.008223,1.79282 0.0713413,1.87914 0.0229447,0.0249 0.0634613,0.056 0.0900346,0.0691 l 0.0483148,0.0238 H 1.2303466 2.7102798 l 0.048856,-0.0243 c 0.026868,-0.0133 0.065745,-0.043 0.086386,-0.0659 0.073285,-0.0811 0.071177,-0.0648 0.076917,-0.59294 0.00577,-0.53142 0.00211,-0.50543 0.081391,-0.57706 0.062736,-0.0566 0.1444631,-0.0731 0.2330585,-0.0468 0.056012,0.0166 0.1323297,0.093 0.1489633,0.14898 0.00914,0.0308 0.012648,0.16969 0.012648,0.49978 0,0.52445 -0.00366,0.55795 -0.077667,0.70986 -0.097658,0.20048 -0.2429558,0.32529 -0.4656646,0.40002 l -0.072445,0.0243 -1.5213293,0.002 c -0.83673089,7.3e-4 -1.54426592,-0.003 -1.57229868,-0.007 z m 1.01074128,-1.39971 c -0.050871,-0.019 -0.1032748,-0.0651 -0.1292745,-0.11381 -0.022974,-0.0429 -0.02326,-0.0485 -0.02326,-0.44714 0,-0.35078 0.00248,-0.41514 0.018792,-0.49159 0.042474,-0.19882 0.1130615,-0.36116 0.2308695,-0.53093 0.044758,-0.0645 0.28375679,-0.30988 0.99644839,-1.02308 1.0009113,-1.00164 1.0066261,-1.00686 1.1793338,-1.07934 0.4740027,-0.19889 1.0184977,7.5e-4 1.2471987,0.45704 0.041321,0.0825 0.089196,0.23562 0.089443,0.28615 1.099e-4,0.0223 0.00297,0.0281 0.00912,0.0183 0.012016,-0.0189 0.01864,0.10664 0.01057,0.20041 -0.00344,0.0398 -0.0073,0.0655 -0.00859,0.0569 -0.00129,-0.008 -0.010718,0.0241 -0.020936,0.0725 -0.010218,0.0484 -0.033285,0.12328 -0.051259,0.16644 -0.074449,0.17876 -0.070237,0.17415 -1.0866132,1.19032 -0.7255548,0.72542 -0.9681776,0.96186 -1.0334577,1.00712 -0.1470275,0.10196 -0.3189611,0.17738 -0.4994203,0.21908 -0.065156,0.0151 -0.1432522,0.0185 -0.4864119,0.0211 -0.30292589,0.002 -0.41753219,-1.1e-4 -0.44254189,-0.01 z m 0.79760819,-0.47811 c 0.1125522,-0.0196 0.2034315,-0.0527 0.2990657,-0.10861 0.063969,-0.0374 0.1698348,-0.1383 0.693849,-0.66101 0.3400993,-0.33925 0.6183629,-0.62154 0.6183629,-0.62731 0,-0.0137 -0.6641968,-0.67813 -0.6779296,-0.67813 -0.017405,0 -1.2208286,1.21201 -1.2570116,1.26598 -0.051294,0.0765 -0.1100295,0.21059 -0.1300038,0.29674 -0.022793,0.0983 -0.034701,0.47075 -0.016158,0.5054 0.011613,0.0217 0.017874,0.0224 0.1965621,0.0224 0.1172963,0 0.2168931,-0.006 0.2732636,-0.0154 z m 2.1218082,-1.89809 c 0.1145052,-0.11633 0.1476975,-0.15692 0.1735467,-0.21216 0.042593,-0.0911 0.057606,-0.19007 0.042563,-0.28084 -0.057416,-0.34651 -0.4447308,-0.5252 -0.7380883,-0.34053 -0.059594,0.0375 -0.3093759,0.2828 -0.3093759,0.30381 0,0.0213 0.6520848,0.67357 0.6734101,0.67357 0.009,0 0.080071,-0.0647 0.1579444,-0.14385 z"
       style="fill:#cdd2d4;fill-opacity:1;stroke-width:0.01034918" />
    <path
       style="fill:#cdd2d4;fill-opacity:1;stroke:#cdd2d4;stroke-width:0.01028752;stroke-opacity:1"
       d="m -5.9653016,298.20935 c -0.043429,-0.023 -0.079846,-0.0836 -0.079846,-0.1331 0,-0.0446 0.016894,-0.0735 0.2257399,-0.38578 l 0.1857466,-0.27776 7.5e-6,-0.63011 6.6e-6,-0.63012 h -0.7853486 c -0.7497433,0 -0.7889698,-8.2e-4 -0.8652054,-0.0204 -0.1056506,-0.027 -0.181601,-0.0715 -0.2629215,-0.15393 -0.079597,-0.0807 -0.1167677,-0.146 -0.1442512,-0.25345 -0.019638,-0.0768 -0.020343,-0.11725 -0.020343,-1.16676 0,-1.04951 7.037e-4,-1.08995 0.020343,-1.16675 0.028085,-0.10975 0.065173,-0.17385 0.1493958,-0.25806 0.084217,-0.0842 0.1483147,-0.12133 0.2580653,-0.1494 0.077467,-0.0198 0.11871,-0.0203 1.5648777,-0.0203 1.4683196,0 1.4857776,2.3e-4 1.5259114,0.0207 0.04384,0.0224 0.08203,0.0821 0.08203,0.12839 0,0.0461 -0.02382,0.0874 -0.2198701,0.38137 l -0.1916308,0.28733 v 0.63014 0.63014 h 0.7853489 c 0.7487831,0 0.789054,8.3e-4 0.8649171,0.0203 0.1107419,0.0283 0.1744229,0.0652 0.2580691,0.14923 0.0844,0.0848 0.1214059,0.14881 0.149393,0.25823 0.01964,0.0768 0.020341,0.11725 0.020341,1.16676 0,1.05084 -7.143e-4,1.08986 -0.02041,1.16704 -0.02702,0.10565 -0.07148,0.1816 -0.153929,0.26292 -0.08069,0.0796 -0.1460061,0.11677 -0.253459,0.14426 -0.07752,0.0198 -0.117929,0.0203 -1.5670411,0.0199 -1.4606449,-3.4e-4 -1.488164,-6.9e-4 -1.5259365,-0.0207 z m 3.0398683,-0.30209 c 0.0569,-0.0203 0.1064189,-0.062 0.1386311,-0.11684 l 0.02854,-0.0485 0.0028,-1.08355 c 0.00169,-0.70945 -7.144e-4,-1.09694 -0.0077,-1.12232 -0.015309,-0.0569 -0.06456,-0.11888 -0.120659,-0.15186 l -0.0493,-0.0289 -0.7947131,-0.002 -0.7947088,-0.002 v 0.14776 c 0,0.24208 -0.03928,0.35444 -0.1697432,0.48558 -0.1290838,0.12975 -0.243015,0.16957 -0.4851605,0.16957 h -0.147511 v 0.66387 c 0,0.54263 -0.00249,0.67011 -0.01425,0.69801 -0.00788,0.0187 -0.070404,0.11816 -0.1390179,0.22086 l -0.124759,0.18671 1.3195116,-3.4e-4 c 1.075413,-3.5e-4 1.326655,-0.003 1.3581121,-0.0143 z m -1.790374,-0.36249 c -0.04501,-0.0222 -0.07592,-0.0677 -0.08188,-0.12075 -0.0043,-0.038 0.03206,-0.14057 0.2902011,-0.81949 0.1623031,-0.42685 0.3060081,-0.7929 0.3193521,-0.81343 0.02812,-0.0433 0.09822,-0.0811 0.1497398,-0.0807 0.04766,2.9e-4 0.112848,0.0312 0.1442159,0.0686 0.03209,0.0381 0.6163842,1.58246 0.6163842,1.62914 0,0.10173 -0.1018572,0.17611 -0.1977961,0.14445 -0.05803,-0.0191 -0.0859,-0.0593 -0.1401149,-0.20153 -0.02801,-0.0735 -0.05423,-0.14185 -0.05823,-0.15175 -0.0067,-0.0167 -0.03395,-0.018 -0.3654981,-0.018 h -0.358224 l -0.020439,0.054 c -0.1028499,0.27179 -0.110553,0.28566 -0.173599,0.31252 -0.04331,0.0184 -0.0825,0.0175 -0.1241081,-0.003 z m 0.913426,-0.67987 c 2.321e-4,-0.0221 -0.231557,-0.61873 -0.2378281,-0.61215 -0.0071,0.007 -0.235481,0.60332 -0.235481,0.61442 0,0.003 0.1064741,0.006 0.2366139,0.006 0.1301372,0 0.2366492,-0.003 0.2366952,-0.007 z m -1.2011289,-1.03572 c 0.0569,-0.0203 0.1064178,-0.062 0.1386308,-0.11683 l 0.02851,-0.0485 0.0051,-0.9876 c 0.0043,-0.82445 0.0075,-0.99185 0.019669,-1.01332 0.008,-0.0142 0.06938,-0.10789 0.1364491,-0.20832 l 0.1219221,-0.18261 -1.3195112,3.6e-4 c -1.0754134,3.5e-4 -1.3266522,0.003 -1.3581122,0.0143 -0.0569,0.0203 -0.1064172,0.062 -0.1386308,0.11683 l -0.028541,0.0485 v 1.1059 1.10591 l 0.028541,0.0485 c 0.032197,0.0548 0.081727,0.0965 0.1386308,0.11683 0.056991,0.0203 2.1703002,0.0203 2.2272906,0 z m -1.6978079,-0.3139 c -0.033391,-0.0155 -0.048917,-0.0312 -0.064071,-0.0646 -0.02506,-0.0552 -0.025159,-0.0842 -3.515e-4,-0.13854 0.024073,-0.0531 0.061625,-0.0739 0.1654951,-0.0919 0.042609,-0.007 0.1087019,-0.0231 0.1468724,-0.0349 l 0.069401,-0.0214 -0.050227,-0.0587 c -0.1727196,-0.20168 -0.2731733,-0.44593 -0.2959763,-0.71964 l -0.00705,-0.0849 h -0.062139 c -0.1115486,0 -0.1920882,-0.0647 -0.1920882,-0.15431 0,-0.0473 0.037146,-0.10713 0.082341,-0.13253 0.037021,-0.0208 0.052274,-0.0218 0.3382781,-0.0218 h 0.2995086 v -0.1452 c 0,-0.16701 0.012982,-0.20553 0.082341,-0.24451 0.049531,-0.0279 0.094791,-0.0276 0.1451556,7e-4 0.066682,0.0375 0.081122,0.0817 0.081122,0.24825 v 0.14078 h 0.2995094 c 0.2888639,0 0.3009302,7e-4 0.3394879,0.0225 0.042111,0.0237 0.081131,0.0871 0.081131,0.13185 0,0.0134 -0.00953,0.0441 -0.021188,0.0681 -0.02787,0.0576 -0.084572,0.0862 -0.1708931,0.0862 h -0.062139 l -0.00705,0.0849 c -0.022631,0.27145 -0.1246852,0.51962 -0.2959755,0.71963 l -0.050227,0.0587 0.069401,0.0214 c 0.038174,0.0118 0.1042638,0.0275 0.1468724,0.0349 0.1002209,0.0174 0.1392327,0.0384 0.164812,0.0885 0.026709,0.0524 0.026112,0.088 -0.00249,0.14454 -0.018511,0.0366 -0.032868,0.0498 -0.071705,0.0657 -0.046654,0.0191 -0.052515,0.0192 -0.1491703,0.003 -0.1197271,-0.0198 -0.2351677,-0.0568 -0.347072,-0.11126 -0.076944,-0.0375 -0.083312,-0.0389 -0.1061189,-0.024 -0.085325,0.0559 -0.316935,0.13005 -0.4447022,0.14238 -0.054521,0.005 -0.075005,0.002 -0.1109369,-0.014 z m 0.6584438,-0.60111 c 0.078337,-0.0919 0.1320356,-0.1809 0.1726133,-0.28596 0.030406,-0.0788 0.061733,-0.22727 0.061733,-0.29282 v -0.0346 h -0.3100447 -0.3100447 l 0.00696,0.0772 c 0.018619,0.20521 0.1046733,0.39929 0.247502,0.55805 0.026709,0.0297 0.052656,0.0541 0.057613,0.0541 0.00497,0 0.038099,-0.0342 0.073629,-0.0759 z"
       id="path1911"
       inkscape:connector-curvature="0" />
    <g
       id="g2683"
       style="fill:#cdd2d4;fill-opacity:1"
       transform="matrix(0.80190874,0,0,0.80190874,-3.9291259,54.458421)">
      <path
         inkscape:connector-curvature="0"
         id="path841"
         d="m 5.0954868,302.36577 c -0.05791,-0.0176 -0.118721,-0.0715 -0.147445,-0.13086 l -0.02676,-0.0553 v -2.80726 -2.80727 l 0.02962,-0.0561 c 0.01629,-0.0309 0.05401,-0.0733 0.08382,-0.0943 l 0.0542,-0.0382 0.555853,-0.006 0.555852,-0.006 0.0064,-0.16549 c 0.0074,-0.18961 0.02566,-0.2355 0.118329,-0.29683 0.04298,-0.0284 0.06574,-0.0342 0.136208,-0.0342 0.07047,0 0.09322,0.006 0.136207,0.0342 0.09267,0.0613 0.110968,0.10722 0.118329,0.29683 l 0.0064,0.16549 h 0.598301 0.598302 l 0.0064,-0.15913 c 0.0074,-0.18607 0.02721,-0.23811 0.113616,-0.29915 0.04718,-0.0333 0.06487,-0.0381 0.138894,-0.0379 0.07037,2.4e-4 0.09401,0.006 0.138671,0.035 0.08739,0.0563 0.110014,0.11432 0.117788,0.30202 l 0.0066,0.15913 h 0.598301 0.598302 l 0.0064,-0.15913 c 0.0073,-0.18349 0.02971,-0.24034 0.118908,-0.30215 0.04319,-0.0299 0.06358,-0.0352 0.136686,-0.0352 0.07496,0 0.09281,0.005 0.1399822,0.0382 0.08641,0.061 0.106173,0.11308 0.113616,0.29915 l 0.0064,0.15913 0.554698,0.006 0.554698,0.006 0.05158,0.0342 c 0.02837,0.0188 0.06518,0.056 0.08179,0.0827 l 0.03021,0.0486 v 1.31326 1.31325 l -0.03819,0.0542 c -0.105305,0.14951 -0.314741,0.14953 -0.420084,3e-5 l -0.03819,-0.0542 -0.0064,-0.50494 -0.0064,-0.50494 H 8.1801018 5.4368258 v 1.85219 1.85219 l 1.260252,0.006 c 1.203308,0.006 1.262442,0.007 1.308709,0.0304 0.166105,0.0825 0.178947,0.3233 0.02302,0.43159 l -0.05874,0.0408 -1.419375,0.002 c -0.780656,10e-4 -1.435501,-0.003 -1.455209,-0.009 z m 5.8279032,-5.10455 v -0.37553 h -0.381895 -0.381894 l -0.0065,0.15912 c -0.0073,0.17814 -0.02571,0.23418 -0.09418,0.2864 -0.1258772,0.096 -0.3002042,0.0618 -0.3781642,-0.0743 -0.0262,-0.0457 -0.03122,-0.0747 -0.03672,-0.2121 l -0.0064,-0.15912 h -0.598301 -0.598302 l -0.0064,0.15912 c -0.0058,0.1443 -0.0096,0.16465 -0.04119,0.21836 -0.03842,0.0654 -0.136471,0.12535 -0.204884,0.12535 -0.09614,0 -0.205899,-0.0688 -0.240982,-0.15103 -0.0079,-0.0185 -0.01751,-0.10516 -0.02141,-0.19268 l -0.0071,-0.15912 h -0.598302 -0.598301 l -0.0065,0.15912 c -0.0073,0.17814 -0.02571,0.23418 -0.09418,0.2864 -0.122598,0.0935 -0.298618,0.0624 -0.378916,-0.067 -0.02569,-0.0414 -0.0303,-0.0688 -0.0359,-0.21299 l -0.0064,-0.16549 h -0.381895 -0.381895 l -0.0034,0.36264 c -0.0019,0.19945 -6.17e-4,0.36988 0.0028,0.37874 0.005,0.0129 0.546219,0.0155 2.746663,0.0129 l 2.7404822,-0.003 z m -1.6559462,5.09401 c -0.0556,-0.0261 -1.189538,-1.09557 -1.231741,-1.16173 -0.01291,-0.0202 -0.0263,-0.0698 -0.02975,-0.11007 -0.0079,-0.0923 0.02968,-0.1699 0.109447,-0.22603 0.04742,-0.0334 0.06518,-0.0382 0.140677,-0.0381 0.07176,4e-5 0.09394,0.005 0.130806,0.0318 0.02442,0.0175 0.246091,0.22369 0.492603,0.45823 0.255158,0.24278 0.458279,0.42645 0.471595,0.42645 0.02026,0 0.429344,-0.44939 1.5381452,-1.68969 0.08679,-0.0971 0.1521,-0.15837 0.186529,-0.17504 0.111298,-0.0539 0.244737,-0.0171 0.318633,0.0878 0.0332,0.0471 0.03819,0.0653 0.03819,0.13918 0,0.0631 -0.0066,0.0953 -0.02546,0.12512 -0.04457,0.0703 -1.8754262,2.09775 -1.9159732,2.1217 -0.05931,0.035 -0.161117,0.0398 -0.223706,0.0104 z"
         style="fill:#cdd2d4;fill-opacity:1;stroke-width:0.01272982" />
      <path
         inkscape:connector-curvature="0"
         id="path841-7"
         d="m 13.397142,302.27669 c -0.05791,-0.0176 -0.118721,-0.0715 -0.147445,-0.13086 l -0.02676,-0.0553 v -2.80726 -2.80727 l 0.02962,-0.0561 c 0.01629,-0.0309 0.05401,-0.0733 0.08382,-0.0943 l 0.0542,-0.0382 0.555853,-0.006 0.555852,-0.006 0.0064,-0.16549 c 0.0074,-0.18961 0.02566,-0.2355 0.118329,-0.29683 0.04298,-0.0284 0.06574,-0.0342 0.136208,-0.0342 0.07047,0 0.09322,0.006 0.136207,0.0342 0.09267,0.0613 0.110968,0.10722 0.118329,0.29683 l 0.0064,0.16549 h 0.598301 0.598302 l 0.0064,-0.15913 c 0.0074,-0.18607 0.02721,-0.23811 0.113616,-0.29915 0.04718,-0.0333 0.06487,-0.0381 0.138894,-0.0379 0.07037,2.4e-4 0.09401,0.006 0.138671,0.035 0.08739,0.0563 0.110014,0.11432 0.117788,0.30202 l 0.0066,0.15913 h 0.5983 0.598303 l 0.0064,-0.15913 c 0.0073,-0.18349 0.02971,-0.24034 0.118908,-0.30215 0.04319,-0.0299 0.06358,-0.0352 0.136686,-0.0352 0.07496,0 0.09281,0.005 0.139982,0.0382 0.08641,0.061 0.106173,0.11308 0.113616,0.29915 l 0.0064,0.15913 0.554698,0.006 0.554698,0.006 0.05158,0.0342 c 0.02837,0.0188 0.06518,0.056 0.08179,0.0827 l 0.03021,0.0486 v 1.31326 1.31325 l -0.03819,0.0542 c -0.105306,0.14951 -0.314741,0.14953 -0.420084,3e-5 l -0.03819,-0.0542 -0.0064,-0.50494 -0.0064,-0.50494 h -2.743277 -2.743276 v 1.85219 1.85219 l 1.260252,0.006 c 1.203308,0.006 1.262442,0.007 1.308709,0.0304 0.166105,0.0825 0.178947,0.3233 0.02302,0.43159 l -0.05874,0.0408 -1.419375,0.002 c -0.780656,9.9e-4 -1.435501,-0.003 -1.455209,-0.009 z m 5.827903,-5.10455 v -0.37553 H 18.84315 18.461256 l -0.0065,0.15912 c -0.0073,0.17814 -0.02571,0.23418 -0.09418,0.2864 -0.125877,0.096 -0.300204,0.0618 -0.378164,-0.0743 -0.0262,-0.0457 -0.03122,-0.0747 -0.03672,-0.2121 l -0.0064,-0.15912 H 17.34099 16.742688 l -0.0064,0.15912 c -0.0058,0.1443 -0.0096,0.16465 -0.04119,0.21836 -0.03842,0.0654 -0.136471,0.12535 -0.204884,0.12535 -0.09614,0 -0.205899,-0.0688 -0.240982,-0.15103 -0.0079,-0.0185 -0.01751,-0.10516 -0.02141,-0.19268 l -0.0071,-0.15912 H 15.622421 15.02412 l -0.0065,0.15912 c -0.0073,0.17814 -0.02571,0.23418 -0.09418,0.2864 -0.122598,0.0935 -0.298618,0.0624 -0.378916,-0.067 -0.02569,-0.0414 -0.0303,-0.0688 -0.0359,-0.21299 l -0.0064,-0.16549 h -0.381895 -0.381895 l -0.0034,0.36264 c -0.0019,0.19945 -6.17e-4,0.36988 0.0028,0.37874 0.005,0.0129 0.546219,0.0155 2.746663,0.0129 l 2.740482,-0.003 z"
         style="fill:#cdd2d4;fill-opacity:1;stroke-width:0.01272982"
         sodipodi:nodetypes="ccccccccccccscccccccccccccccscccccccccccccccccccccccccccccccccccccccsccccccccccccccccc" />
      <path
         inkscape:connector-curvature="0"
         id="path841-7-5"
         d="m 19.566373,302.27669 c 0.05791,-0.0176 0.118721,-0.0715 0.147445,-0.13086 l 0.02676,-0.0553 v -2.80726 -2.80727 l -0.02962,-0.0561 c -0.01629,-0.0309 -0.05401,-0.0733 -0.08382,-0.0943 l -0.0542,-0.0382 -0.555853,-0.006 -0.555852,-0.006 -0.0064,-0.16549 c -0.0074,-0.18961 -0.02566,-0.2355 -0.118329,-0.29683 -0.04298,-0.0284 -0.06574,-0.0342 -0.136208,-0.0342 -0.07047,0 -0.09322,0.006 -0.136207,0.0342 -0.09267,0.0613 -0.110968,0.10722 -0.118329,0.29683 l -0.0064,0.16549 h -0.598301 -0.598302 l -0.0064,-0.15913 c -0.0074,-0.18607 -0.02721,-0.23811 -0.113616,-0.29915 -0.04718,-0.0333 -0.06487,-0.0381 -0.138894,-0.0379 -0.07037,2.4e-4 -0.09401,0.006 -0.138671,0.035 -0.08739,0.0563 -0.110014,0.11432 -0.117788,0.30202 l -0.0066,0.15913 h -0.5983 -0.598303 l -0.0064,-0.15913 c -0.0073,-0.18349 -0.02971,-0.24034 -0.118908,-0.30215 -0.04319,-0.0299 -0.06358,-0.0352 -0.136686,-0.0352 -0.07496,0 -0.09281,0.005 -0.139982,0.0382 -0.08641,0.061 -0.106173,0.11308 -0.113616,0.29915 l -0.0064,0.15913 -0.554698,0.006 -0.554698,0.006 -0.05158,0.0342 c -0.02837,0.0188 -0.06518,0.056 -0.08179,0.0827 l -0.03021,0.0486 v 1.31326 1.31325 l 0.03819,0.0542 c 0.105306,0.14951 0.314741,0.14953 0.420084,3e-5 l 0.03819,-0.0542 0.0064,-0.50494 0.0064,-0.50494 h 2.743277 2.743276 v 1.85219 1.85219 l -1.260252,0.006 c -1.203308,0.006 -2.097476,0.007 -2.143875,0.0304 -0.165973,0.0828 -0.17894,0.32329 -0.02302,0.43159 l 0.05874,0.0408 2.254541,0.002 c 0.780656,9.9e-4 1.435501,-0.003 1.455209,-0.009 z m -5.827903,-5.10455 v -0.37553 h 0.381895 0.381894 l 0.0065,0.15912 c 0.0073,0.17814 0.02571,0.23418 0.09418,0.2864 0.125877,0.096 0.300204,0.0618 0.378164,-0.0743 0.0262,-0.0457 0.03122,-0.0747 0.03672,-0.2121 l 0.0064,-0.15912 h 0.598303 0.598301 l 0.0064,0.15912 c 0.0058,0.1443 0.0096,0.16465 0.04119,0.21836 0.03842,0.0654 0.136471,0.12535 0.204884,0.12535 0.09614,0 0.205899,-0.0688 0.240982,-0.15103 0.0079,-0.0185 0.01751,-0.10516 0.02141,-0.19268 l 0.0071,-0.15912 h 0.598301 0.598301 l 0.0065,0.15912 c 0.0073,0.17814 0.02571,0.23418 0.09418,0.2864 0.122598,0.0935 0.298618,0.0624 0.378916,-0.067 0.02569,-0.0414 0.0303,-0.0688 0.0359,-0.21299 l 0.0064,-0.16549 h 0.381895 0.381895 l 0.0034,0.36264 c 0.0019,0.19945 6.17e-4,0.36988 -0.0028,0.37874 -0.005,0.0129 -0.546219,0.0155 -2.746663,0.0129 l -2.740482,-0.003 z"
         style="fill:#cdd2d4;fill-opacity:1;stroke-width:0.01272982"
         sodipodi:nodetypes="ccccccccccccscccccccccccccccsccccccccccccccccccccsscccccccccccccccccsccccccccccccccccc" />
    </g>
    <path
       inkscape:connector-curvature="0"
       id="path1986"
       d="m -2.8784764,291.25218 v -0.12837 h 0.1177412 c 0.1058956,0 0.1188091,-0.002 0.1283714,-0.0199 0.00584,-0.0109 0.010633,-0.0733 0.010633,-0.13864 v -0.11878 h 0.1519912 c 0.1045233,0 0.1558408,-0.004 0.1643164,-0.0123 0.0083,-0.008 0.012322,-0.0552 0.012322,-0.14377 v -0.13145 h 1.88449405 1.88449535 v 0.13225 c 0,0.097 0.00362,0.13524 0.013554,0.14349 0.00818,0.007 0.076504,0.0124 0.1720173,0.0141 l 0.1584622,0.003 0.00514,0.13351 0.00514,0.1335 0.1155356,0.003 0.1155333,0.003 v 0.12803 0.12804 H -0.40859565 -2.8784635 Z m 0.6026131,-0.96694 c -0.00386,-0.004 -0.00697,-0.32491 -0.00697,-0.71351 0,-0.81089 0.012333,-0.7278 -0.108041,-0.7278 h -0.068312 l 0.00345,-0.11633 c 0.00316,-0.10598 0.00591,-0.12004 0.031017,-0.15794 0.016575,-0.025 0.045501,-0.0503 0.072563,-0.0634 0.043503,-0.021 0.058313,-0.0218 0.4448432,-0.0217 0.2386203,3e-5 0.4149644,0.004 0.437345,0.0105 0.046558,0.0129 0.1062567,0.0771 0.1209393,0.12996 0.006,0.0216 0.010931,0.0797 0.01096,0.1291 l 5.66e-5,0.0899 h -0.064791 c -0.1094928,0 -0.099153,-0.0744 -0.1020881,0.73429 l -0.00257,0.70861 -0.3807126,0.003 c -0.2093918,0.002 -0.3838483,-4.5e-4 -0.3876821,-0.004 z m 1.48213995,-0.70727 v -0.71401 l -0.026343,-0.01 c -0.014483,-0.005 -0.05146,-0.01 -0.082158,-0.01 h -0.055813 v -0.10824 c 0,-0.14559 0.025648,-0.19783 0.11558,-0.2354 0.056461,-0.0236 0.8217109,-0.0235 0.878206,1e-4 0.090754,0.0379 0.1174005,0.088 0.1235175,0.232 l 0.00462,0.10925 -0.082613,0.004 c -0.045437,0.002 -0.086446,0.008 -0.091133,0.0123 -0.00467,0.005 -0.00977,0.32932 -0.011282,0.72141 l -0.00275,0.71288 h -0.38491 -0.3849092 z m 1.5094937,0.008 c -9.29e-5,-0.42398 -0.00403,-0.71216 -0.00983,-0.72135 -0.00689,-0.0109 -0.033407,-0.0164 -0.092271,-0.019 l -0.082591,-0.003 1.542e-4,-0.058 c 6.427e-4,-0.16275 0.033623,-0.24192 0.1167024,-0.27965 0.038998,-0.0177 0.073658,-0.0192 0.44792565,-0.0192 0.457038,0 0.4613737,5.8e-4 0.5198131,0.0772 0.028137,0.0369 0.029785,0.0448 0.033021,0.15914 l 0.00339,0.12034 -0.078371,0.004 c -0.054592,0.003 -0.081283,0.009 -0.087969,0.0192 -0.00573,0.009 -0.00966,0.30141 -0.00975,0.72122 l -1.549e-4,0.70604 H 1.0958567 0.71587725 l -1.548e-4,-0.70604 z m -3.76883175,-1.39004 c 0,-0.0757 0.01269,-0.17596 0.02063,-0.16311 0.00403,0.006 0.010125,-0.006 0.013636,-0.0279 0.00988,-0.0618 0.078741,-0.16671 0.1415128,-0.21563 0.066932,-0.0522 2.28720875,-1.28219 2.34544545,-1.29937 0.071082,-0.021 0.1770504,-0.0149 0.2464742,0.014 0.1003821,0.0419 2.27583365,1.24984 2.32469085,1.29083 0.053809,0.0452 0.1226798,0.15525 0.131458,0.21015 0.00351,0.0219 0.0096,0.0343 0.013636,0.0279 0.00795,-0.0129 0.02063,0.0874 0.02063,0.16311 v 0.0473 H -0.42399735 -3.0530462 Z m 3.50025215,-0.53907 c 0.018398,-0.0129 0.022721,-0.0244 0.020256,-0.0539 l -0.00316,-0.0376 -0.3440352,-0.19221 c -0.1892208,-0.10572 -0.3694542,-0.20243 -0.4005201,-0.21491 -0.083124,-0.0334 -0.2094211,-0.0324 -0.2926861,0.002 -0.066836,0.0279 -0.71139475,0.38347 -0.73061635,0.40301 -0.023825,0.0242 -0.024965,0.0544 -0.0031,0.0822 l 0.021465,0.0273 h 0.85449145 c 0.7655505,0 0.8569262,-0.002 0.8778783,-0.0164 z"
       style="fill:#cdd2d4;fill-opacity:1;stroke-width:0.01026973" />
    <path
       inkscape:connector-curvature="0"
       id="path2598"
       d="m 5.2797519,291.19049 c -0.1126541,-0.0302 -0.2336326,-0.12661 -0.2847188,-0.22673 -0.053919,-0.1057 -0.05166,-0.0132 -0.05166,-2.11638 0,-2.13684 -0.00343,-2.01427 0.059512,-2.12991 0.032583,-0.0599 0.1082241,-0.13821 0.1668362,-0.17278 0.098493,-0.0582 0.1166838,-0.0611 0.4253859,-0.0672 l 0.2890764,-0.006 0.00581,-0.10582 c 0.00485,-0.0885 0.00983,-0.11148 0.030457,-0.14048 0.044264,-0.0621 0.1337952,-0.0819 0.1970476,-0.0431 0.056144,0.0343 0.068311,0.0635 0.075505,0.182 l 0.00654,0.10757 h 1.2666785 1.2666786 l 0.00585,-0.10645 c 0.00416,-0.076 0.011097,-0.11448 0.024212,-0.13453 0.043189,-0.0659 0.1377476,-0.0885 0.2032619,-0.0486 0.057022,0.0348 0.069762,0.0654 0.07621,0.18307 l 0.00585,0.10645 0.2890764,0.005 c 0.2604892,0.005 0.2949685,0.008 0.3486554,0.0279 0.1458385,0.0545 0.2495387,0.16812 0.287057,0.31457 0.014481,0.0565 0.015975,0.28425 0.013518,2.04956 l -0.00267,1.98595 -0.024412,0.0605 c -0.046513,0.11524 -0.1470841,0.21551 -0.2630566,0.2624 l -0.05942,0.0239 -2.1496744,0.003 c -1.8675992,9.7e-4 -2.1572603,-5e-5 -2.2074896,-0.0136 z m 4.3305133,-0.30418 c 0.020028,-0.0113 0.046047,-0.0378 0.057815,-0.0579 0.021224,-0.0362 0.021423,-0.0492 0.024312,-1.54487 0.00166,-0.82966 3.321e-4,-1.5191 -0.00298,-1.53211 l -0.00575,-0.0236 H 7.4669754 c -2.0116212,0 -2.217268,9.7e-4 -2.223057,0.0166 -0.011725,0.0305 -0.00714,3.00237 0.00468,3.04494 0.00601,0.0217 0.021357,0.0515 0.034103,0.0662 0.051866,0.0599 -0.072426,0.0567 2.1991164,0.0544 2.0830441,-0.003 2.0920152,-0.003 2.1282814,-0.0236 z M 5.8189948,290.4721 c -0.065361,-0.0403 -0.066215,-0.0459 -0.066172,-0.44425 3.33e-5,-0.33905 0.00133,-0.36256 0.02056,-0.39421 0.040694,-0.0668 0.0447,-0.0673 0.4577195,-0.0641 l 0.3727619,0.003 0.034354,0.0344 0.034358,0.0344 v 0.38853 0.38854 l -0.034358,0.0344 -0.034354,0.0344 -0.3756082,0.003 c -0.3581512,0.003 -0.3771727,0.003 -0.4092606,-0.0179 z m 0.5518873,-0.28657 c 0.017537,-0.0175 0.017537,-0.29361 0,-0.31114 -0.017537,-0.0175 -0.2936035,-0.0175 -0.3111504,0 -0.017537,0.0175 -0.017537,0.2936 0,0.31114 0.017537,0.0175 0.2936036,0.0175 0.3111504,0 z m -0.5422819,-1.13307 c -0.074664,-0.0339 -0.075817,-0.0408 -0.075817,-0.4523 0,-0.38998 9.963e-4,-0.39719 0.059908,-0.43712 0.027567,-0.0187 0.05344,-0.02 0.4026144,-0.02 0.3491736,0 0.3750671,9.7e-4 0.4026179,0.02 0.059004,0.04 0.059905,0.0467 0.059905,0.44256 0,0.41195 -9.3e-5,0.41248 -0.076906,0.44736 -0.040315,0.0183 -0.072448,0.02 -0.3856158,0.02 -0.316026,0 -0.3450117,-9.7e-4 -0.386705,-0.0204 z m 0.5496386,-0.44686 v -0.15768 H 6.2153052 6.0523716 l -0.00299,0.14666 c -0.00166,0.0807 -6.644e-4,0.15293 0.00233,0.16058 0.00418,0.0113 0.040265,0.0133 0.165873,0.0113 l 0.1605291,-0.003 z m 0.7340752,0.4565 c -0.045283,-0.0135 -0.084958,-0.0637 -0.092895,-0.1175 -0.00361,-0.0246 -0.00509,-0.19447 -0.00332,-0.37762 0.00462,-0.46362 -0.032914,-0.42907 0.4658305,-0.42907 0.3817463,0 0.3932947,9.7e-4 0.4407539,0.0664 0.021058,0.0288 0.021755,0.0421 0.021755,0.39992 0,0.33601 -0.00166,0.37284 -0.018533,0.39852 -0.042882,0.0654 -0.041301,0.0651 -0.4277276,0.0673 -0.196443,9.7e-4 -0.3673779,-0.003 -0.3859246,-0.008 z m 0.5326069,-0.4565 v -0.16294 H 7.4819838 7.3190501 v 0.16294 0.16294 h 0.1629337 0.1629371 z m 0.718129,0.44736 c -0.076817,-0.0349 -0.076906,-0.0354 -0.076906,-0.44736 0,-0.39592 9.982e-4,-0.40257 0.059904,-0.44256 0.027535,-0.0187 0.053444,-0.02 0.4026178,-0.02 0.3491701,0 0.3750637,9.7e-4 0.4026144,0.02 0.058918,0.0399 0.059904,0.0472 0.059904,0.43712 0,0.41154 -9.982e-4,0.41842 -0.075814,0.4523 -0.041693,0.019 -0.070678,0.0205 -0.3867051,0.0205 -0.3131665,0 -0.3453008,-9.7e-4 -0.3856151,-0.02 z m 0.5485495,-0.44736 v -0.15768 H 8.7486657 8.585732 l -0.00298,0.14666 c -0.00166,0.0807 -6.642e-4,0.15293 0.00233,0.16058 0.00418,0.0113 0.040264,0.0133 0.1658697,0.0113 l 0.1605324,-0.003 z m 0.7784021,-1.20721 c 0.00339,-0.0136 0.00468,-0.13299 0.00298,-0.26544 -0.00298,-0.21973 -0.00521,-0.24396 -0.024745,-0.2772 -0.043085,-0.0733 -0.065113,-0.0788 -0.3344431,-0.0828 -0.1321146,-0.003 -0.2510034,-6.5e-4 -0.2641992,0.003 -0.022519,0.006 -0.024246,0.0125 -0.028431,0.10858 -0.00668,0.15394 -0.042722,0.20246 -0.1504321,0.20246 -0.1069185,0 -0.1435268,-0.0486 -0.1504353,-0.19972 -0.00267,-0.0577 -0.0096,-0.10319 -0.016407,-0.10758 -0.00651,-0.004 -0.5723935,-0.008 -1.2575048,-0.008 -0.6851113,0 -1.2509884,0.004 -1.2575049,0.008 -0.00684,0.005 -0.013783,0.0501 -0.016407,0.10758 -0.0069,0.15112 -0.043517,0.19972 -0.1504353,0.19972 -0.1087488,0 -0.1518071,-0.0601 -0.1521891,-0.21266 -2.224e-4,-0.088 -0.00133,-0.092 -0.025442,-0.098 -0.01385,-0.004 -0.1333102,-0.005 -0.2654248,-0.003 -0.2693308,0.004 -0.2913582,0.009 -0.3344431,0.0828 -0.019529,0.0332 -0.021688,0.0575 -0.024744,0.27719 -0.00199,0.13244 -6.642e-4,0.25189 0.00299,0.26543 l 0.00618,0.0246 H 7.4665606 9.684164 Z"
       style="fill:#cdd2d4;fill-opacity:1;stroke:#cdd2d4;stroke-width:0.154;stroke-miterlimit:4;stroke-dasharray:none;stroke-opacity:1"
       sodipodi:nodetypes="ccsccccccccccccccccccccccccccccccccsccccccccccccccccccccccccccscscscsccccccccccccccscsccccccccccccccscscscsccccccccccccccccsccsccscccccccccc" />
    <path
       inkscape:connector-curvature="0"
       id="path2598-3-5"
       d="m 7.5462868,293.84107 c -0.06536,0.0403 -0.06621,0.0459 -0.06617,0.44425 3.4e-5,0.33905 0.0013,0.36256 0.02056,0.39421 0.04069,0.0668 0.0447,0.0673 0.45772,0.0641 l 0.372762,-0.003 c 0.1055806,0.0101 0.045807,-0.0459 0.06871,-0.0688 v -0.38853 -0.38854 c 0.0019,-0.11388 -0.045807,-0.0459 -0.06871,-0.0688 l -0.375608,-0.003 c -0.358152,-0.003 -0.377173,-0.003 -0.409261,0.0179 z m 0.551888,0.28657 c 0.01754,0.0175 0.01754,0.29361 0,0.31114 -0.01754,0.0175 -0.293604,0.0175 -0.311151,0 -0.01754,-0.0175 -0.01754,-0.2936 0,-0.31114 0.01754,-0.0175 0.293604,-0.0175 0.311151,0 z"
       style="fill:#cdd2d4;fill-opacity:1;stroke:#cdd2d4;stroke-width:0.154;stroke-miterlimit:4;stroke-dasharray:none;stroke-opacity:1"
       sodipodi:nodetypes="ccccccccccccccccc" />
    <path
       inkscape:connector-curvature="0"
       id="path2598-3-5-1"
       d="m 7.5437436,295.21841 c -0.06536,0.0403 -0.06621,0.0459 -0.06617,0.44425 3.4e-5,0.33905 0.0013,0.36256 0.02056,0.39421 0.04069,0.0668 0.0447,0.0673 0.45772,0.0641 l 0.372762,-0.003 c 0.1055806,0.0101 0.045807,-0.0459 0.06871,-0.0688 v -0.38853 -0.38854 c 0.0019,-0.11388 -0.045807,-0.0459 -0.06871,-0.0688 l -0.375608,-0.003 c -0.358152,-0.003 -0.377173,-0.003 -0.409261,0.0179 z m 0.551888,0.28657 c 0.01754,0.0175 0.01754,0.29361 0,0.31114 -0.01754,0.0175 -0.293604,0.0175 -0.311151,0 -0.01754,-0.0175 -0.01754,-0.2936 0,-0.31114 0.01754,-0.0175 0.293604,-0.0175 0.311151,0 z"
       style="fill:#cdd2d4;fill-opacity:1;stroke:#cdd2d4;stroke-width:0.154;stroke-miterlimit:4;stroke-dasharray:none;stroke-opacity:1"
       sodipodi:nodetypes="ccccccccccccccccc" />
    <path
       inkscape:connector-curvature="0"
       id="path2598-3-5-2"
       d="m 8.9506142,293.83521 c -0.06536,0.0403 -0.06621,0.0459 -0.06617,0.44425 3.4e-5,0.33905 0.0013,0.36256 0.02056,0.39421 0.04069,0.0668 0.0447,0.0673 0.45772,0.0641 l 0.372762,-0.003 c 0.1055806,0.0101 0.045807,-0.0459 0.06871,-0.0688 v -0.38853 -0.38854 c 0.0019,-0.11388 -0.045807,-0.0459 -0.06871,-0.0688 l -0.375608,-0.003 c -0.358152,-0.003 -0.377173,-0.003 -0.409261,0.0179 z m 0.551888,0.28657 c 0.01754,0.0175 0.01754,0.29361 0,0.31114 -0.01754,0.0175 -0.293604,0.0175 -0.311151,0 -0.01754,-0.0175 -0.01754,-0.2936 0,-0.31114 0.01754,-0.0175 0.293604,-0.0175 0.311151,0 z"
       style="fill:#cdd2d4;fill-opacity:1;stroke:#cdd2d4;stroke-width:0.154;stroke-miterlimit:4;stroke-dasharray:none;stroke-opacity:1"
       sodipodi:nodetypes="ccccccccccccccccc" />
    <path
       inkscape:connector-curvature="0"
       id="path2598-3-5-1-7"
       d="m 8.948071,295.21255 c -0.06536,0.0403 -0.06621,0.0459 -0.06617,0.44425 3.4e-5,0.33905 0.0013,0.36256 0.02056,0.39421 0.04069,0.0668 0.0447,0.0673 0.45772,0.0641 l 0.372762,-0.003 c 0.1055806,0.0101 0.045807,-0.0459 0.06871,-0.0688 v -0.38853 -0.38854 c 0.0019,-0.11388 -0.045807,-0.0459 -0.06871,-0.0688 l -0.375608,-0.003 c -0.358152,-0.003 -0.377173,-0.003 -0.409261,0.0179 z m 0.551888,0.28657 c 0.01754,0.0175 0.01754,0.29361 0,0.31114 -0.01754,0.0175 -0.293604,0.0175 -0.311151,0 -0.01754,-0.0175 -0.01754,-0.2936 0,-0.31114 0.01754,-0.0175 0.293604,-0.0175 0.311151,0 z"
       style="fill:#cdd2d4;fill-opacity:1;stroke:#cdd2d4;stroke-width:0.154;stroke-miterlimit:4;stroke-dasharray:none;stroke-opacity:1"
       sodipodi:nodetypes="ccccccccccccccccc" />
    <path
       inkscape:connector-curvature="0"
       id="path2598-3-5-0"
       d="m 10.306604,293.83521 c -0.06536,0.0403 -0.06621,0.0459 -0.06617,0.44425 3.4e-5,0.33905 0.0013,0.36256 0.02056,0.39421 0.04069,0.0668 0.0447,0.0673 0.45772,0.0641 l 0.372762,-0.003 c 0.105581,0.0101 0.04581,-0.0459 0.06871,-0.0688 v -0.38853 -0.38854 c 0.0019,-0.11388 -0.04581,-0.0459 -0.06871,-0.0688 l -0.375608,-0.003 c -0.358152,-0.003 -0.377173,-0.003 -0.409261,0.0179 z m 0.551888,0.28657 c 0.01754,0.0175 0.01754,0.29361 0,0.31114 -0.01754,0.0175 -0.293604,0.0175 -0.311151,0 -0.01754,-0.0175 -0.01754,-0.2936 0,-0.31114 0.01754,-0.0175 0.293604,-0.0175 0.311151,0 z"
       style="fill:#cdd2d4;fill-opacity:1;stroke:#cdd2d4;stroke-width:0.154;stroke-miterlimit:4;stroke-dasharray:none;stroke-opacity:1"
       sodipodi:nodetypes="ccccccccccccccccc" />
    <path
       inkscape:connector-curvature="0"
       id="path2598-3-5-1-9"
       d="m 10.304061,295.21255 c -0.06536,0.0403 -0.06621,0.0459 -0.06617,0.44425 3.4e-5,0.33905 0.0013,0.36256 0.02056,0.39421 0.04069,0.0668 0.0447,0.0673 0.45772,0.0641 l 0.372762,-0.003 c 0.105581,0.0101 0.04581,-0.0459 0.06871,-0.0688 v -0.38853 -0.38854 c 0.0019,-0.11388 -0.04581,-0.0459 -0.06871,-0.0688 l -0.375608,-0.003 c -0.358152,-0.003 -0.377173,-0.003 -0.409261,0.0179 z m 0.551888,0.28657 c 0.01754,0.0175 0.01754,0.29361 0,0.31114 -0.01754,0.0175 -0.293604,0.0175 -0.311151,0 -0.01754,-0.0175 -0.01754,-0.2936 0,-0.31114 0.01754,-0.0175 0.293604,-0.0175 0.311151,0 z"
       style="fill:#cdd2d4;fill-opacity:1;stroke:#cdd2d4;stroke-width:0.154;stroke-miterlimit:4;stroke-dasharray:none;stroke-opacity:1"
       sodipodi:nodetypes="ccccccccccccccccc" />
  </g>
</svg>
