<?xml version="1.0" encoding="UTF-8" standalone="no"?>
<!-- Created with Inkscape (http://www.inkscape.org/) -->

<svg
   xmlns:dc="http://purl.org/dc/elements/1.1/"
   xmlns:cc="http://creativecommons.org/ns#"
   xmlns:rdf="http://www.w3.org/1999/02/22-rdf-syntax-ns#"
   xmlns:svg="http://www.w3.org/2000/svg"
   xmlns="http://www.w3.org/2000/svg"
   xmlns:sodipodi="http://sodipodi.sourceforge.net/DTD/sodipodi-0.dtd"
   xmlns:inkscape="http://www.inkscape.org/namespaces/inkscape"
   width="20"
   height="20"
   viewBox="0 0 5.2916665 5.2916668"
   version="1.1"
   id="svg980"
   inkscape:version="0.92.5 (2060ec1f9f, 2020-04-08)"
   sodipodi:docname="forma-inst.svg">
  <defs
     id="defs974" />
  <sodipodi:namedview
     id="base"
     pagecolor="#ffffff"
     bordercolor="#666666"
     borderopacity="1.0"
     inkscape:pageopacity="0.0"
     inkscape:pageshadow="2"
     inkscape:zoom="31.678384"
     inkscape:cx="-0.067218188"
     inkscape:cy="8.7149136"
     inkscape:document-units="mm"
     inkscape:current-layer="layer1"
     showgrid="false"
     units="px"
     inkscape:window-width="1920"
     inkscape:window-height="1015"
     inkscape:window-x="3000"
     inkscape:window-y="437"
     inkscape:window-maximized="1" />
  <metadata
     id="metadata977">
    <rdf:RDF>
      <cc:Work
         rdf:about="">
        <dc:format>image/svg+xml</dc:format>
        <dc:type
           rdf:resource="http://purl.org/dc/dcmitype/StillImage" />
        <dc:title></dc:title>
      </cc:Work>
    </rdf:RDF>
  </metadata>
  <g
     inkscape:label="Layer 1"
     inkscape:groupmode="layer"
     id="layer1"
     transform="translate(0,-291.70832)">
    <path
       inkscape:connector-curvature="0"
       id="path931"
       d="m -0.31091517,302.5011 c -0.27075626,-0.046 -0.50251923,-0.24564 -0.5900817,-0.50844 -0.0145606,-0.0437 -0.026543,-0.0926 -0.0266285,-0.10866 -1.102e-4,-0.0196 -0.002999,-0.0248 -0.008775,-0.0156 -0.0192314,0.0304 -0.0220681,-0.21316 -0.0209882,-1.80296 9.658e-4,-1.40469 0.00574,-1.85255 0.0188763,-1.76556 0.001297,0.008 0.008508,-0.0124 0.016036,-0.0466 0.0336632,-0.15265 0.11342164,-0.29145 0.22713696,-0.39525 0.0846805,-0.0772 0.15939308,-0.12182 0.27228076,-0.1622 l 0.0906712,-0.0324 0.83697977,-0.003 c 0.93480299,-0.004 0.89994809,-0.006 0.97171439,0.0679 0.092451,0.0949 0.094383,0.23813 0.00448,0.33185 -0.070559,0.0736 -0.00728,0.0685 -0.91279119,0.0742 -0.80168836,0.006 -0.81849237,0.006 -0.86427221,0.0268 -0.0562436,0.0261 -0.10644764,0.0744 -0.13740944,0.13224 l -0.0228858,0.0428 -0.002705,1.72266 c -0.003035,1.92946 -0.008223,1.79282 0.0713413,1.87914 0.0229447,0.0249 0.0634613,0.056 0.0900346,0.0691 l 0.0483148,0.0238 H 1.2303466 2.7102798 l 0.048856,-0.0243 c 0.026868,-0.0133 0.065745,-0.043 0.086386,-0.0659 0.073285,-0.0811 0.071177,-0.0648 0.076917,-0.59294 0.00577,-0.53142 0.00211,-0.50543 0.081391,-0.57706 0.062736,-0.0566 0.1444631,-0.0731 0.2330585,-0.0468 0.056012,0.0166 0.1323297,0.093 0.1489633,0.14898 0.00914,0.0308 0.012648,0.16969 0.012648,0.49978 0,0.52445 -0.00366,0.55795 -0.077667,0.70986 -0.097658,0.20048 -0.2429558,0.32529 -0.4656646,0.40002 l -0.072445,0.0243 -1.5213293,0.002 c -0.83673089,7.3e-4 -1.54426592,-0.003 -1.57229868,-0.007 z m 1.01074128,-1.39971 c -0.050871,-0.019 -0.1032748,-0.0651 -0.1292745,-0.11381 -0.022974,-0.0429 -0.02326,-0.0485 -0.02326,-0.44714 0,-0.35078 0.00248,-0.41514 0.018792,-0.49159 0.042474,-0.19882 0.1130615,-0.36116 0.2308695,-0.53093 0.044758,-0.0645 0.28375679,-0.30988 0.99644839,-1.02308 1.0009113,-1.00164 1.0066261,-1.00686 1.1793338,-1.07934 0.4740027,-0.19889 1.0184977,7.5e-4 1.2471987,0.45704 0.041321,0.0825 0.089196,0.23562 0.089443,0.28615 1.099e-4,0.0223 0.00297,0.0281 0.00912,0.0183 0.012016,-0.0189 0.01864,0.10664 0.01057,0.20041 -0.00344,0.0398 -0.0073,0.0655 -0.00859,0.0569 -0.00129,-0.008 -0.010718,0.0241 -0.020936,0.0725 -0.010218,0.0484 -0.033285,0.12328 -0.051259,0.16644 -0.074449,0.17876 -0.070237,0.17415 -1.0866132,1.19032 -0.7255548,0.72542 -0.9681776,0.96186 -1.0334577,1.00712 -0.1470275,0.10196 -0.3189611,0.17738 -0.4994203,0.21908 -0.065156,0.0151 -0.1432522,0.0185 -0.4864119,0.0211 -0.30292589,0.002 -0.41753219,-1.1e-4 -0.44254189,-0.01 z m 0.79760819,-0.47811 c 0.1125522,-0.0196 0.2034315,-0.0527 0.2990657,-0.10861 0.063969,-0.0374 0.1698348,-0.1383 0.693849,-0.66101 0.3400993,-0.33925 0.6183629,-0.62154 0.6183629,-0.62731 0,-0.0137 -0.6641968,-0.67813 -0.6779296,-0.67813 -0.017405,0 -1.2208286,1.21201 -1.2570116,1.26598 -0.051294,0.0765 -0.1100295,0.21059 -0.1300038,0.29674 -0.022793,0.0983 -0.034701,0.47075 -0.016158,0.5054 0.011613,0.0217 0.017874,0.0224 0.1965621,0.0224 0.1172963,0 0.2168931,-0.006 0.2732636,-0.0154 z m 2.1218082,-1.89809 c 0.1145052,-0.11633 0.1476975,-0.15692 0.1735467,-0.21216 0.042593,-0.0911 0.057606,-0.19007 0.042563,-0.28084 -0.057416,-0.34651 -0.4447308,-0.5252 -0.7380883,-0.34053 -0.059594,0.0375 -0.3093759,0.2828 -0.3093759,0.30381 0,0.0213 0.6520848,0.67357 0.6734101,0.67357 0.009,0 0.080071,-0.0647 0.1579444,-0.14385 z"
       style="fill:#cdd2d4;fill-opacity:1;stroke-width:0.01034918" />
    <path
       style="fill:#cdd2d4;fill-opacity:1;stroke:#cdd2d4;stroke-width:0.01028752;stroke-opacity:1"
       d="m -5.9653016,298.20935 c -0.043429,-0.023 -0.079846,-0.0836 -0.079846,-0.1331 0,-0.0446 0.016894,-0.0735 0.2257399,-0.38578 l 0.1857466,-0.27776 7.5e-6,-0.63011 6.6e-6,-0.63012 h -0.7853486 c -0.7497433,0 -0.7889698,-8.2e-4 -0.8652054,-0.0204 -0.1056506,-0.027 -0.181601,-0.0715 -0.2629215,-0.15393 -0.079597,-0.0807 -0.1167677,-0.146 -0.1442512,-0.25345 -0.019638,-0.0768 -0.020343,-0.11725 -0.020343,-1.16676 0,-1.04951 7.037e-4,-1.08995 0.020343,-1.16675 0.028085,-0.10975 0.065173,-0.17385 0.1493958,-0.25806 0.084217,-0.0842 0.1483147,-0.12133 0.2580653,-0.1494 0.077467,-0.0198 0.11871,-0.0203 1.5648777,-0.0203 1.4683196,0 1.4857776,2.3e-4 1.5259114,0.0207 0.04384,0.0224 0.08203,0.0821 0.08203,0.12839 0,0.0461 -0.02382,0.0874 -0.2198701,0.38137 l -0.1916308,0.28733 v 0.63014 0.63014 h 0.7853489 c 0.7487831,0 0.789054,8.3e-4 0.8649171,0.0203 0.1107419,0.0283 0.1744229,0.0652 0.2580691,0.14923 0.0844,0.0848 0.1214059,0.14881 0.149393,0.25823 0.01964,0.0768 0.020341,0.11725 0.020341,1.16676 0,1.05084 -7.143e-4,1.08986 -0.02041,1.16704 -0.02702,0.10565 -0.07148,0.1816 -0.153929,0.26292 -0.08069,0.0796 -0.1460061,0.11677 -0.253459,0.14426 -0.07752,0.0198 -0.117929,0.0203 -1.5670411,0.0199 -1.4606449,-3.4e-4 -1.488164,-6.9e-4 -1.5259365,-0.0207 z m 3.0398683,-0.30209 c 0.0569,-0.0203 0.1064189,-0.062 0.1386311,-0.11684 l 0.02854,-0.0485 0.0028,-1.08355 c 0.00169,-0.70945 -7.144e-4,-1.09694 -0.0077,-1.12232 -0.015309,-0.0569 -0.06456,-0.11888 -0.120659,-0.15186 l -0.0493,-0.0289 -0.7947131,-0.002 -0.7947088,-0.002 v 0.14776 c 0,0.24208 -0.03928,0.35444 -0.1697432,0.48558 -0.1290838,0.12975 -0.243015,0.16957 -0.4851605,0.16957 h -0.147511 v 0.66387 c 0,0.54263 -0.00249,0.67011 -0.01425,0.69801 -0.00788,0.0187 -0.070404,0.11816 -0.1390179,0.22086 l -0.124759,0.18671 1.3195116,-3.4e-4 c 1.075413,-3.5e-4 1.326655,-0.003 1.3581121,-0.0143 z m -1.790374,-0.36249 c -0.04501,-0.0222 -0.07592,-0.0677 -0.08188,-0.12075 -0.0043,-0.038 0.03206,-0.14057 0.2902011,-0.81949 0.1623031,-0.42685 0.3060081,-0.7929 0.3193521,-0.81343 0.02812,-0.0433 0.09822,-0.0811 0.1497398,-0.0807 0.04766,2.9e-4 0.112848,0.0312 0.1442159,0.0686 0.03209,0.0381 0.6163842,1.58246 0.6163842,1.62914 0,0.10173 -0.1018572,0.17611 -0.1977961,0.14445 -0.05803,-0.0191 -0.0859,-0.0593 -0.1401149,-0.20153 -0.02801,-0.0735 -0.05423,-0.14185 -0.05823,-0.15175 -0.0067,-0.0167 -0.03395,-0.018 -0.3654981,-0.018 h -0.358224 l -0.020439,0.054 c -0.1028499,0.27179 -0.110553,0.28566 -0.173599,0.31252 -0.04331,0.0184 -0.0825,0.0175 -0.1241081,-0.003 z m 0.913426,-0.67987 c 2.321e-4,-0.0221 -0.231557,-0.61873 -0.2378281,-0.61215 -0.0071,0.007 -0.235481,0.60332 -0.235481,0.61442 0,0.003 0.1064741,0.006 0.2366139,0.006 0.1301372,0 0.2366492,-0.003 0.2366952,-0.007 z m -1.2011289,-1.03572 c 0.0569,-0.0203 0.1064178,-0.062 0.1386308,-0.11683 l 0.02851,-0.0485 0.0051,-0.9876 c 0.0043,-0.82445 0.0075,-0.99185 0.019669,-1.01332 0.008,-0.0142 0.06938,-0.10789 0.1364491,-0.20832 l 0.1219221,-0.18261 -1.3195112,3.6e-4 c -1.0754134,3.5e-4 -1.3266522,0.003 -1.3581122,0.0143 -0.0569,0.0203 -0.1064172,0.062 -0.1386308,0.11683 l -0.028541,0.0485 v 1.1059 1.10591 l 0.028541,0.0485 c 0.032197,0.0548 0.081727,0.0965 0.1386308,0.11683 0.056991,0.0203 2.1703002,0.0203 2.2272906,0 z m -1.6978079,-0.3139 c -0.033391,-0.0155 -0.048917,-0.0312 -0.064071,-0.0646 -0.02506,-0.0552 -0.025159,-0.0842 -3.515e-4,-0.13854 0.024073,-0.0531 0.061625,-0.0739 0.1654951,-0.0919 0.042609,-0.007 0.1087019,-0.0231 0.1468724,-0.0349 l 0.069401,-0.0214 -0.050227,-0.0587 c -0.1727196,-0.20168 -0.2731733,-0.44593 -0.2959763,-0.71964 l -0.00705,-0.0849 h -0.062139 c -0.1115486,0 -0.1920882,-0.0647 -0.1920882,-0.15431 0,-0.0473 0.037146,-0.10713 0.082341,-0.13253 0.037021,-0.0208 0.052274,-0.0218 0.3382781,-0.0218 h 0.2995086 v -0.1452 c 0,-0.16701 0.012982,-0.20553 0.082341,-0.24451 0.049531,-0.0279 0.094791,-0.0276 0.1451556,7e-4 0.066682,0.0375 0.081122,0.0817 0.081122,0.24825 v 0.14078 h 0.2995094 c 0.2888639,0 0.3009302,7e-4 0.3394879,0.0225 0.042111,0.0237 0.081131,0.0871 0.081131,0.13185 0,0.0134 -0.00953,0.0441 -0.021188,0.0681 -0.02787,0.0576 -0.084572,0.0862 -0.1708931,0.0862 h -0.062139 l -0.00705,0.0849 c -0.022631,0.27145 -0.1246852,0.51962 -0.2959755,0.71963 l -0.050227,0.0587 0.069401,0.0214 c 0.038174,0.0118 0.1042638,0.0275 0.1468724,0.0349 0.1002209,0.0174 0.1392327,0.0384 0.164812,0.0885 0.026709,0.0524 0.026112,0.088 -0.00249,0.14454 -0.018511,0.0366 -0.032868,0.0498 -0.071705,0.0657 -0.046654,0.0191 -0.052515,0.0192 -0.1491703,0.003 -0.1197271,-0.0198 -0.2351677,-0.0568 -0.347072,-0.11126 -0.076944,-0.0375 -0.083312,-0.0389 -0.1061189,-0.024 -0.085325,0.0559 -0.316935,0.13005 -0.4447022,0.14238 -0.054521,0.005 -0.075005,0.002 -0.1109369,-0.014 z m 0.6584438,-0.60111 c 0.078337,-0.0919 0.1320356,-0.1809 0.1726133,-0.28596 0.030406,-0.0788 0.061733,-0.22727 0.061733,-0.29282 v -0.0346 h -0.3100447 -0.3100447 l 0.00696,0.0772 c 0.018619,0.20521 0.1046733,0.39929 0.247502,0.55805 0.026709,0.0297 0.052656,0.0541 0.057613,0.0541 0.00497,0 0.038099,-0.0342 0.073629,-0.0759 z"
       id="path1911"
       inkscape:connector-curvature="0" />
    <g
       id="g2683"
       style="fill:#cdd2d4;fill-opacity:1">
      <path
         inkscape:connector-curvature="0"
         id="path841"
         d="m -16.831857,296.44572 c -0.05791,-0.0176 -0.118721,-0.0715 -0.147445,-0.13086 l -0.02676,-0.0553 v -2.80726 -2.80727 l 0.02962,-0.0561 c 0.01629,-0.0309 0.05401,-0.0733 0.08382,-0.0943 l 0.0542,-0.0382 0.555853,-0.006 0.555852,-0.006 0.0064,-0.16549 c 0.0074,-0.18961 0.02566,-0.2355 0.118329,-0.29683 0.04298,-0.0284 0.06574,-0.0342 0.136208,-0.0342 0.07047,0 0.09322,0.006 0.136207,0.0342 0.09267,0.0613 0.110968,0.10722 0.118329,0.29683 l 0.0064,0.16549 h 0.598301 0.598302 l 0.0064,-0.15913 c 0.0074,-0.18607 0.02721,-0.23811 0.113616,-0.29915 0.04718,-0.0333 0.06487,-0.0381 0.138894,-0.0379 0.07037,2.4e-4 0.09401,0.006 0.138671,0.035 0.08739,0.0563 0.110014,0.11432 0.117788,0.30202 l 0.0066,0.15913 h 0.598301 0.598302 l 0.0064,-0.15913 c 0.0073,-0.18349 0.02971,-0.24034 0.118908,-0.30215 0.04319,-0.0299 0.06358,-0.0352 0.136686,-0.0352 0.07496,0 0.09281,0.005 0.139982,0.0382 0.08641,0.061 0.106173,0.11308 0.113616,0.29915 l 0.0064,0.15913 0.554698,0.006 0.554698,0.006 0.05158,0.0342 c 0.02837,0.0188 0.06518,0.056 0.08179,0.0827 l 0.03021,0.0486 v 1.31326 1.31325 l -0.03819,0.0542 c -0.105305,0.14951 -0.314741,0.14953 -0.420084,3e-5 l -0.03819,-0.0542 -0.0064,-0.50494 -0.0064,-0.50494 h -2.743277 -2.743276 v 1.85219 1.85219 l 1.260252,0.006 c 1.203308,0.006 1.262442,0.007 1.308709,0.0304 0.166105,0.0825 0.178947,0.3233 0.02302,0.43159 l -0.05874,0.0408 -1.419375,0.002 c -0.780656,10e-4 -1.435501,-0.003 -1.455209,-0.009 z m 5.827903,-5.10455 v -0.37553 h -0.381895 -0.381894 l -0.0065,0.15912 c -0.0073,0.17814 -0.02571,0.23418 -0.09418,0.2864 -0.125877,0.096 -0.300204,0.0618 -0.378164,-0.0743 -0.0262,-0.0457 -0.03122,-0.0747 -0.03672,-0.2121 l -0.0064,-0.15912 h -0.598301 -0.598302 l -0.0064,0.15912 c -0.0058,0.1443 -0.0096,0.16465 -0.04119,0.21836 -0.03842,0.0654 -0.136471,0.12535 -0.204884,0.12535 -0.09614,0 -0.205899,-0.0688 -0.240982,-0.15103 -0.0079,-0.0185 -0.01751,-0.10516 -0.02141,-0.19268 l -0.0071,-0.15912 h -0.598302 -0.598301 l -0.0065,0.15912 c -0.0073,0.17814 -0.02571,0.23418 -0.09418,0.2864 -0.122598,0.0935 -0.298618,0.0624 -0.378916,-0.067 -0.02569,-0.0414 -0.0303,-0.0688 -0.0359,-0.21299 l -0.0064,-0.16549 h -0.381895 -0.381895 l -0.0034,0.36264 c -0.0019,0.19945 -6.17e-4,0.36988 0.0028,0.37874 0.005,0.0129 0.546219,0.0155 2.746663,0.0129 l 2.740482,-0.003 z m -1.655946,5.09401 c -0.0556,-0.0261 -1.189538,-1.09557 -1.231741,-1.16173 -0.01291,-0.0202 -0.0263,-0.0698 -0.02975,-0.11007 -0.0079,-0.0923 0.02968,-0.1699 0.109447,-0.22603 0.04742,-0.0334 0.06518,-0.0382 0.140677,-0.0381 0.07176,4e-5 0.09394,0.005 0.130806,0.0318 0.02442,0.0175 0.246091,0.22369 0.492603,0.45823 0.255158,0.24278 0.458279,0.42645 0.471595,0.42645 0.02026,0 0.429344,-0.44939 1.538145,-1.68969 0.08679,-0.0971 0.1521,-0.15837 0.186529,-0.17504 0.111298,-0.0539 0.244737,-0.0171 0.318633,0.0878 0.0332,0.0471 0.03819,0.0653 0.03819,0.13918 0,0.0631 -0.0066,0.0953 -0.02546,0.12512 -0.04457,0.0703 -1.875426,2.09775 -1.915973,2.1217 -0.05931,0.035 -0.161117,0.0398 -0.223706,0.0104 z"
         style="fill:#cdd2d4;stroke-width:0.01272982;fill-opacity:1" />
    </g>
    <path
       inkscape:connector-curvature="0"
       id="path1986"
       d="m 0.19512318,296.84814 v -0.12837 h 0.11774115 c 0.10589564,0 0.11880915,-0.002 0.12837144,-0.0199 0.005842,-0.0109 0.0106332,-0.0733 0.0106332,-0.13864 v -0.11878 h 0.15199118 c 0.10452326,0 0.15584075,-0.004 0.16431635,-0.0123 0.008302,-0.008 0.0123217,-0.0552 0.0123217,-0.14377 v -0.13145 h 1.8844941 1.8844953 v 0.13225 c 0,0.097 0.00362,0.13524 0.013554,0.14349 0.00818,0.007 0.076504,0.0124 0.1720173,0.0141 l 0.1584622,0.003 0.00514,0.13351 0.00514,0.1335 0.1155356,0.003 0.1155333,0.003 v 0.12803 0.12804 H 2.6650039 0.19513603 Z m 0.60261307,-0.96694 c -0.003856,-0.004 -0.00697,-0.32491 -0.00697,-0.71351 0,-0.81089 0.0123334,-0.7278 -0.10804098,-0.7278 h -0.0683125 l 0.003447,-0.11633 c 0.003155,-0.10598 0.005907,-0.12004 0.0310174,-0.15794 0.0165749,-0.025 0.0455008,-0.0503 0.0725629,-0.0634 0.0435027,-0.021 0.0583132,-0.0218 0.44484313,-0.0217 0.2386203,3e-5 0.4149644,0.004 0.437345,0.0105 0.046558,0.0129 0.1062567,0.0771 0.1209393,0.12996 0.006,0.0216 0.010931,0.0797 0.01096,0.1291 l 5.66e-5,0.0899 h -0.064791 c -0.1094928,0 -0.099153,-0.0744 -0.1020881,0.73429 l -0.00257,0.70861 -0.3807126,0.003 c -0.2093918,0.002 -0.38384826,-4.5e-4 -0.38768206,-0.004 z m 1.48213995,-0.70727 v -0.71401 l -0.026343,-0.01 c -0.014483,-0.005 -0.05146,-0.01 -0.082158,-0.01 h -0.055813 v -0.10824 c 0,-0.14559 0.025648,-0.19783 0.11558,-0.2354 0.056461,-0.0236 0.8217109,-0.0235 0.878206,1e-4 0.090754,0.0379 0.1174005,0.088 0.1235175,0.232 l 0.00462,0.10925 -0.082613,0.004 c -0.045437,0.002 -0.086446,0.008 -0.091133,0.0123 -0.00467,0.005 -0.00977,0.32932 -0.011282,0.72141 l -0.00275,0.71288 h -0.38491 -0.3849092 z m 1.5094937,0.008 c -9.29e-5,-0.42398 -0.00403,-0.71216 -0.00983,-0.72135 -0.00689,-0.0109 -0.033407,-0.0164 -0.092271,-0.019 l -0.082591,-0.003 1.542e-4,-0.058 c 6.427e-4,-0.16275 0.033623,-0.24192 0.1167024,-0.27965 0.038998,-0.0177 0.073658,-0.0192 0.4479256,-0.0192 0.457038,0 0.4613737,5.8e-4 0.5198131,0.0772 0.028137,0.0369 0.029785,0.0448 0.033021,0.15914 l 0.00339,0.12034 -0.078371,0.004 c -0.054592,0.003 -0.081283,0.009 -0.087969,0.0192 -0.00573,0.009 -0.00966,0.30141 -0.00975,0.72122 l -1.549e-4,0.70604 H 4.1694562 3.7894768 l -1.548e-4,-0.70604 z m -3.76883171,-1.39004 c 0,-0.0757 0.01268974,-0.17596 0.02062959,-0.16311 0.0040313,0.006 0.01012492,-0.006 0.01363621,-0.0279 0.0098795,-0.0618 0.07874065,-0.16671 0.1415128,-0.21563 0.0669319,-0.0522 2.28720871,-1.28219 2.34544541,-1.29937 0.071082,-0.021 0.1770504,-0.0149 0.2464742,0.014 0.1003821,0.0419 2.2758336,1.24984 2.3246908,1.29083 0.053809,0.0452 0.1226798,0.15525 0.131458,0.21015 0.00351,0.0219 0.0096,0.0343 0.013636,0.0279 0.00795,-0.0129 0.02063,0.0874 0.02063,0.16311 v 0.0473 H 2.6496022 0.02055338 Z m 3.84869891,-0.3678 c 0.018398,-0.0129 0.022721,-0.0244 0.020256,-0.0539 l -0.00316,-0.0376 -0.6865761,-0.49932 c -0.1892208,-0.10572 -0.3694542,-0.20243 -0.4005201,-0.21491 -0.083124,-0.0334 -0.2094211,-0.0324 -0.2926861,0.002 -0.066836,0.0279 -0.994877,0.66696 -1.0140986,0.6865 -0.023825,0.0242 -0.024965,0.0544 -0.0031,0.0822 l 0.021465,0.0273 0.9312679,0.006 c 0.7655352,0.005 1.4061729,0.0157 1.427125,10e-4 z"
       style="fill:#cdd2d4;fill-opacity:1;stroke:none;stroke-width:0.1;stroke-miterlimit:4;stroke-dasharray:none;stroke-opacity:0.94764398"
       sodipodi:nodetypes="ccscscscscccscccccccccccccsscccccccccsccccccccscscccccccccccccccccsccccccccccccccccccccscccccccccccccscc" />
    <path
       inkscape:connector-curvature="0"
       id="path2598"
       d="m -8.6511188,291.49972 c -0.089741,-0.0241 -0.1861132,-0.10086 -0.2268088,-0.18062 -0.042952,-0.0842 -0.041153,-0.0105 -0.041153,-1.68592 0,-1.70222 -0.00273,-1.60458 0.047408,-1.6967 0.025956,-0.0477 0.086212,-0.1101 0.1329028,-0.13764 0.07846,-0.0463 0.092951,-0.0486 0.3388651,-0.0535 l 0.2302801,-0.005 0.00463,-0.0843 c 0.00386,-0.0705 0.00783,-0.0888 0.024262,-0.1119 0.035261,-0.0495 0.1065821,-0.0652 0.1569694,-0.0344 0.044725,0.0273 0.054417,0.0506 0.060148,0.14498 l 0.00521,0.0857 h 1.0090441 1.0090441 l 0.00466,-0.0848 c 0.00331,-0.0605 0.00884,-0.0912 0.019288,-0.10717 0.034404,-0.0525 0.1097306,-0.0705 0.1619197,-0.0387 0.045424,0.0277 0.055573,0.0521 0.060709,0.14584 l 0.00466,0.0848 0.2302801,0.004 c 0.2075074,0.004 0.2349738,0.006 0.2777411,0.0222 0.1161759,0.0434 0.1987841,0.13393 0.2286714,0.25059 0.011536,0.045 0.012726,0.22644 0.010768,1.63269 l -0.00212,1.58202 -0.019447,0.0482 c -0.037052,0.0918 -0.1171681,0.17168 -0.2095526,0.20903 l -0.047334,0.0191 -1.7124442,0.002 c -1.4877414,10e-4 -1.7184872,-4e-5 -1.7585002,-0.0108 z m 3.4497142,-0.24232 c 0.015954,-0.009 0.036682,-0.0301 0.046056,-0.0461 0.016907,-0.0288 0.017066,-0.0392 0.019367,-1.23065 0.00132,-0.66091 2.646e-4,-1.21012 -0.00238,-1.22049 l -0.00458,-0.0188 h -1.7658212 c -1.6024701,0 -1.7662896,0.001 -1.7709012,0.0132 -0.00934,0.0243 -0.00569,2.3917 0.00373,2.42561 0.00479,0.0173 0.017013,0.041 0.027167,0.0527 0.041317,0.0477 -0.057695,0.0452 1.75183,0.0433 1.6593661,-0.002 1.6665125,-0.002 1.6954024,-0.0188 z m -3.0201499,-0.32996 c -0.052067,-0.0321 -0.052747,-0.0366 -0.052713,-0.35389 2.65e-5,-0.27009 0.00106,-0.28882 0.016378,-0.31403 0.032417,-0.0532 0.035608,-0.0536 0.3646223,-0.051 l 0.2969445,0.002 0.027366,0.0274 0.027369,0.0274 v 0.30951 0.30951 l -0.027369,0.0274 -0.027366,0.0274 -0.2992119,0.002 c -0.2853055,0.002 -0.3004582,0.002 -0.3260196,-0.0143 z m 0.4396369,-0.22828 c 0.01397,-0.014 0.01397,-0.23389 0,-0.24786 -0.01397,-0.014 -0.2338863,-0.014 -0.2478643,0 -0.01397,0.014 -0.01397,0.23388 0,0.24786 0.01397,0.014 0.2338864,0.014 0.2478643,0 z m 0.5660814,0.22863 c -0.050131,-0.0306 -0.053626,-0.0538 -0.053419,-0.35482 1.667e-4,-0.24701 0.00159,-0.27286 0.016087,-0.30492 0.027781,-0.0612 0.028202,-0.0613 0.3563594,-0.0613 0.3281601,0 0.3285807,8e-5 0.356362,0.0613 0.014578,0.0321 0.015901,0.0577 0.015901,0.30718 0,0.24947 -0.00132,0.27507 -0.015901,0.30718 -0.0278,0.0612 -0.028011,0.0613 -0.3580395,0.0612 -0.2709598,-3e-5 -0.2932244,-10e-4 -0.3173518,-0.0159 z m 0.4446375,-0.35256 v -0.12979 H -6.896807 -7.0224126 l -0.00238,0.12103 c -0.00132,0.0666 -5.291e-4,0.12602 0.00185,0.13211 0.00331,0.009 0.031422,0.0106 0.1279419,0.009 l 0.1236901,-0.002 z m 0.5777945,0.36046 c -0.00921,-0.004 -0.026167,-0.0171 -0.037685,-0.0294 l -0.020929,-0.0225 v -0.30899 -0.309 l 0.027368,-0.0274 0.027366,-0.0274 0.299212,-0.002 c 0.3279695,-0.002 0.3259322,-0.003 0.3596693,0.0475 0.018971,0.0281 0.019103,0.0303 0.019103,0.31894 0,0.28863 -1.27e-4,0.29079 -0.019103,0.31893 -0.033208,0.0493 -0.03338,0.0493 -0.3493532,0.0489 -0.1588929,-2.2e-4 -0.2964339,-0.004 -0.305644,-0.007 z m 0.4295748,-0.23653 c 0.01397,-0.014 0.01397,-0.23389 0,-0.24786 -0.01397,-0.014 -0.2338864,-0.014 -0.2478643,0 -0.01397,0.014 -0.01397,0.23388 0,0.24786 0.01397,0.014 0.2338864,0.014 0.2478643,0 z m -2.4500734,-0.90261 c -0.059478,-0.027 -0.060396,-0.0325 -0.060396,-0.36031 0,-0.31066 7.937e-4,-0.3164 0.047723,-0.34821 0.02196,-0.0149 0.042571,-0.0159 0.3207252,-0.0159 0.2781539,0 0.2987808,10e-4 0.320728,0.0159 0.047003,0.0319 0.04772,0.0372 0.04772,0.35255 0,0.32816 -7.41e-5,0.32858 -0.061264,0.35636 -0.032115,0.0146 -0.057713,0.0159 -0.3071839,0.0159 -0.2517483,0 -0.2748385,-10e-4 -0.3080517,-0.0163 z m 0.4378457,-0.35597 v -0.12561 h -0.129794 -0.129794 l -0.00238,0.11683 c -0.00132,0.0643 -5.292e-4,0.12182 0.00185,0.12792 0.00333,0.009 0.032075,0.0106 0.1321355,0.009 l 0.1278785,-0.002 z m 0.5847689,0.36365 c -0.036073,-0.0107 -0.067678,-0.0507 -0.074001,-0.0936 -0.00288,-0.0196 -0.00405,-0.15492 -0.00265,-0.30082 0.00368,-0.36932 -0.02622,-0.3418 0.3710835,-0.3418 0.3041015,0 0.313301,10e-4 0.3511073,0.0529 0.016775,0.0229 0.01733,0.0335 0.01733,0.31858 0,0.26767 -0.00132,0.29701 -0.014764,0.31747 -0.03416,0.0521 -0.032901,0.0519 -0.3407304,0.0536 -0.1564878,8e-4 -0.2926556,-0.002 -0.30743,-0.006 z m 0.4242779,-0.36365 v -0.1298 H -6.896807 -7.026601 v 0.1298 0.12979 h 0.129794 0.1297967 z m 0.5720662,0.35636 c -0.061193,-0.0278 -0.061264,-0.0282 -0.061264,-0.35636 0,-0.31539 7.938e-4,-0.3207 0.04772,-0.35255 0.021934,-0.0149 0.042574,-0.0159 0.3207279,-0.0159 0.2781511,0 0.2987781,10e-4 0.3207252,0.0159 0.046934,0.0318 0.04772,0.0376 0.04772,0.34821 0,0.32784 -7.938e-4,0.33332 -0.060394,0.36031 -0.033213,0.0151 -0.056303,0.0163 -0.3080517,0.0163 -0.2494704,0 -0.2750688,-0.001 -0.3071839,-0.0159 z m 0.4369779,-0.35636 v -0.12561 h -0.129794 -0.129794 l -0.00238,0.11683 c -0.00132,0.0643 -5.291e-4,0.12182 0.00185,0.12792 0.00333,0.009 0.032075,0.0106 0.1321329,0.009 l 0.1278811,-0.002 z m 0.6200801,-0.96168 c 0.0027,-0.0108 0.00373,-0.10594 0.00238,-0.21144 -0.00238,-0.17505 -0.00415,-0.19435 -0.019712,-0.22083 -0.034322,-0.0584 -0.051869,-0.0628 -0.2664195,-0.0659 -0.1052433,-0.002 -0.1999509,-5.2e-4 -0.2104628,0.002 -0.017939,0.005 -0.019315,0.01 -0.022648,0.0865 -0.00532,0.12263 -0.034033,0.16128 -0.1198351,0.16128 -0.085172,0 -0.1143344,-0.0387 -0.1198377,-0.1591 -0.00212,-0.0459 -0.00765,-0.0822 -0.01307,-0.0857 -0.00519,-0.003 -0.4559723,-0.006 -1.0017363,-0.006 -0.545764,0 -0.9965452,0.003 -1.0017363,0.006 -0.00545,0.004 -0.01098,0.0399 -0.01307,0.0857 -0.0055,0.12038 -0.034666,0.1591 -0.1198377,0.1591 -0.08663,0 -0.1209305,-0.0479 -0.1212348,-0.16941 -1.772e-4,-0.0701 -0.00106,-0.0733 -0.020267,-0.0781 -0.011033,-0.003 -0.1061958,-0.004 -0.2114391,-0.002 -0.2145506,0.003 -0.2320978,0.007 -0.2664195,0.0659 -0.015557,0.0265 -0.017277,0.0458 -0.019711,0.22082 -0.00159,0.1055 -5.291e-4,0.20065 0.00238,0.21144 l 0.00492,0.0196 h 1.7665541 1.7665568 z"
       style="fill:#cdd2d4;fill-opacity:1;stroke-width:0.00837381" />
  </g>
</svg>
