<?xml version="1.0" encoding="UTF-8" standalone="no"?>
<!-- Created with Inkscape (http://www.inkscape.org/) -->

<svg
   xmlns:dc="http://purl.org/dc/elements/1.1/"
   xmlns:cc="http://creativecommons.org/ns#"
   xmlns:rdf="http://www.w3.org/1999/02/22-rdf-syntax-ns#"
   xmlns:svg="http://www.w3.org/2000/svg"
   xmlns="http://www.w3.org/2000/svg"
   xmlns:sodipodi="http://sodipodi.sourceforge.net/DTD/sodipodi-0.dtd"
   xmlns:inkscape="http://www.inkscape.org/namespaces/inkscape"
   width="20"
   height="20"
   viewBox="0 0 5.2916665 5.2916668"
   version="1.1"
   id="svg980"
   inkscape:version="0.92.5 (2060ec1f9f, 2020-04-08)"
   sodipodi:docname="idi-head.svg">
  <defs
     id="defs974" />
  <sodipodi:namedview
     id="base"
     pagecolor="#ffffff"
     bordercolor="#666666"
     borderopacity="1.0"
     inkscape:pageopacity="0.0"
     inkscape:pageshadow="2"
     inkscape:zoom="15.839192"
     inkscape:cx="15.735677"
     inkscape:cy="4.7231599"
     inkscape:document-units="mm"
     inkscape:current-layer="layer1"
     showgrid="false"
     units="px"
     inkscape:window-width="1247"
     inkscape:window-height="1020"
     inkscape:window-x="1752"
     inkscape:window-y="437"
     inkscape:window-maximized="0" />
  <metadata
     id="metadata977">
    <rdf:RDF>
      <cc:Work
         rdf:about="">
        <dc:format>image/svg+xml</dc:format>
        <dc:type
           rdf:resource="http://purl.org/dc/dcmitype/StillImage" />
        <dc:title></dc:title>
      </cc:Work>
    </rdf:RDF>
  </metadata>
  <g
     inkscape:label="Layer 1"
     inkscape:groupmode="layer"
     id="layer1"
     transform="translate(0,-291.70832)">
    <path
       inkscape:connector-curvature="0"
       id="path931"
       d="m -0.31091517,302.5011 c -0.27075626,-0.046 -0.50251923,-0.24564 -0.5900817,-0.50844 -0.0145606,-0.0437 -0.026543,-0.0926 -0.0266285,-0.10866 -1.102e-4,-0.0196 -0.002999,-0.0248 -0.008775,-0.0156 -0.0192314,0.0304 -0.0220681,-0.21316 -0.0209882,-1.80296 9.658e-4,-1.40469 0.00574,-1.85255 0.0188763,-1.76556 0.001297,0.008 0.008508,-0.0124 0.016036,-0.0466 0.0336632,-0.15265 0.11342164,-0.29145 0.22713696,-0.39525 0.0846805,-0.0772 0.15939308,-0.12182 0.27228076,-0.1622 l 0.0906712,-0.0324 0.83697977,-0.003 c 0.93480299,-0.004 0.89994809,-0.006 0.97171439,0.0679 0.092451,0.0949 0.094383,0.23813 0.00448,0.33185 -0.070559,0.0736 -0.00728,0.0685 -0.91279119,0.0742 -0.80168836,0.006 -0.81849237,0.006 -0.86427221,0.0268 -0.0562436,0.0261 -0.10644764,0.0744 -0.13740944,0.13224 l -0.0228858,0.0428 -0.002705,1.72266 c -0.003035,1.92946 -0.008223,1.79282 0.0713413,1.87914 0.0229447,0.0249 0.0634613,0.056 0.0900346,0.0691 l 0.0483148,0.0238 H 1.2303466 2.7102798 l 0.048856,-0.0243 c 0.026868,-0.0133 0.065745,-0.043 0.086386,-0.0659 0.073285,-0.0811 0.071177,-0.0648 0.076917,-0.59294 0.00577,-0.53142 0.00211,-0.50543 0.081391,-0.57706 0.062736,-0.0566 0.1444631,-0.0731 0.2330585,-0.0468 0.056012,0.0166 0.1323297,0.093 0.1489633,0.14898 0.00914,0.0308 0.012648,0.16969 0.012648,0.49978 0,0.52445 -0.00366,0.55795 -0.077667,0.70986 -0.097658,0.20048 -0.2429558,0.32529 -0.4656646,0.40002 l -0.072445,0.0243 -1.5213293,0.002 c -0.83673089,7.3e-4 -1.54426592,-0.003 -1.57229868,-0.007 z m 1.01074128,-1.39971 c -0.050871,-0.019 -0.1032748,-0.0651 -0.1292745,-0.11381 -0.022974,-0.0429 -0.02326,-0.0485 -0.02326,-0.44714 0,-0.35078 0.00248,-0.41514 0.018792,-0.49159 0.042474,-0.19882 0.1130615,-0.36116 0.2308695,-0.53093 0.044758,-0.0645 0.28375679,-0.30988 0.99644839,-1.02308 1.0009113,-1.00164 1.0066261,-1.00686 1.1793338,-1.07934 0.4740027,-0.19889 1.0184977,7.5e-4 1.2471987,0.45704 0.041321,0.0825 0.089196,0.23562 0.089443,0.28615 1.099e-4,0.0223 0.00297,0.0281 0.00912,0.0183 0.012016,-0.0189 0.01864,0.10664 0.01057,0.20041 -0.00344,0.0398 -0.0073,0.0655 -0.00859,0.0569 -0.00129,-0.008 -0.010718,0.0241 -0.020936,0.0725 -0.010218,0.0484 -0.033285,0.12328 -0.051259,0.16644 -0.074449,0.17876 -0.070237,0.17415 -1.0866132,1.19032 -0.7255548,0.72542 -0.9681776,0.96186 -1.0334577,1.00712 -0.1470275,0.10196 -0.3189611,0.17738 -0.4994203,0.21908 -0.065156,0.0151 -0.1432522,0.0185 -0.4864119,0.0211 -0.30292589,0.002 -0.41753219,-1.1e-4 -0.44254189,-0.01 z m 0.79760819,-0.47811 c 0.1125522,-0.0196 0.2034315,-0.0527 0.2990657,-0.10861 0.063969,-0.0374 0.1698348,-0.1383 0.693849,-0.66101 0.3400993,-0.33925 0.6183629,-0.62154 0.6183629,-0.62731 0,-0.0137 -0.6641968,-0.67813 -0.6779296,-0.67813 -0.017405,0 -1.2208286,1.21201 -1.2570116,1.26598 -0.051294,0.0765 -0.1100295,0.21059 -0.1300038,0.29674 -0.022793,0.0983 -0.034701,0.47075 -0.016158,0.5054 0.011613,0.0217 0.017874,0.0224 0.1965621,0.0224 0.1172963,0 0.2168931,-0.006 0.2732636,-0.0154 z m 2.1218082,-1.89809 c 0.1145052,-0.11633 0.1476975,-0.15692 0.1735467,-0.21216 0.042593,-0.0911 0.057606,-0.19007 0.042563,-0.28084 -0.057416,-0.34651 -0.4447308,-0.5252 -0.7380883,-0.34053 -0.059594,0.0375 -0.3093759,0.2828 -0.3093759,0.30381 0,0.0213 0.6520848,0.67357 0.6734101,0.67357 0.009,0 0.080071,-0.0647 0.1579444,-0.14385 z"
       style="fill:#cdd2d4;fill-opacity:1;stroke-width:0.01034918" />
    <path
       style="fill:#cdd2d4;fill-opacity:1;stroke-width:0.01028752;stroke:#cdd2d4;stroke-opacity:1"
       d="m 1.7688103,296.97323 c -0.043429,-0.023 -0.079846,-0.0836 -0.079846,-0.1331 0,-0.0446 0.016894,-0.0735 0.2257399,-0.38578 l 0.1857466,-0.27776 7.5e-6,-0.63011 6.6e-6,-0.63012 H 1.3151163 c -0.74974326,0 -0.78896978,-8.2e-4 -0.86520536,-0.0204 -0.10565061,-0.027 -0.18160101,-0.0715 -0.26292151,-0.15393 -0.079597,-0.0807 -0.1167677,-0.146 -0.1442512,-0.25345 -0.019638,-0.0768 -0.020343,-0.11725 -0.020343,-1.16676 0,-1.04951 7.0369e-4,-1.08995 0.020343,-1.16675 0.028085,-0.10975 0.065173,-0.17385 0.1493958,-0.25806 0.084217,-0.0842 0.14831471,-0.12133 0.2580653,-0.1494 0.077467,-0.0198 0.11871,-0.0203 1.56487767,-0.0203 1.4683196,0 1.4857776,2.3e-4 1.5259114,0.0207 0.04384,0.0224 0.08203,0.0821 0.08203,0.12839 0,0.0461 -0.02382,0.0874 -0.2198701,0.38137 l -0.1916308,0.28733 v 0.63014 0.63014 h 0.7853489 c 0.7487831,0 0.789054,8.3e-4 0.8649171,0.0203 0.1107419,0.0283 0.1744229,0.0652 0.2580691,0.14923 0.0844,0.0848 0.1214059,0.14881 0.149393,0.25823 0.01964,0.0768 0.020341,0.11725 0.020341,1.16676 0,1.05084 -7.143e-4,1.08986 -0.02041,1.16704 -0.02702,0.10565 -0.07148,0.1816 -0.153929,0.26292 -0.08069,0.0796 -0.1460061,0.11677 -0.253459,0.14426 -0.07752,0.0198 -0.117929,0.0203 -1.5670411,0.0199 -1.4606449,-3.4e-4 -1.488164,-6.9e-4 -1.5259365,-0.0207 z m 3.0398683,-0.30209 c 0.0569,-0.0203 0.1064189,-0.062 0.1386311,-0.11684 l 0.02854,-0.0485 0.0028,-1.08355 c 0.00169,-0.70945 -7.144e-4,-1.09694 -0.0077,-1.12232 -0.015309,-0.0569 -0.06456,-0.11888 -0.120659,-0.15186 l -0.0493,-0.0289 -0.7947131,-0.002 -0.7947088,-0.002 v 0.14776 c 0,0.24208 -0.03928,0.35444 -0.1697432,0.48558 -0.1290838,0.12975 -0.243015,0.16957 -0.4851605,0.16957 h -0.147511 v 0.66387 c 0,0.54263 -0.00249,0.67011 -0.01425,0.69801 -0.00788,0.0187 -0.070404,0.11816 -0.1390179,0.22086 l -0.124759,0.18671 1.3195116,-3.4e-4 c 1.075413,-3.5e-4 1.326655,-0.003 1.3581121,-0.0143 z m -1.790374,-0.36249 c -0.04501,-0.0222 -0.07592,-0.0677 -0.08188,-0.12075 -0.0043,-0.038 0.03206,-0.14057 0.2902011,-0.81949 0.1623031,-0.42685 0.3060081,-0.7929 0.3193521,-0.81343 0.02812,-0.0433 0.09822,-0.0811 0.1497398,-0.0807 0.04766,2.9e-4 0.112848,0.0312 0.1442159,0.0686 0.03209,0.0381 0.6163842,1.58246 0.6163842,1.62914 0,0.10173 -0.1018572,0.17611 -0.1977961,0.14445 -0.05803,-0.0191 -0.0859,-0.0593 -0.1401149,-0.20153 -0.02801,-0.0735 -0.05423,-0.14185 -0.05823,-0.15175 -0.0067,-0.0167 -0.03395,-0.018 -0.3654981,-0.018 h -0.358224 l -0.020439,0.054 c -0.1028499,0.27179 -0.110553,0.28566 -0.173599,0.31252 -0.04331,0.0184 -0.0825,0.0175 -0.1241081,-0.003 z m 0.913426,-0.67987 c 2.321e-4,-0.0221 -0.231557,-0.61873 -0.2378281,-0.61215 -0.0071,0.007 -0.235481,0.60332 -0.235481,0.61442 0,0.003 0.1064741,0.006 0.2366139,0.006 0.1301372,0 0.2366492,-0.003 0.2366952,-0.007 z m -1.2011289,-1.03572 c 0.0569,-0.0203 0.1064178,-0.062 0.1386308,-0.11683 l 0.02851,-0.0485 0.0051,-0.9876 c 0.0043,-0.82445 0.0075,-0.99185 0.019669,-1.01332 0.008,-0.0142 0.06938,-0.10789 0.1364491,-0.20832 l 0.1219221,-0.18261 -1.3195112,3.6e-4 c -1.07541336,3.5e-4 -1.32665217,0.003 -1.35811216,0.0143 -0.0569,0.0203 -0.10641729,0.062 -0.13863082,0.11683 l -0.028541,0.0485 v 1.1059 1.10591 l 0.028541,0.0485 c 0.032197,0.0548 0.081727,0.0965 0.13863082,0.11683 0.056991,0.0203 2.17030016,0.0203 2.22729056,0 z m -1.6978079,-0.3139 c -0.033391,-0.0155 -0.048917,-0.0312 -0.064071,-0.0646 -0.02506,-0.0552 -0.025159,-0.0842 -3.5149e-4,-0.13854 0.024073,-0.0531 0.061625,-0.0739 0.16549506,-0.0919 0.042609,-0.007 0.1087019,-0.0231 0.1468724,-0.0349 l 0.069401,-0.0214 -0.050227,-0.0587 c -0.1727196,-0.20168 -0.2731733,-0.44593 -0.2959763,-0.71964 l -0.00705,-0.0849 h -0.062139 c -0.11154859,0 -0.19208818,-0.0647 -0.19208818,-0.15431 0,-0.0473 0.037146,-0.10713 0.082341,-0.13253 0.037021,-0.0208 0.052274,-0.0218 0.33827813,-0.0218 H 1.462787 v -0.1452 c 0,-0.16701 0.012982,-0.20553 0.082341,-0.24451 0.049531,-0.0279 0.094791,-0.0276 0.1451556,7e-4 0.066682,0.0375 0.081122,0.0817 0.081122,0.24825 v 0.14078 H 2.070915 c 0.2888639,0 0.3009302,7e-4 0.3394879,0.0225 0.042111,0.0237 0.081131,0.0871 0.081131,0.13185 0,0.0134 -0.00953,0.0441 -0.021188,0.0681 -0.02787,0.0576 -0.084572,0.0862 -0.1708931,0.0862 h -0.062139 l -0.00705,0.0849 c -0.022631,0.27145 -0.1246852,0.51962 -0.2959755,0.71963 l -0.050227,0.0587 0.069401,0.0214 c 0.038174,0.0118 0.1042638,0.0275 0.1468724,0.0349 0.1002209,0.0174 0.1392327,0.0384 0.164812,0.0885 0.026709,0.0524 0.026112,0.088 -0.00249,0.14454 -0.018511,0.0366 -0.032868,0.0498 -0.071705,0.0657 -0.046654,0.0191 -0.052515,0.0192 -0.1491703,0.003 -0.1197271,-0.0198 -0.2351677,-0.0568 -0.347072,-0.11126 -0.076944,-0.0375 -0.083312,-0.0389 -0.1061189,-0.024 -0.085325,0.0559 -0.316935,0.13005 -0.4447022,0.14238 -0.054521,0.005 -0.075005,0.002 -0.1109369,-0.014 z m 0.6584438,-0.60111 c 0.078337,-0.0919 0.1320356,-0.1809 0.1726133,-0.28596 0.030406,-0.0788 0.061733,-0.22727 0.061733,-0.29282 v -0.0346 H 1.6155392 1.3054945 l 0.00696,0.0772 c 0.018619,0.20521 0.1046733,0.39929 0.247502,0.55805 0.026709,0.0297 0.052656,0.0541 0.057613,0.0541 0.00497,0 0.038099,-0.0342 0.073629,-0.0759 z"
       id="path1911"
       inkscape:connector-curvature="0" />
  </g>
</svg>
