<?xml version="1.0" encoding="UTF-8" standalone="no"?>
<!-- Created with Inkscape (http://www.inkscape.org/) -->

<svg
   xmlns:dc="http://purl.org/dc/elements/1.1/"
   xmlns:cc="http://creativecommons.org/ns#"
   xmlns:rdf="http://www.w3.org/1999/02/22-rdf-syntax-ns#"
   xmlns:svg="http://www.w3.org/2000/svg"
   xmlns="http://www.w3.org/2000/svg"
   xmlns:sodipodi="http://sodipodi.sourceforge.net/DTD/sodipodi-0.dtd"
   xmlns:inkscape="http://www.inkscape.org/namespaces/inkscape"
   width="20"
   height="20"
   viewBox="0 0 5.2916665 5.2916668"
   version="1.1"
   id="svg980"
   inkscape:version="0.92.5 (2060ec1f9f, 2020-04-08)"
   sodipodi:docname="idi.svg">
  <defs
     id="defs974" />
  <sodipodi:namedview
     id="base"
     pagecolor="#ffffff"
     bordercolor="#666666"
     borderopacity="1.0"
     inkscape:pageopacity="0.0"
     inkscape:pageshadow="2"
     inkscape:zoom="15.839192"
     inkscape:cx="15.735677"
     inkscape:cy="4.7231599"
     inkscape:document-units="mm"
     inkscape:current-layer="layer1"
     showgrid="false"
     units="px"
     inkscape:window-width="1247"
     inkscape:window-height="1020"
     inkscape:window-x="1752"
     inkscape:window-y="437"
     inkscape:window-maximized="0" />
  <metadata
     id="metadata977">
    <rdf:RDF>
      <cc:Work
         rdf:about="">
        <dc:format>image/svg+xml</dc:format>
        <dc:type
           rdf:resource="http://purl.org/dc/dcmitype/StillImage" />
        <dc:title></dc:title>
      </cc:Work>
    </rdf:RDF>
  </metadata>
  <g
     inkscape:label="Layer 1"
     inkscape:groupmode="layer"
     id="layer1"
     transform="translate(0,-291.70832)">
    <path
       inkscape:connector-curvature="0"
       id="path931"
       d="m -0.31091517,302.5011 c -0.27075626,-0.046 -0.50251923,-0.24564 -0.5900817,-0.50844 -0.0145606,-0.0437 -0.026543,-0.0926 -0.0266285,-0.10866 -1.102e-4,-0.0196 -0.002999,-0.0248 -0.008775,-0.0156 -0.0192314,0.0304 -0.0220681,-0.21316 -0.0209882,-1.80296 9.658e-4,-1.40469 0.00574,-1.85255 0.0188763,-1.76556 0.001297,0.008 0.008508,-0.0124 0.016036,-0.0466 0.0336632,-0.15265 0.11342164,-0.29145 0.22713696,-0.39525 0.0846805,-0.0772 0.15939308,-0.12182 0.27228076,-0.1622 l 0.0906712,-0.0324 0.83697977,-0.003 c 0.93480299,-0.004 0.89994809,-0.006 0.97171439,0.0679 0.092451,0.0949 0.094383,0.23813 0.00448,0.33185 -0.070559,0.0736 -0.00728,0.0685 -0.91279119,0.0742 -0.80168836,0.006 -0.81849237,0.006 -0.86427221,0.0268 -0.0562436,0.0261 -0.10644764,0.0744 -0.13740944,0.13224 l -0.0228858,0.0428 -0.002705,1.72266 c -0.003035,1.92946 -0.008223,1.79282 0.0713413,1.87914 0.0229447,0.0249 0.0634613,0.056 0.0900346,0.0691 l 0.0483148,0.0238 H 1.2303466 2.7102798 l 0.048856,-0.0243 c 0.026868,-0.0133 0.065745,-0.043 0.086386,-0.0659 0.073285,-0.0811 0.071177,-0.0648 0.076917,-0.59294 0.00577,-0.53142 0.00211,-0.50543 0.081391,-0.57706 0.062736,-0.0566 0.1444631,-0.0731 0.2330585,-0.0468 0.056012,0.0166 0.1323297,0.093 0.1489633,0.14898 0.00914,0.0308 0.012648,0.16969 0.012648,0.49978 0,0.52445 -0.00366,0.55795 -0.077667,0.70986 -0.097658,0.20048 -0.2429558,0.32529 -0.4656646,0.40002 l -0.072445,0.0243 -1.5213293,0.002 c -0.83673089,7.3e-4 -1.54426592,-0.003 -1.57229868,-0.007 z m 1.01074128,-1.39971 c -0.050871,-0.019 -0.1032748,-0.0651 -0.1292745,-0.11381 -0.022974,-0.0429 -0.02326,-0.0485 -0.02326,-0.44714 0,-0.35078 0.00248,-0.41514 0.018792,-0.49159 0.042474,-0.19882 0.1130615,-0.36116 0.2308695,-0.53093 0.044758,-0.0645 0.28375679,-0.30988 0.99644839,-1.02308 1.0009113,-1.00164 1.0066261,-1.00686 1.1793338,-1.07934 0.4740027,-0.19889 1.0184977,7.5e-4 1.2471987,0.45704 0.041321,0.0825 0.089196,0.23562 0.089443,0.28615 1.099e-4,0.0223 0.00297,0.0281 0.00912,0.0183 0.012016,-0.0189 0.01864,0.10664 0.01057,0.20041 -0.00344,0.0398 -0.0073,0.0655 -0.00859,0.0569 -0.00129,-0.008 -0.010718,0.0241 -0.020936,0.0725 -0.010218,0.0484 -0.033285,0.12328 -0.051259,0.16644 -0.074449,0.17876 -0.070237,0.17415 -1.0866132,1.19032 -0.7255548,0.72542 -0.9681776,0.96186 -1.0334577,1.00712 -0.1470275,0.10196 -0.3189611,0.17738 -0.4994203,0.21908 -0.065156,0.0151 -0.1432522,0.0185 -0.4864119,0.0211 -0.30292589,0.002 -0.41753219,-1.1e-4 -0.44254189,-0.01 z m 0.79760819,-0.47811 c 0.1125522,-0.0196 0.2034315,-0.0527 0.2990657,-0.10861 0.063969,-0.0374 0.1698348,-0.1383 0.693849,-0.66101 0.3400993,-0.33925 0.6183629,-0.62154 0.6183629,-0.62731 0,-0.0137 -0.6641968,-0.67813 -0.6779296,-0.67813 -0.017405,0 -1.2208286,1.21201 -1.2570116,1.26598 -0.051294,0.0765 -0.1100295,0.21059 -0.1300038,0.29674 -0.022793,0.0983 -0.034701,0.47075 -0.016158,0.5054 0.011613,0.0217 0.017874,0.0224 0.1965621,0.0224 0.1172963,0 0.2168931,-0.006 0.2732636,-0.0154 z m 2.1218082,-1.89809 c 0.1145052,-0.11633 0.1476975,-0.15692 0.1735467,-0.21216 0.042593,-0.0911 0.057606,-0.19007 0.042563,-0.28084 -0.057416,-0.34651 -0.4447308,-0.5252 -0.7380883,-0.34053 -0.059594,0.0375 -0.3093759,0.2828 -0.3093759,0.30381 0,0.0213 0.6520848,0.67357 0.6734101,0.67357 0.009,0 0.080071,-0.0647 0.1579444,-0.14385 z"
       style="fill:#cdd2d4;fill-opacity:1;stroke-width:0.01034918" />
    <path
       style="fill:#cdd2d4;fill-opacity:1;stroke:#cdd2d4;stroke-width:0.19975266;stroke-miterlimit:4;stroke-dasharray:none;stroke-opacity:1"
       d="m 1.8121019,296.84575 c -0.04131,-0.0219 -0.07595,-0.0795 -0.07595,-0.12661 0,-0.0424 0.01607,-0.0699 0.2147245,-0.36695 l 0.1766828,-0.26421 7.1e-6,-0.59936 6.3e-6,-0.59937 H 1.3805467 c -0.71315815,0 -0.75047054,-7.8e-4 -0.82298607,-0.0194 -0.1004952,-0.0257 -0.17273946,-0.068 -0.25009178,-0.14642 -0.0757129,-0.0768 -0.1110698,-0.13887 -0.1372122,-0.24108 -0.0186797,-0.0731 -0.0193503,-0.11153 -0.0193503,-1.10983 0,-0.99829 6.6935e-4,-1.03676 0.0193503,-1.10981 0.0267146,-0.1044 0.0619928,-0.16537 0.14210576,-0.24547 0.0801075,-0.0801 0.14107743,-0.11541 0.24547254,-0.14211 0.0736868,-0.0188 0.11291733,-0.0193 1.48851665,-0.0193 1.3966702,0 1.4132763,2.2e-4 1.4514517,0.0197 0.041701,0.0213 0.078027,0.0781 0.078027,0.12213 0,0.0438 -0.022658,0.0831 -0.2091411,0.36276 l -0.1822798,0.27331 v 0.59939 0.59939 h 0.7470263 c 0.7122449,0 0.7505507,7.9e-4 0.8227119,0.0193 0.1053381,0.0269 0.1659117,0.062 0.2454762,0.14195 0.080281,0.0807 0.1154817,0.14154 0.1421031,0.24562 0.018682,0.0731 0.019348,0.11153 0.019348,1.10983 0,0.99956 -6.794e-4,1.03668 -0.019414,1.11009 -0.025702,0.1005 -0.067992,0.17274 -0.1464177,0.25009 -0.076753,0.0757 -0.1388815,0.11107 -0.241091,0.13722 -0.073737,0.0188 -0.1121745,0.0193 -1.4905745,0.0189 -1.3893701,-3.2e-4 -1.4155463,-6.5e-4 -1.4514756,-0.0197 z m 2.8915324,-0.28735 c 0.054123,-0.0193 0.101226,-0.059 0.1318663,-0.11114 l 0.027147,-0.0461 0.00266,-1.03068 c 0.00161,-0.67483 -6.795e-4,-1.04341 -0.00732,-1.06755 -0.014562,-0.0541 -0.06141,-0.11308 -0.1147713,-0.14445 l -0.046894,-0.0275 -0.7559336,-0.002 -0.7559295,-0.002 v 0.14055 c 0,0.23027 -0.037363,0.33715 -0.1614603,0.46189 -0.1227849,0.12341 -0.2311566,0.16129 -0.4614862,0.16129 H 2.421199 v 0.63148 c 0,0.51615 -0.00237,0.63741 -0.013555,0.66395 -0.0075,0.0178 -0.066968,0.11239 -0.1322343,0.21008 l -0.1186711,0.1776 1.2551236,-3.3e-4 c 1.0229363,-3.3e-4 1.2619185,-0.003 1.2918406,-0.0136 z m -1.7030095,-0.3448 c -0.042814,-0.0211 -0.072215,-0.0644 -0.077885,-0.11486 -0.00409,-0.0362 0.030496,-0.13371 0.2760402,-0.7795 0.1543833,-0.40602 0.2910759,-0.75421 0.3037688,-0.77374 0.026748,-0.0412 0.093427,-0.0771 0.1424329,-0.0768 0.045334,2.7e-4 0.1073414,0.0297 0.1371787,0.0652 0.030524,0.0362 0.5863066,1.50524 0.5863066,1.54964 0,0.0968 -0.096887,0.16752 -0.1881443,0.1374 -0.055198,-0.0182 -0.081708,-0.0564 -0.1332777,-0.19169 -0.026643,-0.0699 -0.051584,-0.13493 -0.055389,-0.14435 -0.00637,-0.0159 -0.032293,-0.0171 -0.347663,-0.0171 H 3.3032501 l -0.019442,0.0514 c -0.097831,0.25852 -0.1051584,0.27172 -0.1651279,0.29727 -0.041197,0.0175 -0.078474,0.0166 -0.118052,-0.003 z m 0.8688538,-0.6467 c 2.207e-4,-0.021 -0.2202578,-0.58854 -0.2262229,-0.58228 -0.00675,0.007 -0.2239903,0.57388 -0.2239903,0.58444 0,0.003 0.1012785,0.006 0.2250679,0.006 0.123787,0 0.2251015,-0.003 0.2251453,-0.007 z m -1.1425177,-0.98518 c 0.054124,-0.0193 0.101225,-0.059 0.1318661,-0.11113 l 0.027119,-0.0461 0.00485,-0.93941 c 0.00409,-0.78422 0.00713,-0.94345 0.018709,-0.96387 0.00761,-0.0135 0.065994,-0.10263 0.1297909,-0.19816 l 0.1159726,-0.1737 -1.2551232,3.5e-4 c -1.02293661,3.3e-4 -1.26191576,0.003 -1.2918406,0.0136 -0.0541235,0.0193 -0.10122447,0.059 -0.13186608,0.11113 l -0.0271483,0.0461 v 1.05194 1.05194 l 0.0271483,0.0461 c 0.0306259,0.0521 0.077739,0.0918 0.13186608,0.11112 0.05421,0.0193 2.0643964,0.0193 2.1186059,0 z m -1.6149602,-0.29858 c -0.031762,-0.0147 -0.04653,-0.0297 -0.060945,-0.0614 -0.023837,-0.0525 -0.023931,-0.0801 -3.343e-4,-0.13178 0.022898,-0.0505 0.058618,-0.0703 0.1574194,-0.0874 0.04053,-0.007 0.1033976,-0.022 0.1397055,-0.0332 l 0.066014,-0.0204 -0.047776,-0.0558 C 1.2017928,293.70132 1.106241,293.46899 1.0845507,293.20863 l -0.00671,-0.0807 h -0.059107 c -0.10610539,0 -0.18271491,-0.0616 -0.18271491,-0.14678 0,-0.045 0.0353334,-0.10191 0.078323,-0.12607 0.0352145,-0.0198 0.0497232,-0.0207 0.32177121,-0.0207 h 0.2848936 v -0.13812 c 0,-0.15886 0.012348,-0.1955 0.078323,-0.23258 0.047114,-0.0265 0.090166,-0.0263 0.1380724,6.7e-4 0.063428,0.0357 0.077164,0.0777 0.077164,0.23614 v 0.13391 h 0.2848942 c 0.2747683,0 0.2862458,6.6e-4 0.322922,0.0214 0.040056,0.0225 0.077172,0.0829 0.077172,0.12541 0,0.0127 -0.00906,0.0419 -0.020154,0.0648 -0.02651,0.0548 -0.080445,0.082 -0.1625541,0.082 h -0.059107 l -0.00671,0.0808 c -0.021527,0.25821 -0.1186009,0.49427 -0.2815328,0.68452 l -0.047776,0.0558 0.066015,0.0204 c 0.036311,0.0112 0.099176,0.0262 0.1397055,0.0332 0.09533,0.0165 0.1324385,0.0365 0.1567697,0.0842 0.025406,0.0498 0.024838,0.0837 -0.00237,0.13748 -0.017608,0.0348 -0.031264,0.0474 -0.068206,0.0625 -0.044377,0.0182 -0.049952,0.0183 -0.1418912,0.003 -0.1138848,-0.0188 -0.2236923,-0.054 -0.330136,-0.10583 -0.073189,-0.0357 -0.079247,-0.037 -0.1009407,-0.0228 -0.081161,0.0532 -0.3014695,0.12371 -0.4230021,0.13543 -0.051861,0.005 -0.071345,0.002 -0.1055235,-0.0133 z m 0.6263138,-0.57178 c 0.074514,-0.0874 0.1255927,-0.17207 0.1641903,-0.272 0.028922,-0.075 0.058721,-0.21618 0.058721,-0.27854 v -0.0329 H 1.6663099 1.3713944 l 0.00662,0.0734 c 0.01771,0.19519 0.099566,0.3798 0.2354247,0.53081 0.025406,0.0282 0.050087,0.0515 0.054802,0.0515 0.00473,0 0.03624,-0.0325 0.070036,-0.0722 z"
       id="path1911"
       inkscape:connector-curvature="0" />
  </g>
</svg>
