<?xml version="1.0" encoding="UTF-8" standalone="no"?>
<!-- Created with Inkscape (http://www.inkscape.org/) -->

<svg
   xmlns:dc="http://purl.org/dc/elements/1.1/"
   xmlns:cc="http://creativecommons.org/ns#"
   xmlns:rdf="http://www.w3.org/1999/02/22-rdf-syntax-ns#"
   xmlns:svg="http://www.w3.org/2000/svg"
   xmlns="http://www.w3.org/2000/svg"
   xmlns:sodipodi="http://sodipodi.sourceforge.net/DTD/sodipodi-0.dtd"
   xmlns:inkscape="http://www.inkscape.org/namespaces/inkscape"
   width="20"
   height="20"
   viewBox="0 0 5.2916665 5.2916668"
   version="1.1"
   id="svg980"
   inkscape:version="0.92.5 (2060ec1f9f, 2020-04-08)"
   sodipodi:docname="menu.svg">
  <defs
     id="defs974" />
  <sodipodi:namedview
     id="base"
     pagecolor="#ffffff"
     bordercolor="#666666"
     borderopacity="1.0"
     inkscape:pageopacity="0.0"
     inkscape:pageshadow="2"
     inkscape:zoom="15.839192"
     inkscape:cx="13.889647"
     inkscape:cy="2.5657668"
     inkscape:document-units="mm"
     inkscape:current-layer="layer1"
     showgrid="false"
     units="px"
     inkscape:window-width="1920"
     inkscape:window-height="1020"
     inkscape:window-x="1080"
     inkscape:window-y="437"
     inkscape:window-maximized="1" />
  <metadata
     id="metadata977">
    <rdf:RDF>
      <cc:Work
         rdf:about="">
        <dc:format>image/svg+xml</dc:format>
        <dc:type
           rdf:resource="http://purl.org/dc/dcmitype/StillImage" />
        <dc:title></dc:title>
      </cc:Work>
    </rdf:RDF>
  </metadata>
  <g
     inkscape:label="Layer 1"
     inkscape:groupmode="layer"
     id="layer1"
     transform="translate(0,-291.70832)">
    <path
       inkscape:connector-curvature="0"
       id="path931"
       d="m -2.1149845,303.637 c -0.2707562,-0.046 -0.5025192,-0.24564 -0.5900817,-0.50844 -0.014561,-0.0437 -0.026543,-0.0926 -0.026628,-0.10866 -1.102e-4,-0.0196 -0.003,-0.0248 -0.00877,-0.0156 -0.019231,0.0304 -0.022068,-0.21316 -0.020988,-1.80296 9.658e-4,-1.40469 0.00574,-1.85255 0.018876,-1.76556 0.0013,0.008 0.00851,-0.0124 0.016036,-0.0466 0.033663,-0.15265 0.1134216,-0.29145 0.227137,-0.39525 0.084681,-0.0772 0.159393,-0.12182 0.2722807,-0.1622 l 0.090671,-0.0324 0.8369798,-0.003 c 0.934803,-0.004 0.8999481,-0.006 0.9717144,0.0679 0.092451,0.0949 0.094383,0.23813 0.00448,0.33185 -0.070559,0.0736 -0.00728,0.0685 -0.9127912,0.0742 -0.8016884,0.006 -0.8184924,0.006 -0.8642722,0.0268 -0.056244,0.0261 -0.1064477,0.0744 -0.1374095,0.13224 l -0.022886,0.0428 -0.00271,1.72266 c -0.00304,1.92946 -0.00822,1.79282 0.071341,1.87914 0.022945,0.0249 0.063461,0.056 0.090035,0.0691 l 0.048315,0.0238 h 1.4799328 1.4799332 l 0.048856,-0.0243 c 0.026868,-0.0133 0.065745,-0.043 0.086386,-0.0659 0.073285,-0.0811 0.071177,-0.0648 0.076917,-0.59294 0.00577,-0.53142 0.00211,-0.50543 0.081391,-0.57706 0.062736,-0.0566 0.1444631,-0.0731 0.2330585,-0.0468 0.056012,0.0166 0.1323297,0.093 0.1489633,0.14898 0.00914,0.0308 0.012648,0.16969 0.012648,0.49978 0,0.52445 -0.00366,0.55795 -0.077667,0.70986 -0.097658,0.20048 -0.2429558,0.32529 -0.4656646,0.40002 l -0.072445,0.0243 -1.5213293,0.002 c -0.8367309,7.3e-4 -1.5442659,-0.003 -1.5722987,-0.007 z m 1.0107413,-1.39971 c -0.050871,-0.019 -0.1032748,-0.0651 -0.1292745,-0.11381 -0.022974,-0.0429 -0.02326,-0.0485 -0.02326,-0.44714 0,-0.35078 0.00248,-0.41514 0.018792,-0.49159 0.042474,-0.19882 0.1130615,-0.36116 0.2308695,-0.53093 0.044758,-0.0645 0.2837568,-0.30988 0.9964484,-1.02308 1.0009113,-1.00164 1.0066261,-1.00686 1.1793338,-1.07934 0.4740027,-0.19889 1.0184977,7.5e-4 1.2471987,0.45704 0.041321,0.0825 0.089196,0.23562 0.089443,0.28615 1.099e-4,0.0223 0.00297,0.0281 0.00912,0.0183 0.012016,-0.0189 0.01864,0.10664 0.01057,0.20041 -0.00344,0.0398 -0.0073,0.0655 -0.00859,0.0569 -0.00129,-0.008 -0.010718,0.0241 -0.020936,0.0725 -0.010218,0.0484 -0.033285,0.12328 -0.051259,0.16644 -0.074449,0.17876 -0.070237,0.17415 -1.0866132,1.19032 -0.7255548,0.72542 -0.9681776,0.96186 -1.0334577,1.00712 -0.1470275,0.10196 -0.3189611,0.17738 -0.4994203,0.21908 -0.065156,0.0151 -0.1432522,0.0185 -0.4864119,0.0211 -0.3029259,0.002 -0.4175322,-1.1e-4 -0.4425419,-0.01 z m 0.7976082,-0.47811 c 0.1125522,-0.0196 0.2034315,-0.0527 0.2990657,-0.10861 0.063969,-0.0374 0.1698348,-0.1383 0.693849,-0.66101 0.3400993,-0.33925 0.6183629,-0.62154 0.6183629,-0.62731 0,-0.0137 -0.6641968,-0.67813 -0.6779296,-0.67813 -0.017405,0 -1.2208286,1.21201 -1.2570116,1.26598 -0.051294,0.0765 -0.1100295,0.21059 -0.1300038,0.29674 -0.022793,0.0983 -0.034701,0.47075 -0.016158,0.5054 0.011613,0.0217 0.017874,0.0224 0.1965621,0.0224 0.1172963,0 0.2168931,-0.006 0.2732636,-0.0154 z m 2.1218082,-1.89809 c 0.1145052,-0.11633 0.1476975,-0.15692 0.1735467,-0.21216 0.042593,-0.0911 0.057606,-0.19007 0.042563,-0.28084 -0.057416,-0.34651 -0.4447308,-0.5252 -0.7380883,-0.34053 -0.059594,0.0375 -0.3093759,0.2828 -0.3093759,0.30381 0,0.0213 0.6520848,0.67357 0.6734101,0.67357 0.009,0 0.080071,-0.0647 0.1579444,-0.14385 z"
       style="fill:#cdd2d4;fill-opacity:1;stroke-width:0.01034918" />
    <path
       style="fill:#cdd2d4;fill-opacity:1;stroke:#cdd2d4;stroke-width:0.20004499;stroke-miterlimit:4;stroke-dasharray:none;stroke-opacity:1"
       d="m -2.7212247,294.01818 c -0.024242,-0.0129 -0.053742,-0.0386 -0.068556,-0.061 -0.039667,-0.06 -0.038717,-0.12851 0.00547,-0.39747 l 0.037768,-0.22828 -1.3027454,-0.003 -1.3027535,-0.003 -0.059001,-0.0275 c -0.076758,-0.0358 -0.1438988,-0.10262 -0.1786272,-0.17779 l -0.027717,-0.06 v -1.55276 -1.55274 l 0.025881,-0.0552 c 0.035034,-0.0748 0.084481,-0.12692 0.1581839,-0.16689 l 0.061591,-0.0334 h 2.2652424 2.2652365 l 0.061591,0.0334 c 0.073703,0.0399 0.1231338,0.0922 0.1581839,0.16689 l 0.025881,0.0552 v 1.55274 1.55276 l -0.027715,0.06 c -0.034889,0.0754 -0.102255,0.14235 -0.1786302,0.17718 -0.05292,0.0241 -0.072899,0.0273 -0.1943487,0.0312 -0.1189514,0.005 -0.1348438,0.007 -0.1308386,0.0203 0.0194,0.0679 0.075794,0.46767 0.072513,0.51389 -0.0074,0.10407 -0.085896,0.17609 -0.1901971,0.17448 -0.064535,-6.9e-4 -0.066578,-0.002 -0.383759,-0.16877 -0.1931682,-0.10166 -0.2851926,-0.14493 -0.3078909,-0.14493 -0.022663,0 -0.1209299,0.0462 -0.328327,0.15442 -0.272601,0.14235 -0.3006187,0.15474 -0.3550741,0.1578 -0.046085,0.003 -0.068508,-9.5e-4 -0.1016919,-0.0183 z m 0.4995485,-0.49837 c 0.2670095,-0.13914 0.3097886,-0.13689 0.6293958,0.0317 0.1159758,0.0612 0.2119124,0.11035 0.2132025,0.10939 0.00273,-0.002 -0.1166192,-0.73623 -0.1205278,-0.74074 -0.00136,-0.002 -0.024176,0.008 -0.050395,0.0208 -0.1132089,0.0566 -0.2437051,0.0855 -0.3867042,0.0855 -0.1429994,0 -0.2734953,-0.0288 -0.3867093,-0.0855 -0.026219,-0.0129 -0.049028,-0.0225 -0.050669,-0.0208 -0.00273,0.003 -0.1228119,0.72539 -0.1228119,0.73974 0,0.005 0.027651,-0.008 0.061382,-0.0269 0.033795,-0.0187 0.1299702,-0.0696 0.2137478,-0.11325 z m -0.4717221,-0.50011 c 0,-0.003 0.011582,-0.0782 0.025672,-0.16558 l 0.025672,-0.15877 -0.039264,-0.0579 c -0.056412,-0.0833 -0.096448,-0.16736 -0.1268658,-0.26637 -0.024032,-0.0782 -0.026557,-0.10134 -0.026976,-0.2437 -4.537e-4,-0.18377 0.01512,-0.25533 0.087826,-0.40293 0.1765324,-0.35839 0.5699959,-0.55963 0.9608567,-0.49146 0.3602649,0.0629 0.639012,0.32356 0.7303271,0.68312 0.024788,0.0976 0.02527,0.31784 6.805e-4,0.41598 -0.024095,0.0971 -0.070583,0.20283 -0.1272516,0.28954 l -0.049511,0.0757 0.017131,0.10809 c 0.00949,0.0595 0.021651,0.13352 0.027104,0.16461 l 0.00997,0.0566 h 0.131064 c 0.1242919,0 0.1318518,-9.5e-4 0.1463611,-0.0219 0.013673,-0.0194 0.015281,-0.17772 0.015281,-1.49651 0,-1.31879 -0.00136,-1.47698 -0.015281,-1.49651 l -0.015282,-0.0219 h -2.1904201 -2.1904167 l -0.015281,0.0219 c -0.013673,0.0194 -0.015282,0.17772 -0.015282,1.49651 0,1.31879 0.00136,1.47697 0.015282,1.49651 l 0.015281,0.0219 h 1.3015858 c 0.715876,0 1.301592,-0.003 1.301592,-0.007 z m -2.2165911,-1.37307 c -0.087682,-0.0381 -0.1175039,-0.14605 -0.061929,-0.22403 0.042739,-0.0602 0.00338,-0.0576 0.847712,-0.0547 l 0.7708189,0.003 0.026284,0.0246 c 0.081714,0.0764 0.069505,0.19473 -0.025061,0.24323 l -0.043157,0.0222 -0.7423574,-3.7e-4 c -0.5949685,-3e-4 -0.7482978,-0.003 -0.7723213,-0.0129 z m -0.024096,-0.82396 c -0.090577,-0.0617 -0.088791,-0.17842 0.00402,-0.24755 l 0.027168,-0.0203 h 1.7429438 1.7429419 l 0.027104,0.0203 c 0.092587,0.0692 0.094373,0.18572 0.00402,0.24755 l -0.032363,0.0222 h -1.7414733 -1.7414829 z m 3.1672124,1.88531 c 0.1953042,-0.0617 0.3573004,-0.22502 0.4136136,-0.41669 0.06801,-0.23155 -0.020959,-0.50192 -0.2126619,-0.64602 -0.074572,-0.0561 -0.111713,-0.0753 -0.1938709,-0.10038 -0.2824676,-0.0862 -0.5838164,0.0413 -0.7155012,0.30293 -0.084063,0.16701 -0.091896,0.32919 -0.024176,0.50057 0.071757,0.18154 0.239552,0.32603 0.4287645,0.36924 0.073768,0.0169 0.2364249,0.0112 0.3038146,-0.01 z"
       id="path1928"
       inkscape:connector-curvature="0" />
    <text
       xml:space="preserve"
       style="font-style:normal;font-variant:normal;font-weight:normal;font-stretch:normal;font-size:12.63755703px;line-height:1.25;font-family:'Poiret One';-inkscape-font-specification:'Poiret One';letter-spacing:0px;word-spacing:0px;fill:#cdd2d4;fill-opacity:1;stroke:none;stroke-width:0.31593892"
       x="-0.20997559"
       y="299.72632"
       id="text4076"><tspan
         sodipodi:role="line"
         id="tspan4074"
         x="-0.20997559"
         y="299.72632"
         style="font-style:normal;font-variant:normal;font-weight:normal;font-stretch:normal;font-family:'Poiret One';-inkscape-font-specification:'Poiret One';fill:#cdd2d4;fill-opacity:1;stroke-width:0.31593892">&gt;</tspan></text>
  </g>
</svg>
