<?xml version="1.0" encoding="UTF-8" standalone="no"?>
<!-- Created with Inkscape (http://www.inkscape.org/) -->

<svg
   xmlns:dc="http://purl.org/dc/elements/1.1/"
   xmlns:cc="http://creativecommons.org/ns#"
   xmlns:rdf="http://www.w3.org/1999/02/22-rdf-syntax-ns#"
   xmlns:svg="http://www.w3.org/2000/svg"
   xmlns="http://www.w3.org/2000/svg"
   xmlns:sodipodi="http://sodipodi.sourceforge.net/DTD/sodipodi-0.dtd"
   xmlns:inkscape="http://www.inkscape.org/namespaces/inkscape"
   width="20"
   height="20"
   viewBox="0 0 5.2916665 5.2916668"
   version="1.1"
   id="svg980"
   inkscape:version="0.92.5 (2060ec1f9f, 2020-04-08)"
   sodipodi:docname="plus.svg">
  <defs
     id="defs974" />
  <sodipodi:namedview
     id="base"
     pagecolor="#ffffff"
     bordercolor="#666666"
     borderopacity="1.0"
     inkscape:pageopacity="0.0"
     inkscape:pageshadow="2"
     inkscape:zoom="11.2"
     inkscape:cx="2.2878128"
     inkscape:cy="-1.0632953"
     inkscape:document-units="mm"
     inkscape:current-layer="layer1"
     showgrid="false"
     units="px"
     inkscape:window-width="1920"
     inkscape:window-height="1020"
     inkscape:window-x="1080"
     inkscape:window-y="437"
     inkscape:window-maximized="1" />
  <metadata
     id="metadata977">
    <rdf:RDF>
      <cc:Work
         rdf:about="">
        <dc:format>image/svg+xml</dc:format>
        <dc:type
           rdf:resource="http://purl.org/dc/dcmitype/StillImage" />
        <dc:title></dc:title>
      </cc:Work>
    </rdf:RDF>
  </metadata>
  <g
     inkscape:label="Layer 1"
     inkscape:groupmode="layer"
     id="layer1"
     transform="translate(0,-291.70832)">
    <path
       inkscape:connector-curvature="0"
       id="path2204"
       d="m -7.4440292,296.78379 c -0.3717931,-0.0793 -0.6493083,-0.35981 -0.726725,-0.73462 -0.015796,-0.0765 -0.017954,-0.25648 -0.017954,-1.49754 0,-1.5305 -0.00306,-1.45324 0.06023,-1.52208 0.035002,-0.038 0.1076465,-0.0692 0.1614677,-0.0692 0.084646,0 0.1811676,0.0643 0.209606,0.13951 0.0083,0.0219 0.012113,0.46246 0.012158,1.4041 3.41e-5,0.82645 0.00442,1.3987 0.011027,1.43901 0.034059,0.20798 0.1971904,0.3711 0.4051653,0.40517 0.089085,0.0146 2.0343774,0.0146 2.1234625,0 0.2079747,-0.0341 0.3711061,-0.19719 0.4051658,-0.40517 0.0066,-0.0403 0.010986,-0.61256 0.011026,-1.43901 0,-0.94164 0.00386,-1.38213 0.012158,-1.4041 0.028439,-0.0752 0.1249606,-0.13951 0.2096061,-0.13951 0.053822,0 0.1264659,0.0312 0.1614681,0.0692 0.063289,0.0689 0.06023,-0.008 0.06023,1.52208 0,1.24106 -0.00216,1.42107 -0.017954,1.49754 -0.07843,0.37971 -0.3557793,0.65706 -0.7354814,0.73548 -0.1266012,0.0261 -2.2215969,0.0254 -2.3446566,-7.9e-4 z m 0.587424,-1.22207 c -0.028824,-0.0143 -0.061829,-0.0434 -0.079584,-0.0702 l -0.030336,-0.0458 -0.00304,-0.91489 c -0.00304,-0.91448 -0.00303,-0.91491 0.021273,-0.96512 0.058632,-0.12112 0.2351667,-0.1569 0.3362396,-0.0682 0.087355,0.0767 0.082741,0.0199 0.082741,1.01991 0,0.84475 -0.00113,0.89491 -0.021055,0.93796 -0.055412,0.11968 -0.1869874,0.16538 -0.3062379,0.10635 z m 0.9815178,0.009 c -0.04521,-0.021 -0.091333,-0.0713 -0.1130877,-0.12342 -0.015461,-0.037 -0.017626,-0.15299 -0.017408,-0.93227 2.836e-4,-0.99724 -0.00433,-0.94077 0.082991,-1.01744 0.1008887,-0.0886 0.2776096,-0.053 0.3360402,0.0678 0.023954,0.0495 0.024115,0.0558 0.024115,0.95217 0,0.89629 -1.591e-4,0.90268 -0.024115,0.95217 -0.034389,0.071 -0.096224,0.109 -0.1846963,0.1134 -0.042748,0.002 -0.082931,-0.002 -0.1038402,-0.0124 z m -2.4367685,-2.9194 c -0.1193176,-0.059 -0.1550666,-0.23526 -0.067879,-0.33456 0.071298,-0.0812 0.048466,-0.0782 0.6287391,-0.0845 l 0.5229808,-0.006 0.00569,-0.27855 0.00569,-0.27854 0.031165,-0.053 c 0.017141,-0.0292 0.050395,-0.065 0.073899,-0.0796 l 0.042735,-0.0265 h 0.8015249 0.8015245 l 0.042736,0.0265 c 0.023503,0.0146 0.056758,0.0504 0.073899,0.0796 l 0.031164,0.053 0.00569,0.27854 0.00569,0.27855 0.5229808,0.006 c 0.5802721,0.006 0.5574417,0.003 0.6287388,0.0845 0.087545,0.0997 0.051161,0.27676 -0.068805,0.33484 l -0.049816,0.0241 -1.9945383,-1e-5 -1.9945381,-10e-6 z m 2.5423459,-0.5496 c 0.0028,-0.1076 5.345e-4,-0.12691 -0.016385,-0.13928 -0.025348,-0.0185 -0.9253475,-0.021 -0.959679,-0.002 -0.019657,0.0105 -0.021991,0.0248 -0.021991,0.13454 0,0.0675 0.00346,0.12622 0.0077,0.13046 0.00423,0.004 0.2280642,0.006 0.4974001,0.005 l 0.4897012,-0.003 z"
       style="fill:#cdd2d4;fill-opacity:1;stroke-width:0.01136915" />
    <path
       style="fill:#cdd2d4;fill-opacity:1;stroke-width:0.01033063"
       d="m 9.7364216,295.94908 c -0.177352,-0.0348 -0.3281054,-0.18868 -0.3624762,-0.36993 -0.00695,-0.0364 -0.010535,-0.65235 -0.010535,-1.78647 0,-1.7266 3.67e-5,-1.73098 0.021266,-1.77484 0.015437,-0.0319 0.033323,-0.0498 0.065242,-0.0652 0.043094,-0.0208 0.058125,-0.0213 0.7586807,-0.0213 h 0.714715 v -0.0916 c 0,-0.0503 0.0048,-0.11659 0.01054,-0.14717 0.03519,-0.18553 0.185028,-0.33537 0.370563,-0.37056 0.07493,-0.0142 1.332294,-0.0142 1.407221,0 0.140374,0.0266 0.271713,0.12626 0.329666,0.25011 0.03805,0.0813 0.05144,0.15096 0.05144,0.26762 v 0.0916 l 0.720559,2e-5 c 0.817614,3e-5 0.772363,-0.005 0.81612,0.0822 l 0.02326,0.0461 v 1.73195 c 0,1.13485 -0.0037,1.75112 -0.01054,1.78755 -0.03519,0.18553 -0.185028,0.33537 -0.370563,0.37056 -0.06915,0.0131 -4.4682789,0.0125 -4.535153,-6.6e-4 z m 4.5197544,-0.31551 c 0.01945,-0.009 0.04571,-0.0313 0.05838,-0.0491 l 0.02302,-0.0323 0.0019,-1.25 0.002,-1.25001 -0.127222,0.37765 c -0.06997,0.20771 -0.137654,0.3981 -0.150405,0.42309 -0.05661,0.11097 -0.189424,0.20968 -0.318113,0.23644 -0.03504,0.007 -0.218161,0.0114 -0.508784,0.0114 h -0.454037 v 0.0897 c 0,0.11599 -0.02262,0.16798 -0.08653,0.19892 -0.04295,0.0208 -0.05881,0.0213 -0.688268,0.0213 -0.629459,0 -0.645321,-3.4e-4 -0.688273,-0.0213 -0.06391,-0.0309 -0.08653,-0.0829 -0.08653,-0.19892 v -0.0897 h -0.454039 c -0.290622,0 -0.473739,-0.004 -0.508783,-0.0114 -0.128685,-0.0268 -0.261502,-0.12547 -0.3181125,-0.23644 -0.012752,-0.025 -0.080434,-0.21538 -0.1504053,-0.42309 l -0.1272185,-0.37765 0.00195,1.25001 0.00195,1.25 0.022928,0.0322 c 0.050758,0.0712 -0.1466476,0.0655 2.3050808,0.0658 2.021967,2.2e-4 2.217427,-0.002 2.249697,-0.0165 z m -1.783257,-1.68779 v -0.15495 H 12.008041 11.54316 v 0.15495 0.15496 h 0.464881 0.464878 z m -1.239676,-0.24467 c 0,-0.11598 0.02262,-0.16798 0.08653,-0.19893 0.04295,-0.0208 0.05881,-0.0213 0.688273,-0.0213 0.629458,0 0.645317,3.3e-4 0.688268,0.0213 0.06391,0.0309 0.08653,0.0829 0.08653,0.19893 v 0.0897 h 0.449714 c 0.486852,0 0.496258,-7.8e-4 0.539606,-0.0561 0.01219,-0.0155 0.126708,-0.34287 0.26152,-0.74765 0.131899,-0.39601 0.241953,-0.72585 0.244564,-0.73295 0.0038,-0.0103 -0.454595,-0.0129 -2.270199,-0.0129 -1.815604,0 -2.2739918,0.002 -2.2702022,0.0129 0.00265,0.007 0.1126647,0.33694 0.2445641,0.73295 0.1345861,0.4041 0.2493281,0.73215 0.2614931,0.74761 0.04295,0.0546 0.04952,0.0553 0.537383,0.0557 l 0.451964,3.2e-4 z m 1.547953,-1.87569 c -0.003,-0.0895 -0.0071,-0.11087 -0.02656,-0.13819 -0.04844,-0.0679 -0.02498,-0.0659 -0.746589,-0.0659 -0.721613,0 -0.698152,-0.002 -0.746592,0.0659 -0.01948,0.0273 -0.02359,0.0486 -0.02656,0.13819 l -0.0035,0.10589 h 0.776676 0.77668 z"
       id="path1820"
       inkscape:connector-curvature="0" />
    <path
       style="fill:#cdd2d4;fill-opacity:1;stroke-width:0.01033277"
       d="m 15.442307,292.3255 c -0.06895,-0.046 -0.07124,-0.0591 -0.07125,-0.40617 l -2.1e-5,-0.3108 -0.05387,-0.0251 c -0.02962,-0.0137 -0.08077,-0.0513 -0.113659,-0.0833 -0.227153,-0.22164 -0.173733,-0.59277 0.106844,-0.74233 l 0.06069,-0.0323 v -0.69685 c 0,-0.38327 -0.0032,-0.69687 -0.0073,-0.69687 -0.0041,0 -0.09449,0.0311 -0.200981,0.0691 l -0.193615,0.0691 -0.0032,0.53277 c -0.0035,0.60544 0.0017,0.56825 -0.09286,0.66818 -0.16481,0.17427 -0.582182,0.31118 -1.113997,0.36544 -0.141906,0.0145 -0.55661,0.0144 -0.704799,-1.6e-4 -0.171872,-0.0168 -0.397385,-0.0568 -0.555405,-0.0984 -0.336609,-0.0886 -0.552128,-0.21141 -0.622941,-0.35511 -0.02308,-0.0468 -0.02329,-0.0514 -0.02644,-0.58054 l -0.0032,-0.53336 -0.492226,-0.17443 c -0.270723,-0.096 -0.506433,-0.18384 -0.523798,-0.19532 -0.03726,-0.0247 -0.06771,-0.0803 -0.06771,-0.12379 0,-0.0401 0.02912,-0.0967 0.0622,-0.12094 0.04246,-0.0311 2.537632,-0.90717 2.583686,-0.90717 0.04059,0 2.504778,0.86149 2.565878,0.89705 0.09411,0.0548 0.102415,0.18897 0.01562,0.25253 -0.01474,0.0107 -0.08912,0.0418 -0.165324,0.0689 l -0.138542,0.0493 -0.0028,0.75568 -0.0025,0.75568 0.05375,0.0272 c 0.06884,0.0349 0.162763,0.12443 0.197556,0.18836 0.124714,0.22914 0.03762,0.51872 -0.191738,0.6375 l -0.05939,0.0307 -3.9e-5,0.30999 c -3.2e-5,0.27446 -0.0021,0.3141 -0.01809,0.34594 -0.02594,0.0516 -0.07756,0.0828 -0.136893,0.0828 -0.03333,0 -0.05964,-0.007 -0.08372,-0.0235 z m 0.15088,-1.02016 c 0.07722,-0.0374 0.108353,-0.12957 0.06973,-0.20644 -0.0537,-0.10689 -0.206976,-0.11143 -0.271889,-0.008 -0.02648,0.0421 -0.02319,0.12503 0.0066,0.16589 0.0234,0.0321 0.09182,0.0693 0.127785,0.0693 0.01382,0 0.04436,-0.009 0.06784,-0.0206 z m -1.844399,-0.57923 c 0.359558,-0.0339 0.735316,-0.13855 0.875702,-0.2439 l 0.03358,-0.0252 v -0.43345 c 0,-0.35078 -0.0025,-0.43345 -0.01354,-0.43345 -0.0075,0 -0.281705,0.0953 -0.609443,0.21183 -0.327738,0.1165 -0.609655,0.21181 -0.626486,0.21181 -0.01683,0 -0.298656,-0.0953 -0.626288,-0.21181 -0.327636,-0.11651 -0.602236,-0.21183 -0.610227,-0.21183 -0.01226,0 -0.01453,0.0679 -0.01453,0.43345 v 0.43345 l 0.03358,0.0252 c 0.142269,0.10676 0.517238,0.2101 0.886033,0.24417 0.230744,0.0213 0.443583,0.0212 0.671632,-2.8e-4 z m 0.658204,-1.38417 c 0.54443,-0.19332 0.996846,-0.35405 1.005371,-0.35718 0.01379,-0.005 0.01379,-0.007 0,-0.0142 -0.0323,-0.0178 -1.985061,-0.703 -2.003646,-0.703 -0.01071,0 -0.448906,0.15162 -0.973737,0.33695 -0.524828,0.18532 -0.974247,0.34394 -0.998709,0.35247 -0.02446,0.009 -0.042,0.018 -0.03897,0.0211 0.0074,0.007 1.99166,0.71397 2.007417,0.7148 0.0068,3.6e-4 0.457849,-0.1575 1.002279,-0.35083 z"
       id="path1837"
       inkscape:connector-curvature="0" />
    <path
       style="fill:#cdd2d4;fill-opacity:1;stroke-width:0.01027781"
       d="m -1.0562065,302.40404 c -0.3516381,-0.0405 -0.658372,-0.18552 -0.9098264,-0.42998 -0.2336596,-0.22716 -0.3872936,-0.51443 -0.4464133,-0.83472 -0.026072,-0.14119 -0.024061,-0.43354 0.00388,-0.56009 0.011204,-0.0509 0.019806,-0.0931 0.019084,-0.0937 -0.00543,-0.005 -0.7923526,-0.28138 -0.8014856,-0.28133 -0.00644,3e-5 -0.022974,0.0165 -0.036639,0.0366 -0.051756,0.076 -0.1743031,0.17768 -0.2718167,0.22557 -0.1317227,0.0647 -0.2026052,0.0811 -0.3508144,0.0814 -0.143331,3e-4 -0.2234124,-0.0196 -0.359723,-0.0898 -0.1149365,-0.0592 -0.2512106,-0.19542 -0.3103598,-0.31036 -0.070817,-0.13762 -0.090183,-0.21595 -0.090183,-0.36486 0,-0.1489 0.019379,-0.22724 0.090183,-0.36486 0.059148,-0.11493 0.1954233,-0.25121 0.3103598,-0.31036 0.1369038,-0.0704 0.2164417,-0.0903 0.359723,-0.0897 0.1423589,6.6e-4 0.2376116,0.0225 0.3554845,0.0819 l 0.07199,0.0362 0.3964267,-0.39393 0.3964266,-0.39392 -0.03709,-0.0737 c -0.060196,-0.11954 -0.082138,-0.21427 -0.082728,-0.35715 -6.592e-4,-0.14328 0.019247,-0.22282 0.089689,-0.35972 0.059148,-0.11494 0.195424,-0.25121 0.3103597,-0.31037 0.1376228,-0.0708 0.2159604,-0.0902 0.3648653,-0.0902 0.1489041,0 0.2272386,0.0194 0.3648613,0.0902 0.1149357,0.0592 0.2512106,0.19543 0.310359,0.31037 0.070817,0.13762 0.090184,0.21595 0.090184,0.36486 0,0.1489 -0.019379,0.22723 -0.090184,0.36486 -0.059148,0.11494 -0.1954233,0.25121 -0.310359,0.31036 -0.1369037,0.0704 -0.2164417,0.0903 -0.359723,0.0897 -0.1425763,-6.6e-4 -0.2376116,-0.0225 -0.3561639,-0.0822 l -0.072673,-0.0366 -0.027128,0.0234 c -0.014899,0.0129 -0.1942726,0.18961 -0.398582,0.39269 l -0.3714694,0.36922 0.030257,0.0513 c 0.066687,0.1131 0.108486,0.29944 0.097441,0.43435 l -0.0059,0.0722 0.4024082,0.14305 c 0.2577372,0.0916 0.4038229,0.1388 0.4063447,0.13124 0.00959,-0.0288 0.1114721,-0.18895 0.1628688,-0.25607 0.1259841,-0.16451 0.3389755,-0.33986 0.5286105,-0.43521 0.1042546,-0.0524 0.2655519,-0.1078 0.393856,-0.13523 0.1373424,-0.0294 0.4140436,-0.0315 0.561613,-0.005 0.3198717,0.0588 0.607522,0.21265 0.8347187,0.44635 0.2165605,0.22276 0.3603659,0.50101 0.4152168,0.80343 0.024123,0.13302 0.024123,0.40141 0,0.53445 -0.022283,0.12279 -0.084679,0.31158 -0.1381561,0.41795 -0.1050651,0.20896 -0.293204,0.43042 -0.4779158,0.56256 -0.1824539,0.13053 -0.4168449,0.23027 -0.6286786,0.26752 -0.1121647,0.0197 -0.3328247,0.0282 -0.4331863,0.0166 z m 0.428048,-0.32805 c 0.048045,-0.011 0.1187696,-0.0318 0.1571543,-0.0463 0.095134,-0.0359 0.2340579,-0.10919 0.2409331,-0.12711 0.00929,-0.0242 -0.026701,-0.13553 -0.071757,-0.22217 -0.076866,-0.14773 -0.2135775,-0.26247 -0.3829558,-0.32139 -0.072828,-0.0253 -0.096667,-0.0286 -0.2105984,-0.0286 -0.113931,0 -0.1377671,0.003 -0.2105945,0.0286 -0.1693814,0.0589 -0.306098,0.17366 -0.3829589,0.32139 -0.045172,0.0868 -0.081031,0.198 -0.071702,0.2223 0.00722,0.0188 0.1647151,0.1 0.2592861,0.13369 0.063379,0.0226 0.1733466,0.0485 0.267222,0.0627 0.069839,0.0106 0.3207288,-0.004 0.4059719,-0.0231 z m -1.1635356,-0.47741 c 0.051275,-0.11404 0.1103091,-0.19882 0.2018536,-0.28986 0.070569,-0.0702 0.1138193,-0.10355 0.226109,-0.17447 0.014076,-0.009 0.011242,-0.0165 -0.021158,-0.0565 -0.075274,-0.093 -0.1268079,-0.2434 -0.1268079,-0.37 0,-0.33193 0.2843745,-0.61631 0.6163095,-0.61631 0.3319349,0 0.6163126,0.28438 0.6163126,0.61631 0,0.1266 -0.051539,0.27697 -0.1268119,0.37 -0.032369,0.04 -0.035234,0.0477 -0.021157,0.0565 0.1122897,0.0709 0.1555417,0.1043 0.2261081,0.17447 0.091545,0.091 0.150582,0.17582 0.20185749754,0.28986 0.0185870025,0.0414 0.0361350025,0.0752 0.0389690025,0.0752 0.011204,-1.4e-4 0.1275231,-0.17376 0.1617484,-0.24144 0.2757718,-0.54536 0.1155918,-1.20651 -0.3775837,-1.55848 -0.5599554,-0.39965 -1.3246978,-0.27349 -1.7217572,0.28403 -0.268458,0.37695 -0.3043511,0.85989 -0.094718,1.27445 0.034225,0.0677 0.1505392,0.2413 0.1617484,0.24144 0.00295,3e-5 0.020365,-0.0338 0.038968,-0.0752 z m 1.0218095,-0.61098 c 0.06004,-0.0266 0.1273126,-0.0937 0.1553973,-0.15502 0.030389,-0.0664 0.030389,-0.18335 0,-0.24972 -0.027951,-0.0611 -0.094946,-0.12807 -0.156027,-0.15603 -0.066376,-0.0304 -0.1833562,-0.0304 -0.2497338,0 -0.1320255,0.0605 -0.2069454,0.21213 -0.1735415,0.35137 0.044473,0.18539 0.249365,0.2866 0.423905,0.2094 z m -2.9918827,-0.75287 c 0.2412957,-0.0457 0.4102927,-0.28246 0.370995,-0.51962 -0.033409,-0.20162 -0.1851069,-0.35332 -0.386733,-0.38673 -0.2971925,-0.0492 -0.5711879,0.22475 -0.5219435,0.52194 0.043037,0.25971 0.2845919,0.43241 0.5376815,0.38441 z m 1.8602852,-1.86028 c 0.2412934,-0.0457 0.4102896,-0.28246 0.3709919,-0.51962 -0.033409,-0.20162 -0.185107,-0.35332 -0.3867331,-0.38674 -0.2971924,-0.0492 -0.5711878,0.22476 -0.5219434,0.52195 0.043037,0.25971 0.284592,0.43241 0.5376846,0.38441 z"
       id="path1854"
       inkscape:connector-curvature="0" />
    <path
       style="fill:#cdd2d4;fill-opacity:1;stroke-width:0.01023799"
       d="m 6.3811631,290.83302 c -0.4309806,-0.0629 -0.761995,-0.36564 -0.8830053,-0.80771 -0.026407,-0.0964 -0.026094,-0.38586 3.506e-4,-0.48502 l 0.018875,-0.0704 -0.1827942,-0.18301 c -0.1005369,-0.10065 -0.1874329,-0.183 -0.1931063,-0.183 -0.00569,0 -0.2959696,0.28528 -0.6451005,0.63397 l -0.6347859,0.63396 -0.6859449,0.22668 c -0.541936,0.1791 -0.693467,0.22555 -0.7217776,0.22126 -0.043344,-0.007 -0.081903,-0.0474 -0.081903,-0.0868 0,-0.0156 0.1016994,-0.33666 0.2259947,-0.71353 l 0.2259946,-0.68521 0.6339981,-0.63478 c 0.3486969,-0.34913 0.6339955,-0.63943 0.6339955,-0.6451 0,-0.006 -0.082374,-0.0926 -0.1830597,-0.19317 l -0.1830557,-0.18284 -0.065214,0.0173 c -0.1005229,0.0267 -0.3208656,0.0324 -0.4332112,0.0112 -0.3476988,-0.0656 -0.6278421,-0.28095 -0.7755345,-0.59612 -0.067912,-0.14492 -0.092804,-0.25976 -0.093932,-0.43332 -0.00107,-0.15709 0.00775,-0.2163 0.052155,-0.35322 0.034913,-0.10756 0.077564,-0.15394 0.1332702,-0.14491 0.032603,0.005 0.071962,0.0403 0.289025,0.25725 0.1381986,0.13812 0.2558958,0.25111 0.2615477,0.25111 0.00561,0 0.086158,-0.076 0.1788994,-0.16884 l 0.1686173,-0.16876 -0.2583155,-0.25904 c -0.2409868,-0.24167 -0.2583187,-0.2615 -0.2583187,-0.2956 0,-0.0705 0.049993,-0.10714 0.2061623,-0.15081 0.3635316,-0.10164 0.760237,0.004 1.0303091,0.27453 0.1180891,0.11826 0.1981568,0.24871 0.2521975,0.41089 0.061526,0.18466 0.072721,0.3893 0.031275,0.57151 l -0.017193,0.0756 0.1878471,0.18805 0.187843,0.18804 0.849876,-0.84815 c 0.9323527,-0.93046 0.8818042,-0.88597 1.0216799,-0.89904 0.079354,-0.007 0.1775712,0.016 0.2424925,0.0579 0.05694,0.0367 0.5926958,0.57454 0.6230267,0.62544 0.034954,0.0587 0.05637,0.15884 0.049564,0.23177 -0.013059,0.13987 0.031415,0.0893 -0.8990445,1.02168 l -0.8481526,0.84987 0.1886341,0.18843 0.1886316,0.18842 0.080097,-0.0196 c 0.1216439,-0.0298 0.3555673,-0.0275 0.4786895,0.005 0.3156296,0.0826 0.5605211,0.27901 0.6973609,0.55917 0.065057,0.13321 0.092132,0.22601 0.1074535,0.36832 0.012919,0.1199 0.00247,0.24918 -0.030747,0.37517 -0.041694,0.15887 -0.080823,0.21377 -0.1523428,0.21377 -0.034113,0 -0.053928,-0.0173 -0.2955984,-0.25831 l -0.2590471,-0.25832 -0.168848,0.16862 c -0.092871,0.0927 -0.1688513,0.17324 -0.1688513,0.17889 0,0.006 0.1130007,0.12335 0.2511184,0.26155 0.2169348,0.21707 0.2519483,0.25641 0.2572438,0.28903 0.00536,0.0333 0.00206,0.0419 -0.028437,0.0723 -0.085451,0.0852 -0.39132,0.13977 -0.6070297,0.10831 z m 0.3200844,-0.20953 c 0.021994,-0.007 0.00487,-0.0266 -0.2011127,-0.23363 -0.1238432,-0.12448 -0.2306837,-0.23719 -0.2374287,-0.25045 -0.028222,-0.0555 -0.0132,-0.0756 0.2634773,-0.35172 0.1449996,-0.14468 0.2763023,-0.26778 0.2917878,-0.27354 0.019189,-0.007 0.037124,-0.007 0.056313,0 0.015477,0.006 0.1304868,0.11255 0.2555667,0.23731 0.1250724,0.12477 0.2296963,0.22455 0.2324871,0.22177 0.0028,-0.002 0.010436,-0.0394 0.016986,-0.0814 0.028651,-0.18365 -0.026647,-0.42107 -0.1352146,-0.58036 -0.049391,-0.0725 -0.159459,-0.18382 -0.2278121,-0.23046 -0.2209062,-0.15068 -0.4967911,-0.19022 -0.7547212,-0.10816 -0.044953,0.0143 -0.077407,0.0191 -0.097098,0.0141 -0.019544,-0.005 -0.1042419,-0.0816 -0.2501449,-0.22655 l -0.220577,-0.21911 -0.2043697,0.20456 -0.2043729,0.20456 0.2169769,0.21756 c 0.1193364,0.11966 0.2217394,0.23036 0.227567,0.24602 0.00847,0.0227 0.0052,0.0464 -0.016285,0.11773 -0.038988,0.12953 -0.04511,0.31881 -0.014462,0.44761 0.077168,0.32439 0.3377454,0.57711 0.665776,0.64573 0.068176,0.0143 0.2879954,0.0133 0.336663,-0.002 z m -3.8442156,-0.13361 c 0.1133867,-0.0373 0.2101164,-0.0701 0.2149631,-0.0729 0.00487,-0.002 -0.057212,-0.0713 -0.1378933,-0.15212 -0.080682,-0.0808 -0.1497862,-0.1436 -0.1535612,-0.13947 -0.00668,0.007 -0.1422294,0.41342 -0.1422294,0.42608 0,0.0102 0.00388,0.009 0.2187208,-0.0615 z m 0.6131164,-0.20435 c 0.083054,-0.0274 0.1510079,-0.0522 0.1510079,-0.0553 0,-0.009 -0.6541843,-0.65992 -0.6585228,-0.65497 -0.00206,0.002 -0.027769,0.076 -0.05675,0.16322 l -0.052658,0.15856 0.222717,0.22291 c 0.1224952,0.12259 0.227322,0.2212 0.2329533,0.21911 0.00561,-0.002 0.078191,-0.0261 0.1612492,-0.0536 z m 1.8683649,-1.67555 1.5177392,-1.51772 -0.1508404,-0.15109 -0.1508405,-0.15109 -0.6962967,0.69567 c -0.4123188,0.41195 -0.708663,0.7003 -0.7266144,0.70701 -0.08022,0.03 -0.1583032,-0.0484 -0.1282766,-0.1288 0.00652,-0.0174 0.3012189,-0.32023 0.7068588,-0.72623 l 0.6956771,-0.6963 -0.1510929,-0.15084 -0.1510929,-0.15084 -1.520243,1.52027 -1.5202472,1.52026 0.150984,0.15099 0.1509849,0.15099 0.5042191,-0.50311 c 0.2773203,-0.27671 0.5142805,-0.5082 0.52658,-0.51442 0.087373,-0.0441 0.1794307,0.0479 0.13526,0.13526 -0.00627,0.0123 -0.2376853,0.24924 -0.514372,0.52653 l -0.5030708,0.50418 0.1482352,0.14849 c 0.081524,0.0817 0.1505889,0.1485 0.1534705,0.1485 0.0028,0 0.688221,-0.68297 1.5229786,-1.51771 z m -0.6122056,-0.0976 c -0.091984,-0.046 -0.059052,-0.18654 0.043691,-0.18654 0.088157,0 0.1320072,0.099 0.072045,0.16266 -0.036538,0.0388 -0.071434,0.046 -0.1157296,0.0239 z m -0.2736087,-0.80819 0.2020935,-0.20191 -0.2191168,-0.22058 c -0.1449395,-0.1459 -0.2216347,-0.23059 -0.2265449,-0.25014 -0.00495,-0.0197 -2.31e-4,-0.0521 0.014082,-0.0971 0.063135,-0.19845 0.055273,-0.40348 -0.022901,-0.59701 -0.072136,-0.17859 -0.2344102,-0.35251 -0.4121885,-0.44178 -0.1353755,-0.068 -0.3400009,-0.10135 -0.4839042,-0.0789 -0.041999,0.007 -0.078595,0.0141 -0.081334,0.0169 -0.00281,0.002 0.099581,0.10988 0.2273674,0.23812 l 0.2323403,0.23314 v 0.0451 0.0451 l -0.2684502,0.26916 c -0.2819714,0.28271 -0.3016388,0.29751 -0.3575497,0.26908 -0.013274,-0.007 -0.125965,-0.11358 -0.2504493,-0.23743 -0.2574533,-0.25612 -0.2358811,-0.24933 -0.24651,-0.0776 -0.025533,0.41243 0.2521586,0.78247 0.6601067,0.87965 0.1259057,0.0299 0.316439,0.0234 0.4451915,-0.0153 0.081689,-0.0246 0.092837,-0.0257 0.1228599,-0.0127 0.018174,0.008 0.1274187,0.10926 0.242801,0.22526 0.115379,0.116 0.2120881,0.21092 0.2149037,0.21092 0.0028,0 0.096058,-0.0909 0.2072101,-0.20191 z m 2.7278197,-0.93708 c 0.096513,-0.0971 0.1828494,-0.19135 0.1918499,-0.20937 0.021606,-0.0433 0.020385,-0.10106 -0.00313,-0.15152 -0.026407,-0.0563 -0.5348133,-0.56178 -0.5866298,-0.58319 -0.04822,-0.02 -0.1032717,-0.0201 -0.1447893,-3.5e-4 -0.017795,0.008 -0.1129131,0.096 -0.2113456,0.19455 l -0.1789654,0.17919 0.3735542,0.37365 c 0.2054512,0.20552 0.3759284,0.37367 0.3788315,0.37367 0.0028,0 0.084249,-0.0795 0.1807655,-0.17661 z"
       id="path1871"
       inkscape:connector-curvature="0" />
    <path
       style="fill:#cdd2d4;fill-opacity:1;stroke-width:0.01029965"
       d="m -4.6891382,290.52115 c -0.088015,-0.0208 -0.1722875,-0.0888 -0.2097481,-0.16906 l -0.024021,-0.0515 -8.71e-5,-1.36917 -8.97e-5,-1.36918 0.022701,-0.0469 c 0.031944,-0.066 0.1011122,-0.12948 0.1685428,-0.1547 0.049529,-0.0186 0.080137,-0.0212 0.2409544,-0.0212 h 0.18422 l 0.00336,-0.19826 c 0.00386,-0.22658 0.01258,-0.25898 0.090908,-0.33732 0.078333,-0.0783 0.1107417,-0.0871 0.3373129,-0.0909 l 0.1982694,-0.003 v -0.18422 c 0,-0.16082 0.00268,-0.19143 0.021219,-0.24095 0.025707,-0.0687 0.088734,-0.13646 0.1591812,-0.17112 l 0.051334,-0.0253 h 0.628279 0.6282792 l 0.058299,0.0286 c 0.089269,0.0438 0.1233084,0.0903 0.2324615,0.31711 l 0.098534,0.20477 0.94346254,0.003 c 0.8844717,0.002 0.9464851,0.004 0.9918148,0.0217 0.068088,0.0265 0.1359654,0.09 0.1699359,0.15921 l 0.028901,0.0589 v 1.08146 1.08146 l -0.028172,0.0534 c -0.034708,0.0658 -0.088041,0.11878 -0.1507631,0.14968 -0.043665,0.0215 -0.064201,0.0238 -0.2451497,0.0268 l -0.1974901,0.003 -0.00336,0.1975 c -0.00305,0.18094 -0.00529,0.20148 -0.026834,0.24514 -0.030967,0.0629 -0.083977,0.11617 -0.1496819,0.15054 -0.051751,0.0271 -0.059619,0.0281 -0.2510929,0.0317 l -0.1976669,0.004 -0.00317,0.19733 c -0.00293,0.18098 -0.0051,0.20127 -0.02666,0.24499 -0.032461,0.0659 -0.088258,0.12023 -0.15607944,0.15204 l -0.057334,0.0269 -1.7457889,0.002 c -0.999893,6.2e-4 -1.7624356,-0.002 -1.7847476,-0.008 z m 3.4635895,-1.30718 v -1.00936 h -0.9368806 c -0.9129062,0 -0.9382968,-5.3e-4 -0.9921585,-0.0207 -0.1037316,-0.0388 -0.1295734,-0.0711 -0.2518965,-0.31482 l -0.110736,-0.22062 -0.553603,-3e-5 -0.5536063,-3e-5 v 1.28746 1.28745 h 1.6994388 1.6994421 z m -1.0194593,0.71324 c -0.019713,-0.01 -0.046361,-0.0337 -0.05922,-0.053 -0.02008,-0.0301 -0.023386,-0.0484 -0.023386,-0.1298 0,-0.11557 0.019265,-0.15287 0.095133,-0.18433 0.042489,-0.0176 0.0535,-0.0184 0.091597,-0.007 0.088501,0.0265 0.1290898,0.1034 0.1193447,0.22608 -0.010358,0.13044 -0.1174026,0.20137 -0.2234721,0.14808 z m 0.4572551,0.003 c -0.067639,-0.0294 -0.1036892,-0.11262 -0.093099,-0.21479 0.00766,-0.074 0.028701,-0.1158 0.071299,-0.14178 0.052268,-0.0319 0.091806,-0.0351 0.1449412,-0.0115 0.071016,0.0314 0.088789,0.068 0.088836,0.18294 2.93e-5,0.0804 -0.0033,0.0987 -0.02333,0.12875 -0.04214,0.0631 -0.1199073,0.0863 -0.1886382,0.0564 z m 1.19048334,-1.34491 v -1.00937 H -1.5422621 l -0.9449925,-2e-5 -0.061797,-0.0292 c -0.033986,-0.0161 -0.078021,-0.0474 -0.097847,-0.0695 -0.019844,-0.0222 -0.082114,-0.134 -0.1385044,-0.2488 l -0.1024552,-0.20852 H -3.442006 -3.9961536 v 0.15964 0.15964 h 0.2674042 c 0.402682,0 0.4068649,0.002 0.5741081,0.34221 l 0.1050891,0.21346 0.9506264,0.003 0.9506232,0.003 0.049529,0.0246 c 0.07122,0.0354 0.13565044,0.10408 0.16091654,0.17161 0.020771,0.0555 0.0213,0.0743 0.0213,0.77751 v 0.72058 h 0.1596462 0.159643 z m 0.6257531,-0.62571 -0.00261,-1.00678 -0.952719,-0.005 c -1.06858104,-0.006 -0.98485764,6.2e-4 -1.07709994,-0.0842 -0.039949,-0.0368 -0.066685,-0.0814 -0.1534284,-0.2557 l -0.1050468,-0.21114 -0.5527187,-0.002 -0.5527211,-0.002 v 0.15913 0.15912 l 0.2806664,0.003 0.2806639,0.003 0.051502,0.0274 c 0.085758,0.0457 0.1192942,0.0915 0.2306807,0.31477 l 0.1038947,0.20831 0.9450746,0.003 0.94507414,0.003 0.051496,0.0237 c 0.064963,0.0299 0.1226953,0.0852 0.1579605,0.1514 l 0.027432,0.0515 0.00286,0.73385 0.0028,0.73385 h 0.159432 0.1594295 z"
       id="path1894"
       inkscape:connector-curvature="0" />
    <path
       style="fill:#cdd2d4;fill-opacity:1;stroke-width:0.01028752"
       d="m 9.0378308,301.41486 c -0.043429,-0.023 -0.079846,-0.0836 -0.079846,-0.1331 0,-0.0446 0.016894,-0.0735 0.2257399,-0.38578 l 0.1857466,-0.27776 7.5e-6,-0.63011 6.6e-6,-0.63012 H 8.5841368 c -0.7497433,0 -0.7889698,-8.2e-4 -0.8652054,-0.0204 -0.1056506,-0.027 -0.181601,-0.0715 -0.2629215,-0.15393 -0.079597,-0.0807 -0.1167677,-0.146 -0.1442512,-0.25345 -0.019638,-0.0768 -0.020343,-0.11725 -0.020343,-1.16676 0,-1.04951 7.037e-4,-1.08995 0.020343,-1.16675 0.028085,-0.10975 0.065173,-0.17385 0.1493958,-0.25806 0.084217,-0.0842 0.1483147,-0.12133 0.2580653,-0.1494 0.077467,-0.0198 0.11871,-0.0203 1.5648777,-0.0203 1.4683195,0 1.4857775,2.3e-4 1.5259115,0.0207 0.04384,0.0224 0.08203,0.0821 0.08203,0.12839 0,0.0461 -0.02382,0.0874 -0.21987,0.38137 l -0.191631,0.28733 v 0.63014 0.63014 h 0.785349 c 0.748783,0 0.789054,8.3e-4 0.864917,0.0203 0.110742,0.0283 0.174423,0.0652 0.258069,0.14923 0.0844,0.0848 0.121406,0.14881 0.149393,0.25823 0.01964,0.0768 0.02034,0.11725 0.02034,1.16676 0,1.05084 -7.04e-4,1.08986 -0.02041,1.16704 -0.02702,0.10565 -0.07148,0.1816 -0.153929,0.26292 -0.08069,0.0796 -0.146006,0.11677 -0.253459,0.14426 -0.07752,0.0198 -0.117929,0.0203 -1.567041,0.0199 -1.460645,-3.4e-4 -1.4881641,-7e-4 -1.5259366,-0.0207 z m 3.0398682,-0.30209 c 0.0569,-0.0203 0.106419,-0.062 0.138631,-0.11684 l 0.02854,-0.0485 0.0028,-1.08355 c 0.0017,-0.70945 -7.04e-4,-1.09694 -0.0077,-1.12232 -0.01531,-0.0569 -0.06456,-0.11888 -0.120659,-0.15186 l -0.0493,-0.0289 -0.794713,-0.002 -0.794709,-0.002 v 0.14776 c 0,0.24208 -0.03928,0.35444 -0.169743,0.48558 -0.129084,0.12975 -0.243015,0.16957 -0.4851606,0.16957 H 9.6781742 v 0.66387 c 0,0.54263 -0.00249,0.67011 -0.01425,0.69801 -0.00788,0.0187 -0.070404,0.11816 -0.1390179,0.22086 l -0.124759,0.18671 1.3195117,-3.5e-4 c 1.075413,-3.5e-4 1.326655,-0.003 1.358112,-0.0143 z m -1.790374,-0.36249 c -0.04501,-0.0222 -0.07592,-0.0677 -0.08188,-0.12075 -0.0043,-0.038 0.03206,-0.14057 0.290201,-0.81949 0.162303,-0.42685 0.306008,-0.7929 0.319352,-0.81343 0.02812,-0.0433 0.09822,-0.0811 0.14974,-0.0807 0.04766,3e-4 0.112848,0.0312 0.144216,0.0686 0.03209,0.0381 0.616384,1.58246 0.616384,1.62914 0,0.10173 -0.101857,0.17611 -0.197796,0.14445 -0.05803,-0.0191 -0.0859,-0.0593 -0.140115,-0.20153 -0.02801,-0.0735 -0.05423,-0.14185 -0.05823,-0.15175 -0.0067,-0.0167 -0.03395,-0.018 -0.365498,-0.018 h -0.358224 l -0.02044,0.054 c -0.10285,0.27179 -0.110553,0.28566 -0.173599,0.31252 -0.04331,0.0184 -0.0825,0.0175 -0.124108,-0.003 z m 0.913426,-0.67987 c 2.32e-4,-0.0221 -0.231557,-0.61873 -0.237828,-0.61215 -0.0071,0.007 -0.235481,0.60332 -0.235481,0.61442 0,0.003 0.106474,0.006 0.236614,0.006 0.130137,0 0.236649,-0.003 0.236695,-0.007 z m -1.2011289,-1.03572 c 0.0569,-0.0203 0.1064179,-0.062 0.1386309,-0.11683 l 0.02851,-0.0485 0.0051,-0.9876 c 0.0043,-0.82445 0.0075,-0.99185 0.01967,-1.01332 0.008,-0.0142 0.06938,-0.10789 0.136449,-0.20832 l 0.121922,-0.18261 -1.3195111,3.6e-4 c -1.0754131,3.5e-4 -1.3266519,0.003 -1.3581119,0.0143 -0.0569,0.0203 -0.1064173,0.062 -0.1386308,0.11683 l -0.028541,0.0485 v 1.1059 1.10591 l 0.028541,0.0485 c 0.032197,0.0548 0.081727,0.0965 0.1386308,0.11683 0.056991,0.0203 2.1703002,0.0203 2.2272906,0 z m -1.6978078,-0.3139 c -0.033391,-0.0155 -0.048917,-0.0312 -0.064071,-0.0646 -0.02506,-0.0552 -0.025159,-0.0842 -3.515e-4,-0.13854 0.024073,-0.0531 0.061625,-0.0739 0.1654951,-0.0919 0.042609,-0.007 0.1087019,-0.0231 0.1468724,-0.0349 l 0.069401,-0.0214 -0.050227,-0.0587 c -0.1727196,-0.20168 -0.2731733,-0.44593 -0.2959764,-0.71964 l -0.00705,-0.0849 h -0.062139 c -0.1115486,0 -0.1920882,-0.0647 -0.1920882,-0.15431 0,-0.0473 0.037146,-0.10713 0.082341,-0.13253 0.037021,-0.0208 0.052274,-0.0218 0.3382782,-0.0218 h 0.2995086 v -0.1452 c 0,-0.16701 0.012982,-0.20553 0.082341,-0.24451 0.049531,-0.0279 0.094791,-0.0276 0.1451556,7e-4 0.066682,0.0375 0.081122,0.0817 0.081122,0.24825 v 0.14078 h 0.2995094 c 0.2888639,0 0.3009302,7e-4 0.3394879,0.0225 0.042111,0.0237 0.081131,0.0871 0.081131,0.13185 0,0.0134 -0.00953,0.0441 -0.021188,0.0681 -0.02787,0.0576 -0.084572,0.0862 -0.1708932,0.0862 h -0.062139 l -0.00705,0.0849 c -0.022631,0.27145 -0.1246852,0.51962 -0.2959755,0.71963 l -0.050227,0.0587 0.069401,0.0214 c 0.038174,0.0118 0.1042638,0.0275 0.1468724,0.0349 0.1002209,0.0174 0.1392327,0.0384 0.164812,0.0885 0.026709,0.0524 0.026112,0.088 -0.00249,0.14454 -0.018511,0.0366 -0.032868,0.0498 -0.071705,0.0657 -0.046654,0.0191 -0.052515,0.0192 -0.1491703,0.003 -0.1197271,-0.0198 -0.2351677,-0.0568 -0.347072,-0.11126 -0.076944,-0.0375 -0.083312,-0.0389 -0.1061189,-0.024 -0.085325,0.0559 -0.316935,0.13005 -0.4447022,0.14238 -0.054521,0.005 -0.075005,0.002 -0.1109369,-0.014 z m 0.6584438,-0.60111 c 0.078337,-0.0919 0.1320356,-0.1809 0.1726133,-0.28596 0.030406,-0.0788 0.061733,-0.22727 0.061733,-0.29282 v -0.0346 H 8.8845597 8.574515 l 0.00696,0.0772 c 0.018619,0.20521 0.1046732,0.39929 0.2475019,0.55805 0.026709,0.0297 0.052656,0.0541 0.057613,0.0541 0.00497,0 0.038099,-0.0342 0.073629,-0.0759 z"
       id="path1911"
       inkscape:connector-curvature="0" />
    <path
       inkscape:connector-curvature="0"
       id="path2204-3"
       d="m 2.5393348,295.39808 c -0.028824,-0.0143 -0.061829,-0.0434 -0.079584,-0.0702 l -0.030336,-0.0458 -0.00304,-0.91489 c -0.00304,-0.91448 -0.00303,-0.91491 0.021273,-0.96512 0.058632,-0.12112 0.2351667,-0.1569 0.3362396,-0.0682 0.087355,0.0767 0.082741,0.0199 0.082741,1.01991 0,0.84475 -0.00113,0.89491 -0.021055,0.93796 -0.055412,0.11968 -0.1869874,0.16538 -0.3062379,0.10635 z"
       style="fill:#cdd2d4;fill-opacity:1;stroke-width:0.01136915"
       sodipodi:nodetypes="ccccccsccc" />
    <ellipse
       style="opacity:1;vector-effect:none;fill:none;fill-opacity:1;fill-rule:evenodd;stroke:#cdd2d4;stroke-width:0.40888101;stroke-linecap:butt;stroke-linejoin:miter;stroke-miterlimit:4;stroke-dasharray:none;stroke-dashoffset:0;stroke-opacity:1"
       id="path1400"
       cx="2.645833"
       cy="294.35416"
       ry="2.1695821"
       rx="2.2597008" />
    <path
       inkscape:connector-curvature="0"
       id="path2204-3-6"
       d="m 1.6019066,294.46072 c 0.0143,0.0288 0.0434,0.0618 0.0702,0.0796 l 0.0458,0.0303 0.91489,0.003 c 0.91448,0.003 0.91491,0.003 0.96512,-0.0213 0.12112,-0.0586 0.1569,-0.23517 0.0682,-0.33624 -0.0767,-0.0873 -0.0199,-0.0827 -1.01991,-0.0827 -0.84475,0 -0.89491,0.001 -0.93796,0.0211 -0.11968,0.0554 -0.16538,0.18698 -0.10635,0.30623 z"
       style="fill:#cdd2d4;fill-opacity:1;stroke-width:0.01136915"
       sodipodi:nodetypes="ccccccsccc" />
  </g>
</svg>
