<?xml version="1.0" encoding="UTF-8" standalone="no"?>
<!-- Created with Inkscape (http://www.inkscape.org/) -->

<svg
   xmlns:dc="http://purl.org/dc/elements/1.1/"
   xmlns:cc="http://creativecommons.org/ns#"
   xmlns:rdf="http://www.w3.org/1999/02/22-rdf-syntax-ns#"
   xmlns:svg="http://www.w3.org/2000/svg"
   xmlns="http://www.w3.org/2000/svg"
   xmlns:sodipodi="http://sodipodi.sourceforge.net/DTD/sodipodi-0.dtd"
   xmlns:inkscape="http://www.inkscape.org/namespaces/inkscape"
   width="20"
   height="20"
   viewBox="0 0 5.2916665 5.2916668"
   version="1.1"
   id="svg980"
   inkscape:version="0.92.5 (2060ec1f9f, 2020-04-08)"
   sodipodi:docname="pro.svg">
  <defs
     id="defs974" />
  <sodipodi:namedview
     id="base"
     pagecolor="#ffffff"
     bordercolor="#666666"
     borderopacity="1.0"
     inkscape:pageopacity="0.0"
     inkscape:pageshadow="2"
     inkscape:zoom="11.2"
     inkscape:cx="8.3714209"
     inkscape:cy="13.035638"
     inkscape:document-units="mm"
     inkscape:current-layer="layer1"
     showgrid="false"
     units="px"
     inkscape:window-width="1920"
     inkscape:window-height="1020"
     inkscape:window-x="1080"
     inkscape:window-y="437"
     inkscape:window-maximized="1" />
  <metadata
     id="metadata977">
    <rdf:RDF>
      <cc:Work
         rdf:about="">
        <dc:format>image/svg+xml</dc:format>
        <dc:type
           rdf:resource="http://purl.org/dc/dcmitype/StillImage" />
        <dc:title></dc:title>
      </cc:Work>
    </rdf:RDF>
  </metadata>
  <g
     inkscape:label="Layer 1"
     inkscape:groupmode="layer"
     id="layer1"
     transform="translate(0,-291.70832)">
    <path
       inkscape:connector-curvature="0"
       id="path2204"
       d="m -7.4440292,296.78379 c -0.3717931,-0.0793 -0.6493083,-0.35981 -0.726725,-0.73462 -0.015796,-0.0765 -0.017954,-0.25648 -0.017954,-1.49754 0,-1.5305 -0.00306,-1.45324 0.06023,-1.52208 0.035002,-0.038 0.1076465,-0.0692 0.1614677,-0.0692 0.084646,0 0.1811676,0.0643 0.209606,0.13951 0.0083,0.0219 0.012113,0.46246 0.012158,1.4041 3.41e-5,0.82645 0.00442,1.3987 0.011027,1.43901 0.034059,0.20798 0.1971904,0.3711 0.4051653,0.40517 0.089085,0.0146 2.0343774,0.0146 2.1234625,0 0.2079747,-0.0341 0.3711061,-0.19719 0.4051658,-0.40517 0.0066,-0.0403 0.010986,-0.61256 0.011026,-1.43901 0,-0.94164 0.00386,-1.38213 0.012158,-1.4041 0.028439,-0.0752 0.1249606,-0.13951 0.2096061,-0.13951 0.053822,0 0.1264659,0.0312 0.1614681,0.0692 0.063289,0.0689 0.06023,-0.008 0.06023,1.52208 0,1.24106 -0.00216,1.42107 -0.017954,1.49754 -0.07843,0.37971 -0.3557793,0.65706 -0.7354814,0.73548 -0.1266012,0.0261 -2.2215969,0.0254 -2.3446566,-7.9e-4 z m 0.587424,-1.22207 c -0.028824,-0.0143 -0.061829,-0.0434 -0.079584,-0.0702 l -0.030336,-0.0458 -0.00304,-0.91489 c -0.00304,-0.91448 -0.00303,-0.91491 0.021273,-0.96512 0.058632,-0.12112 0.2351667,-0.1569 0.3362396,-0.0682 0.087355,0.0767 0.082741,0.0199 0.082741,1.01991 0,0.84475 -0.00113,0.89491 -0.021055,0.93796 -0.055412,0.11968 -0.1869874,0.16538 -0.3062379,0.10635 z m 0.9815178,0.009 c -0.04521,-0.021 -0.091333,-0.0713 -0.1130877,-0.12342 -0.015461,-0.037 -0.017626,-0.15299 -0.017408,-0.93227 2.836e-4,-0.99724 -0.00433,-0.94077 0.082991,-1.01744 0.1008887,-0.0886 0.2776096,-0.053 0.3360402,0.0678 0.023954,0.0495 0.024115,0.0558 0.024115,0.95217 0,0.89629 -1.591e-4,0.90268 -0.024115,0.95217 -0.034389,0.071 -0.096224,0.109 -0.1846963,0.1134 -0.042748,0.002 -0.082931,-0.002 -0.1038402,-0.0124 z m -2.4367685,-2.9194 c -0.1193176,-0.059 -0.1550666,-0.23526 -0.067879,-0.33456 0.071298,-0.0812 0.048466,-0.0782 0.6287391,-0.0845 l 0.5229808,-0.006 0.00569,-0.27855 0.00569,-0.27854 0.031165,-0.053 c 0.017141,-0.0292 0.050395,-0.065 0.073899,-0.0796 l 0.042735,-0.0265 h 0.8015249 0.8015245 l 0.042736,0.0265 c 0.023503,0.0146 0.056758,0.0504 0.073899,0.0796 l 0.031164,0.053 0.00569,0.27854 0.00569,0.27855 0.5229808,0.006 c 0.5802721,0.006 0.5574417,0.003 0.6287388,0.0845 0.087545,0.0997 0.051161,0.27676 -0.068805,0.33484 l -0.049816,0.0241 -1.9945383,-1e-5 -1.9945381,-10e-6 z m 2.5423459,-0.5496 c 0.0028,-0.1076 5.345e-4,-0.12691 -0.016385,-0.13928 -0.025348,-0.0185 -0.9253475,-0.021 -0.959679,-0.002 -0.019657,0.0105 -0.021991,0.0248 -0.021991,0.13454 0,0.0675 0.00346,0.12622 0.0077,0.13046 0.00423,0.004 0.2280642,0.006 0.4974001,0.005 l 0.4897012,-0.003 z"
       style="fill:#cdd2d4;fill-opacity:1;stroke-width:0.01136915" />
    <path
       style="fill:#cdd2d4;fill-opacity:1;stroke-width:0.01033063"
       d="m 9.7364216,295.94908 c -0.177352,-0.0348 -0.3281054,-0.18868 -0.3624762,-0.36993 -0.00695,-0.0364 -0.010535,-0.65235 -0.010535,-1.78647 0,-1.7266 3.67e-5,-1.73098 0.021266,-1.77484 0.015437,-0.0319 0.033323,-0.0498 0.065242,-0.0652 0.043094,-0.0208 0.058125,-0.0213 0.7586807,-0.0213 h 0.714715 v -0.0916 c 0,-0.0503 0.0048,-0.11659 0.01054,-0.14717 0.03519,-0.18553 0.185028,-0.33537 0.370563,-0.37056 0.07493,-0.0142 1.332294,-0.0142 1.407221,0 0.140374,0.0266 0.271713,0.12626 0.329666,0.25011 0.03805,0.0813 0.05144,0.15096 0.05144,0.26762 v 0.0916 l 0.720559,2e-5 c 0.817614,3e-5 0.772363,-0.005 0.81612,0.0822 l 0.02326,0.0461 v 1.73195 c 0,1.13485 -0.0037,1.75112 -0.01054,1.78755 -0.03519,0.18553 -0.185028,0.33537 -0.370563,0.37056 -0.06915,0.0131 -4.4682789,0.0125 -4.535153,-6.6e-4 z m 4.5197544,-0.31551 c 0.01945,-0.009 0.04571,-0.0313 0.05838,-0.0491 l 0.02302,-0.0323 0.0019,-1.25 0.002,-1.25001 -0.127222,0.37765 c -0.06997,0.20771 -0.137654,0.3981 -0.150405,0.42309 -0.05661,0.11097 -0.189424,0.20968 -0.318113,0.23644 -0.03504,0.007 -0.218161,0.0114 -0.508784,0.0114 h -0.454037 v 0.0897 c 0,0.11599 -0.02262,0.16798 -0.08653,0.19892 -0.04295,0.0208 -0.05881,0.0213 -0.688268,0.0213 -0.629459,0 -0.645321,-3.4e-4 -0.688273,-0.0213 -0.06391,-0.0309 -0.08653,-0.0829 -0.08653,-0.19892 v -0.0897 h -0.454039 c -0.290622,0 -0.473739,-0.004 -0.508783,-0.0114 -0.128685,-0.0268 -0.261502,-0.12547 -0.3181125,-0.23644 -0.012752,-0.025 -0.080434,-0.21538 -0.1504053,-0.42309 l -0.1272185,-0.37765 0.00195,1.25001 0.00195,1.25 0.022928,0.0322 c 0.050758,0.0712 -0.1466476,0.0655 2.3050808,0.0658 2.021967,2.2e-4 2.217427,-0.002 2.249697,-0.0165 z m -1.783257,-1.68779 v -0.15495 H 12.008041 11.54316 v 0.15495 0.15496 h 0.464881 0.464878 z m -1.239676,-0.24467 c 0,-0.11598 0.02262,-0.16798 0.08653,-0.19893 0.04295,-0.0208 0.05881,-0.0213 0.688273,-0.0213 0.629458,0 0.645317,3.3e-4 0.688268,0.0213 0.06391,0.0309 0.08653,0.0829 0.08653,0.19893 v 0.0897 h 0.449714 c 0.486852,0 0.496258,-7.8e-4 0.539606,-0.0561 0.01219,-0.0155 0.126708,-0.34287 0.26152,-0.74765 0.131899,-0.39601 0.241953,-0.72585 0.244564,-0.73295 0.0038,-0.0103 -0.454595,-0.0129 -2.270199,-0.0129 -1.815604,0 -2.2739918,0.002 -2.2702022,0.0129 0.00265,0.007 0.1126647,0.33694 0.2445641,0.73295 0.1345861,0.4041 0.2493281,0.73215 0.2614931,0.74761 0.04295,0.0546 0.04952,0.0553 0.537383,0.0557 l 0.451964,3.2e-4 z m 1.547953,-1.87569 c -0.003,-0.0895 -0.0071,-0.11087 -0.02656,-0.13819 -0.04844,-0.0679 -0.02498,-0.0659 -0.746589,-0.0659 -0.721613,0 -0.698152,-0.002 -0.746592,0.0659 -0.01948,0.0273 -0.02359,0.0486 -0.02656,0.13819 l -0.0035,0.10589 h 0.776676 0.77668 z"
       id="path1820"
       inkscape:connector-curvature="0" />
    <path
       style="fill:#cdd2d4;fill-opacity:1;stroke-width:0.01033277"
       d="m 15.442307,292.3255 c -0.06895,-0.046 -0.07124,-0.0591 -0.07125,-0.40617 l -2.1e-5,-0.3108 -0.05387,-0.0251 c -0.02962,-0.0137 -0.08077,-0.0513 -0.113659,-0.0833 -0.227153,-0.22164 -0.173733,-0.59277 0.106844,-0.74233 l 0.06069,-0.0323 v -0.69685 c 0,-0.38327 -0.0032,-0.69687 -0.0073,-0.69687 -0.0041,0 -0.09449,0.0311 -0.200981,0.0691 l -0.193615,0.0691 -0.0032,0.53277 c -0.0035,0.60544 0.0017,0.56825 -0.09286,0.66818 -0.16481,0.17427 -0.582182,0.31118 -1.113997,0.36544 -0.141906,0.0145 -0.55661,0.0144 -0.704799,-1.6e-4 -0.171872,-0.0168 -0.397385,-0.0568 -0.555405,-0.0984 -0.336609,-0.0886 -0.552128,-0.21141 -0.622941,-0.35511 -0.02308,-0.0468 -0.02329,-0.0514 -0.02644,-0.58054 l -0.0032,-0.53336 -0.492226,-0.17443 c -0.270723,-0.096 -0.506433,-0.18384 -0.523798,-0.19532 -0.03726,-0.0247 -0.06771,-0.0803 -0.06771,-0.12379 0,-0.0401 0.02912,-0.0967 0.0622,-0.12094 0.04246,-0.0311 2.537632,-0.90717 2.583686,-0.90717 0.04059,0 2.504778,0.86149 2.565878,0.89705 0.09411,0.0548 0.102415,0.18897 0.01562,0.25253 -0.01474,0.0107 -0.08912,0.0418 -0.165324,0.0689 l -0.138542,0.0493 -0.0028,0.75568 -0.0025,0.75568 0.05375,0.0272 c 0.06884,0.0349 0.162763,0.12443 0.197556,0.18836 0.124714,0.22914 0.03762,0.51872 -0.191738,0.6375 l -0.05939,0.0307 -3.9e-5,0.30999 c -3.2e-5,0.27446 -0.0021,0.3141 -0.01809,0.34594 -0.02594,0.0516 -0.07756,0.0828 -0.136893,0.0828 -0.03333,0 -0.05964,-0.007 -0.08372,-0.0235 z m 0.15088,-1.02016 c 0.07722,-0.0374 0.108353,-0.12957 0.06973,-0.20644 -0.0537,-0.10689 -0.206976,-0.11143 -0.271889,-0.008 -0.02648,0.0421 -0.02319,0.12503 0.0066,0.16589 0.0234,0.0321 0.09182,0.0693 0.127785,0.0693 0.01382,0 0.04436,-0.009 0.06784,-0.0206 z m -1.844399,-0.57923 c 0.359558,-0.0339 0.735316,-0.13855 0.875702,-0.2439 l 0.03358,-0.0252 v -0.43345 c 0,-0.35078 -0.0025,-0.43345 -0.01354,-0.43345 -0.0075,0 -0.281705,0.0953 -0.609443,0.21183 -0.327738,0.1165 -0.609655,0.21181 -0.626486,0.21181 -0.01683,0 -0.298656,-0.0953 -0.626288,-0.21181 -0.327636,-0.11651 -0.602236,-0.21183 -0.610227,-0.21183 -0.01226,0 -0.01453,0.0679 -0.01453,0.43345 v 0.43345 l 0.03358,0.0252 c 0.142269,0.10676 0.517238,0.2101 0.886033,0.24417 0.230744,0.0213 0.443583,0.0212 0.671632,-2.8e-4 z m 0.658204,-1.38417 c 0.54443,-0.19332 0.996846,-0.35405 1.005371,-0.35718 0.01379,-0.005 0.01379,-0.007 0,-0.0142 -0.0323,-0.0178 -1.985061,-0.703 -2.003646,-0.703 -0.01071,0 -0.448906,0.15162 -0.973737,0.33695 -0.524828,0.18532 -0.974247,0.34394 -0.998709,0.35247 -0.02446,0.009 -0.042,0.018 -0.03897,0.0211 0.0074,0.007 1.99166,0.71397 2.007417,0.7148 0.0068,3.6e-4 0.457849,-0.1575 1.002279,-0.35083 z"
       id="path1837"
       inkscape:connector-curvature="0" />
    <path
       style="fill:#cdd2d4;fill-opacity:1;stroke-width:0.01027781"
       d="m -1.0562065,302.40404 c -0.3516381,-0.0405 -0.658372,-0.18552 -0.9098264,-0.42998 -0.2336596,-0.22716 -0.3872936,-0.51443 -0.4464133,-0.83472 -0.026072,-0.14119 -0.024061,-0.43354 0.00388,-0.56009 0.011204,-0.0509 0.019806,-0.0931 0.019084,-0.0937 -0.00543,-0.005 -0.7923526,-0.28138 -0.8014856,-0.28133 -0.00644,3e-5 -0.022974,0.0165 -0.036639,0.0366 -0.051756,0.076 -0.1743031,0.17768 -0.2718167,0.22557 -0.1317227,0.0647 -0.2026052,0.0811 -0.3508144,0.0814 -0.143331,3e-4 -0.2234124,-0.0196 -0.359723,-0.0898 -0.1149365,-0.0592 -0.2512106,-0.19542 -0.3103598,-0.31036 -0.070817,-0.13762 -0.090183,-0.21595 -0.090183,-0.36486 0,-0.1489 0.019379,-0.22724 0.090183,-0.36486 0.059148,-0.11493 0.1954233,-0.25121 0.3103598,-0.31036 0.1369038,-0.0704 0.2164417,-0.0903 0.359723,-0.0897 0.1423589,6.6e-4 0.2376116,0.0225 0.3554845,0.0819 l 0.07199,0.0362 0.3964267,-0.39393 0.3964266,-0.39392 -0.03709,-0.0737 c -0.060196,-0.11954 -0.082138,-0.21427 -0.082728,-0.35715 -6.592e-4,-0.14328 0.019247,-0.22282 0.089689,-0.35972 0.059148,-0.11494 0.195424,-0.25121 0.3103597,-0.31037 0.1376228,-0.0708 0.2159604,-0.0902 0.3648653,-0.0902 0.1489041,0 0.2272386,0.0194 0.3648613,0.0902 0.1149357,0.0592 0.2512106,0.19543 0.310359,0.31037 0.070817,0.13762 0.090184,0.21595 0.090184,0.36486 0,0.1489 -0.019379,0.22723 -0.090184,0.36486 -0.059148,0.11494 -0.1954233,0.25121 -0.310359,0.31036 -0.1369037,0.0704 -0.2164417,0.0903 -0.359723,0.0897 -0.1425763,-6.6e-4 -0.2376116,-0.0225 -0.3561639,-0.0822 l -0.072673,-0.0366 -0.027128,0.0234 c -0.014899,0.0129 -0.1942726,0.18961 -0.398582,0.39269 l -0.3714694,0.36922 0.030257,0.0513 c 0.066687,0.1131 0.108486,0.29944 0.097441,0.43435 l -0.0059,0.0722 0.4024082,0.14305 c 0.2577372,0.0916 0.4038229,0.1388 0.4063447,0.13124 0.00959,-0.0288 0.1114721,-0.18895 0.1628688,-0.25607 0.1259841,-0.16451 0.3389755,-0.33986 0.5286105,-0.43521 0.1042546,-0.0524 0.2655519,-0.1078 0.393856,-0.13523 0.1373424,-0.0294 0.4140436,-0.0315 0.561613,-0.005 0.3198717,0.0588 0.607522,0.21265 0.8347187,0.44635 0.2165605,0.22276 0.3603659,0.50101 0.4152168,0.80343 0.024123,0.13302 0.024123,0.40141 0,0.53445 -0.022283,0.12279 -0.084679,0.31158 -0.1381561,0.41795 -0.1050651,0.20896 -0.293204,0.43042 -0.4779158,0.56256 -0.1824539,0.13053 -0.4168449,0.23027 -0.6286786,0.26752 -0.1121647,0.0197 -0.3328247,0.0282 -0.4331863,0.0166 z m 0.428048,-0.32805 c 0.048045,-0.011 0.1187696,-0.0318 0.1571543,-0.0463 0.095134,-0.0359 0.2340579,-0.10919 0.2409331,-0.12711 0.00929,-0.0242 -0.026701,-0.13553 -0.071757,-0.22217 -0.076866,-0.14773 -0.2135775,-0.26247 -0.3829558,-0.32139 -0.072828,-0.0253 -0.096667,-0.0286 -0.2105984,-0.0286 -0.113931,0 -0.1377671,0.003 -0.2105945,0.0286 -0.1693814,0.0589 -0.306098,0.17366 -0.3829589,0.32139 -0.045172,0.0868 -0.081031,0.198 -0.071702,0.2223 0.00722,0.0188 0.1647151,0.1 0.2592861,0.13369 0.063379,0.0226 0.1733466,0.0485 0.267222,0.0627 0.069839,0.0106 0.3207288,-0.004 0.4059719,-0.0231 z m -1.1635356,-0.47741 c 0.051275,-0.11404 0.1103091,-0.19882 0.2018536,-0.28986 0.070569,-0.0702 0.1138193,-0.10355 0.226109,-0.17447 0.014076,-0.009 0.011242,-0.0165 -0.021158,-0.0565 -0.075274,-0.093 -0.1268079,-0.2434 -0.1268079,-0.37 0,-0.33193 0.2843745,-0.61631 0.6163095,-0.61631 0.3319349,0 0.6163126,0.28438 0.6163126,0.61631 0,0.1266 -0.051539,0.27697 -0.1268119,0.37 -0.032369,0.04 -0.035234,0.0477 -0.021157,0.0565 0.1122897,0.0709 0.1555417,0.1043 0.2261081,0.17447 0.091545,0.091 0.150582,0.17582 0.20185749754,0.28986 0.0185870025,0.0414 0.0361350025,0.0752 0.0389690025,0.0752 0.011204,-1.4e-4 0.1275231,-0.17376 0.1617484,-0.24144 0.2757718,-0.54536 0.1155918,-1.20651 -0.3775837,-1.55848 -0.5599554,-0.39965 -1.3246978,-0.27349 -1.7217572,0.28403 -0.268458,0.37695 -0.3043511,0.85989 -0.094718,1.27445 0.034225,0.0677 0.1505392,0.2413 0.1617484,0.24144 0.00295,3e-5 0.020365,-0.0338 0.038968,-0.0752 z m 1.0218095,-0.61098 c 0.06004,-0.0266 0.1273126,-0.0937 0.1553973,-0.15502 0.030389,-0.0664 0.030389,-0.18335 0,-0.24972 -0.027951,-0.0611 -0.094946,-0.12807 -0.156027,-0.15603 -0.066376,-0.0304 -0.1833562,-0.0304 -0.2497338,0 -0.1320255,0.0605 -0.2069454,0.21213 -0.1735415,0.35137 0.044473,0.18539 0.249365,0.2866 0.423905,0.2094 z m -2.9918827,-0.75287 c 0.2412957,-0.0457 0.4102927,-0.28246 0.370995,-0.51962 -0.033409,-0.20162 -0.1851069,-0.35332 -0.386733,-0.38673 -0.2971925,-0.0492 -0.5711879,0.22475 -0.5219435,0.52194 0.043037,0.25971 0.2845919,0.43241 0.5376815,0.38441 z m 1.8602852,-1.86028 c 0.2412934,-0.0457 0.4102896,-0.28246 0.3709919,-0.51962 -0.033409,-0.20162 -0.185107,-0.35332 -0.3867331,-0.38674 -0.2971924,-0.0492 -0.5711878,0.22476 -0.5219434,0.52195 0.043037,0.25971 0.284592,0.43241 0.5376846,0.38441 z"
       id="path1854"
       inkscape:connector-curvature="0" />
    <path
       style="fill:#cdd2d4;stroke-width:0.0124101;fill-opacity:1"
       d="m 7.4473639,289.88704 c -0.522418,-0.0762 -0.923661,-0.44322 -1.070345,-0.97907 -0.03201,-0.1169 -0.03163,-0.46773 4.25e-4,-0.58793 l 0.02288,-0.0853 -0.221576,-0.22183 c -0.121867,-0.12201 -0.227199,-0.22183 -0.234076,-0.22183 -0.0069,0 -0.358763,0.34581 -0.781966,0.76847 l -0.769463,0.76847 -0.831476,0.27477 c -0.656914,0.21709 -0.840594,0.2734 -0.874911,0.2682 -0.05254,-0.008 -0.09928,-0.0575 -0.09928,-0.10519 0,-0.0189 0.123276,-0.40809 0.273942,-0.86491 l 0.273942,-0.83059 0.768508,-0.76946 c 0.422677,-0.4232 0.768505,-0.77509 0.768505,-0.78196 0,-0.007 -0.09985,-0.11224 -0.221898,-0.23415 l -0.221893,-0.22163 -0.07905,0.021 c -0.12185,0.0324 -0.388941,0.0393 -0.525122,0.0136 -0.421467,-0.0795 -0.761046,-0.34056 -0.940073,-0.72259 -0.08232,-0.17567 -0.112494,-0.31487 -0.113861,-0.52526 -0.0013,-0.19042 0.0094,-0.26219 0.06322,-0.42815 0.04232,-0.13039 0.09402,-0.18661 0.161545,-0.17566 0.03952,0.006 0.08723,0.0489 0.350345,0.31183 0.167519,0.16742 0.310187,0.30439 0.317038,0.30439 0.0068,0 0.104437,-0.0921 0.216855,-0.20467 l 0.204391,-0.20468 -0.31312,-0.314 c -0.292115,-0.29294 -0.313124,-0.31698 -0.313124,-0.35831 0,-0.0855 0.0606,-0.12988 0.249902,-0.18281 0.440659,-0.12321 0.92153,0.005 1.248901,0.33277 0.143143,0.14335 0.240198,0.30148 0.305704,0.49807 0.07458,0.22383 0.08815,0.47189 0.03791,0.69276 l -0.02084,0.0916 0.227701,0.22795 0.227696,0.22794 1.030187,-1.0281 c 1.130162,-1.12787 1.068889,-1.07394 1.238441,-1.08978 0.09619,-0.009 0.215245,0.0194 0.29394,0.0702 0.06902,0.0445 0.718443,0.69643 0.755209,0.75813 0.04237,0.0711 0.06833,0.19254 0.06008,0.28094 -0.01583,0.16955 0.03808,0.10827 -1.089787,1.23844 l -1.028098,1.03018 0.228655,0.22841 0.228652,0.2284 0.09709,-0.0238 c 0.147452,-0.0361 0.431005,-0.0333 0.580249,0.006 0.382594,0.10018 0.679442,0.33821 0.845314,0.67781 0.07886,0.16147 0.111679,0.27396 0.130251,0.44646 0.01566,0.14534 0.003,0.30204 -0.03727,0.45476 -0.05054,0.19258 -0.09797,0.25913 -0.184664,0.25913 -0.04135,0 -0.06537,-0.021 -0.358313,-0.31312 l -0.314007,-0.31312 -0.204671,0.20439 c -0.112575,0.11241 -0.204675,0.21 -0.204675,0.21685 0,0.007 0.136975,0.14952 0.304396,0.31704 0.26296,0.26312 0.305402,0.31081 0.311821,0.35035 0.0065,0.0403 0.0025,0.0508 -0.03447,0.0876 -0.10358,0.10327 -0.474343,0.16943 -0.735818,0.13129 z m 0.387994,-0.25398 c 0.02666,-0.008 0.0059,-0.0323 -0.243781,-0.2832 -0.150118,-0.15089 -0.279626,-0.28751 -0.287802,-0.30359 -0.03421,-0.0673 -0.016,-0.0917 0.319377,-0.42634 0.175763,-0.17538 0.334923,-0.32459 0.353694,-0.33157 0.02326,-0.009 0.045,-0.009 0.06826,0 0.01876,0.007 0.158171,0.13643 0.309788,0.28766 0.151608,0.15123 0.278429,0.27219 0.281812,0.26881 0.0034,-0.003 0.01265,-0.0478 0.02059,-0.0987 0.03473,-0.22261 -0.0323,-0.5104 -0.163902,-0.70349 -0.05987,-0.0879 -0.19329,-0.22282 -0.276145,-0.27935 -0.267774,-0.18265 -0.602191,-0.23058 -0.914844,-0.13111 -0.05449,0.0173 -0.09383,0.0231 -0.117699,0.0171 -0.02369,-0.006 -0.126358,-0.0989 -0.303216,-0.27461 l -0.267375,-0.2656 -0.247729,0.24796 -0.247733,0.24796 0.263011,0.26371 c 0.144655,0.14505 0.268784,0.27924 0.275848,0.29822 0.01027,0.0275 0.0063,0.0563 -0.01974,0.14271 -0.04726,0.15701 -0.05468,0.38645 -0.01753,0.54257 0.09354,0.39322 0.409402,0.69956 0.807028,0.78273 0.08264,0.0173 0.349097,0.0161 0.40809,-0.002 z m -4.65981,-0.16196 c 0.137443,-0.0452 0.254695,-0.085 0.26057,-0.0884 0.0059,-0.003 -0.06935,-0.0864 -0.167149,-0.1844 -0.0978,-0.098 -0.181565,-0.17406 -0.186141,-0.16906 -0.0081,0.009 -0.172405,0.50113 -0.172405,0.51648 0,0.0124 0.0047,0.0111 0.265125,-0.0746 z m 0.743196,-0.24771 c 0.100675,-0.0332 0.183046,-0.0633 0.183046,-0.067 0,-0.0113 -0.792977,-0.79994 -0.798236,-0.79394 -0.0025,0.003 -0.03366,0.0921 -0.06879,0.19785 l -0.06383,0.19221 0.269969,0.2702 c 0.148484,0.1486 0.275551,0.26813 0.282377,0.2656 0.0068,-0.003 0.09478,-0.0317 0.19546,-0.065 z m 2.26476,-2.03103 1.839745,-1.83972 -0.182843,-0.18315 -0.182843,-0.18315 -0.844024,0.84327 c -0.499797,0.49935 -0.859014,0.84888 -0.880774,0.85701 -0.09724,0.0363 -0.191889,-0.0587 -0.155492,-0.15613 0.0079,-0.0211 0.365126,-0.38817 0.856827,-0.88031 l 0.843273,-0.84403 -0.183149,-0.18284 -0.183149,-0.18284 -1.84278,1.84281 -1.842785,1.84281 0.183017,0.18302 0.183018,0.18302 0.611195,-0.60985 c 0.336157,-0.33542 0.623391,-0.61602 0.6383,-0.62356 0.10591,-0.0535 0.217499,0.058 0.163957,0.16396 -0.0076,0.0149 -0.288113,0.30212 -0.623502,0.63824 l -0.609803,0.61114 0.179685,0.18 c 0.09882,0.099 0.182538,0.18001 0.186031,0.18001 0.0034,0 0.834235,-0.82787 1.846096,-1.83971 z M 5.4414119,287.074 c -0.1115,-0.0557 -0.07158,-0.22611 0.05296,-0.22611 0.106861,0 0.160014,0.12001 0.08733,0.19717 -0.04429,0.047 -0.08659,0.0557 -0.140283,0.029 z m -0.331658,-0.97966 0.24497,-0.24474 -0.265605,-0.26738 c -0.17569,-0.17686 -0.268657,-0.27951 -0.274609,-0.30321 -0.006,-0.0239 -2.8e-4,-0.0632 0.01707,-0.1177 0.07653,-0.24056 0.067,-0.48909 -0.02776,-0.72368 -0.08744,-0.21647 -0.284143,-0.4273 -0.499639,-0.5355 -0.164097,-0.0824 -0.412136,-0.12286 -0.58657,-0.0957 -0.05091,0.008 -0.09527,0.0171 -0.09859,0.0205 -0.0034,0.003 0.120708,0.1332 0.275606,0.28864 l 0.281634,0.28261 v 0.0547 0.0547 l -0.325405,0.32626 c -0.341795,0.34269 -0.365635,0.36063 -0.433408,0.32617 -0.01609,-0.008 -0.15269,-0.13768 -0.303585,-0.2878 -0.312075,-0.31046 -0.285926,-0.30223 -0.29881,-0.0941 -0.03095,0.49993 0.305657,0.94848 0.800156,1.06627 0.152618,0.0363 0.383575,0.0284 0.539644,-0.0186 0.09902,-0.0298 0.112533,-0.0312 0.148926,-0.0154 0.02203,0.01 0.154452,0.13244 0.294314,0.27306 0.139858,0.14061 0.257085,0.25566 0.260498,0.25566 0.0034,0 0.116438,-0.11013 0.251172,-0.24474 z m 3.306558,-1.13589 c 0.116989,-0.11774 0.221643,-0.23194 0.232553,-0.25379 0.02619,-0.0525 0.02471,-0.1225 -0.0038,-0.18366 -0.03201,-0.0683 -0.64828,-0.68097 -0.71109,-0.70693 -0.05845,-0.0242 -0.125182,-0.0243 -0.175508,-4.2e-4 -0.02157,0.0102 -0.136869,0.11636 -0.256185,0.23582 l -0.216935,0.21721 0.452808,0.45293 c 0.24904,0.24912 0.455686,0.45294 0.459205,0.45294 0.0034,0 0.102123,-0.0963 0.219117,-0.21408 z"
       id="path1871"
       inkscape:connector-curvature="0" />
    <path
       style="fill:#cdd2d4;fill-opacity:1;stroke-width:0.01029965"
       d="m 0.24817578,296.97037 c -0.0880146,-0.0208 -0.17228756,-0.0888 -0.20974817,-0.16906 l -0.02402055,-0.0515 -8.715e-5,-1.36917 -8.963e-5,-1.36918 0.02270095,-0.0469 c 0.03194441,-0.066 0.10111227,-0.12948 0.16854287,-0.1547 0.0495288,-0.0186 0.0801374,-0.0212 0.24095434,-0.0212 h 0.18422003 l 0.003361,-0.19826 c 0.003859,-0.22658 0.0125798,-0.25898 0.0909078,-0.33732 0.0783329,-0.0783 0.11074166,-0.0871 0.33731293,-0.0909 l 0.1982694,-0.003 v -0.18422 c 0,-0.16082 0.00268,-0.19143 0.021219,-0.24095 0.025707,-0.0687 0.088734,-0.13646 0.1591812,-0.17112 l 0.051334,-0.0253 h 0.628279 0.6282792 l 0.058299,0.0286 c 0.089269,0.0438 0.1233084,0.0903 0.2324615,0.31711 l 0.098534,0.20477 0.9434625,0.003 c 0.8844717,0.002 0.9464851,0.004 0.9918148,0.0217 0.068088,0.0265 0.1359654,0.09 0.1699359,0.15921 l 0.028901,0.0589 v 1.08146 1.08146 l -0.028172,0.0534 c -0.034708,0.0658 -0.088041,0.11878 -0.1507631,0.14968 -0.043665,0.0215 -0.064201,0.0238 -0.2451497,0.0268 l -0.1974901,0.003 -0.00336,0.1975 c -0.00305,0.18094 -0.00529,0.20148 -0.026834,0.24514 -0.030967,0.0629 -0.083977,0.11617 -0.1496819,0.15054 -0.051751,0.0271 -0.059619,0.0281 -0.2510929,0.0317 l -0.1976669,0.004 -0.00317,0.19733 c -0.00293,0.18098 -0.0051,0.20127 -0.02666,0.24499 -0.032461,0.0659 -0.088258,0.12023 -0.1560794,0.15204 l -0.057334,0.0269 -1.7457889,0.002 c -0.999893,6.2e-4 -1.76243569,-0.002 -1.78474761,-0.008 z m 3.46358952,-1.30718 v -1.00936 H 2.7748847 c -0.9129062,0 -0.9382968,-5.3e-4 -0.9921585,-0.0207 -0.1037316,-0.0388 -0.1295734,-0.0711 -0.2518965,-0.31482 l -0.110736,-0.22062 -0.55360309,-3e-5 -0.55360623,-3e-5 v 1.28746 1.28745 H 2.0123232 3.7117653 Z m -1.0194593,0.71324 c -0.019713,-0.01 -0.046361,-0.0337 -0.05922,-0.053 -0.02008,-0.0301 -0.023386,-0.0484 -0.023386,-0.1298 0,-0.11557 0.019265,-0.15287 0.095133,-0.18433 0.042489,-0.0176 0.0535,-0.0184 0.091597,-0.007 0.088501,0.0265 0.1290898,0.1034 0.1193447,0.22608 -0.010358,0.13044 -0.1174026,0.20137 -0.2234721,0.14808 z m 0.4572551,0.003 c -0.067639,-0.0294 -0.1036892,-0.11262 -0.093099,-0.21479 0.00766,-0.074 0.028701,-0.1158 0.071299,-0.14178 0.052268,-0.0319 0.091806,-0.0351 0.1449412,-0.0115 0.071016,0.0314 0.088789,0.068 0.088836,0.18294 2.93e-5,0.0804 -0.0033,0.0987 -0.02333,0.12875 -0.04214,0.0631 -0.1199073,0.0863 -0.1886382,0.0564 z m 1.1904833,-1.34491 v -1.00937 H 3.3950519 l -0.9449925,-2e-5 -0.061797,-0.0292 c -0.033986,-0.0161 -0.078021,-0.0474 -0.097847,-0.0695 -0.019844,-0.0222 -0.082114,-0.134 -0.1385044,-0.2488 L 2.0494558,293.46911 H 1.495308 0.94116036 v 0.15964 0.15964 H 1.2085646 c 0.402682,0 0.4068649,0.002 0.5741081,0.34221 l 0.1050891,0.21346 0.9506264,0.003 0.9506232,0.003 0.049529,0.0246 c 0.07122,0.0354 0.1356504,0.10408 0.1609165,0.17161 0.020771,0.0555 0.0213,0.0743 0.0213,0.77751 v 0.72058 h 0.1596462 0.159643 z m 0.6257531,-0.62571 -0.00261,-1.00678 -0.952719,-0.005 c -1.068581,-0.006 -0.9848576,6.2e-4 -1.0770999,-0.0842 -0.039949,-0.0368 -0.066685,-0.0814 -0.1534284,-0.2557 l -0.1050468,-0.21114 -0.5527187,-0.002 -0.5527211,-0.002 v 0.15913 0.15912 l 0.2806664,0.003 0.2806639,0.003 0.051502,0.0274 c 0.085758,0.0457 0.1192942,0.0915 0.2306807,0.31477 l 0.1038947,0.20831 0.9450746,0.003 0.9450741,0.003 0.051496,0.0237 c 0.064963,0.0299 0.1226953,0.0852 0.1579605,0.1514 l 0.027432,0.0515 0.00286,0.73385 0.0028,0.73385 H 4.8089905 4.96842 Z"
       id="path1894"
       inkscape:connector-curvature="0" />
    <path
       style="fill:#cdd2d4;fill-opacity:1;stroke-width:0.01028752"
       d="m 9.0378308,301.41486 c -0.043429,-0.023 -0.079846,-0.0836 -0.079846,-0.1331 0,-0.0446 0.016894,-0.0735 0.2257399,-0.38578 l 0.1857466,-0.27776 7.5e-6,-0.63011 6.6e-6,-0.63012 H 8.5841368 c -0.7497433,0 -0.7889698,-8.2e-4 -0.8652054,-0.0204 -0.1056506,-0.027 -0.181601,-0.0715 -0.2629215,-0.15393 -0.079597,-0.0807 -0.1167677,-0.146 -0.1442512,-0.25345 -0.019638,-0.0768 -0.020343,-0.11725 -0.020343,-1.16676 0,-1.04951 7.037e-4,-1.08995 0.020343,-1.16675 0.028085,-0.10975 0.065173,-0.17385 0.1493958,-0.25806 0.084217,-0.0842 0.1483147,-0.12133 0.2580653,-0.1494 0.077467,-0.0198 0.11871,-0.0203 1.5648777,-0.0203 1.4683195,0 1.4857775,2.3e-4 1.5259115,0.0207 0.04384,0.0224 0.08203,0.0821 0.08203,0.12839 0,0.0461 -0.02382,0.0874 -0.21987,0.38137 l -0.191631,0.28733 v 0.63014 0.63014 h 0.785349 c 0.748783,0 0.789054,8.3e-4 0.864917,0.0203 0.110742,0.0283 0.174423,0.0652 0.258069,0.14923 0.0844,0.0848 0.121406,0.14881 0.149393,0.25823 0.01964,0.0768 0.02034,0.11725 0.02034,1.16676 0,1.05084 -7.04e-4,1.08986 -0.02041,1.16704 -0.02702,0.10565 -0.07148,0.1816 -0.153929,0.26292 -0.08069,0.0796 -0.146006,0.11677 -0.253459,0.14426 -0.07752,0.0198 -0.117929,0.0203 -1.567041,0.0199 -1.460645,-3.4e-4 -1.4881641,-7e-4 -1.5259366,-0.0207 z m 3.0398682,-0.30209 c 0.0569,-0.0203 0.106419,-0.062 0.138631,-0.11684 l 0.02854,-0.0485 0.0028,-1.08355 c 0.0017,-0.70945 -7.04e-4,-1.09694 -0.0077,-1.12232 -0.01531,-0.0569 -0.06456,-0.11888 -0.120659,-0.15186 l -0.0493,-0.0289 -0.794713,-0.002 -0.794709,-0.002 v 0.14776 c 0,0.24208 -0.03928,0.35444 -0.169743,0.48558 -0.129084,0.12975 -0.243015,0.16957 -0.4851606,0.16957 H 9.6781742 v 0.66387 c 0,0.54263 -0.00249,0.67011 -0.01425,0.69801 -0.00788,0.0187 -0.070404,0.11816 -0.1390179,0.22086 l -0.124759,0.18671 1.3195117,-3.5e-4 c 1.075413,-3.5e-4 1.326655,-0.003 1.358112,-0.0143 z m -1.790374,-0.36249 c -0.04501,-0.0222 -0.07592,-0.0677 -0.08188,-0.12075 -0.0043,-0.038 0.03206,-0.14057 0.290201,-0.81949 0.162303,-0.42685 0.306008,-0.7929 0.319352,-0.81343 0.02812,-0.0433 0.09822,-0.0811 0.14974,-0.0807 0.04766,3e-4 0.112848,0.0312 0.144216,0.0686 0.03209,0.0381 0.616384,1.58246 0.616384,1.62914 0,0.10173 -0.101857,0.17611 -0.197796,0.14445 -0.05803,-0.0191 -0.0859,-0.0593 -0.140115,-0.20153 -0.02801,-0.0735 -0.05423,-0.14185 -0.05823,-0.15175 -0.0067,-0.0167 -0.03395,-0.018 -0.365498,-0.018 h -0.358224 l -0.02044,0.054 c -0.10285,0.27179 -0.110553,0.28566 -0.173599,0.31252 -0.04331,0.0184 -0.0825,0.0175 -0.124108,-0.003 z m 0.913426,-0.67987 c 2.32e-4,-0.0221 -0.231557,-0.61873 -0.237828,-0.61215 -0.0071,0.007 -0.235481,0.60332 -0.235481,0.61442 0,0.003 0.106474,0.006 0.236614,0.006 0.130137,0 0.236649,-0.003 0.236695,-0.007 z m -1.2011289,-1.03572 c 0.0569,-0.0203 0.1064179,-0.062 0.1386309,-0.11683 l 0.02851,-0.0485 0.0051,-0.9876 c 0.0043,-0.82445 0.0075,-0.99185 0.01967,-1.01332 0.008,-0.0142 0.06938,-0.10789 0.136449,-0.20832 l 0.121922,-0.18261 -1.3195111,3.6e-4 c -1.0754131,3.5e-4 -1.3266519,0.003 -1.3581119,0.0143 -0.0569,0.0203 -0.1064173,0.062 -0.1386308,0.11683 l -0.028541,0.0485 v 1.1059 1.10591 l 0.028541,0.0485 c 0.032197,0.0548 0.081727,0.0965 0.1386308,0.11683 0.056991,0.0203 2.1703002,0.0203 2.2272906,0 z m -1.6978078,-0.3139 c -0.033391,-0.0155 -0.048917,-0.0312 -0.064071,-0.0646 -0.02506,-0.0552 -0.025159,-0.0842 -3.515e-4,-0.13854 0.024073,-0.0531 0.061625,-0.0739 0.1654951,-0.0919 0.042609,-0.007 0.1087019,-0.0231 0.1468724,-0.0349 l 0.069401,-0.0214 -0.050227,-0.0587 c -0.1727196,-0.20168 -0.2731733,-0.44593 -0.2959764,-0.71964 l -0.00705,-0.0849 h -0.062139 c -0.1115486,0 -0.1920882,-0.0647 -0.1920882,-0.15431 0,-0.0473 0.037146,-0.10713 0.082341,-0.13253 0.037021,-0.0208 0.052274,-0.0218 0.3382782,-0.0218 h 0.2995086 v -0.1452 c 0,-0.16701 0.012982,-0.20553 0.082341,-0.24451 0.049531,-0.0279 0.094791,-0.0276 0.1451556,7e-4 0.066682,0.0375 0.081122,0.0817 0.081122,0.24825 v 0.14078 h 0.2995094 c 0.2888639,0 0.3009302,7e-4 0.3394879,0.0225 0.042111,0.0237 0.081131,0.0871 0.081131,0.13185 0,0.0134 -0.00953,0.0441 -0.021188,0.0681 -0.02787,0.0576 -0.084572,0.0862 -0.1708932,0.0862 h -0.062139 l -0.00705,0.0849 c -0.022631,0.27145 -0.1246852,0.51962 -0.2959755,0.71963 l -0.050227,0.0587 0.069401,0.0214 c 0.038174,0.0118 0.1042638,0.0275 0.1468724,0.0349 0.1002209,0.0174 0.1392327,0.0384 0.164812,0.0885 0.026709,0.0524 0.026112,0.088 -0.00249,0.14454 -0.018511,0.0366 -0.032868,0.0498 -0.071705,0.0657 -0.046654,0.0191 -0.052515,0.0192 -0.1491703,0.003 -0.1197271,-0.0198 -0.2351677,-0.0568 -0.347072,-0.11126 -0.076944,-0.0375 -0.083312,-0.0389 -0.1061189,-0.024 -0.085325,0.0559 -0.316935,0.13005 -0.4447022,0.14238 -0.054521,0.005 -0.075005,0.002 -0.1109369,-0.014 z m 0.6584438,-0.60111 c 0.078337,-0.0919 0.1320356,-0.1809 0.1726133,-0.28596 0.030406,-0.0788 0.061733,-0.22727 0.061733,-0.29282 v -0.0346 H 8.8845597 8.574515 l 0.00696,0.0772 c 0.018619,0.20521 0.1046732,0.39929 0.2475019,0.55805 0.026709,0.0297 0.052656,0.0541 0.057613,0.0541 0.00497,0 0.038099,-0.0342 0.073629,-0.0759 z"
       id="path1911"
       inkscape:connector-curvature="0" />
    <path
       style="fill:#cdd2d4;fill-opacity:1;stroke-width:0.01031658"
       d="m 12.367948,297.58582 c -0.02545,-0.0135 -0.05642,-0.0405 -0.07197,-0.064 -0.04164,-0.063 -0.04064,-0.13491 0.0057,-0.41725 l 0.03965,-0.23964 -1.367575,-0.003 -1.3675837,-0.003 -0.061937,-0.0289 c -0.080579,-0.0376 -0.151061,-0.10773 -0.1875176,-0.18664 l -0.029094,-0.063 v -1.63003 -1.63001 l 0.027169,-0.0579 c 0.036777,-0.0785 0.088685,-0.13323 0.1660557,-0.17519 l 0.064656,-0.0351 h 2.377972 2.377963 l 0.06466,0.0351 c 0.07737,0.0419 0.129261,0.0968 0.166056,0.17519 l 0.02717,0.0579 v 1.63001 1.63003 l -0.02909,0.063 c -0.03663,0.0792 -0.107344,0.14944 -0.18752,0.186 -0.05555,0.0253 -0.07653,0.0287 -0.20402,0.0328 -0.124871,0.005 -0.141554,0.007 -0.137349,0.0213 0.02036,0.0713 0.07957,0.49094 0.07612,0.53946 -0.0078,0.10925 -0.09017,0.18485 -0.199662,0.18316 -0.06775,-7.1e-4 -0.06989,-0.002 -0.402857,-0.17717 -0.202781,-0.10672 -0.299385,-0.15214 -0.323212,-0.15214 -0.02379,0 -0.126948,0.0485 -0.344666,0.1621 -0.286167,0.14944 -0.315579,0.16245 -0.372744,0.16566 -0.04838,0.003 -0.07192,-10e-4 -0.106753,-0.0192 z m 0.524408,-0.52317 c 0.280297,-0.14607 0.325205,-0.1437 0.660717,0.0333 0.121747,0.0642 0.222458,0.11584 0.223812,0.11483 0.0029,-0.002 -0.122423,-0.77287 -0.126526,-0.7776 -0.0014,-0.002 -0.02538,0.008 -0.0529,0.0218 -0.118843,0.0594 -0.255833,0.0898 -0.405948,0.0898 -0.150116,0 -0.287106,-0.0302 -0.405953,-0.0898 -0.02752,-0.0135 -0.05147,-0.0236 -0.05319,-0.0218 -0.0029,0.003 -0.128924,0.76149 -0.128924,0.77655 0,0.005 0.02903,-0.008 0.06444,-0.0282 0.03548,-0.0196 0.136438,-0.0731 0.224385,-0.11888 z m -0.495197,-0.525 c 0,-0.003 0.01216,-0.0821 0.02695,-0.17382 l 0.02695,-0.16667 -0.04122,-0.0608 c -0.05922,-0.0875 -0.101248,-0.17569 -0.133179,-0.27963 -0.02523,-0.0821 -0.02788,-0.10638 -0.02832,-0.25582 -4.81e-4,-0.19292 0.01587,-0.26804 0.0922,-0.42299 0.185317,-0.37622 0.598361,-0.58748 1.008673,-0.51591 0.378193,0.066 0.670811,0.33966 0.766671,0.71711 0.02602,0.10249 0.02653,0.33366 7.16e-4,0.43668 -0.02529,0.10199 -0.07409,0.21293 -0.133585,0.30395 l -0.05197,0.0795 0.01798,0.11347 c 0.01,0.0625 0.02273,0.14016 0.02845,0.1728 l 0.01047,0.0594 h 0.137586 c 0.130478,0 0.138414,-10e-4 0.153645,-0.023 0.01435,-0.0204 0.01604,-0.18657 0.01604,-1.57099 0,-1.38441 -0.0014,-1.55048 -0.01604,-1.57098 l -0.01604,-0.023 h -2.29943 -2.2994202 l -0.016042,0.023 c -0.014353,0.0204 -0.016042,0.18657 -0.016042,1.57098 0,1.38442 0.00143,1.55047 0.016042,1.57099 l 0.016042,0.023 h 1.3663572 c 0.751501,0 1.366365,-0.003 1.366365,-0.007 z m -2.326897,-1.4414 c -0.092045,-0.04 -0.1233515,-0.15332 -0.06501,-0.23518 0.04487,-0.0632 0.0035,-0.0605 0.889897,-0.0574 l 0.809178,0.003 0.02759,0.0258 c 0.08578,0.0802 0.07296,0.20442 -0.02631,0.25533 l -0.04531,0.0233 -0.7793,-3.9e-4 c -0.624576,-3.2e-4 -0.785535,-0.003 -0.810755,-0.0135 z m -0.02529,-0.86496 c -0.095085,-0.0648 -0.09321,-0.1873 0.0042,-0.25987 l 0.02852,-0.0213 h 1.829679 1.829678 l 0.02845,0.0213 c 0.09719,0.0726 0.09907,0.19496 0.0042,0.25987 l -0.03397,0.0233 h -1.828137 -1.828146 z m 3.324825,1.97913 c 0.205023,-0.0648 0.375081,-0.23622 0.434196,-0.43743 0.07139,-0.24307 -0.022,-0.52689 -0.223244,-0.67817 -0.07828,-0.0589 -0.117273,-0.079 -0.203519,-0.10537 -0.296524,-0.0905 -0.612869,0.0434 -0.751107,0.318 -0.08825,0.17532 -0.09647,0.34558 -0.02538,0.52548 0.07533,0.19058 0.251472,0.34226 0.450101,0.38762 0.07744,0.0177 0.24819,0.0118 0.318934,-0.0101 z"
       id="path1928"
       inkscape:connector-curvature="0" />
  </g>
</svg>
