<?xml version="1.0" encoding="UTF-8" standalone="no"?>
<!-- Created with Inkscape (http://www.inkscape.org/) -->

<svg
   xmlns:dc="http://purl.org/dc/elements/1.1/"
   xmlns:cc="http://creativecommons.org/ns#"
   xmlns:rdf="http://www.w3.org/1999/02/22-rdf-syntax-ns#"
   xmlns:svg="http://www.w3.org/2000/svg"
   xmlns="http://www.w3.org/2000/svg"
   xmlns:sodipodi="http://sodipodi.sourceforge.net/DTD/sodipodi-0.dtd"
   xmlns:inkscape="http://www.inkscape.org/namespaces/inkscape"
   width="20"
   height="20"
   viewBox="0 0 5.2916665 5.2916668"
   version="1.1"
   id="svg980"
   inkscape:version="0.92.5 (2060ec1f9f, 2020-04-08)"
   sodipodi:docname="pro.svg">
  <defs
     id="defs974" />
  <sodipodi:namedview
     id="base"
     pagecolor="#ffffff"
     bordercolor="#666666"
     borderopacity="1.0"
     inkscape:pageopacity="0.0"
     inkscape:pageshadow="2"
     inkscape:zoom="11.2"
     inkscape:cx="3.3608718"
     inkscape:cy="7.7609476"
     inkscape:document-units="mm"
     inkscape:current-layer="layer1"
     showgrid="false"
     units="px"
     inkscape:window-width="1247"
     inkscape:window-height="1020"
     inkscape:window-x="1752"
     inkscape:window-y="437"
     inkscape:window-maximized="0" />
  <metadata
     id="metadata977">
    <rdf:RDF>
      <cc:Work
         rdf:about="">
        <dc:format>image/svg+xml</dc:format>
        <dc:type
           rdf:resource="http://purl.org/dc/dcmitype/StillImage" />
        <dc:title></dc:title>
      </cc:Work>
    </rdf:RDF>
  </metadata>
  <g
     inkscape:label="Layer 1"
     inkscape:groupmode="layer"
     id="layer1"
     transform="translate(0,-291.70832)">
    <path
       inkscape:connector-curvature="0"
       id="path931"
       d="m -2.1149845,303.637 c -0.2707562,-0.046 -0.5025192,-0.24564 -0.5900817,-0.50844 -0.014561,-0.0437 -0.026543,-0.0926 -0.026628,-0.10866 -1.102e-4,-0.0196 -0.003,-0.0248 -0.00877,-0.0156 -0.019231,0.0304 -0.022068,-0.21316 -0.020988,-1.80296 9.658e-4,-1.40469 0.00574,-1.85255 0.018876,-1.76556 0.0013,0.008 0.00851,-0.0124 0.016036,-0.0466 0.033663,-0.15265 0.1134216,-0.29145 0.227137,-0.39525 0.084681,-0.0772 0.159393,-0.12182 0.2722807,-0.1622 l 0.090671,-0.0324 0.8369798,-0.003 c 0.934803,-0.004 0.8999481,-0.006 0.9717144,0.0679 0.092451,0.0949 0.094383,0.23813 0.00448,0.33185 -0.070559,0.0736 -0.00728,0.0685 -0.9127912,0.0742 -0.8016884,0.006 -0.8184924,0.006 -0.8642722,0.0268 -0.056244,0.0261 -0.1064477,0.0744 -0.1374095,0.13224 l -0.022886,0.0428 -0.00271,1.72266 c -0.00304,1.92946 -0.00822,1.79282 0.071341,1.87914 0.022945,0.0249 0.063461,0.056 0.090035,0.0691 l 0.048315,0.0238 h 1.4799328 1.4799332 l 0.048856,-0.0243 c 0.026868,-0.0133 0.065745,-0.043 0.086386,-0.0659 0.073285,-0.0811 0.071177,-0.0648 0.076917,-0.59294 0.00577,-0.53142 0.00211,-0.50543 0.081391,-0.57706 0.062736,-0.0566 0.1444631,-0.0731 0.2330585,-0.0468 0.056012,0.0166 0.1323297,0.093 0.1489633,0.14898 0.00914,0.0308 0.012648,0.16969 0.012648,0.49978 0,0.52445 -0.00366,0.55795 -0.077667,0.70986 -0.097658,0.20048 -0.2429558,0.32529 -0.4656646,0.40002 l -0.072445,0.0243 -1.5213293,0.002 c -0.8367309,7.3e-4 -1.5442659,-0.003 -1.5722987,-0.007 z m 1.0107413,-1.39971 c -0.050871,-0.019 -0.1032748,-0.0651 -0.1292745,-0.11381 -0.022974,-0.0429 -0.02326,-0.0485 -0.02326,-0.44714 0,-0.35078 0.00248,-0.41514 0.018792,-0.49159 0.042474,-0.19882 0.1130615,-0.36116 0.2308695,-0.53093 0.044758,-0.0645 0.2837568,-0.30988 0.9964484,-1.02308 1.0009113,-1.00164 1.0066261,-1.00686 1.1793338,-1.07934 0.4740027,-0.19889 1.0184977,7.5e-4 1.2471987,0.45704 0.041321,0.0825 0.089196,0.23562 0.089443,0.28615 1.099e-4,0.0223 0.00297,0.0281 0.00912,0.0183 0.012016,-0.0189 0.01864,0.10664 0.01057,0.20041 -0.00344,0.0398 -0.0073,0.0655 -0.00859,0.0569 -0.00129,-0.008 -0.010718,0.0241 -0.020936,0.0725 -0.010218,0.0484 -0.033285,0.12328 -0.051259,0.16644 -0.074449,0.17876 -0.070237,0.17415 -1.0866132,1.19032 -0.7255548,0.72542 -0.9681776,0.96186 -1.0334577,1.00712 -0.1470275,0.10196 -0.3189611,0.17738 -0.4994203,0.21908 -0.065156,0.0151 -0.1432522,0.0185 -0.4864119,0.0211 -0.3029259,0.002 -0.4175322,-1.1e-4 -0.4425419,-0.01 z m 0.7976082,-0.47811 c 0.1125522,-0.0196 0.2034315,-0.0527 0.2990657,-0.10861 0.063969,-0.0374 0.1698348,-0.1383 0.693849,-0.66101 0.3400993,-0.33925 0.6183629,-0.62154 0.6183629,-0.62731 0,-0.0137 -0.6641968,-0.67813 -0.6779296,-0.67813 -0.017405,0 -1.2208286,1.21201 -1.2570116,1.26598 -0.051294,0.0765 -0.1100295,0.21059 -0.1300038,0.29674 -0.022793,0.0983 -0.034701,0.47075 -0.016158,0.5054 0.011613,0.0217 0.017874,0.0224 0.1965621,0.0224 0.1172963,0 0.2168931,-0.006 0.2732636,-0.0154 z m 2.1218082,-1.89809 c 0.1145052,-0.11633 0.1476975,-0.15692 0.1735467,-0.21216 0.042593,-0.0911 0.057606,-0.19007 0.042563,-0.28084 -0.057416,-0.34651 -0.4447308,-0.5252 -0.7380883,-0.34053 -0.059594,0.0375 -0.3093759,0.2828 -0.3093759,0.30381 0,0.0213 0.6520848,0.67357 0.6734101,0.67357 0.009,0 0.080071,-0.0647 0.1579444,-0.14385 z"
       style="fill:#cdd2d4;fill-opacity:1;stroke-width:0.01034918" />
    <path
       style="fill:#cdd2d4;fill-opacity:1;stroke:#cdd2d4;stroke-width:0.19265412;stroke-miterlimit:4;stroke-dasharray:none;stroke-opacity:1"
       d="m 0.34011076,296.88573 c -0.0847678,-0.02 -0.16595225,-0.0855 -0.20203636,-0.16285 l -0.0231185,-0.0496 -7.707e-5,-1.31888 -8.669e-5,-1.31889 0.0218662,-0.0452 c 0.0307283,-0.0636 0.0973963,-0.12473 0.16234962,-0.14902 0.0476819,-0.0179 0.077158,-0.0204 0.23210966,-0.0204 h 0.1774538 l 0.00289,-0.19098 c 0.003853,-0.21826 0.0121372,-0.24947 0.0875613,-0.32493 0.0754241,-0.0754 0.10668222,-0.0839 0.32493028,-0.0876 l 0.1909876,-0.003 v -0.17745 c 0,-0.15492 0.00289,-0.1844 0.020421,-0.2321 0.024756,-0.0662 0.085442,-0.13145 0.1533335,-0.16484 l 0.049416,-0.0244 h 0.6052038 0.6052035 l 0.056159,0.0275 c 0.08602,0.0422 0.1187806,0.087 0.2239219,0.30546 l 0.094882,0.19725 0.9088167,0.003 c 0.851984,0.002 0.9117165,0.004 0.9553816,0.0209 0.065599,0.0255 0.1309758,0.0867 0.1636982,0.15337 l 0.027838,0.0567 v 1.04174 1.04174 l -0.027164,0.0514 c -0.033425,0.0634 -0.084768,0.11442 -0.1452322,0.14418 -0.042095,0.0207 -0.061842,0.0229 -0.236146,0.0258 l -0.1902359,0.003 -0.00289,0.19024 c -0.00289,0.1743 -0.00482,0.19408 -0.025816,0.23614 -0.029861,0.0606 -0.080915,0.1119 -0.1441824,0.14501 -0.049801,0.0261 -0.057411,0.0271 -0.2418771,0.0305 l -0.1904003,0.004 -0.00289,0.19008 c -0.00289,0.17433 -0.00482,0.19388 -0.025719,0.23599 -0.031306,0.0635 -0.085057,0.11582 -0.1503471,0.14646 l -0.055195,0.0259 -1.6816683,0.002 c -0.9631647,5.8e-4 -1.6976969,-0.002 -1.71918747,-0.008 z M 3.676485,295.62656 v -0.97229 H 2.774016 c -0.8793695,0 -0.903827,-5.1e-4 -0.9557185,-0.0199 -0.09992,-0.0374 -0.1248109,-0.0685 -0.2426382,-0.30325 l -0.1066726,-0.21252 -0.5332664,-3e-5 -0.5332763,-3e-5 v 1.24017 1.24017 H 2.0394645 3.676485 Z m -1.0883215,0.68409 c -0.018977,-0.01 -0.044696,-0.0325 -0.057026,-0.0511 -0.019362,-0.029 -0.022541,-0.0466 -0.022541,-0.12503 0,-0.11133 0.018591,-0.14726 0.091607,-0.17756 0.040939,-0.017 0.051535,-0.0177 0.088236,-0.007 0.08525,0.0255 0.1243485,0.0996 0.1149567,0.21778 -0.051518,0.16608 -0.1429654,0.17125 -0.2152327,0.14291 z m 0.5467709,0.006 c -0.065117,-0.008 -0.099881,-0.10848 -0.08968,-0.2069 0.00771,-0.0713 0.027646,-0.11155 0.068681,-0.13657 0.050379,-0.0307 0.088428,-0.0338 0.1396166,-0.0111 0.068392,0.0302 0.085538,0.0655 0.085538,0.17622 2.88e-5,0.0774 -0.00289,0.0951 -0.022443,0.12402 -0.035527,0.0667 -0.081203,0.0969 -0.1817126,0.0543 z m 1.1467544,-1.29551 v -0.9723 H 3.3714076 l -0.910281,-2e-5 -0.05953,-0.0281 c -0.032751,-0.0155 -0.075135,-0.0457 -0.094304,-0.0669 -0.019073,-0.0214 -0.079085,-0.12908 -0.133413,-0.23966 L 2.0751826,293.5133 H 1.5413958 1.0075995 v 0.15377 0.15378 H 1.265178 c 0.3878897,0 0.3919258,0.002 0.5530232,0.32964 l 0.1012302,0.20562 0.9157138,0.003 0.9157044,0.003 0.047682,0.0237 c 0.068585,0.0341 0.1306677,0.10025 0.1550096,0.1653 0.020035,0.0535 0.020517,0.0716 0.020517,0.74895 v 0.69412 h 0.1537766 0.1537765 z m 0.602776,-0.60273 -0.00289,-0.9698 -0.9177273,-0.005 c -1.0293317,-0.006 -0.9486867,6e-4 -1.0375386,-0.0811 -0.038531,-0.0354 -0.06425,-0.0784 -0.1477946,-0.24631 l -0.1011915,-0.20339 -0.532419,-0.002 -0.532419,-0.002 v 0.15328 0.15328 l 0.2703612,0.003 0.2703515,0.003 0.049608,0.0264 c 0.082649,0.044 0.1149182,0.0881 0.2222073,0.30321 l 0.1000838,0.20066 0.9103582,0.003 0.9103677,0.003 0.049609,0.0228 c 0.062613,0.0288 0.1181933,0.0821 0.1521581,0.14584 l 0.026394,0.0496 0.00289,0.70689 0.00289,0.7069 H 4.733337 4.8869113 Z"
       id="path1894"
       inkscape:connector-curvature="0"
       sodipodi:nodetypes="cccccccscccccsccccccccccccccccccccccccccccccccsccccccccccccscccccccccccccccccccccccsccccccscccccccccccccccccccccccccccccc" />
  </g>
</svg>
