<?xml version="1.0" encoding="UTF-8" standalone="no"?>
<!-- Created with Inkscape (http://www.inkscape.org/) -->

<svg
   xmlns:dc="http://purl.org/dc/elements/1.1/"
   xmlns:cc="http://creativecommons.org/ns#"
   xmlns:rdf="http://www.w3.org/1999/02/22-rdf-syntax-ns#"
   xmlns:svg="http://www.w3.org/2000/svg"
   xmlns="http://www.w3.org/2000/svg"
   xmlns:sodipodi="http://sodipodi.sourceforge.net/DTD/sodipodi-0.dtd"
   xmlns:inkscape="http://www.inkscape.org/namespaces/inkscape"
   width="20"
   height="20"
   viewBox="0 0 5.2916665 5.2916668"
   version="1.1"
   id="svg980"
   inkscape:version="0.92.5 (2060ec1f9f, 2020-04-08)"
   sodipodi:docname="prof.svg">
  <defs
     id="defs974" />
  <sodipodi:namedview
     id="base"
     pagecolor="#ffffff"
     bordercolor="#666666"
     borderopacity="1.0"
     inkscape:pageopacity="0.0"
     inkscape:pageshadow="2"
     inkscape:zoom="11.2"
     inkscape:cx="5.5722843"
     inkscape:cy="-0.40030184"
     inkscape:document-units="mm"
     inkscape:current-layer="layer1"
     showgrid="false"
     units="px"
     inkscape:window-width="1247"
     inkscape:window-height="1020"
     inkscape:window-x="1752"
     inkscape:window-y="437"
     inkscape:window-maximized="0" />
  <metadata
     id="metadata977">
    <rdf:RDF>
      <cc:Work
         rdf:about="">
        <dc:format>image/svg+xml</dc:format>
        <dc:type
           rdf:resource="http://purl.org/dc/dcmitype/StillImage" />
        <dc:title></dc:title>
      </cc:Work>
    </rdf:RDF>
  </metadata>
  <g
     inkscape:label="Layer 1"
     inkscape:groupmode="layer"
     id="layer1"
     transform="translate(0,-291.70832)">
    <path
       inkscape:connector-curvature="0"
       id="path931"
       d="m -2.1149845,303.637 c -0.2707562,-0.046 -0.5025192,-0.24564 -0.5900817,-0.50844 -0.014561,-0.0437 -0.026543,-0.0926 -0.026628,-0.10866 -1.102e-4,-0.0196 -0.003,-0.0248 -0.00877,-0.0156 -0.019231,0.0304 -0.022068,-0.21316 -0.020988,-1.80296 9.658e-4,-1.40469 0.00574,-1.85255 0.018876,-1.76556 0.0013,0.008 0.00851,-0.0124 0.016036,-0.0466 0.033663,-0.15265 0.1134216,-0.29145 0.227137,-0.39525 0.084681,-0.0772 0.159393,-0.12182 0.2722807,-0.1622 l 0.090671,-0.0324 0.8369798,-0.003 c 0.934803,-0.004 0.8999481,-0.006 0.9717144,0.0679 0.092451,0.0949 0.094383,0.23813 0.00448,0.33185 -0.070559,0.0736 -0.00728,0.0685 -0.9127912,0.0742 -0.8016884,0.006 -0.8184924,0.006 -0.8642722,0.0268 -0.056244,0.0261 -0.1064477,0.0744 -0.1374095,0.13224 l -0.022886,0.0428 -0.00271,1.72266 c -0.00304,1.92946 -0.00822,1.79282 0.071341,1.87914 0.022945,0.0249 0.063461,0.056 0.090035,0.0691 l 0.048315,0.0238 h 1.4799328 1.4799332 l 0.048856,-0.0243 c 0.026868,-0.0133 0.065745,-0.043 0.086386,-0.0659 0.073285,-0.0811 0.071177,-0.0648 0.076917,-0.59294 0.00577,-0.53142 0.00211,-0.50543 0.081391,-0.57706 0.062736,-0.0566 0.1444631,-0.0731 0.2330585,-0.0468 0.056012,0.0166 0.1323297,0.093 0.1489633,0.14898 0.00914,0.0308 0.012648,0.16969 0.012648,0.49978 0,0.52445 -0.00366,0.55795 -0.077667,0.70986 -0.097658,0.20048 -0.2429558,0.32529 -0.4656646,0.40002 l -0.072445,0.0243 -1.5213293,0.002 c -0.8367309,7.3e-4 -1.5442659,-0.003 -1.5722987,-0.007 z m 1.0107413,-1.39971 c -0.050871,-0.019 -0.1032748,-0.0651 -0.1292745,-0.11381 -0.022974,-0.0429 -0.02326,-0.0485 -0.02326,-0.44714 0,-0.35078 0.00248,-0.41514 0.018792,-0.49159 0.042474,-0.19882 0.1130615,-0.36116 0.2308695,-0.53093 0.044758,-0.0645 0.2837568,-0.30988 0.9964484,-1.02308 1.0009113,-1.00164 1.0066261,-1.00686 1.1793338,-1.07934 0.4740027,-0.19889 1.0184977,7.5e-4 1.2471987,0.45704 0.041321,0.0825 0.089196,0.23562 0.089443,0.28615 1.099e-4,0.0223 0.00297,0.0281 0.00912,0.0183 0.012016,-0.0189 0.01864,0.10664 0.01057,0.20041 -0.00344,0.0398 -0.0073,0.0655 -0.00859,0.0569 -0.00129,-0.008 -0.010718,0.0241 -0.020936,0.0725 -0.010218,0.0484 -0.033285,0.12328 -0.051259,0.16644 -0.074449,0.17876 -0.070237,0.17415 -1.0866132,1.19032 -0.7255548,0.72542 -0.9681776,0.96186 -1.0334577,1.00712 -0.1470275,0.10196 -0.3189611,0.17738 -0.4994203,0.21908 -0.065156,0.0151 -0.1432522,0.0185 -0.4864119,0.0211 -0.3029259,0.002 -0.4175322,-1.1e-4 -0.4425419,-0.01 z m 0.7976082,-0.47811 c 0.1125522,-0.0196 0.2034315,-0.0527 0.2990657,-0.10861 0.063969,-0.0374 0.1698348,-0.1383 0.693849,-0.66101 0.3400993,-0.33925 0.6183629,-0.62154 0.6183629,-0.62731 0,-0.0137 -0.6641968,-0.67813 -0.6779296,-0.67813 -0.017405,0 -1.2208286,1.21201 -1.2570116,1.26598 -0.051294,0.0765 -0.1100295,0.21059 -0.1300038,0.29674 -0.022793,0.0983 -0.034701,0.47075 -0.016158,0.5054 0.011613,0.0217 0.017874,0.0224 0.1965621,0.0224 0.1172963,0 0.2168931,-0.006 0.2732636,-0.0154 z m 2.1218082,-1.89809 c 0.1145052,-0.11633 0.1476975,-0.15692 0.1735467,-0.21216 0.042593,-0.0911 0.057606,-0.19007 0.042563,-0.28084 -0.057416,-0.34651 -0.4447308,-0.5252 -0.7380883,-0.34053 -0.059594,0.0375 -0.3093759,0.2828 -0.3093759,0.30381 0,0.0213 0.6520848,0.67357 0.6734101,0.67357 0.009,0 0.080071,-0.0647 0.1579444,-0.14385 z"
       style="fill:#cdd2d4;fill-opacity:1;stroke-width:0.01034918" />
    <path
       style="fill:#cdd2d4;fill-opacity:1;stroke:#cdd2d4;stroke-width:0.20181583;stroke-miterlimit:4;stroke-dasharray:none;stroke-opacity:1"
       d="m 4.0094189,296.87358 c -0.4141843,-0.0605 -0.7322984,-0.35139 -0.8485926,-0.77624 -0.025379,-0.0926 -0.025076,-0.37082 3.305e-4,-0.46611 l 0.018139,-0.0677 -0.1756704,-0.17588 c -0.096619,-0.0967 -0.1801283,-0.17587 -0.1855804,-0.17587 -0.00547,0 -0.284435,0.27417 -0.6199595,0.60927 l -0.6100408,0.60925 c -0.4576557,0.32643 -1.19376445,0.48159 -1.34076009,0.30166 -0.27569907,-0.12605 0.006256,-0.79236 0.34356292,-1.29882 L 1.2001373,294.8231 c 0.3351075,-0.33553 0.6092873,-0.61451 0.6092873,-0.61996 0,-0.006 -0.079164,-0.089 -0.1759255,-0.18564 l -0.1759216,-0.17572 -0.062672,0.0166 c -0.096605,0.0257 -0.3083607,0.0311 -0.41632799,0.0108 -0.33414824,-0.063 -0.60337364,-0.27 -0.74531014,-0.57289 -0.0652653,-0.13927 -0.0891872,-0.24963 -0.0902713,-0.41643 -0.001028,-0.15097 0.007448,-0.20787 0.0501224,-0.33945 0.0335524,-0.10337 0.0745412,-0.14794 0.12807637,-0.13927 0.0313324,0.005 0.0691575,0.0387 0.27776105,0.24723 0.1328126,0.13274 0.24592288,0.24132 0.25135452,0.24132 0.005391,0 0.0828002,-0.073 0.17192739,-0.16226 l 0.1620459,-0.16218 -0.24824846,-0.24895 c -0.23159501,-0.23225 -0.24825145,-0.2513 -0.24825145,-0.28408 0,-0.0677 0.0480447,-0.10296 0.1981277,-0.14493 0.34936401,-0.0977 0.73060891,0.004 0.99015581,0.26383 0.1134868,0.11365 0.1904342,0.23902 0.2423688,0.39488 0.059128,0.17746 0.069887,0.37413 0.030056,0.54924 l -0.016523,0.0726 0.1805264,0.18072 0.1805223,0.18071 0.8167544,-0.81509 c 0.8960167,-0.8942 0.8474383,-0.85144 0.9818628,-0.864 0.4416796,-0.0732 0.944844,0.2955 0.8794205,0.87944 -0.012551,0.13442 0.030191,0.0858 -0.8640068,0.98186 l -0.8150981,0.81675 0.1812824,0.18109 0.1812803,0.18108 0.076976,-0.0188 c 0.116903,-0.0286 0.3417099,-0.0264 0.4600338,0.005 0.3033289,0.0794 0.5386765,0.26813 0.6701834,0.53737 0.062522,0.12802 0.088541,0.2172 0.1032657,0.35397 0.012416,0.11523 0.00236,0.23947 -0.029549,0.36055 -0.040069,0.15268 -0.077673,0.20544 -0.1464057,0.20544 -0.032784,0 -0.051826,-0.0166 -0.2840784,-0.24825 l -0.2489514,-0.24825 -0.1622678,0.16205 c -0.089252,0.0891 -0.1622708,0.16649 -0.1622708,0.17192 0,0.006 0.1085971,0.11854 0.2413318,0.25135 0.2084804,0.20861 0.2421295,0.24642 0.2472184,0.27777 0.00515,0.032 0.00198,0.0403 -0.027329,0.0695 -0.082121,0.0819 -0.3760694,0.13433 -0.5833725,0.10409 z m 0.3076101,-0.20137 c 0.021138,-0.007 0.00468,-0.0256 -0.1932749,-0.22452 -0.1190169,-0.11963 -0.2216934,-0.22795 -0.2281756,-0.24069 -0.027122,-0.0533 -0.012685,-0.0727 0.2532089,-0.33801 0.1393487,-0.13905 0.2655344,-0.25735 0.2804164,-0.26288 0.018442,-0.007 0.035677,-0.007 0.054118,0 0.014875,0.006 0.1254015,0.10816 0.2456066,0.22806 0.1201982,0.1199 0.2207447,0.2158 0.2234267,0.21312 0.00269,-0.002 0.010028,-0.0379 0.016324,-0.0782 0.027534,-0.1765 -0.025609,-0.40466 -0.1299448,-0.55775 -0.047466,-0.0697 -0.1532448,-0.17665 -0.2189342,-0.22147 -0.212297,-0.14481 -0.4774299,-0.18281 -0.7253078,-0.10395 -0.043201,0.0137 -0.07439,0.0184 -0.093314,0.0136 -0.018783,-0.005 -0.1001794,-0.0784 -0.2403961,-0.21772 l -0.2119807,-0.21057 -0.196405,0.19659 -0.196408,0.19659 0.2085208,0.20908 c 0.1146855,0.11499 0.2130976,0.22138 0.2186983,0.23643 0.00814,0.0218 0.005,0.0446 -0.01565,0.11314 -0.037469,0.12448 -0.043352,0.30639 -0.013898,0.43017 0.074161,0.31174 0.3245827,0.55462 0.6398293,0.62056 0.065519,0.0137 0.2767715,0.0128 0.3235425,-0.002 z m -2.9600533,-0.37793 c 0,-0.009 -0.62868936,-0.6342 -0.63285878,-0.62945 -0.00198,0.002 -0.0266868,0.073 -0.0545383,0.15686 -0.7635852,1.1413 0.219172,0.86375 0.68739708,0.47259 z m 1.6504277,-1.55711 1.4585895,-1.45857 -0.7231911,-0.72318 -1.4609957,1.46102 -1.46099988,1.46101 0.14509984,0.14511 0.14510064,0.1451 0.1428244,0.14266 0.1424582,0.1427 c 0.078347,0.0785 0.1447201,0.14271 0.1474894,0.14271 0.00269,0 0.6613996,-0.65635 1.4636247,-1.45856 z m -0.851292,-0.87049 0.1942174,-0.19404 -0.2105774,-0.21198 c -0.1392908,-0.14021 -0.212997,-0.2216 -0.2177159,-0.24039 -0.00476,-0.0189 -2.219e-4,-0.0501 0.013533,-0.0933 0.060675,-0.19071 0.053119,-0.38775 -0.022008,-0.57374 -0.069325,-0.17163 -0.2252747,-0.33877 -0.3961246,-0.42456 -0.1300997,-0.0653 -0.3267504,-0.0974 -0.4650455,-0.0758 -0.040362,0.007 -0.075532,0.0136 -0.0781642,0.0162 -0.0027,0.002 0.0957001,0.1056 0.2185065,0.22884 l 0.2232853,0.22406 v 0.0433 0.0433 l -0.2579881,0.25867 c -0.2709823,0.27169 -0.28988322,0.28592 -0.34361515,0.25859 -0.0127567,-0.007 -0.12105587,-0.10915 -0.24068864,-0.22817 -0.24741978,-0.24614 -0.22668829,-0.23962 -0.23690296,-0.0746 -0.0245379,0.39636 0.24233142,0.75198 0.63438081,0.84537 0.12099884,0.0287 0.30410674,0.0225 0.42784134,-0.0147 0.078505,-0.0236 0.089219,-0.0247 0.1180719,-0.0122 0.017466,0.008 0.1224529,0.105 0.2333385,0.21648 0.1108824,0.11148 0.2038226,0.2027 0.2065283,0.2027 0.00269,0 0.092314,-0.0874 0.1991347,-0.19404 z m 2.6215104,-0.90056 c 0.092752,-0.0933 0.1757235,-0.18389 0.1843731,-0.20121 0.1689028,-0.55482 -0.4150933,-0.96299 -0.9090312,-0.51944 l -0.1719905,0.1722 c 0.2397366,0.24061 0.4803161,0.48096 0.7230634,0.7182 0.00269,0 0.080966,-0.0764 0.1737207,-0.16973 z"
       id="path1871"
       inkscape:connector-curvature="0"
       sodipodi:nodetypes="cccccscccccscccccccccscccscccccccscccccccccccscccsccccccccccccccccccccccccccccccccccccccccccsccccccccccccccccccccccsccccccccc" />
  </g>
</svg>
