<?xml version="1.0" encoding="UTF-8" standalone="no"?>
<!-- Created with Inkscape (http://www.inkscape.org/) -->

<svg
   xmlns:dc="http://purl.org/dc/elements/1.1/"
   xmlns:cc="http://creativecommons.org/ns#"
   xmlns:rdf="http://www.w3.org/1999/02/22-rdf-syntax-ns#"
   xmlns:svg="http://www.w3.org/2000/svg"
   xmlns="http://www.w3.org/2000/svg"
   xmlns:sodipodi="http://sodipodi.sourceforge.net/DTD/sodipodi-0.dtd"
   xmlns:inkscape="http://www.inkscape.org/namespaces/inkscape"
   width="20"
   height="20"
   viewBox="0 0 5.2916665 5.2916668"
   version="1.1"
   id="svg980"
   inkscape:version="0.92.5 (2060ec1f9f, 2020-04-08)"
   sodipodi:docname="prof-prob.svg">
  <defs
     id="defs974" />
  <sodipodi:namedview
     id="base"
     pagecolor="#ffffff"
     bordercolor="#666666"
     borderopacity="1.0"
     inkscape:pageopacity="0.0"
     inkscape:pageshadow="2"
     inkscape:zoom="16.000001"
     inkscape:cx="1.2397947"
     inkscape:cy="11.660963"
     inkscape:document-units="mm"
     inkscape:current-layer="layer1"
     showgrid="false"
     units="px"
     inkscape:window-width="1920"
     inkscape:window-height="1023"
     inkscape:window-x="1080"
     inkscape:window-y="437"
     inkscape:window-maximized="1" />
  <metadata
     id="metadata977">
    <rdf:RDF>
      <cc:Work
         rdf:about="">
        <dc:format>image/svg+xml</dc:format>
        <dc:type
           rdf:resource="http://purl.org/dc/dcmitype/StillImage" />
        <dc:title></dc:title>
      </cc:Work>
    </rdf:RDF>
  </metadata>
  <g
     inkscape:label="Layer 1"
     inkscape:groupmode="layer"
     id="layer1"
     transform="translate(0,-291.70832)">
    <path
       style="fill:#cdd2d4;fill-opacity:1;stroke:#cdd2d4;stroke-width:0.005;stroke-miterlimit:4;stroke-dasharray:none;stroke-opacity:1"
       d="m 8.6670529,292.94973 c -0.018856,-0.01 -0.043387,-0.0335 -0.054463,-0.0526 -0.019405,-0.0334 -0.020321,-0.0542 -0.02508,-0.58879 l -0.00457,-0.55417 -1.2275044,-0.005 c -1.1617283,-0.005 -1.228969,-0.006 -1.2547541,-0.0228 -0.015011,-0.01 -0.035881,-0.032 -0.046499,-0.0494 -0.010618,-0.0174 -0.019771,-0.0272 -0.02032,-0.0217 -5.583e-4,0.006 -0.00458,-9.2e-4 -0.00915,-0.0149 -0.00924,-0.0287 -0.012723,-3.33147 -0.00366,-3.38661 0.00366,-0.0203 0.00915,-0.0351 0.012906,-0.0326 0.00366,0.003 0.014279,-0.008 0.023341,-0.0237 0.00915,-0.0153 0.031762,-0.0352 0.050344,-0.0441 0.030847,-0.0147 0.2418414,-0.016 2.4404183,-0.016 2.198586,0 2.409544,0.002 2.440418,0.016 0.01858,0.009 0.04128,0.0286 0.05034,0.0441 0.0092,0.0153 0.01959,0.0261 0.02334,0.0237 0.0037,-0.003 0.0096,0.0124 0.01291,0.0326 0.0092,0.0551 0.0055,3.35788 -0.0037,3.38661 -0.0046,0.0137 -0.0082,0.0208 -0.0092,0.0158 -5.21e-4,-0.005 -0.01108,0.007 -0.02343,0.0247 -0.04513,0.0675 -0.04952,0.0682 -0.453943,0.0683 -0.321512,1e-5 -0.363288,0.002 -0.368616,0.0156 -0.0037,0.008 -0.0064,0.25908 -0.0064,0.55663 -3.6e-5,0.52237 -7.14e-4,0.54209 -0.01968,0.57323 -0.03002,0.0493 -0.07542,0.0735 -0.129163,0.0689 -0.03616,-0.003 -0.102829,-0.0366 -0.338922,-0.1697 -0.1616578,-0.0912 -0.3021621,-0.168 -0.3122216,-0.17064 -0.011533,-0.003 -0.1291267,0.058 -0.3191417,0.16552 -0.3280296,0.18569 -0.3560389,0.19631 -0.4242041,0.16081 z m 0.4521219,-0.5046 c 0.2221799,-0.12555 0.266592,-0.14514 0.3074343,-0.1355 0.014737,0.004 0.1251542,0.0614 0.2453472,0.12874 0.120193,0.0673 0.2259511,0.12241 0.2350221,0.12241 0.015103,0 0.016476,-0.029 0.016476,-0.33647 0,-0.29813 -0.00183,-0.33644 -0.01547,-0.33644 -0.00824,0 -0.051899,0.0176 -0.096477,0.039 -0.1401015,0.0674 -0.2238092,0.0846 -0.412561,0.0846 -0.1866465,0 -0.2520565,-0.0138 -0.4070232,-0.0858 -0.047781,-0.0222 -0.093758,-0.0377 -0.10217,-0.0345 -0.013364,0.006 -0.015286,0.0469 -0.015286,0.33109 0,0.17887 0.00275,0.32819 0.00641,0.33182 0.014462,0.0145 0.041098,0.002 0.2380519,-0.10905 z m 0.4282589,-0.72689 c 0.029932,-0.006 0.096733,-0.0303 0.1484404,-0.0551 0.079451,-0.0381 0.1071402,-0.0583 0.1790217,-0.13035 0.1454652,-0.14592 0.2049072,-0.30049 0.1941522,-0.50489 -0.01465,-0.27891 -0.1893192,-0.51022 -0.4539799,-0.60128 -0.099699,-0.0343 -0.2525233,-0.0423 -0.3584096,-0.0188 -0.1395066,0.031 -0.2798371,0.11717 -0.3717552,0.22817 -0.2976039,0.35942 -0.1440285,0.90701 0.297448,1.06054 0.1181884,0.0412 0.2249168,0.0474 0.3650824,0.0216 z m -1.0352376,-0.28063 c -6.317e-4,-0.0109 -0.01373,-0.0598 -0.029108,-0.10886 -0.026087,-0.0831 -0.028009,-0.10061 -0.028559,-0.26222 -4.852e-4,-0.15209 0.00183,-0.18283 0.022151,-0.25235 0.1257582,-0.43829 0.5227128,-0.726 0.9718049,-0.70437 0.1420329,0.007 0.2417407,0.0325 0.37246,0.0959 0.427133,0.20709 0.635766,0.6953 0.491829,1.15093 -0.01355,0.0428 -0.02215,0.0841 -0.01922,0.0918 0.0046,0.0114 0.04696,0.0139 0.237869,0.0139 0.219745,0 0.233073,-9.1e-4 0.242757,-0.0192 0.01108,-0.0207 0.01501,-2.95555 0.0037,-2.99658 l -0.0064,-0.0223 H 8.5471986 6.3229738 l -0.00641,0.0223 c -0.010984,0.041 -0.00732,2.97589 0.00366,2.99662 0.010069,0.0189 0.030572,0.0192 1.1008949,0.0167 1.0836225,-0.003 1.0906248,-0.003 1.0894989,-0.0224 z m -1.6712419,-1.57812 c -0.084119,-0.0557 -0.084119,-0.18578 0,-0.2378 0.032037,-0.0197 0.04357,-0.0201 0.6908603,-0.0175 l 0.6582376,0.003 0.026454,0.0247 c 0.072128,0.0673 0.072128,0.15034 0,0.21771 l -0.026454,0.0247 -0.6597479,0.003 c -0.6438852,0.003 -0.6604528,0.002 -0.6894324,-0.0171 z m 0.039634,-0.70012 c -0.089337,-0.0228 -0.1325866,-0.135 -0.081465,-0.21155 0.048787,-0.073 -0.035241,-0.0682 1.1848131,-0.0682 1.0213155,0 1.0957508,9.1e-4 1.1279157,0.0173 0.098225,0.0494 0.1057032,0.18641 0.013455,0.24683 -0.025812,0.0169 -0.085035,0.018 -1.1261124,0.0193 -0.6043792,7.8e-4 -1.1077692,-8.6e-4 -1.1186526,-0.004 z"
       id="path841-3"
       inkscape:connector-curvature="0" />
    <path
       style="fill:#cdd2d4;fill-opacity:1;stroke:#cdd2d4;stroke-width:0.13955253;stroke-miterlimit:4;stroke-dasharray:none;stroke-opacity:1"
       d="m 0.70455825,296.89978 c -0.24311913,-0.0411 -0.4738832,-0.22649 -0.56693683,-0.45549 -0.04242397,-0.10443 -0.05256479,-0.16193 -0.05182051,-0.29441 6.3264e-4,-0.11354 0.0037214,-0.13379 0.03274833,-0.21886 0.0175836,-0.0515 0.0469827,-0.11911 0.0652176,-0.15014 0.1065158,-0.1809 1.82554276,-3.02622 1.84858746,-3.05977 0.040191,-0.0585 0.1316911,-0.14732 0.1952246,-0.1895 0.062333,-0.0414 0.1638441,-0.0854 0.2447659,-0.10611 0.078428,-0.0201 0.2779794,-0.0176 0.3586315,0.005 0.1693888,0.0464 0.3290742,0.15625 0.4202949,0.28913 0.016095,0.0234 0.4379438,0.72044 0.9375045,1.54896 0.4995609,0.82854 0.9165346,1.52006 0.9266196,1.53674 0.010048,0.0167 0.033027,0.0729 0.05089,0.12511 0.030516,0.0887 0.032562,0.10352 0.032562,0.22993 0,0.12518 -0.00186,0.14179 -0.031167,0.2257 -0.041308,0.12004 -0.09043,0.20145 -0.1756967,0.29122 -0.086244,0.0908 -0.1826277,0.15211 -0.3076203,0.19565 l -0.095091,0.0331 -1.9167912,0.002 c -1.054245,7.8e-4 -1.93982692,-0.003 -1.96797932,-0.007 z m 3.89382275,-0.1591 c 0.042517,-0.0109 0.1051761,-0.0343 0.139227,-0.0522 0.08122,-0.0425 0.2026302,-0.16397 0.2451751,-0.24517 0.041773,-0.0797 0.072009,-0.19866 0.072009,-0.2834 0,-0.0762 -0.028376,-0.19803 -0.060938,-0.26194 -0.026608,-0.0522 -1.8214769,-3.0287 -1.8614726,-3.08696 -0.068288,-0.0994 -0.1871399,-0.18512 -0.3197241,-0.2305 -0.077405,-0.0265 -0.2629077,-0.0265 -0.3403221,0 -0.1095116,0.0375 -0.1734545,0.0771 -0.2502363,0.15505 -0.0708,0.0718 -0.127058,0.16243 -0.9859202,1.58662 -0.50096571,0.83072 -0.92354009,1.53495 -0.93903973,1.56496 -0.0650315,0.12582 -0.082336,0.27921 -0.0471688,0.41694 0.0289339,0.11307 0.0733116,0.18986 0.16005745,0.27656 0.0854992,0.0855 0.16305318,0.13089 0.27261123,0.15959 0.0706136,0.0185 0.13503103,0.0192 1.95571735,0.0197 1.8430515,5.4e-4 1.8842939,1.5e-4 1.959978,-0.0193 z"
       id="path3181"
       inkscape:connector-curvature="0"
       sodipodi:nodetypes="cccccccccccccsccccccccccsccccccccccccc" />
    <path
       style="fill:#cdd2d4;stroke-width:0.01075872;fill-opacity:1"
       d="m -6.705686,292.92387 c -0.20281,-0.0341 -0.36704,-0.20452 -0.39841,-0.41331 -0.007,-0.0479 -0.0102,-0.27178 -0.008,-0.60787 0.003,-0.52113 0.004,-0.533 0.0263,-0.57515 0.0127,-0.0237 0.0345,-0.0534 0.0484,-0.066 0.0593,-0.0539 0.0707,-0.0555 0.40743,-0.0594 l 0.31714,-0.004 0.0616,-0.0303 c 0.2148,-0.10549 0.21043,-0.38464 -0.008,-0.50049 l -0.0538,-0.0285 -0.32456,-0.005 -0.32456,-0.005 -0.0466,-0.0327 c -0.0256,-0.018 -0.0587,-0.0543 -0.0735,-0.0807 l -0.0269,-0.0479 v -0.58097 c 0,-0.54126 0.001,-0.58501 0.0203,-0.64014 0.0574,-0.16741 0.188,-0.28909 0.3516,-0.32765 0.0555,-0.0131 0.15158,-0.0163 0.48611,-0.0165 l 0.4169,-1.6e-4 2e-4,-0.18021 c 2.4e-4,-0.21893 0.0146,-0.29642 0.0794,-0.42766 0.15439,-0.31261 0.50322,-0.47299 0.83978,-0.3861 0.2285001,0.059 0.4363201,0.2569 0.5184001,0.49369 0.0278,0.0801 0.0301,0.10049 0.034,0.29317 l 0.004,0.20711 h 0.41175 c 0.23034,0 0.43728,0.005 0.4697,0.0108 0.085,0.0159 0.19022,0.0716 0.25231,0.13373 0.0621,0.0621 0.11787,0.16734 0.13373,0.25231 0.006,0.0324 0.0108,0.23936 0.0108,0.4697 v 0.41175 l 0.20711,0.004 c 0.1926799,0.004 0.2130999,0.006 0.2931799,0.034 0.33774,0.11708 0.55886,0.45923 0.5113,0.79121 -0.0252,0.17566 -0.0909,0.30658 -0.21757,0.4332 -0.0658,0.0658 -0.10337,0.0929 -0.1829,0.1322 -0.13461,0.0664 -0.2109,0.0808 -0.4309099,0.081 l -0.18021,2e-4 v 0.41369 c 0,0.25957 -0.004,0.43492 -0.0118,0.47069 -0.0181,0.0869 -0.0703,0.18379 -0.13175,0.24458 -0.0648,0.064 -0.10848,0.0922 -0.18992,0.12256 -0.0551,0.0205 -0.0883,0.0223 -0.48096,0.0263 -0.28378,0.003 -0.44064,3.2e-4 -0.47941,-0.008 -0.0686,-0.0142 -0.12753,-0.059 -0.16149,-0.1226 -0.0227,-0.0426 -0.0241,-0.0601 -0.0293,-0.37283 -0.006,-0.36208 -0.006,-0.35985 -0.0793,-0.43355 -0.1125601,-0.11256 -0.2855601,-0.10798 -0.3947301,0.0104 -0.0787,0.0854 -0.0793,0.0885 -0.0854,0.45082 l -0.005,0.32359 -0.0294,0.0443 c -0.0161,0.0244 -0.0525,0.0579 -0.0807,0.0745 l -0.0513,0.0302 -0.6778,0.002 c -0.37479,8.9e-4 -0.70425,-0.003 -0.73697,-0.008 z m 1.12967,-0.63542 c 0,-0.19747 0.0119,-0.27313 0.06,-0.38255 0.13163,-0.2992 0.45559,-0.48811 0.76326,-0.44507 0.1795701,0.0251 0.3061301,0.0881 0.4368301,0.21732 0.0675,0.0668 0.0915,0.1001 0.13143,0.1829 0.0657,0.13624 0.0824,0.22533 0.0824,0.43988 v 0.17278 l 0.27704,-0.003 0.27703,-0.003 0.005,-0.5487 c 0.006,-0.5881 0.005,-0.58326 0.0625,-0.64382 0.0637,-0.0674 0.0744,-0.0693 0.42191,-0.0737 0.34215,-0.004 0.35348,-0.006 0.4336699,-0.0673 0.0859,-0.0655 0.12687,-0.21464 0.085,-0.30936 -0.0307,-0.0695 -0.0905,-0.13104 -0.1559399,-0.16064 -0.0542,-0.0245 -0.0689,-0.0257 -0.37377,-0.0309 -0.27383,-0.005 -0.32205,-0.008 -0.35138,-0.024 -0.0484,-0.0265 -0.0967,-0.0892 -0.1103,-0.14346 -0.008,-0.0304 -0.0117,-0.22943 -0.0117,-0.57392 v -0.52742 l -0.55138,-0.003 -0.55139,-0.003 -0.0479,-0.0269 c -0.0264,-0.0148 -0.0627,-0.0479 -0.0807,-0.0735 l -0.0328,-0.0466 -0.005,-0.31918 c -0.005,-0.30435 -0.007,-0.32168 -0.0301,-0.37297 -0.0324,-0.0703 -0.0809,-0.12037 -0.14738,-0.15184 -0.13108,-0.0621 -0.29002,-0.003 -0.35636,0.13182 l -0.031,0.063 -0.004,0.31707 c -0.003,0.28363 -0.006,0.32121 -0.0237,0.35637 -0.0215,0.0421 -0.0726,0.0902 -0.11722,0.11032 -0.0191,0.009 -0.1961,0.014 -0.5762,0.0178 l -0.5487,0.005 -0.003,0.40515 -0.003,0.40514 0.20723,0.004 c 0.19448,0.004 0.2128,0.006 0.29762,0.0352 0.32928,0.11299 0.54859,0.44714 0.50852,0.77482 -0.0226,0.18446 -0.0884,0.3203 -0.21698,0.44789 -0.0654,0.0649 -0.10398,0.0926 -0.18393,0.13203 -0.13573,0.067 -0.21162,0.0813 -0.432,0.0816 l -0.1802,2e-4 v 0.40166 c 0,0.22091 0.003,0.40489 0.007,0.40883 0.004,0.004 0.24601,0.007 0.53793,0.007 h 0.53077 z"
       id="path3215"
       inkscape:connector-curvature="0" />
    <path
       style="fill:#cdd2d4;stroke-width:0.0082627;fill-opacity:1"
       d="m -12.932496,292.09276 c -0.0136,-0.002 -0.0597,-0.007 -0.10243,-0.012 -0.15211,-0.0177 -0.34721,-0.0751 -0.50285,-0.14804 -0.505,-0.23665 -0.86747,-0.6981 -0.97676,-1.24348 -0.0132,-0.0659 -0.0329,-0.20634 -0.0332,-0.2372 -3e-5,-0.003 -0.10949,-0.007 -0.24322,-0.008 -0.23169,-0.002 -0.24426,-0.003 -0.26648,-0.0197 -0.0316,-0.0234 -0.0467,-0.0566 -0.0405,-0.0893 0.004,-0.0194 0.13318,-0.18059 0.47583,-0.59214 0.40583,-0.48744 0.47528,-0.56715 0.503,-0.57733 0.0635,-0.0233 0.0485,-0.0388 0.5621,0.57781 0.33571,0.403 0.47295,0.57352 0.47654,0.59214 0.006,0.0321 -0.009,0.0655 -0.0405,0.0888 -0.0222,0.0164 -0.0349,0.0174 -0.26234,0.0198 -0.22449,0.002 -0.23903,0.003 -0.23903,0.0175 0,0.0315 0.0405,0.17265 0.0651,0.227 0.0882,0.1945 0.26946,0.36489 0.4625,0.43474 0.14566,0.0527 0.12819,0.0513 0.73243,0.0568 0.55287,0.005 0.55365,0.005 0.59141,0.0237 0.0614,0.0303 0.10371,0.0722 0.13329,0.13234 l 0.0272,0.0553 v 0.24805 0.24806 l -0.0219,0.0467 c -0.0279,0.0594 -0.0786,0.11015 -0.13802,0.13802 l -0.0467,0.0219 -0.54534,9.6e-4 c -0.29994,5.4e-4 -0.55649,-4e-4 -0.57013,-0.002 z m 1.10668,-0.20085 c 0.0351,-0.033 0.0392,-0.0637 0.0363,-0.27316 -0.003,-0.21298 -0.005,-0.22058 -0.0534,-0.24375 -0.0223,-0.0106 -0.0973,-0.0124 -0.51258,-0.0124 -0.48501,0 -0.5719,-0.004 -0.68434,-0.0303 -0.33467,-0.0787 -0.61415,-0.33901 -0.72366,-0.67412 -0.0454,-0.13893 -0.0624,-0.30724 -0.0356,-0.35264 0.0259,-0.0439 0.0344,-0.0457 0.2377,-0.0502 l 0.18908,-0.004 -0.35648,-0.42759 c -0.19606,-0.23518 -0.35923,-0.42738 -0.36259,-0.42712 -0.006,4.7e-4 -0.70582,0.83846 -0.71098,0.85123 -0.001,0.003 0.0831,0.007 0.18783,0.009 l 0.19036,0.003 0.0263,0.0263 c 0.026,0.026 0.0263,0.0273 0.0368,0.15383 0.0153,0.18589 0.0379,0.29837 0.0876,0.43548 0.081,0.22381 0.1983,0.40739 0.36977,0.57886 0.23384,0.23384 0.50978,0.37711 0.84327,0.43785 0.10244,0.0187 0.22146,0.0222 0.71613,0.0212 l 0.49717,-9.6e-4 z m -0.0998,-1.09352 c -0.01,-0.006 -0.22998,-0.26474 -0.48944,-0.57603 -0.33603,-0.40317 -0.4732,-0.57352 -0.47679,-0.59215 -0.006,-0.0321 0.009,-0.0655 0.0405,-0.0888 0.0222,-0.0164 0.0349,-0.0174 0.26234,-0.0198 0.2245,-0.002 0.23903,-0.003 0.23903,-0.0175 0,-0.0315 -0.0405,-0.17264 -0.0651,-0.22699 -0.0882,-0.1945 -0.26947,-0.3649 -0.46251,-0.43475 -0.14543,-0.0526 -0.12827,-0.0513 -0.73243,-0.0568 -0.54208,-0.005 -0.55437,-0.005 -0.59078,-0.0226 -0.0591,-0.0279 -0.10403,-0.0727 -0.13392,-0.13339 l -0.0272,-0.0553 v -0.24806 -0.24805 l 0.0219,-0.0467 c 0.0279,-0.0594 0.0786,-0.11016 0.13802,-0.13802 l 0.0467,-0.0219 h 0.566 c 0.61257,0 0.64654,0.002 0.82542,0.0456 0.66373,0.16217 1.17228,0.69135 1.30609,1.35908 0.0132,0.0659 0.0329,0.20633 0.0332,0.2372 4e-5,0.003 0.10949,0.007 0.24323,0.008 0.23169,0.002 0.24426,0.003 0.26647,0.0197 0.0316,0.0234 0.0467,0.0566 0.0405,0.0893 -0.004,0.0194 -0.13219,0.17949 -0.47215,0.58801 -0.25694,0.30875 -0.47721,0.56785 -0.48949,0.57578 -0.0258,0.0167 -0.0641,0.0183 -0.0896,0.004 z m 0.4019,-0.65221 c 0.19314,-0.23224 0.35231,-0.42506 0.3537,-0.4285 0.001,-0.003 -0.0831,-0.007 -0.18784,-0.009 l -0.19035,-0.003 -0.0263,-0.0263 c -0.026,-0.026 -0.0263,-0.0273 -0.0368,-0.15383 -0.0153,-0.18589 -0.0379,-0.29836 -0.0876,-0.43548 -0.081,-0.22381 -0.1983,-0.40738 -0.36977,-0.57886 -0.24021,-0.24021 -0.51279,-0.37913 -0.86817,-0.44245 -0.0668,-0.0119 -0.15808,-0.0145 -0.61959,-0.0173 -0.50849,-0.003 -0.54295,-0.002 -0.57013,0.0115 -0.0549,0.0282 -0.0587,0.0467 -0.056,0.27513 0.003,0.21833 0.004,0.22468 0.0484,0.25105 0.0201,0.0119 0.0762,0.0134 0.51318,0.0134 0.48915,0 0.57588,0.004 0.68844,0.0303 0.33467,0.0787 0.61415,0.33901 0.72366,0.67411 0.0454,0.13893 0.0624,0.30724 0.0356,0.35264 -0.0259,0.0439 -0.0344,0.0457 -0.2377,0.0502 l -0.18908,0.004 0.35648,0.42759 c 0.19606,0.23518 0.35923,0.42738 0.3626,0.42712 0.003,-2.5e-4 0.16414,-0.19049 0.35728,-0.42273 z"
       id="path3232"
       inkscape:connector-curvature="0" />
    <path
       style="fill:#cdd2d4;fill-opacity:1;stroke-width:0.01052198"
       d="m 2.5295574,296.30503 c -0.1472788,-0.0521 -0.2353057,-0.23458 -0.1871296,-0.38774 0.024719,-0.0786 0.099763,-0.16219 0.174462,-0.19432 0.074003,-0.0318 0.1759952,-0.0318 0.2499904,0 0.074677,0.0321 0.1497359,0.11571 0.1744401,0.19426 0.048631,0.15454 -0.041223,0.33728 -0.1908924,0.38828 -0.060367,0.0207 -0.1620661,0.0203 -0.2208705,-4.9e-4 z m 0.1807848,-0.2169 c 0.018337,-0.0158 0.029486,-0.0381 0.033301,-0.0669 0.00514,-0.0375 0.00147,-0.0479 -0.025893,-0.0787 -0.02648,-0.0296 -0.038948,-0.0354 -0.075917,-0.0354 -0.036968,0 -0.049438,0.006 -0.075917,0.0354 -0.027506,0.0307 -0.03088,0.0411 -0.025893,0.0787 0.00763,0.0567 0.045771,0.0906 0.1017947,0.0906 0.027286,0 0.050097,-0.008 0.068435,-0.0237 z m -0.2216113,-0.6326 c -0.1490464,-0.0694 -0.1968337,-0.23599 -0.1303203,-0.45428 0.04687,-0.15394 0.1633424,-0.30696 0.3016211,-0.39639 0.106247,-0.0687 0.1273644,-0.13837 0.061834,-0.20391 -0.029339,-0.0293 -0.043716,-0.0358 -0.079965,-0.0358 -0.035868,0 -0.050611,0.007 -0.078256,0.0341 -0.02868,0.0288 -0.035135,0.0447 -0.040855,0.1 -0.028313,0.27372 -0.3521076,0.39015 -0.5365673,0.19295 -0.069242,-0.074 -0.095068,-0.15146 -0.088012,-0.26402 0.011442,-0.18314 0.086318,-0.34472 0.221846,-0.47898 0.1440001,-0.14268 0.3188216,-0.21566 0.5156627,-0.21528 0.1314132,2.4e-4 0.2253155,0.0222 0.3426823,0.0801 0.1742714,0.0861 0.3141858,0.25045 0.3748607,0.4405 0.099931,0.31301 -0.024132,0.66183 -0.300983,0.84629 -0.081015,0.054 -0.094694,0.0693 -0.094694,0.10605 0,0.0531 -0.031394,0.1327 -0.070196,0.17803 -0.060293,0.0704 -0.124225,0.0952 -0.2454573,0.0952 -0.082892,0 -0.1090416,-0.005 -0.153154,-0.0247 z m 0.2444965,-0.21703 c 0.00733,-0.0144 0.015844,-0.0481 0.019217,-0.0748 0.00976,-0.0781 0.062347,-0.15393 0.147286,-0.21218 0.1531482,-0.10507 0.2375517,-0.2198 0.267251,-0.36324 0.055672,-0.26891 -0.1046993,-0.54267 -0.3649659,-0.62306 -0.075176,-0.0232 -0.2075502,-0.0276 -0.2860856,-0.009 -0.1379193,0.0317 -0.2832103,0.14519 -0.3463497,0.27037 -0.097335,0.19296 -0.078696,0.35437 0.040929,0.35437 0.064548,0 0.096051,-0.0374 0.1067971,-0.12666 0.022371,-0.1858 0.1604817,-0.30634 0.3403864,-0.29708 0.2107628,0.0109 0.3542201,0.21022 0.2958118,0.41112 -0.022958,0.0789 -0.071589,0.14049 -0.1535795,0.19457 -0.1352274,0.0891 -0.2122519,0.19013 -0.2471223,0.32402 -0.020611,0.0792 -0.020465,0.13075 5.816e-4,0.16075 0.01511,0.0216 0.023838,0.0235 0.091703,0.0208 0.067996,-0.003 0.076238,-0.006 0.088165,-0.0294 z"
       id="path3198"
       inkscape:connector-curvature="0"
       sodipodi:nodetypes="cccscccccccsccsccccccscccccccccscscccccccccsccccccccc" />
  </g>
</svg>
