<?xml version="1.0" encoding="UTF-8" standalone="no"?>
<!-- Created with Inkscape (http://www.inkscape.org/) -->

<svg
   xmlns:dc="http://purl.org/dc/elements/1.1/"
   xmlns:cc="http://creativecommons.org/ns#"
   xmlns:rdf="http://www.w3.org/1999/02/22-rdf-syntax-ns#"
   xmlns:svg="http://www.w3.org/2000/svg"
   xmlns="http://www.w3.org/2000/svg"
   xmlns:sodipodi="http://sodipodi.sourceforge.net/DTD/sodipodi-0.dtd"
   xmlns:inkscape="http://www.inkscape.org/namespaces/inkscape"
   width="20"
   height="20"
   viewBox="0 0 5.2916665 5.2916668"
   version="1.1"
   id="svg980"
   inkscape:version="0.92.5 (2060ec1f9f, 2020-04-08)"
   sodipodi:docname="soc.svg">
  <defs
     id="defs974" />
  <sodipodi:namedview
     id="base"
     pagecolor="#ffffff"
     bordercolor="#666666"
     borderopacity="1.0"
     inkscape:pageopacity="0.0"
     inkscape:pageshadow="2"
     inkscape:zoom="11.2"
     inkscape:cx="7.9829986"
     inkscape:cy="2.456841"
     inkscape:document-units="mm"
     inkscape:current-layer="layer1"
     showgrid="false"
     units="px"
     inkscape:window-width="1247"
     inkscape:window-height="1020"
     inkscape:window-x="1752"
     inkscape:window-y="437"
     inkscape:window-maximized="0" />
  <metadata
     id="metadata977">
    <rdf:RDF>
      <cc:Work
         rdf:about="">
        <dc:format>image/svg+xml</dc:format>
        <dc:type
           rdf:resource="http://purl.org/dc/dcmitype/StillImage" />
        <dc:title></dc:title>
      </cc:Work>
    </rdf:RDF>
  </metadata>
  <g
     inkscape:label="Layer 1"
     inkscape:groupmode="layer"
     id="layer1"
     transform="translate(0,-291.70832)">
    <path
       inkscape:connector-curvature="0"
       id="path931"
       d="m -2.1149845,303.637 c -0.2707562,-0.046 -0.5025192,-0.24564 -0.5900817,-0.50844 -0.014561,-0.0437 -0.026543,-0.0926 -0.026628,-0.10866 -1.102e-4,-0.0196 -0.003,-0.0248 -0.00877,-0.0156 -0.019231,0.0304 -0.022068,-0.21316 -0.020988,-1.80296 9.658e-4,-1.40469 0.00574,-1.85255 0.018876,-1.76556 0.0013,0.008 0.00851,-0.0124 0.016036,-0.0466 0.033663,-0.15265 0.1134216,-0.29145 0.227137,-0.39525 0.084681,-0.0772 0.159393,-0.12182 0.2722807,-0.1622 l 0.090671,-0.0324 0.8369798,-0.003 c 0.934803,-0.004 0.8999481,-0.006 0.9717144,0.0679 0.092451,0.0949 0.094383,0.23813 0.00448,0.33185 -0.070559,0.0736 -0.00728,0.0685 -0.9127912,0.0742 -0.8016884,0.006 -0.8184924,0.006 -0.8642722,0.0268 -0.056244,0.0261 -0.1064477,0.0744 -0.1374095,0.13224 l -0.022886,0.0428 -0.00271,1.72266 c -0.00304,1.92946 -0.00822,1.79282 0.071341,1.87914 0.022945,0.0249 0.063461,0.056 0.090035,0.0691 l 0.048315,0.0238 h 1.4799328 1.4799332 l 0.048856,-0.0243 c 0.026868,-0.0133 0.065745,-0.043 0.086386,-0.0659 0.073285,-0.0811 0.071177,-0.0648 0.076917,-0.59294 0.00577,-0.53142 0.00211,-0.50543 0.081391,-0.57706 0.062736,-0.0566 0.1444631,-0.0731 0.2330585,-0.0468 0.056012,0.0166 0.1323297,0.093 0.1489633,0.14898 0.00914,0.0308 0.012648,0.16969 0.012648,0.49978 0,0.52445 -0.00366,0.55795 -0.077667,0.70986 -0.097658,0.20048 -0.2429558,0.32529 -0.4656646,0.40002 l -0.072445,0.0243 -1.5213293,0.002 c -0.8367309,7.3e-4 -1.5442659,-0.003 -1.5722987,-0.007 z m 1.0107413,-1.39971 c -0.050871,-0.019 -0.1032748,-0.0651 -0.1292745,-0.11381 -0.022974,-0.0429 -0.02326,-0.0485 -0.02326,-0.44714 0,-0.35078 0.00248,-0.41514 0.018792,-0.49159 0.042474,-0.19882 0.1130615,-0.36116 0.2308695,-0.53093 0.044758,-0.0645 0.2837568,-0.30988 0.9964484,-1.02308 1.0009113,-1.00164 1.0066261,-1.00686 1.1793338,-1.07934 0.4740027,-0.19889 1.0184977,7.5e-4 1.2471987,0.45704 0.041321,0.0825 0.089196,0.23562 0.089443,0.28615 1.099e-4,0.0223 0.00297,0.0281 0.00912,0.0183 0.012016,-0.0189 0.01864,0.10664 0.01057,0.20041 -0.00344,0.0398 -0.0073,0.0655 -0.00859,0.0569 -0.00129,-0.008 -0.010718,0.0241 -0.020936,0.0725 -0.010218,0.0484 -0.033285,0.12328 -0.051259,0.16644 -0.074449,0.17876 -0.070237,0.17415 -1.0866132,1.19032 -0.7255548,0.72542 -0.9681776,0.96186 -1.0334577,1.00712 -0.1470275,0.10196 -0.3189611,0.17738 -0.4994203,0.21908 -0.065156,0.0151 -0.1432522,0.0185 -0.4864119,0.0211 -0.3029259,0.002 -0.4175322,-1.1e-4 -0.4425419,-0.01 z m 0.7976082,-0.47811 c 0.1125522,-0.0196 0.2034315,-0.0527 0.2990657,-0.10861 0.063969,-0.0374 0.1698348,-0.1383 0.693849,-0.66101 0.3400993,-0.33925 0.6183629,-0.62154 0.6183629,-0.62731 0,-0.0137 -0.6641968,-0.67813 -0.6779296,-0.67813 -0.017405,0 -1.2208286,1.21201 -1.2570116,1.26598 -0.051294,0.0765 -0.1100295,0.21059 -0.1300038,0.29674 -0.022793,0.0983 -0.034701,0.47075 -0.016158,0.5054 0.011613,0.0217 0.017874,0.0224 0.1965621,0.0224 0.1172963,0 0.2168931,-0.006 0.2732636,-0.0154 z m 2.1218082,-1.89809 c 0.1145052,-0.11633 0.1476975,-0.15692 0.1735467,-0.21216 0.042593,-0.0911 0.057606,-0.19007 0.042563,-0.28084 -0.057416,-0.34651 -0.4447308,-0.5252 -0.7380883,-0.34053 -0.059594,0.0375 -0.3093759,0.2828 -0.3093759,0.30381 0,0.0213 0.6520848,0.67357 0.6734101,0.67357 0.009,0 0.080071,-0.0647 0.1579444,-0.14385 z"
       style="fill:#cdd2d4;fill-opacity:1;stroke-width:0.01034918" />
    <path
       style="fill:#cdd2d4;fill-opacity:1;stroke:#cdd2d4;stroke-width:0.20000891;stroke-miterlimit:4;stroke-dasharray:none;stroke-opacity:1"
       d="m 3.5188638,296.83892 c -0.3349101,-0.0386 -0.6270469,-0.1767 -0.8665434,-0.40953 -0.2225432,-0.21635 -0.3688641,-0.48995 -0.4251713,-0.795 -0.024858,-0.13448 -0.022953,-0.41292 0.00381,-0.53345 0.010667,-0.0485 0.018858,-0.0887 0.018191,-0.0892 -0.00476,-0.005 -0.7546527,-0.26799 -0.7633483,-0.26794 -0.00571,2e-5 -0.021906,0.0157 -0.034859,0.0349 -0.049336,0.0724 -0.1660169,0.16922 -0.2588877,0.21483 -0.1254533,0.0616 -0.19296113,0.0772 -0.33411979,0.0775 -0.13651085,2.9e-4 -0.21279035,-0.0187 -0.34261519,-0.0855 -0.10946203,-0.0564 -0.23925839,-0.18612 -0.29559424,-0.29559 -0.0674316,-0.13107 -0.0859086,-0.20568 -0.0859086,-0.3475 0,-0.14182 0.018477,-0.21643 0.0859086,-0.3475 0.0562882,-0.10947 0.18613221,-0.23926 0.29559424,-0.2956 0.13039629,-0.067 0.20615196,-0.086 0.34261519,-0.0854 0.13558708,6.3e-4 0.22630549,0.0214 0.33856759,0.078 l 0.068574,0.0345 0.3775692,-0.37519 0.3775597,-0.37518 -0.035335,-0.0702 c -0.057336,-0.11385 -0.078194,-0.20408 -0.078765,-0.34016 -6.286e-4,-0.13646 0.018287,-0.21222 0.085432,-0.3426 0.056288,-0.10947 0.1861225,-0.23926 0.2955846,-0.29561 0.131082,-0.0674 0.2056949,-0.0859 0.3475107,-0.0859 0.1418158,0 0.2164288,0.0185 0.3475012,0.0859 0.1094716,0.0564 0.2392582,0.18614 0.2955941,0.29561 0.067432,0.13107 0.085909,0.20567 0.085909,0.3475 0,0.14181 -0.018476,0.21642 -0.085909,0.3475 -0.056383,0.10947 -0.1861225,0.23926 -0.2955941,0.29559 -0.1303866,0.067 -0.2061425,0.086 -0.3426057,0.0854 -0.1357966,-6.3e-4 -0.2263054,-0.0214 -0.3392247,-0.0783 l -0.069241,-0.0349 -0.025811,0.0223 c -0.014191,0.0123 -0.1850273,0.18059 -0.3796169,0.37401 l -0.3537967,0.35166 0.028858,0.0488 c 0.063527,0.10772 0.1033284,0.2852 0.092766,0.41369 l -0.00571,0.0688 0.3832647,0.13625 c 0.2454776,0.0872 0.3846077,0.1322 0.3870078,0.125 0.00952,-0.0274 0.106176,-0.17997 0.1551212,-0.24389 0.1199957,-0.15669 0.3228526,-0.32369 0.5034603,-0.41451 0.0993,-0.0499 0.2529163,-0.10267 0.3751216,-0.12879 0.1308058,-0.028 0.3943415,-0.03 0.5348908,-0.005 0.3046515,0.056 0.5786161,0.20253 0.7950068,0.42511 0.2062567,0.21216 0.3432247,0.47717 0.3954651,0.76521 0.022954,0.12669 0.022954,0.38231 0,0.50902 -0.021238,0.11695 -0.08067,0.29675 -0.1315867,0.39806 -0.1000615,0.19902 -0.2792506,0.40995 -0.4551822,0.5358 -0.1737698,0.12432 -0.3970082,0.21931 -0.5987601,0.25479 -0.1068333,0.0188 -0.3169951,0.0269 -0.4125803,0.0158 z m 0.4076849,-0.31245 c 0.045716,-0.0105 0.1131195,-0.0303 0.1496734,-0.0441 0.090575,-0.0342 0.2229242,-0.104 0.2294673,-0.12107 0.00857,-0.023 -0.02543,-0.12908 -0.068384,-0.2116 -0.073241,-0.1407 -0.2034185,-0.24998 -0.3647402,-0.3061 -0.069336,-0.0241 -0.092099,-0.0272 -0.2005801,-0.0272 -0.1085097,0 -0.1312156,0.003 -0.200571,0.0272 -0.1613214,0.0561 -0.2915367,0.1654 -0.3647401,0.3061 -0.043049,0.0827 -0.077146,0.18858 -0.068289,0.21173 0.00667,0.0179 0.1568736,0.0952 0.2469443,0.12733 0.060384,0.0215 0.1651026,0.0462 0.2545065,0.0597 0.066479,0.0101 0.3054709,-0.004 0.386665,-0.022 z m -1.1081829,-0.45469 c 0.048859,-0.10862 0.105062,-0.18936 0.1922468,-0.27607 0.067241,-0.0669 0.1084048,-0.0986 0.2153525,-0.16617 0.013429,-0.009 0.010667,-0.0157 -0.020192,-0.0538 -0.071717,-0.0886 -0.1207672,-0.23182 -0.1207672,-0.3524 0,-0.31614 0.2708406,-0.58699 0.5869882,-0.58699 0.3161378,0 0.5869879,0.27085 0.5869879,0.58699 0,0.12058 -0.04905,0.26379 -0.1207768,0.3524 -0.030858,0.0381 -0.033525,0.0454 -0.020192,0.0538 0.1069478,0.0675 0.14814,0.0993 0.2153525,0.16617 0.087147,0.0867 0.1434161,0.16745 0.1922563,0.27607 0.017715,0.0394 0.034382,0.0716 0.037145,0.0716 0.010667,-1.3e-4 0.1214627,-0.16549 0.1540545,-0.22995 0.2626498,-0.51942 0.1100908,-1.14911 -0.359616,-1.48434 -0.5333189,-0.38063 -1.2616753,-0.26047 -1.6398445,0.27052 -0.2556877,0.35902 -0.2898702,0.81898 -0.090194,1.21382 0.032573,0.0645 0.1433777,0.22982 0.1540545,0.22995 0.00286,3e-5 0.019429,-0.0322 0.037144,-0.0716 z m 0.9731961,-0.58191 c 0.057145,-0.0253 0.1212529,-0.0892 0.1480064,-0.14765 0.028954,-0.0632 0.028954,-0.17463 0,-0.23784 -0.026668,-0.0582 -0.09048,-0.12197 -0.1486067,-0.1486 -0.063241,-0.029 -0.1746363,-0.029 -0.2378486,0 -0.1257485,0.0576 -0.1971039,0.20203 -0.1652931,0.33465 0.042383,0.17657 0.2375059,0.27296 0.403742,0.19944 z m -2.84953692,-0.71706 c 0.22981032,-0.0435 0.39076992,-0.26902 0.35333962,-0.49489 -0.031811,-0.19203 -0.1762936,-0.33651 -0.36833067,-0.36833 -0.28305073,-0.0469 -0.54401485,0.21405 -0.497108,0.4971 0.0409542,0.24736 0.27105029,0.41184 0.51209905,0.36612 z m 1.77177442,-1.77177 c 0.2298197,-0.0435 0.39077,-0.26902 0.3533395,-0.4949 -0.031811,-0.19203 -0.1762934,-0.33651 -0.3683308,-0.36834 -0.2830506,-0.0469 -0.5440146,0.21407 -0.4971078,0.49712 0.040954,0.24735 0.2710502,0.41184 0.5120991,0.36612 z"
       id="path1854"
       inkscape:connector-curvature="0" />
  </g>
</svg>
