<?xml version="1.0" encoding="UTF-8" standalone="no"?>
<!-- Created with Inkscape (http://www.inkscape.org/) -->

<svg
   xmlns:dc="http://purl.org/dc/elements/1.1/"
   xmlns:cc="http://creativecommons.org/ns#"
   xmlns:rdf="http://www.w3.org/1999/02/22-rdf-syntax-ns#"
   xmlns:svg="http://www.w3.org/2000/svg"
   xmlns="http://www.w3.org/2000/svg"
   xmlns:sodipodi="http://sodipodi.sourceforge.net/DTD/sodipodi-0.dtd"
   xmlns:inkscape="http://www.inkscape.org/namespaces/inkscape"
   width="20"
   height="20"
   viewBox="0 0 5.2916665 5.2916668"
   version="1.1"
   id="svg980"
   inkscape:version="0.92.5 (2060ec1f9f, 2020-04-08)"
   sodipodi:docname="speaking.svg">
  <defs
     id="defs974" />
  <sodipodi:namedview
     id="base"
     pagecolor="#ffffff"
     bordercolor="#666666"
     borderopacity="1.0"
     inkscape:pageopacity="0.0"
     inkscape:pageshadow="2"
     inkscape:zoom="22.4"
     inkscape:cx="9.6326858"
     inkscape:cy="5.4022278"
     inkscape:document-units="mm"
     inkscape:current-layer="layer1"
     showgrid="false"
     units="px"
     inkscape:window-width="1078"
     inkscape:window-height="978"
     inkscape:window-x="2"
     inkscape:window-y="860"
     inkscape:window-maximized="0" />
  <metadata
     id="metadata977">
    <rdf:RDF>
      <cc:Work
         rdf:about="">
        <dc:format>image/svg+xml</dc:format>
        <dc:type
           rdf:resource="http://purl.org/dc/dcmitype/StillImage" />
        <dc:title></dc:title>
      </cc:Work>
    </rdf:RDF>
  </metadata>
  <g
     inkscape:label="Layer 1"
     inkscape:groupmode="layer"
     id="layer1"
     transform="translate(0,-291.70832)">
    <path
       inkscape:connector-curvature="0"
       id="path931"
       d="m 6.2577721,292.98027 c -0.5694142,0.0105 -0.5333658,-0.50342 0.064611,-0.49523 h 2.7554208 1.5589146 c 0.650121,0.0174 0.630646,0.50546 0.07631,0.50134 l -1.60252,0.002 c -0.8813856,7.7e-4 -2.8231967,-0.003 -2.8527255,-0.007 z m -0.079046,-0.665 c -0.053586,-0.02 -0.1087863,-0.0686 -0.1361736,-0.11989 -0.0242,-0.0452 -0.024501,-0.0511 -0.024501,-0.471 0,-0.3695 0.00261,-0.43729 0.019795,-0.51782 0.044741,-0.20943 0.1190954,-0.38044 0.2431906,-0.55927 0.047147,-0.0679 0.2989004,-0.32642 1.049627,-1.07768 1.0543281,-1.05509 1.0603478,-1.06059 1.2422726,-1.13694 0.4992989,-0.20951 1.0728527,7.9e-4 1.3137595,0.48143 0.043525,0.0869 0.09396,0.2482 0.094213,0.30142 1.158e-4,0.0235 0.00316,0.0296 0.00959,0.0193 0.012662,-0.0199 0.019635,0.11233 0.011134,0.2111 -0.00358,0.0419 -0.00769,0.069 -0.00906,0.0599 -0.00137,-0.008 -0.011292,0.0254 -0.022057,0.0764 -0.010765,0.051 -0.035056,0.12986 -0.053996,0.17532 -0.078423,0.1883 -0.073989,0.18345 -1.144604,1.25385 -0.7642761,0.76413 -1.0198472,1.01319 -1.0886112,1.06087 -0.1548741,0.1074 -0.3359835,0.18684 -0.5260734,0.23077 -0.068633,0.0159 -0.1508973,0.0195 -0.5123709,0.0222 -0.3190925,0.002 -0.4398151,-1.1e-4 -0.4661596,-0.0105 z m 0.8401751,-0.50363 c 0.1185589,-0.0206 0.2142883,-0.0555 0.3150263,-0.1144 0.067383,-0.0394 0.1788986,-0.14568 0.7308785,-0.69629 0.3582497,-0.35736 0.6513637,-0.65471 0.6513637,-0.66079 0,-0.0144 -0.6996437,-0.71432 -0.7141094,-0.71432 -0.018334,0 -1.285982,1.27669 -1.324096,1.33354 -0.054031,0.0806 -0.1159016,0.22183 -0.1369419,0.31258 -0.024009,0.10355 -0.036553,0.49587 -0.01702,0.53237 0.012233,0.0229 0.018828,0.0236 0.2070523,0.0236 0.1235561,0 0.2284683,-0.006 0.2878471,-0.0162 z m 2.2350453,-1.99939 c 0.1206159,-0.12253 0.1555793,-0.16529 0.1828089,-0.22348 0.044863,-0.096 0.060685,-0.20021 0.044831,-0.29583 -0.060484,-0.365 -0.4684654,-0.55322 -0.7774791,-0.3587 -0.062774,0.0395 -0.3258867,0.29789 -0.3258867,0.32002 0,0.0224 0.6868851,0.70952 0.7093482,0.70952 0.00948,0 0.084343,-0.0682 0.1663743,-0.15153 z"
       style="fill:#cdd2d4;fill-opacity:1;stroke-width:0.0109015"
       sodipodi:nodetypes="ccccccccccscccccccccsccccccccccsscccsccccccsscc" />
    <path
       inkscape:connector-curvature="0"
       id="path2204"
       d="m 1.7056807,289.10503 c -0.3717931,-0.0793 -0.6493083,-0.35981 -0.72672493,-0.73462 -0.0157964,-0.0765 -0.0179541,-0.25648 -0.0179541,-1.49754 0,-1.5305 -0.003059,-1.45324 0.0602304,-1.52208 0.035002,-0.038 0.1076464,-0.0692 0.1614677,-0.0692 0.084646,0 0.1811675,0.0643 0.2096059,0.13951 0.0083,0.0219 0.012113,0.46246 0.012158,1.4041 3.41e-5,0.82645 0.00442,1.3987 0.011027,1.43901 0.034059,0.20798 0.1971904,0.3711 0.4051653,0.40517 0.089085,0.0146 2.0343774,0.0146 2.1234625,0 0.2079747,-0.0341 0.3711061,-0.19719 0.4051658,-0.40517 0.0066,-0.0403 0.010986,-0.61256 0.011026,-1.43901 0,-0.94164 0.00386,-1.38213 0.012158,-1.4041 0.028439,-0.0752 0.1249606,-0.13951 0.2096061,-0.13951 0.053822,0 0.1264659,0.0312 0.1614681,0.0692 0.063289,0.0689 0.06023,-0.008 0.06023,1.52208 0,1.24106 -0.00216,1.42107 -0.017954,1.49754 -0.07843,0.37971 -0.3557793,0.65706 -0.7354814,0.73548 -0.1266012,0.0261 -2.2215969,0.0254 -2.3446566,-7.9e-4 z m 0.587424,-1.22207 c -0.028824,-0.0143 -0.061829,-0.0434 -0.079584,-0.0702 l -0.030336,-0.0458 -0.00304,-0.91489 c -0.00304,-0.91448 -0.00303,-0.91491 0.021273,-0.96512 0.058632,-0.12112 0.2351667,-0.1569 0.3362396,-0.0682 0.087355,0.0767 0.082741,0.0199 0.082741,1.01991 0,0.84475 -0.00113,0.89491 -0.021055,0.93796 -0.055412,0.11968 -0.1869874,0.16538 -0.3062379,0.10635 z m 0.9815178,0.009 c -0.04521,-0.021 -0.091333,-0.0713 -0.1130877,-0.12342 -0.015461,-0.037 -0.017626,-0.15299 -0.017408,-0.93227 2.836e-4,-0.99724 -0.00433,-0.94077 0.082991,-1.01744 0.1008887,-0.0886 0.2776096,-0.053 0.3360402,0.0678 0.023954,0.0495 0.024115,0.0558 0.024115,0.95217 0,0.89629 -1.591e-4,0.90268 -0.024115,0.95217 -0.034389,0.071 -0.096224,0.109 -0.1846963,0.1134 -0.042748,0.002 -0.082931,-0.002 -0.1038402,-0.0124 z m -2.43676848,-2.9194 c -0.11931756,-0.059 -0.15506653,-0.23526 -0.0678792,-0.33456 0.0712976,-0.0812 0.0484665,-0.0782 0.62873908,-0.0845 l 0.5229808,-0.006 0.00569,-0.27855 0.00569,-0.27854 0.031165,-0.053 c 0.017141,-0.0292 0.050395,-0.065 0.073899,-0.0796 l 0.042735,-0.0265 h 0.8015249 0.8015245 l 0.042736,0.0265 c 0.023503,0.0146 0.056758,0.0504 0.073899,0.0796 l 0.031164,0.053 0.00569,0.27854 0.00569,0.27855 0.5229808,0.006 c 0.5802721,0.006 0.5574417,0.003 0.6287388,0.0845 0.087545,0.0997 0.051161,0.27676 -0.068805,0.33484 l -0.049816,0.0241 -1.9945383,-10e-6 -1.9945381,-1e-5 z m 2.54234588,-0.5496 c 0.0028,-0.1076 5.345e-4,-0.12691 -0.016385,-0.13928 -0.025348,-0.0185 -0.9253475,-0.021 -0.959679,-0.002 -0.019657,0.0105 -0.021991,0.0248 -0.021991,0.13454 0,0.0675 0.00346,0.12622 0.0077,0.13046 0.00423,0.004 0.2280642,0.006 0.4974001,0.005 l 0.4897012,-0.003 z"
       style="fill:#cdd2d4;fill-opacity:1;stroke-width:0.01136915" />
    <path
       style="fill:#cdd2d4;fill-opacity:1;stroke-width:0.01029276"
       d="m 0.43651668,303.43546 c -0.1014545,-0.0273 -0.19129829,-0.12244 -0.21263635,-0.22522 -0.007803,-0.0376 -0.0104169,-0.3076 -0.008388,-0.87222 0.002829,-0.81198 0.003024,-0.81811 0.0249889,-0.86563 0.0284709,-0.0615 0.0957125,-0.12855 0.15646705,-0.15582 0.037454,-0.0168 0.075123,-0.0224 0.1733126,-0.0259 0.1131657,-0.004 0.1299986,-0.002 0.1717842,0.0179 0.034401,0.0167 0.051782,0.0337 0.067534,0.0662 0.020941,0.0433 0.021204,0.0556 0.021204,0.99453 0,0.93893 -2.634e-4,0.95127 -0.021204,0.99453 -0.032489,0.0671 -0.081209,0.0864 -0.2162063,0.0855 -0.059068,-3.9e-4 -0.1296357,-0.007 -0.1568152,-0.0139 z m 2.66172802,-0.006 c -0.03048,-0.0155 -0.049441,-0.0349 -0.064325,-0.0656 -0.020814,-0.043 -0.021107,-0.0568 -0.021107,-0.99434 0,-0.93893 2.555e-4,-0.95126 0.021204,-0.99453 0.015742,-0.0325 0.033133,-0.0496 0.067534,-0.0662 0.041785,-0.0202 0.058619,-0.0219 0.1717851,-0.0179 0.098187,0.004 0.1358615,0.009 0.1733116,0.0259 0.060755,0.0273 0.1279952,0.0942 0.1564671,0.15583 0.022073,0.0477 0.022121,0.0499 0.022121,0.897 0,0.8471 0,0.84927 -0.022121,0.897 -0.028461,0.0616 -0.095683,0.12854 -0.1564671,0.15588 -0.038195,0.0172 -0.073825,0.0223 -0.1765127,0.0254 -0.1155525,0.003 -0.1330603,0.002 -0.1718808,-0.0182 z m -3.43976196,-0.29913 c -0.17670101,-0.0347 -0.32690136,-0.188 -0.36114837,-0.36858 -0.0143379,-0.0756 -0.0138794,-1.38956 5.3938e-4,-1.54503 0.0459299,-0.4954 0.22224177,-0.9501 0.52563879,-1.35564 0.0910698,-0.12173 0.35139277,-0.38563 0.47200634,-0.4785 0.2833582,-0.21817 0.5985581,-0.37767 0.92120202,-0.46614 0.8153143,-0.22358 1.6530621,-0.0561 2.3313094,0.46614 0.1206146,0.0929 0.3809317,0.35677 0.4720064,0.4785 0.303397,0.40554 0.4797079,0.86024 0.5256388,1.35564 0.014416,0.15547 0.014874,1.46944 5.394e-4,1.54503 -0.035055,0.18486 -0.1843489,0.33415 -0.369202,0.36921 -0.03047,0.006 -0.096454,0.0105 -0.1466276,0.0105 h -0.091226 v -0.77196 -0.77195 l 0.095205,1.4e-4 c 0.052367,1.1e-4 0.1218416,0.007 0.1543925,0.014 l 0.059185,0.0139 v -0.14611 c 0,-0.57965 -0.1807829,-1.08428 -0.544594,-1.52015 -0.4343563,-0.52037 -1.1018707,-0.83218 -1.7815694,-0.83218 -0.6796977,0 -1.34721302,0.31181 -1.78156937,0.83218 -0.3638121,0.43587 -0.54459403,0.9405 -0.54459403,1.52015 v 0.14611 l 0.0591851,-0.0139 c 0.0325479,-0.008 0.10202707,-0.014 0.15439149,-0.014 l 0.0952054,-1.4e-4 v 0.77195 0.77196 l -0.10035432,-9.7e-4 c -0.0551959,-6.2e-4 -0.12069556,-0.005 -0.14555664,-0.0101 z"
       id="path2923"
       inkscape:connector-curvature="0" />
    <path
       style="fill:#cdd2d4;fill-opacity:1;stroke-width:0.00973606"
       d="m 1.9446427,296.82089 0.00264,-0.16795 0.1436068,-0.003 0.1436068,-0.003 v -0.27978 -0.27977 l -0.065719,-0.0187 c -0.1628894,-0.0463 -0.3545047,-0.14103 -0.4989728,-0.24658 -0.1113313,-0.0813 -0.2961587,-0.27363 -0.3720865,-0.38712 -0.078563,-0.11743 -0.1719728,-0.30966 -0.2056329,-0.42319 -0.064511,-0.21759 -0.074597,-0.32866 -0.074597,-0.82151 v -0.39107 l -0.0714186,-0.0596 c -0.0778477,-0.065 -0.12917548,-0.1334 -0.13889037,-0.18519 -0.0128984,-0.0688 0.0423962,-0.15764 0.14507209,-0.23321 l 0.0576425,-0.0425 h 0.1587518 0.1587518 l 0.00425,0.70344 c 0.00414,0.68178 0.00491,0.70642 0.025797,0.80079 0.075009,0.33908 0.2502507,0.60795 0.5225108,0.8017 0.3996746,0.28442 0.9380772,0.31136 1.3630357,0.0682 0.369391,-0.21136 0.6033858,-0.56997 0.6461132,-0.99022 0.00605,-0.0595 0.010254,-0.36352 0.010254,-0.74238 v -0.64155 h 0.159679 0.1596799 l 0.059814,0.045 c 0.1103679,0.083 0.1604168,0.17226 0.1381709,0.24651 -0.015383,0.0514 -0.074438,0.12422 -0.1466244,0.18093 l -0.059166,0.0465 -1.807e-4,0.42451 c -2.138e-4,0.50749 -0.00737,0.58035 -0.079435,0.80846 -0.1215032,0.38462 -0.4035671,0.72066 -0.7674243,0.91428 -0.099387,0.0529 -0.2362946,0.10819 -0.318856,0.12878 l -0.051113,0.0127 v 0.28025 0.28024 l 0.1436067,0.003 0.1436067,0.003 0.00264,0.16795 0.00264,0.16794 H 2.6141463 1.9418985 Z m 0.5154031,-1.48772 c -0.079948,-0.0143 -0.1935838,-0.055 -0.2742058,-0.0983 -0.2060615,-0.11067 -0.3599612,-0.30138 -0.4348337,-0.53884 l -0.02763,-0.0876 v -0.93467 -0.93466 l 0.026837,-0.0855 c 0.098836,-0.31509 0.3276247,-0.53475 0.6483906,-0.62252 0.1063732,-0.0291 0.3248648,-0.0291 0.4312381,0 0.3193829,0.0874 0.549989,0.30875 0.6483367,0.62233 l 0.026894,0.0857 v 0.93466 0.93467 l -0.027417,0.0876 c -0.077573,0.24792 -0.2386605,0.44075 -0.4593856,0.54992 -0.14104,0.0697 -0.2169591,0.0886 -0.3748382,0.0929 -0.07229,0.002 -0.1548154,-5.2e-4 -0.1833891,-0.006 z"
       id="path3581"
       inkscape:connector-curvature="0" />
  </g>
</svg>
