<?xml version="1.0" encoding="UTF-8" standalone="no"?>
<!-- Created with Inkscape (http://www.inkscape.org/) -->

<svg
   xmlns:dc="http://purl.org/dc/elements/1.1/"
   xmlns:cc="http://creativecommons.org/ns#"
   xmlns:rdf="http://www.w3.org/1999/02/22-rdf-syntax-ns#"
   xmlns:svg="http://www.w3.org/2000/svg"
   xmlns="http://www.w3.org/2000/svg"
   xmlns:sodipodi="http://sodipodi.sourceforge.net/DTD/sodipodi-0.dtd"
   xmlns:inkscape="http://www.inkscape.org/namespaces/inkscape"
   width="20"
   height="20"
   viewBox="0 0 5.2916665 5.2916668"
   version="1.1"
   id="svg980"
   inkscape:version="0.92.5 (2060ec1f9f, 2020-04-08)"
   sodipodi:docname="use-head.svg">
  <defs
     id="defs974" />
  <sodipodi:namedview
     id="base"
     pagecolor="#ffffff"
     bordercolor="#666666"
     borderopacity="1.0"
     inkscape:pageopacity="0.0"
     inkscape:pageshadow="2"
     inkscape:zoom="15.839192"
     inkscape:cx="1.7829445"
     inkscape:cy="3.9655455"
     inkscape:document-units="mm"
     inkscape:current-layer="layer1"
     showgrid="false"
     units="px"
     inkscape:window-width="1247"
     inkscape:window-height="1020"
     inkscape:window-x="1752"
     inkscape:window-y="437"
     inkscape:window-maximized="0" />
  <metadata
     id="metadata977">
    <rdf:RDF>
      <cc:Work
         rdf:about="">
        <dc:format>image/svg+xml</dc:format>
        <dc:type
           rdf:resource="http://purl.org/dc/dcmitype/StillImage" />
        <dc:title></dc:title>
      </cc:Work>
    </rdf:RDF>
  </metadata>
  <g
     inkscape:label="Layer 1"
     inkscape:groupmode="layer"
     id="layer1"
     transform="translate(0,-291.70832)">
    <path
       inkscape:connector-curvature="0"
       id="path931"
       d="m -2.1149845,303.637 c -0.2707562,-0.046 -0.5025192,-0.24564 -0.5900817,-0.50844 -0.014561,-0.0437 -0.026543,-0.0926 -0.026628,-0.10866 -1.102e-4,-0.0196 -0.003,-0.0248 -0.00877,-0.0156 -0.019231,0.0304 -0.022068,-0.21316 -0.020988,-1.80296 9.658e-4,-1.40469 0.00574,-1.85255 0.018876,-1.76556 0.0013,0.008 0.00851,-0.0124 0.016036,-0.0466 0.033663,-0.15265 0.1134216,-0.29145 0.227137,-0.39525 0.084681,-0.0772 0.159393,-0.12182 0.2722807,-0.1622 l 0.090671,-0.0324 0.8369798,-0.003 c 0.934803,-0.004 0.8999481,-0.006 0.9717144,0.0679 0.092451,0.0949 0.094383,0.23813 0.00448,0.33185 -0.070559,0.0736 -0.00728,0.0685 -0.9127912,0.0742 -0.8016884,0.006 -0.8184924,0.006 -0.8642722,0.0268 -0.056244,0.0261 -0.1064477,0.0744 -0.1374095,0.13224 l -0.022886,0.0428 -0.00271,1.72266 c -0.00304,1.92946 -0.00822,1.79282 0.071341,1.87914 0.022945,0.0249 0.063461,0.056 0.090035,0.0691 l 0.048315,0.0238 h 1.4799328 1.4799332 l 0.048856,-0.0243 c 0.026868,-0.0133 0.065745,-0.043 0.086386,-0.0659 0.073285,-0.0811 0.071177,-0.0648 0.076917,-0.59294 0.00577,-0.53142 0.00211,-0.50543 0.081391,-0.57706 0.062736,-0.0566 0.1444631,-0.0731 0.2330585,-0.0468 0.056012,0.0166 0.1323297,0.093 0.1489633,0.14898 0.00914,0.0308 0.012648,0.16969 0.012648,0.49978 0,0.52445 -0.00366,0.55795 -0.077667,0.70986 -0.097658,0.20048 -0.2429558,0.32529 -0.4656646,0.40002 l -0.072445,0.0243 -1.5213293,0.002 c -0.8367309,7.3e-4 -1.5442659,-0.003 -1.5722987,-0.007 z m 1.0107413,-1.39971 c -0.050871,-0.019 -0.1032748,-0.0651 -0.1292745,-0.11381 -0.022974,-0.0429 -0.02326,-0.0485 -0.02326,-0.44714 0,-0.35078 0.00248,-0.41514 0.018792,-0.49159 0.042474,-0.19882 0.1130615,-0.36116 0.2308695,-0.53093 0.044758,-0.0645 0.2837568,-0.30988 0.9964484,-1.02308 1.0009113,-1.00164 1.0066261,-1.00686 1.1793338,-1.07934 0.4740027,-0.19889 1.0184977,7.5e-4 1.2471987,0.45704 0.041321,0.0825 0.089196,0.23562 0.089443,0.28615 1.099e-4,0.0223 0.00297,0.0281 0.00912,0.0183 0.012016,-0.0189 0.01864,0.10664 0.01057,0.20041 -0.00344,0.0398 -0.0073,0.0655 -0.00859,0.0569 -0.00129,-0.008 -0.010718,0.0241 -0.020936,0.0725 -0.010218,0.0484 -0.033285,0.12328 -0.051259,0.16644 -0.074449,0.17876 -0.070237,0.17415 -1.0866132,1.19032 -0.7255548,0.72542 -0.9681776,0.96186 -1.0334577,1.00712 -0.1470275,0.10196 -0.3189611,0.17738 -0.4994203,0.21908 -0.065156,0.0151 -0.1432522,0.0185 -0.4864119,0.0211 -0.3029259,0.002 -0.4175322,-1.1e-4 -0.4425419,-0.01 z m 0.7976082,-0.47811 c 0.1125522,-0.0196 0.2034315,-0.0527 0.2990657,-0.10861 0.063969,-0.0374 0.1698348,-0.1383 0.693849,-0.66101 0.3400993,-0.33925 0.6183629,-0.62154 0.6183629,-0.62731 0,-0.0137 -0.6641968,-0.67813 -0.6779296,-0.67813 -0.017405,0 -1.2208286,1.21201 -1.2570116,1.26598 -0.051294,0.0765 -0.1100295,0.21059 -0.1300038,0.29674 -0.022793,0.0983 -0.034701,0.47075 -0.016158,0.5054 0.011613,0.0217 0.017874,0.0224 0.1965621,0.0224 0.1172963,0 0.2168931,-0.006 0.2732636,-0.0154 z m 2.1218082,-1.89809 c 0.1145052,-0.11633 0.1476975,-0.15692 0.1735467,-0.21216 0.042593,-0.0911 0.057606,-0.19007 0.042563,-0.28084 -0.057416,-0.34651 -0.4447308,-0.5252 -0.7380883,-0.34053 -0.059594,0.0375 -0.3093759,0.2828 -0.3093759,0.30381 0,0.0213 0.6520848,0.67357 0.6734101,0.67357 0.009,0 0.080071,-0.0647 0.1579444,-0.14385 z"
       style="fill:#cdd2d4;fill-opacity:1;stroke-width:0.01034918" />
    <path
       style="fill:#cdd2d4;fill-opacity:1;stroke:#cdd2d4;stroke-width:0.01;stroke-miterlimit:4;stroke-dasharray:none;stroke-opacity:1"
       d="m 1.2607248,296.98471 c -0.2213672,-0.0327 -0.36744523,-0.1039 -0.51620513,-0.25109 -0.2121497,-0.20998 -0.27511,-0.44578 -0.2417285,-0.90533 0.021914,-0.30167 0.076596,-0.58357 0.1524979,-0.7862 0.044688,-0.1193 0.1416613,-0.30129 0.2030262,-0.38105 0.18677003,-0.24271 0.45051633,-0.37762 0.74942643,-0.38332 0.1118229,-0.002 0.1216217,0.002 0.3565496,0.15136 0.1784543,0.11344 0.1870668,0.11799 0.3102782,0.16368 0.1719744,0.0638 0.2573797,0.08 0.4199041,0.0795 0.2524657,-7.1e-4 0.4502524,-0.0675 0.727096,-0.24562 0.2416005,-0.15541 0.2566432,-0.16074 0.4121777,-0.14601 0.5537189,0.0525 0.8917064,0.47334 1.0156748,1.26476 0.043646,0.27863 0.046989,0.65508 0.00714,0.80758 -0.080142,0.30693 -0.3096064,0.52909 -0.6338215,0.61369 l -0.092595,0.0241 -1.404288,10e-4 c -0.7723588,8.4e-4 -1.4316788,-0.002 -1.4651566,-0.008 z m 2.8575289,-0.31248 c 0.170438,-0.0304 0.3188568,-0.1334 0.3905293,-0.27109 0.049198,-0.0945 0.068925,-0.19146 0.068812,-0.33826 -2.91e-4,-0.40714 -0.072936,-0.79741 -0.1930053,-1.03703 -0.1342213,-0.26788 -0.3035988,-0.40185 -0.5518809,-0.43652 -0.08293,-0.0116 -0.062376,-0.0201 -0.2669654,0.11013 -0.1787898,0.11378 -0.2786824,0.162 -0.4397612,0.21227 -0.1597373,0.0499 -0.2751224,0.0678 -0.4356472,0.0678 -0.1651475,0 -0.2898875,-0.0201 -0.4490479,-0.0721 -0.1694838,-0.0554 -0.2505188,-0.0955 -0.4446164,-0.21977 l -0.1708469,-0.10934 -0.074964,0.0102 c -0.2862378,0.04 -0.4824814,0.22104 -0.60770403,0.56054 -0.092549,0.2509 -0.1553012,0.70304 -0.1377816,0.99277 0.017902,0.29602 0.1875654,0.48564 0.47846133,0.53472 0.026423,0.005 0.6568171,0.008 1.4008842,0.009 1.1160229,7.2e-4 1.3669725,-10e-4 1.4335245,-0.0135 z m -1.5672655,-2.4138 c -0.4058189,-0.0279 -0.7805905,-0.26564 -0.9956613,-0.63174 -0.1868016,-0.31796 -0.2170989,-0.75666 -0.076176,-1.10295 0.1513478,-0.37191 0.493351,-0.6692 0.8712215,-0.75732 0.4515554,-0.10527 0.8851663,0.0167 1.2046961,0.33874 0.2203736,0.22216 0.3387093,0.4763 0.3626819,0.77888 0.024066,0.30375 -0.041595,0.56776 -0.2025367,0.81434 -0.061424,0.0942 -0.2647344,0.29764 -0.3569645,0.35735 -0.2449983,0.15861 -0.5035893,0.22353 -0.807264,0.2027 z m 0.2044538,-0.30789 c 0.1223922,-0.0129 0.2031973,-0.0339 0.2964855,-0.0769 0.2621861,-0.121 0.4641833,-0.35894 0.5342163,-0.62926 0.02129,-0.0821 0.026333,-0.12637 0.026842,-0.23494 7.253e-4,-0.15332 -0.011353,-0.22926 -0.056099,-0.35292 -0.085774,-0.23704 -0.3274293,-0.47624 -0.5701257,-0.56434 -0.1648256,-0.0598 -0.3991485,-0.0699 -0.5746671,-0.0248 -0.3183106,0.0818 -0.5989171,0.36198 -0.6859484,0.68492 -0.031953,0.11854 -0.032394,0.36473 -8.678e-4,0.48487 0.043805,0.16697 0.1126614,0.28658 0.2439958,0.42383 0.1630366,0.17038 0.3505069,0.26447 0.5765673,0.28938 0.1032568,0.0114 0.1036081,0.0114 0.2095979,2.9e-4 z"
       id="path1448"
       inkscape:connector-curvature="0" />
  </g>
</svg>
