<?xml version="1.0" encoding="UTF-8" standalone="no"?>
<!-- Created with Inkscape (http://www.inkscape.org/) -->

<svg
   xmlns:dc="http://purl.org/dc/elements/1.1/"
   xmlns:cc="http://creativecommons.org/ns#"
   xmlns:rdf="http://www.w3.org/1999/02/22-rdf-syntax-ns#"
   xmlns:svg="http://www.w3.org/2000/svg"
   xmlns="http://www.w3.org/2000/svg"
   xmlns:sodipodi="http://sodipodi.sourceforge.net/DTD/sodipodi-0.dtd"
   xmlns:inkscape="http://www.inkscape.org/namespaces/inkscape"
   width="20"
   height="20"
   viewBox="0 0 5.2916665 5.2916668"
   version="1.1"
   id="svg980"
   inkscape:version="0.92.5 (2060ec1f9f, 2020-04-08)"
   sodipodi:docname="use.svg">
  <defs
     id="defs974" />
  <sodipodi:namedview
     id="base"
     pagecolor="#ffffff"
     bordercolor="#666666"
     borderopacity="1.0"
     inkscape:pageopacity="0.0"
     inkscape:pageshadow="2"
     inkscape:zoom="15.839192"
     inkscape:cx="3.8032496"
     inkscape:cy="4.1549491"
     inkscape:document-units="mm"
     inkscape:current-layer="layer1"
     showgrid="false"
     units="px"
     inkscape:window-width="1247"
     inkscape:window-height="1020"
     inkscape:window-x="1752"
     inkscape:window-y="437"
     inkscape:window-maximized="0" />
  <metadata
     id="metadata977">
    <rdf:RDF>
      <cc:Work
         rdf:about="">
        <dc:format>image/svg+xml</dc:format>
        <dc:type
           rdf:resource="http://purl.org/dc/dcmitype/StillImage" />
        <dc:title></dc:title>
      </cc:Work>
    </rdf:RDF>
  </metadata>
  <g
     inkscape:label="Layer 1"
     inkscape:groupmode="layer"
     id="layer1"
     transform="translate(0,-291.70832)">
    <path
       inkscape:connector-curvature="0"
       id="path931"
       d="m -0.31091517,302.5011 c -0.27075626,-0.046 -0.50251923,-0.24564 -0.5900817,-0.50844 -0.0145606,-0.0437 -0.026543,-0.0926 -0.0266285,-0.10866 -1.102e-4,-0.0196 -0.002999,-0.0248 -0.008775,-0.0156 -0.0192314,0.0304 -0.0220681,-0.21316 -0.0209882,-1.80296 9.658e-4,-1.40469 0.00574,-1.85255 0.0188763,-1.76556 0.001297,0.008 0.008508,-0.0124 0.016036,-0.0466 0.0336632,-0.15265 0.11342164,-0.29145 0.22713696,-0.39525 0.0846805,-0.0772 0.15939308,-0.12182 0.27228076,-0.1622 l 0.0906712,-0.0324 0.83697977,-0.003 c 0.93480299,-0.004 0.89994809,-0.006 0.97171439,0.0679 0.092451,0.0949 0.094383,0.23813 0.00448,0.33185 -0.070559,0.0736 -0.00728,0.0685 -0.91279119,0.0742 -0.80168836,0.006 -0.81849237,0.006 -0.86427221,0.0268 -0.0562436,0.0261 -0.10644764,0.0744 -0.13740944,0.13224 l -0.0228858,0.0428 -0.002705,1.72266 c -0.003035,1.92946 -0.008223,1.79282 0.0713413,1.87914 0.0229447,0.0249 0.0634613,0.056 0.0900346,0.0691 l 0.0483148,0.0238 H 1.2303466 2.7102798 l 0.048856,-0.0243 c 0.026868,-0.0133 0.065745,-0.043 0.086386,-0.0659 0.073285,-0.0811 0.071177,-0.0648 0.076917,-0.59294 0.00577,-0.53142 0.00211,-0.50543 0.081391,-0.57706 0.062736,-0.0566 0.1444631,-0.0731 0.2330585,-0.0468 0.056012,0.0166 0.1323297,0.093 0.1489633,0.14898 0.00914,0.0308 0.012648,0.16969 0.012648,0.49978 0,0.52445 -0.00366,0.55795 -0.077667,0.70986 -0.097658,0.20048 -0.2429558,0.32529 -0.4656646,0.40002 l -0.072445,0.0243 -1.5213293,0.002 c -0.83673089,7.3e-4 -1.54426592,-0.003 -1.57229868,-0.007 z m 1.01074128,-1.39971 c -0.050871,-0.019 -0.1032748,-0.0651 -0.1292745,-0.11381 -0.022974,-0.0429 -0.02326,-0.0485 -0.02326,-0.44714 0,-0.35078 0.00248,-0.41514 0.018792,-0.49159 0.042474,-0.19882 0.1130615,-0.36116 0.2308695,-0.53093 0.044758,-0.0645 0.28375679,-0.30988 0.99644839,-1.02308 1.0009113,-1.00164 1.0066261,-1.00686 1.1793338,-1.07934 0.4740027,-0.19889 1.0184977,7.5e-4 1.2471987,0.45704 0.041321,0.0825 0.089196,0.23562 0.089443,0.28615 1.099e-4,0.0223 0.00297,0.0281 0.00912,0.0183 0.012016,-0.0189 0.01864,0.10664 0.01057,0.20041 -0.00344,0.0398 -0.0073,0.0655 -0.00859,0.0569 -0.00129,-0.008 -0.010718,0.0241 -0.020936,0.0725 -0.010218,0.0484 -0.033285,0.12328 -0.051259,0.16644 -0.074449,0.17876 -0.070237,0.17415 -1.0866132,1.19032 -0.7255548,0.72542 -0.9681776,0.96186 -1.0334577,1.00712 -0.1470275,0.10196 -0.3189611,0.17738 -0.4994203,0.21908 -0.065156,0.0151 -0.1432522,0.0185 -0.4864119,0.0211 -0.30292589,0.002 -0.41753219,-1.1e-4 -0.44254189,-0.01 z m 0.79760819,-0.47811 c 0.1125522,-0.0196 0.2034315,-0.0527 0.2990657,-0.10861 0.063969,-0.0374 0.1698348,-0.1383 0.693849,-0.66101 0.3400993,-0.33925 0.6183629,-0.62154 0.6183629,-0.62731 0,-0.0137 -0.6641968,-0.67813 -0.6779296,-0.67813 -0.017405,0 -1.2208286,1.21201 -1.2570116,1.26598 -0.051294,0.0765 -0.1100295,0.21059 -0.1300038,0.29674 -0.022793,0.0983 -0.034701,0.47075 -0.016158,0.5054 0.011613,0.0217 0.017874,0.0224 0.1965621,0.0224 0.1172963,0 0.2168931,-0.006 0.2732636,-0.0154 z m 2.1218082,-1.89809 c 0.1145052,-0.11633 0.1476975,-0.15692 0.1735467,-0.21216 0.042593,-0.0911 0.057606,-0.19007 0.042563,-0.28084 -0.057416,-0.34651 -0.4447308,-0.5252 -0.7380883,-0.34053 -0.059594,0.0375 -0.3093759,0.2828 -0.3093759,0.30381 0,0.0213 0.6520848,0.67357 0.6734101,0.67357 0.009,0 0.080071,-0.0647 0.1579444,-0.14385 z"
       style="fill:#cdd2d4;fill-opacity:1;stroke-width:0.01034918" />
    <path
       style="fill:#cdd2d4;fill-opacity:1;stroke:#cdd2d4;stroke-width:0.20104107;stroke-miterlimit:4;stroke-dasharray:none;stroke-opacity:1"
       d="m 1.3070693,296.87299 c -0.2119233,-0.0313 -0.3517694,-0.0995 -0.49418298,-0.24038 -0.20309907,-0.20102 -0.26337339,-0.42676 -0.231416,-0.86671 0.0209791,-0.2888 0.0733283,-0.55867 0.14599211,-0.75266 0.0427815,-0.11421 0.13561782,-0.28843 0.1943648,-0.36479 0.17880207,-0.23236 0.43129657,-0.36151 0.71745477,-0.36697 0.1070523,-0.002 0.1164331,0.002 0.3413386,0.14491 0.1708412,0.1086 0.1790863,0.11295 0.2970413,0.15669 0.1646377,0.0611 0.2463995,0.0766 0.4019903,0.0761 0.2416952,-6.8e-4 0.431044,-0.0646 0.696077,-0.23514 0.2312935,-0.14878 0.2456944,-0.15388 0.3945936,-0.13978 0.5300964,0.0503 0.8536648,0.45315 0.9723445,1.2108 0.041784,0.26675 0.044984,0.62714 0.00684,0.77313 -0.076723,0.29384 -0.2963981,0.50652 -0.6067816,0.58751 l -0.088645,0.0231 -1.3443789,9.6e-4 c -0.7394089,8e-4 -1.3706013,-0.002 -1.4026509,-0.008 z m 2.7356224,-0.29915 c 0.1631669,-0.0291 0.3052538,-0.12771 0.3738687,-0.25952 0.047099,-0.0905 0.065984,-0.1833 0.065876,-0.32383 -2.786e-4,-0.38977 -0.069825,-0.7634 -0.1847714,-0.99279 -0.1284952,-0.25645 -0.2906468,-0.38471 -0.5283368,-0.4179 -0.079392,-0.0111 -0.059715,-0.0192 -0.2555762,0.10543 -0.1711624,0.10893 -0.2667934,0.15509 -0.4210004,0.20322 -0.1529226,0.0478 -0.2633852,0.0649 -0.4170618,0.0649 -0.1581021,0 -0.2775205,-0.0192 -0.4298908,-0.069 -0.1622534,-0.053 -0.2398313,-0.0914 -0.4256484,-0.2104 l -0.1635584,-0.10467 -0.071766,0.01 c -0.2740264,0.0383 -0.461898,0.21161 -0.5817784,0.53663 -0.0886007,0.2402 -0.14867581,0.67305 -0.13190362,0.95042 0.0171383,0.28339 0.17956352,0.46492 0.45804942,0.51191 0.025296,0.005 0.6287963,0.008 1.3411204,0.009 1.0684116,6.9e-4 1.3086554,-9.6e-4 1.3723681,-0.0129 z m -1.5004036,-2.31082 c -0.388506,-0.0267 -0.7472893,-0.25431 -0.9531848,-0.60479 -0.1788324,-0.3044 -0.2078372,-0.72438 -0.072926,-1.0559 0.1448911,-0.35604 0.4723039,-0.64065 0.8340539,-0.72501 0.4322914,-0.10078 0.8474038,0.016 1.153302,0.32429 0.2109721,0.21268 0.3242594,0.45598 0.3472093,0.74565 0.023039,0.29079 -0.03982,0.54354 -0.1938962,0.7796 -0.058804,0.0902 -0.2534404,0.28494 -0.3417358,0.3421 -0.2345463,0.15185 -0.4821054,0.214 -0.7728249,0.19406 z m 0.1957315,-0.29476 c 0.1171708,-0.0123 0.1945286,-0.0324 0.283837,-0.0736 0.2510009,-0.11584 0.4443806,-0.34362 0.5114258,-0.60241 0.020382,-0.0786 0.02521,-0.12098 0.025697,-0.22492 6.944e-4,-0.14678 -0.010869,-0.21948 -0.053706,-0.33786 -0.082115,-0.22693 -0.3134607,-0.45593 -0.5458033,-0.54027 -0.1577939,-0.0573 -0.3821202,-0.0669 -0.5501509,-0.0237 -0.304731,0.0783 -0.5733664,0.34654 -0.6566848,0.6557 -0.03059,0.11348 -0.031012,0.34917 -8.308e-4,0.46418 0.041936,0.15985 0.1078551,0.27436 0.2335866,0.40575 0.1560812,0.16312 0.3355537,0.25319 0.55197,0.27704 0.098852,0.0109 0.099188,0.0109 0.2006562,2.8e-4 z"
       id="path1448"
       inkscape:connector-curvature="0" />
  </g>
</svg>
