<?xml version="1.0" encoding="UTF-8" standalone="no"?>
<!-- Created with Inkscape (http://www.inkscape.org/) -->

<svg
   xmlns:dc="http://purl.org/dc/elements/1.1/"
   xmlns:cc="http://creativecommons.org/ns#"
   xmlns:rdf="http://www.w3.org/1999/02/22-rdf-syntax-ns#"
   xmlns:svg="http://www.w3.org/2000/svg"
   xmlns="http://www.w3.org/2000/svg"
   xmlns:sodipodi="http://sodipodi.sourceforge.net/DTD/sodipodi-0.dtd"
   xmlns:inkscape="http://www.inkscape.org/namespaces/inkscape"
   width="20"
   height="20"
   viewBox="0 0 5.2916665 5.2916668"
   version="1.1"
   id="svg980"
   inkscape:version="0.92.5 (2060ec1f9f, 2020-04-08)"
   sodipodi:docname="wirting.svg">
  <defs
     id="defs974" />
  <sodipodi:namedview
     id="base"
     pagecolor="#ffffff"
     bordercolor="#666666"
     borderopacity="1.0"
     inkscape:pageopacity="0.0"
     inkscape:pageshadow="2"
     inkscape:zoom="15.839192"
     inkscape:cx="21.954623"
     inkscape:cy="-8.3797277"
     inkscape:document-units="mm"
     inkscape:current-layer="layer1"
     showgrid="false"
     units="px"
     inkscape:window-width="1080"
     inkscape:window-height="1895"
     inkscape:window-x="0"
     inkscape:window-y="0"
     inkscape:window-maximized="1" />
  <metadata
     id="metadata977">
    <rdf:RDF>
      <cc:Work
         rdf:about="">
        <dc:format>image/svg+xml</dc:format>
        <dc:type
           rdf:resource="http://purl.org/dc/dcmitype/StillImage" />
        <dc:title></dc:title>
      </cc:Work>
    </rdf:RDF>
  </metadata>
  <g
     inkscape:label="Layer 1"
     inkscape:groupmode="layer"
     id="layer1"
     transform="translate(0,-291.70832)">
    <path
       inkscape:connector-curvature="0"
       id="path931"
       d="m 0.41125122,296.97261 c -0.56941427,0.0105 -0.5333658,-0.50342 0.0646115,-0.49523 H 3.2312835 4.7901983 c 0.6501209,0.0174 0.6306462,0.50546 0.076306,0.50134 l -1.6025202,0.002 c -0.8813856,7.7e-4 -2.82319676,-0.003 -2.85272551,-0.007 z m -0.0790458,-0.665 c -0.0535859,-0.02 -0.10878639,-0.0686 -0.13617364,-0.11989 -0.0242001,-0.0452 -0.0245013,-0.0511 -0.0245013,-0.471 0,-0.3695 0.002612,-0.43729 0.0197949,-0.51782 0.0447408,-0.20943 0.11909538,-0.38044 0.24319057,-0.55927 0.0471467,-0.0679 0.29890038,-0.32642 1.04962705,-1.07768 1.0543281,-1.05509 1.0603478,-1.06059 1.2422726,-1.13694 0.4992989,-0.20951 1.0728527,7.9e-4 1.3137595,0.48143 0.043525,0.0869 0.09396,0.2482 0.094213,0.30142 1.158e-4,0.0235 0.00316,0.0296 0.00959,0.0193 0.012662,-0.0199 0.019635,0.11233 0.011134,0.2111 -0.00358,0.0419 -0.00769,0.069 -0.00906,0.0599 -0.00137,-0.008 -0.011292,0.0254 -0.022057,0.0764 -0.010765,0.051 -0.035056,0.12986 -0.053996,0.17532 -0.078423,0.1883 -0.073989,0.18345 -1.144604,1.25385 -0.7642761,0.76413 -1.0198472,1.01319 -1.0886112,1.06087 -0.1548741,0.1074 -0.3359835,0.18684 -0.5260734,0.23077 -0.068633,0.0159 -0.1508973,0.0195 -0.51237094,0.0222 -0.31909249,0.002 -0.43981512,-1.1e-4 -0.46615954,-0.0105 z m 0.84017508,-0.50363 c 0.1185589,-0.0206 0.2142883,-0.0555 0.3150263,-0.1144 0.067383,-0.0394 0.1788986,-0.14568 0.7308785,-0.69629 0.3582497,-0.35736 0.6513637,-0.65471 0.6513637,-0.66079 0,-0.0144 -0.6996437,-0.71432 -0.7141094,-0.71432 -0.018334,0 -1.28598202,1.27669 -1.32409604,1.33354 -0.0540315,0.0806 -0.11590157,0.22183 -0.13694186,0.31258 -0.0240094,0.10355 -0.0365529,0.49587 -0.0170203,0.53237 0.0122328,0.0229 0.0188279,0.0236 0.20705225,0.0236 0.12355615,0 0.22846835,-0.006 0.28784715,-0.0162 z m 2.2350453,-1.99939 c 0.1206159,-0.12253 0.1555793,-0.16529 0.1828089,-0.22348 0.044863,-0.096 0.060685,-0.20021 0.044831,-0.29583 -0.060484,-0.365 -0.4684654,-0.55322 -0.7774791,-0.3587 -0.062774,0.0395 -0.3258867,0.29789 -0.3258867,0.32002 0,0.0224 0.6868851,0.70952 0.7093482,0.70952 0.00948,0 0.084343,-0.0682 0.1663743,-0.15153 z"
       style="fill:#cdd2d4;fill-opacity:1;stroke-width:0.0109015"
       sodipodi:nodetypes="ccccccccccscccccccccsccccccccccsscccsccccccsscc" />
    <path
       inkscape:connector-curvature="0"
       id="path2204"
       d="m 1.7056807,289.10503 c -0.3717931,-0.0793 -0.6493083,-0.35981 -0.72672493,-0.73462 -0.0157964,-0.0765 -0.0179541,-0.25648 -0.0179541,-1.49754 0,-1.5305 -0.003059,-1.45324 0.0602304,-1.52208 0.035002,-0.038 0.1076464,-0.0692 0.1614677,-0.0692 0.084646,0 0.1811675,0.0643 0.2096059,0.13951 0.0083,0.0219 0.012113,0.46246 0.012158,1.4041 3.41e-5,0.82645 0.00442,1.3987 0.011027,1.43901 0.034059,0.20798 0.1971904,0.3711 0.4051653,0.40517 0.089085,0.0146 2.0343774,0.0146 2.1234625,0 0.2079747,-0.0341 0.3711061,-0.19719 0.4051658,-0.40517 0.0066,-0.0403 0.010986,-0.61256 0.011026,-1.43901 0,-0.94164 0.00386,-1.38213 0.012158,-1.4041 0.028439,-0.0752 0.1249606,-0.13951 0.2096061,-0.13951 0.053822,0 0.1264659,0.0312 0.1614681,0.0692 0.063289,0.0689 0.06023,-0.008 0.06023,1.52208 0,1.24106 -0.00216,1.42107 -0.017954,1.49754 -0.07843,0.37971 -0.3557793,0.65706 -0.7354814,0.73548 -0.1266012,0.0261 -2.2215969,0.0254 -2.3446566,-7.9e-4 z m 0.587424,-1.22207 c -0.028824,-0.0143 -0.061829,-0.0434 -0.079584,-0.0702 l -0.030336,-0.0458 -0.00304,-0.91489 c -0.00304,-0.91448 -0.00303,-0.91491 0.021273,-0.96512 0.058632,-0.12112 0.2351667,-0.1569 0.3362396,-0.0682 0.087355,0.0767 0.082741,0.0199 0.082741,1.01991 0,0.84475 -0.00113,0.89491 -0.021055,0.93796 -0.055412,0.11968 -0.1869874,0.16538 -0.3062379,0.10635 z m 0.9815178,0.009 c -0.04521,-0.021 -0.091333,-0.0713 -0.1130877,-0.12342 -0.015461,-0.037 -0.017626,-0.15299 -0.017408,-0.93227 2.836e-4,-0.99724 -0.00433,-0.94077 0.082991,-1.01744 0.1008887,-0.0886 0.2776096,-0.053 0.3360402,0.0678 0.023954,0.0495 0.024115,0.0558 0.024115,0.95217 0,0.89629 -1.591e-4,0.90268 -0.024115,0.95217 -0.034389,0.071 -0.096224,0.109 -0.1846963,0.1134 -0.042748,0.002 -0.082931,-0.002 -0.1038402,-0.0124 z m -2.43676848,-2.9194 c -0.11931756,-0.059 -0.15506653,-0.23526 -0.0678792,-0.33456 0.0712976,-0.0812 0.0484665,-0.0782 0.62873908,-0.0845 l 0.5229808,-0.006 0.00569,-0.27855 0.00569,-0.27854 0.031165,-0.053 c 0.017141,-0.0292 0.050395,-0.065 0.073899,-0.0796 l 0.042735,-0.0265 h 0.8015249 0.8015245 l 0.042736,0.0265 c 0.023503,0.0146 0.056758,0.0504 0.073899,0.0796 l 0.031164,0.053 0.00569,0.27854 0.00569,0.27855 0.5229808,0.006 c 0.5802721,0.006 0.5574417,0.003 0.6287388,0.0845 0.087545,0.0997 0.051161,0.27676 -0.068805,0.33484 l -0.049816,0.0241 -1.9945383,-10e-6 -1.9945381,-1e-5 z m 2.54234588,-0.5496 c 0.0028,-0.1076 5.345e-4,-0.12691 -0.016385,-0.13928 -0.025348,-0.0185 -0.9253475,-0.021 -0.959679,-0.002 -0.019657,0.0105 -0.021991,0.0248 -0.021991,0.13454 0,0.0675 0.00346,0.12622 0.0077,0.13046 0.00423,0.004 0.2280642,0.006 0.4974001,0.005 l 0.4897012,-0.003 z"
       style="fill:#cdd2d4;fill-opacity:1;stroke-width:0.01136915" />
  </g>
</svg>
